G04 #@! TF.GenerationSoftware,KiCad,Pcbnew,5.1.5*
G04 #@! TF.CreationDate,2020-02-23T20:52:15-06:00*
G04 #@! TF.ProjectId,m'ergo,6d276572-676f-42e6-9b69-6361645f7063,rev?*
G04 #@! TF.SameCoordinates,Original*
G04 #@! TF.FileFunction,Copper,L2,Bot*
G04 #@! TF.FilePolarity,Positive*
%FSLAX46Y46*%
G04 Gerber Fmt 4.6, Leading zero omitted, Abs format (unit mm)*
G04 Created by KiCad (PCBNEW 5.1.5) date 2020-02-23 20:52:15*
%MOMM*%
%LPD*%
G04 APERTURE LIST*
%ADD10C,1.300000*%
%ADD11C,2.250000*%
%ADD12C,2.000000*%
%ADD13C,0.100000*%
%ADD14O,1.200000X1.900000*%
%ADD15C,1.100000*%
%ADD16R,1.100000X1.800000*%
%ADD17C,0.800000*%
%ADD18C,0.381000*%
%ADD19C,0.250000*%
G04 APERTURE END LIST*
D10*
X59252855Y-27002967D03*
D11*
X59836687Y-22447816D02*
X61421605Y-21292074D01*
X66427957Y-21788829D02*
X66587231Y-21229693D01*
D12*
X68710202Y-23050899D03*
X64256079Y-19957229D03*
D10*
X96256455Y-36166667D03*
D11*
X96840287Y-31611516D02*
X98425205Y-30455774D01*
X103431557Y-30952529D02*
X103590831Y-30393393D01*
D12*
X105713802Y-32214599D03*
X101259679Y-29120929D03*
D10*
X239836408Y-52399725D03*
D11*
X238517018Y-48000921D02*
X239494830Y-46300455D01*
X244270409Y-44717996D02*
X244188493Y-44142418D01*
D12*
X246868674Y-44942682D03*
X241541321Y-43928129D03*
D10*
X199587408Y-46413325D03*
D11*
X198268018Y-42014521D02*
X199245830Y-40314055D01*
X204021409Y-38731596D02*
X203939493Y-38156018D01*
D12*
X206619674Y-38956282D03*
X201292321Y-37941729D03*
D10*
X114625455Y-41369567D03*
D11*
X115209287Y-36814416D02*
X116794205Y-35658674D01*
X121800557Y-36155429D02*
X121959831Y-35596293D01*
D12*
X124082802Y-37417499D03*
X119628679Y-34323829D03*
G04 #@! TA.AperFunction,SMDPad,CuDef*
D13*
G36*
X209320363Y-67048497D02*
G01*
X209569857Y-68222274D01*
X208689525Y-68409395D01*
X208440031Y-67235618D01*
X209320363Y-67048497D01*
G37*
G04 #@! TD.AperFunction*
G04 #@! TA.AperFunction,SMDPad,CuDef*
G36*
X206092475Y-67734605D02*
G01*
X206341969Y-68908382D01*
X205461637Y-69095503D01*
X205212143Y-67921726D01*
X206092475Y-67734605D01*
G37*
G04 #@! TD.AperFunction*
D10*
X55292055Y-45636667D03*
D11*
X55875887Y-41081516D02*
X57460805Y-39925774D01*
X62467157Y-40422529D02*
X62626431Y-39863393D01*
D12*
X64749402Y-41684599D03*
X60295279Y-38590929D03*
D10*
X167810408Y-80043925D03*
D11*
X166491018Y-75645121D02*
X167468830Y-73944655D01*
X172244409Y-72362196D02*
X172162493Y-71786618D01*
D12*
X174842674Y-72586882D03*
X169515321Y-71572329D03*
D14*
X137366000Y-39230300D03*
X144666000Y-39230300D03*
D15*
X142616000Y-39830300D03*
X141816000Y-38630300D03*
X141016000Y-39830300D03*
X140216000Y-38630300D03*
X139416000Y-39830300D03*
D14*
X144666000Y-34410300D03*
X137366000Y-34410300D03*
D10*
X163904430Y-116580519D03*
D11*
X160562403Y-113430739D02*
X160558979Y-111469185D01*
X163903523Y-107710946D02*
X163544791Y-107253440D01*
D12*
X166266028Y-106606397D03*
X161145129Y-108391446D03*
D10*
X200014408Y-96236025D03*
D11*
X198695018Y-91837221D02*
X199672830Y-90136755D01*
X204448409Y-88554296D02*
X204366493Y-87978718D01*
D12*
X207046674Y-88778982D03*
X201719321Y-87764429D03*
D10*
X180629247Y-103993259D03*
D11*
X178216321Y-100085824D02*
X178720701Y-98190224D01*
X182923986Y-95425674D02*
X182695890Y-94890910D01*
D12*
X185491869Y-94970224D03*
X180083456Y-95369062D03*
D10*
X74533855Y-94831367D03*
D11*
X75117687Y-90276216D02*
X76702605Y-89120474D01*
X81708957Y-89617229D02*
X81868231Y-89058093D01*
D12*
X83991202Y-90879299D03*
X79537079Y-87785629D03*
D10*
X112297083Y-112055621D03*
D11*
X115080272Y-108402660D02*
X117030722Y-108194218D01*
X121117973Y-111127596D02*
X121535475Y-110723008D01*
D12*
X122463420Y-113361703D03*
X120152871Y-108455446D03*
D10*
X94619430Y-100989792D03*
D11*
X96362328Y-96740961D02*
X98192368Y-96034807D01*
X102899564Y-97810374D02*
X103198126Y-97311514D01*
D12*
X104777396Y-99620129D03*
X101275744Y-95479062D03*
D10*
X243797408Y-71033425D03*
D11*
X242478018Y-66634621D02*
X243455830Y-64934155D01*
X248231409Y-63351696D02*
X248149493Y-62776118D01*
D12*
X250829674Y-63576382D03*
X245502321Y-62561829D03*
D10*
X235875408Y-33766025D03*
D11*
X234556018Y-29367221D02*
X235533830Y-27666755D01*
X240309409Y-26084296D02*
X240227493Y-25508718D01*
D12*
X242907674Y-26308982D03*
X237580321Y-25294429D03*
D10*
X223162408Y-65577925D03*
D11*
X221843018Y-61179121D02*
X222820830Y-59478655D01*
X227596409Y-57896196D02*
X227514493Y-57320618D01*
D12*
X230194674Y-58120882D03*
X224867321Y-57106329D03*
D10*
X219201408Y-46944225D03*
D11*
X217882018Y-42545421D02*
X218859830Y-40844955D01*
X223635409Y-39262496D02*
X223553493Y-38686918D01*
D12*
X226233674Y-39487182D03*
X220906321Y-38472629D03*
D10*
X215240408Y-28310525D03*
D11*
X213921018Y-23911721D02*
X214898830Y-22211255D01*
X219674409Y-20628796D02*
X219592493Y-20053218D01*
D12*
X222272674Y-20853482D03*
X216945321Y-19838929D03*
D10*
X203547408Y-65047025D03*
D11*
X202228018Y-60648221D02*
X203205830Y-58947755D01*
X207981409Y-57365296D02*
X207899493Y-56789718D01*
D12*
X210579674Y-57589982D03*
X205252321Y-56575429D03*
D10*
X195626408Y-27779625D03*
D11*
X194307018Y-23380821D02*
X195284830Y-21680355D01*
X200060409Y-20097896D02*
X199978493Y-19522318D01*
D12*
X202658674Y-20322582D03*
X197331321Y-19308029D03*
D10*
X186179408Y-74841025D03*
D11*
X184860018Y-70442221D02*
X185837830Y-68741755D01*
X190613409Y-67159296D02*
X190531493Y-66583718D01*
D12*
X193211674Y-67383982D03*
X187884321Y-66369429D03*
D10*
X182219408Y-56207325D03*
D11*
X180900018Y-51808521D02*
X181877830Y-50108055D01*
X186653409Y-48525596D02*
X186571493Y-47950018D01*
D12*
X189251674Y-48750282D03*
X183924321Y-47735729D03*
D10*
X178258408Y-37573625D03*
D11*
X176939018Y-33174821D02*
X177916830Y-31474355D01*
X182692409Y-29891896D02*
X182610493Y-29316318D01*
D12*
X185290674Y-30116582D03*
X179963321Y-29102029D03*
D10*
X163849408Y-61410225D03*
D11*
X162530018Y-57011421D02*
X163507830Y-55310955D01*
X168283409Y-53728496D02*
X168201493Y-53152918D01*
D12*
X170881674Y-53953182D03*
X165554321Y-52938629D03*
D10*
X159888408Y-42776525D03*
D11*
X158569018Y-38377721D02*
X159546830Y-36677255D01*
X164322409Y-35094796D02*
X164240493Y-34519218D01*
D12*
X166920674Y-35319482D03*
X161593321Y-34304929D03*
D10*
X106704455Y-78637067D03*
D11*
X107288287Y-74081916D02*
X108873205Y-72926174D01*
X113879557Y-73422929D02*
X114038831Y-72863793D01*
D12*
X116161802Y-74684999D03*
X111707679Y-71591329D03*
D10*
X110665455Y-60003367D03*
D11*
X111249287Y-55448216D02*
X112834205Y-54292474D01*
X117840557Y-54789229D02*
X117999831Y-54230093D01*
D12*
X120122802Y-56051299D03*
X115668679Y-52957629D03*
D10*
X88334755Y-73434067D03*
D11*
X88918587Y-68878916D02*
X90503505Y-67723174D01*
X95509857Y-68219929D02*
X95669131Y-67660793D01*
D12*
X97792102Y-69481999D03*
X93337979Y-66388329D03*
D10*
X92295455Y-54800367D03*
D11*
X92879287Y-50245216D02*
X94464205Y-49089474D01*
X99470557Y-49586229D02*
X99629831Y-49027093D01*
D12*
X101752802Y-50848299D03*
X97298679Y-47754629D03*
D10*
X70942055Y-63634767D03*
D11*
X71525887Y-59079616D02*
X73110805Y-57923874D01*
X78117157Y-58420629D02*
X78276431Y-57861493D01*
D12*
X80399402Y-59682699D03*
X75945279Y-56589029D03*
D10*
X74902755Y-45001067D03*
D11*
X75486587Y-40445916D02*
X77071505Y-39290174D01*
X82077857Y-39786929D02*
X82237131Y-39227793D01*
D12*
X84360102Y-41048999D03*
X79905979Y-37955329D03*
D10*
X78863455Y-26367367D03*
D11*
X79447287Y-21812216D02*
X81032205Y-20656474D01*
X86038557Y-21153229D02*
X86197831Y-20594093D01*
D12*
X88320802Y-22415299D03*
X83866679Y-19321629D03*
D10*
X51331355Y-64270367D03*
D11*
X51915187Y-59715216D02*
X53500105Y-58559474D01*
X58506457Y-59056229D02*
X58665731Y-58497093D01*
D12*
X60788702Y-60318299D03*
X56334579Y-57224629D03*
D10*
X30593055Y-69600167D03*
D11*
X31176887Y-65045016D02*
X32761805Y-63889274D01*
X37768157Y-64386029D02*
X37927431Y-63826893D01*
D12*
X40050402Y-65648099D03*
X35596279Y-62554429D03*
D10*
X34553755Y-50966367D03*
D11*
X35137587Y-46411216D02*
X36722505Y-45255474D01*
X41728857Y-45752229D02*
X41888131Y-45193093D01*
D12*
X44011102Y-47014299D03*
X39556979Y-43920629D03*
D10*
X38514555Y-32332667D03*
D11*
X39098387Y-27777516D02*
X40683305Y-26621774D01*
X45689657Y-27118529D02*
X45848931Y-26559393D01*
D12*
X47971902Y-28380599D03*
X43517779Y-25286929D03*
G04 #@! TA.AperFunction,SMDPad,CuDef*
D13*
G36*
X169946660Y-115970812D02*
G01*
X170795188Y-116819340D01*
X170158792Y-117455736D01*
X169310264Y-116607208D01*
X169946660Y-115970812D01*
G37*
G04 #@! TD.AperFunction*
G04 #@! TA.AperFunction,SMDPad,CuDef*
G36*
X167613208Y-118304264D02*
G01*
X168461736Y-119152792D01*
X167825340Y-119789188D01*
X166976812Y-118940660D01*
X167613208Y-118304264D01*
G37*
G04 #@! TD.AperFunction*
G04 #@! TA.AperFunction,SMDPad,CuDef*
G36*
X206216153Y-97936925D02*
G01*
X206526736Y-99096036D01*
X205657403Y-99328973D01*
X205346820Y-98169862D01*
X206216153Y-97936925D01*
G37*
G04 #@! TD.AperFunction*
G04 #@! TA.AperFunction,SMDPad,CuDef*
G36*
X203028597Y-98791027D02*
G01*
X203339180Y-99950138D01*
X202469847Y-100183075D01*
X202159264Y-99023964D01*
X203028597Y-98791027D01*
G37*
G04 #@! TD.AperFunction*
G04 #@! TA.AperFunction,SMDPad,CuDef*
G36*
X186684653Y-104221385D02*
G01*
X187284653Y-105260615D01*
X186505231Y-105710615D01*
X185905231Y-104671385D01*
X186684653Y-104221385D01*
G37*
G04 #@! TD.AperFunction*
G04 #@! TA.AperFunction,SMDPad,CuDef*
G36*
X183826769Y-105871385D02*
G01*
X184426769Y-106910615D01*
X183647347Y-107360615D01*
X183047347Y-106321385D01*
X183826769Y-105871385D01*
G37*
G04 #@! TD.AperFunction*
D16*
X120895500Y-99810500D03*
X124595500Y-93610500D03*
X124595500Y-99810500D03*
X120895500Y-93610500D03*
G04 #@! TA.AperFunction,SMDPad,CuDef*
D13*
G36*
X75831180Y-98677862D02*
G01*
X75520597Y-99836973D01*
X74651264Y-99604036D01*
X74961847Y-98444925D01*
X75831180Y-98677862D01*
G37*
G04 #@! TD.AperFunction*
G04 #@! TA.AperFunction,SMDPad,CuDef*
G36*
X79018736Y-99531964D02*
G01*
X78708153Y-100691075D01*
X77838820Y-100458138D01*
X78149403Y-99299027D01*
X79018736Y-99531964D01*
G37*
G04 #@! TD.AperFunction*
G04 #@! TA.AperFunction,SMDPad,CuDef*
G36*
X113772188Y-118511660D02*
G01*
X112923660Y-119360188D01*
X112287264Y-118723792D01*
X113135792Y-117875264D01*
X113772188Y-118511660D01*
G37*
G04 #@! TD.AperFunction*
G04 #@! TA.AperFunction,SMDPad,CuDef*
G36*
X111438736Y-116178208D02*
G01*
X110590208Y-117026736D01*
X109953812Y-116390340D01*
X110802340Y-115541812D01*
X111438736Y-116178208D01*
G37*
G04 #@! TD.AperFunction*
G04 #@! TA.AperFunction,SMDPad,CuDef*
G36*
X98257653Y-106702385D02*
G01*
X97657653Y-107741615D01*
X96878231Y-107291615D01*
X97478231Y-106252385D01*
X98257653Y-106702385D01*
G37*
G04 #@! TD.AperFunction*
G04 #@! TA.AperFunction,SMDPad,CuDef*
G36*
X95399769Y-105052385D02*
G01*
X94799769Y-106091615D01*
X94020347Y-105641615D01*
X94620347Y-104602385D01*
X95399769Y-105052385D01*
G37*
G04 #@! TD.AperFunction*
G04 #@! TA.AperFunction,SMDPad,CuDef*
G36*
X250214363Y-73144497D02*
G01*
X250463857Y-74318274D01*
X249583525Y-74505395D01*
X249334031Y-73331618D01*
X250214363Y-73144497D01*
G37*
G04 #@! TD.AperFunction*
G04 #@! TA.AperFunction,SMDPad,CuDef*
G36*
X246986475Y-73830605D02*
G01*
X247235969Y-75004382D01*
X246355637Y-75191503D01*
X246106143Y-74017726D01*
X246986475Y-73830605D01*
G37*
G04 #@! TD.AperFunction*
G04 #@! TA.AperFunction,SMDPad,CuDef*
G36*
X246023363Y-54475497D02*
G01*
X246272857Y-55649274D01*
X245392525Y-55836395D01*
X245143031Y-54662618D01*
X246023363Y-54475497D01*
G37*
G04 #@! TD.AperFunction*
G04 #@! TA.AperFunction,SMDPad,CuDef*
G36*
X242795475Y-55161605D02*
G01*
X243044969Y-56335382D01*
X242164637Y-56522503D01*
X241915143Y-55348726D01*
X242795475Y-55161605D01*
G37*
G04 #@! TD.AperFunction*
G04 #@! TA.AperFunction,SMDPad,CuDef*
G36*
X241832363Y-35679497D02*
G01*
X242081857Y-36853274D01*
X241201525Y-37040395D01*
X240952031Y-35866618D01*
X241832363Y-35679497D01*
G37*
G04 #@! TD.AperFunction*
G04 #@! TA.AperFunction,SMDPad,CuDef*
G36*
X238604475Y-36365605D02*
G01*
X238853969Y-37539382D01*
X237973637Y-37726503D01*
X237724143Y-36552726D01*
X238604475Y-36365605D01*
G37*
G04 #@! TD.AperFunction*
G04 #@! TA.AperFunction,SMDPad,CuDef*
G36*
X229005363Y-67556497D02*
G01*
X229254857Y-68730274D01*
X228374525Y-68917395D01*
X228125031Y-67743618D01*
X229005363Y-67556497D01*
G37*
G04 #@! TD.AperFunction*
G04 #@! TA.AperFunction,SMDPad,CuDef*
G36*
X225777475Y-68242605D02*
G01*
X226026969Y-69416382D01*
X225146637Y-69603503D01*
X224897143Y-68429726D01*
X225777475Y-68242605D01*
G37*
G04 #@! TD.AperFunction*
G04 #@! TA.AperFunction,SMDPad,CuDef*
G36*
X225068363Y-48379497D02*
G01*
X225317857Y-49553274D01*
X224437525Y-49740395D01*
X224188031Y-48566618D01*
X225068363Y-48379497D01*
G37*
G04 #@! TD.AperFunction*
G04 #@! TA.AperFunction,SMDPad,CuDef*
G36*
X221840475Y-49065605D02*
G01*
X222089969Y-50239382D01*
X221209637Y-50426503D01*
X220960143Y-49252726D01*
X221840475Y-49065605D01*
G37*
G04 #@! TD.AperFunction*
G04 #@! TA.AperFunction,SMDPad,CuDef*
G36*
X220877363Y-29583497D02*
G01*
X221126857Y-30757274D01*
X220246525Y-30944395D01*
X219997031Y-29770618D01*
X220877363Y-29583497D01*
G37*
G04 #@! TD.AperFunction*
G04 #@! TA.AperFunction,SMDPad,CuDef*
G36*
X217649475Y-30269605D02*
G01*
X217898969Y-31443382D01*
X217018637Y-31630503D01*
X216769143Y-30456726D01*
X217649475Y-30269605D01*
G37*
G04 #@! TD.AperFunction*
G04 #@! TA.AperFunction,SMDPad,CuDef*
G36*
X205764363Y-48252497D02*
G01*
X206013857Y-49426274D01*
X205133525Y-49613395D01*
X204884031Y-48439618D01*
X205764363Y-48252497D01*
G37*
G04 #@! TD.AperFunction*
G04 #@! TA.AperFunction,SMDPad,CuDef*
G36*
X202536475Y-48938605D02*
G01*
X202785969Y-50112382D01*
X201905637Y-50299503D01*
X201656143Y-49125726D01*
X202536475Y-48938605D01*
G37*
G04 #@! TD.AperFunction*
G04 #@! TA.AperFunction,SMDPad,CuDef*
G36*
X201319363Y-29837497D02*
G01*
X201568857Y-31011274D01*
X200688525Y-31198395D01*
X200439031Y-30024618D01*
X201319363Y-29837497D01*
G37*
G04 #@! TD.AperFunction*
G04 #@! TA.AperFunction,SMDPad,CuDef*
G36*
X198091475Y-30523605D02*
G01*
X198340969Y-31697382D01*
X197460637Y-31884503D01*
X197211143Y-30710726D01*
X198091475Y-30523605D01*
G37*
G04 #@! TD.AperFunction*
G04 #@! TA.AperFunction,SMDPad,CuDef*
G36*
X188820475Y-77894605D02*
G01*
X189069969Y-79068382D01*
X188189637Y-79255503D01*
X187940143Y-78081726D01*
X188820475Y-77894605D01*
G37*
G04 #@! TD.AperFunction*
G04 #@! TA.AperFunction,SMDPad,CuDef*
G36*
X192048363Y-77208497D02*
G01*
X192297857Y-78382274D01*
X191417525Y-78569395D01*
X191168031Y-77395618D01*
X192048363Y-77208497D01*
G37*
G04 #@! TD.AperFunction*
G04 #@! TA.AperFunction,SMDPad,CuDef*
G36*
X188365363Y-57650497D02*
G01*
X188614857Y-58824274D01*
X187734525Y-59011395D01*
X187485031Y-57837618D01*
X188365363Y-57650497D01*
G37*
G04 #@! TD.AperFunction*
G04 #@! TA.AperFunction,SMDPad,CuDef*
G36*
X185137475Y-58336605D02*
G01*
X185386969Y-59510382D01*
X184506637Y-59697503D01*
X184257143Y-58523726D01*
X185137475Y-58336605D01*
G37*
G04 #@! TD.AperFunction*
G04 #@! TA.AperFunction,SMDPad,CuDef*
G36*
X184047363Y-39362497D02*
G01*
X184296857Y-40536274D01*
X183416525Y-40723395D01*
X183167031Y-39549618D01*
X184047363Y-39362497D01*
G37*
G04 #@! TD.AperFunction*
G04 #@! TA.AperFunction,SMDPad,CuDef*
G36*
X180819475Y-40048605D02*
G01*
X181068969Y-41222382D01*
X180188637Y-41409503D01*
X179939143Y-40235726D01*
X180819475Y-40048605D01*
G37*
G04 #@! TD.AperFunction*
G04 #@! TA.AperFunction,SMDPad,CuDef*
G36*
X170532475Y-83101605D02*
G01*
X170781969Y-84275382D01*
X169901637Y-84462503D01*
X169652143Y-83288726D01*
X170532475Y-83101605D01*
G37*
G04 #@! TD.AperFunction*
G04 #@! TA.AperFunction,SMDPad,CuDef*
G36*
X173760363Y-82415497D02*
G01*
X174009857Y-83589274D01*
X173129525Y-83776395D01*
X172880031Y-82602618D01*
X173760363Y-82415497D01*
G37*
G04 #@! TD.AperFunction*
G04 #@! TA.AperFunction,SMDPad,CuDef*
G36*
X169696363Y-63365497D02*
G01*
X169945857Y-64539274D01*
X169065525Y-64726395D01*
X168816031Y-63552618D01*
X169696363Y-63365497D01*
G37*
G04 #@! TD.AperFunction*
G04 #@! TA.AperFunction,SMDPad,CuDef*
G36*
X166468475Y-64051605D02*
G01*
X166717969Y-65225382D01*
X165837637Y-65412503D01*
X165588143Y-64238726D01*
X166468475Y-64051605D01*
G37*
G04 #@! TD.AperFunction*
G04 #@! TA.AperFunction,SMDPad,CuDef*
G36*
X165759363Y-44315497D02*
G01*
X166008857Y-45489274D01*
X165128525Y-45676395D01*
X164879031Y-44502618D01*
X165759363Y-44315497D01*
G37*
G04 #@! TD.AperFunction*
G04 #@! TA.AperFunction,SMDPad,CuDef*
G36*
X162531475Y-45001605D02*
G01*
X162780969Y-46175382D01*
X161900637Y-46362503D01*
X161651143Y-45188726D01*
X162531475Y-45001605D01*
G37*
G04 #@! TD.AperFunction*
G04 #@! TA.AperFunction,SMDPad,CuDef*
G36*
X111144857Y-82526726D02*
G01*
X110895363Y-83700503D01*
X110015031Y-83513382D01*
X110264525Y-82339605D01*
X111144857Y-82526726D01*
G37*
G04 #@! TD.AperFunction*
G04 #@! TA.AperFunction,SMDPad,CuDef*
G36*
X107916969Y-81840618D02*
G01*
X107667475Y-83014395D01*
X106787143Y-82827274D01*
X107036637Y-81653497D01*
X107916969Y-81840618D01*
G37*
G04 #@! TD.AperFunction*
G04 #@! TA.AperFunction,SMDPad,CuDef*
G36*
X115462857Y-63984726D02*
G01*
X115213363Y-65158503D01*
X114333031Y-64971382D01*
X114582525Y-63797605D01*
X115462857Y-63984726D01*
G37*
G04 #@! TD.AperFunction*
G04 #@! TA.AperFunction,SMDPad,CuDef*
G36*
X112234969Y-63298618D02*
G01*
X111985475Y-64472395D01*
X111105143Y-64285274D01*
X111354637Y-63111497D01*
X112234969Y-63298618D01*
G37*
G04 #@! TD.AperFunction*
G04 #@! TA.AperFunction,SMDPad,CuDef*
G36*
X119399857Y-44871226D02*
G01*
X119150363Y-46045003D01*
X118270031Y-45857882D01*
X118519525Y-44684105D01*
X119399857Y-44871226D01*
G37*
G04 #@! TD.AperFunction*
G04 #@! TA.AperFunction,SMDPad,CuDef*
G36*
X116171969Y-44185118D02*
G01*
X115922475Y-45358895D01*
X115042143Y-45171774D01*
X115291637Y-43997997D01*
X116171969Y-44185118D01*
G37*
G04 #@! TD.AperFunction*
G04 #@! TA.AperFunction,SMDPad,CuDef*
G36*
X93237857Y-77319726D02*
G01*
X92988363Y-78493503D01*
X92108031Y-78306382D01*
X92357525Y-77132605D01*
X93237857Y-77319726D01*
G37*
G04 #@! TD.AperFunction*
G04 #@! TA.AperFunction,SMDPad,CuDef*
G36*
X90009969Y-76633618D02*
G01*
X89760475Y-77807395D01*
X88880143Y-77620274D01*
X89129637Y-76446497D01*
X90009969Y-76633618D01*
G37*
G04 #@! TD.AperFunction*
G04 #@! TA.AperFunction,SMDPad,CuDef*
G36*
X97174857Y-58650726D02*
G01*
X96925363Y-59824503D01*
X96045031Y-59637382D01*
X96294525Y-58463605D01*
X97174857Y-58650726D01*
G37*
G04 #@! TD.AperFunction*
G04 #@! TA.AperFunction,SMDPad,CuDef*
G36*
X93946969Y-57964618D02*
G01*
X93697475Y-59138395D01*
X92817143Y-58951274D01*
X93066637Y-57777497D01*
X93946969Y-57964618D01*
G37*
G04 #@! TD.AperFunction*
G04 #@! TA.AperFunction,SMDPad,CuDef*
G36*
X101111857Y-40362726D02*
G01*
X100862363Y-41536503D01*
X99982031Y-41349382D01*
X100231525Y-40175605D01*
X101111857Y-40362726D01*
G37*
G04 #@! TD.AperFunction*
G04 #@! TA.AperFunction,SMDPad,CuDef*
G36*
X97883969Y-39676618D02*
G01*
X97634475Y-40850395D01*
X96754143Y-40663274D01*
X97003637Y-39489497D01*
X97883969Y-39676618D01*
G37*
G04 #@! TD.AperFunction*
G04 #@! TA.AperFunction,SMDPad,CuDef*
G36*
X75711857Y-68048726D02*
G01*
X75462363Y-69222503D01*
X74582031Y-69035382D01*
X74831525Y-67861605D01*
X75711857Y-68048726D01*
G37*
G04 #@! TD.AperFunction*
G04 #@! TA.AperFunction,SMDPad,CuDef*
G36*
X72483969Y-67362618D02*
G01*
X72234475Y-68536395D01*
X71354143Y-68349274D01*
X71603637Y-67175497D01*
X72483969Y-67362618D01*
G37*
G04 #@! TD.AperFunction*
G04 #@! TA.AperFunction,SMDPad,CuDef*
G36*
X79140857Y-49252726D02*
G01*
X78891363Y-50426503D01*
X78011031Y-50239382D01*
X78260525Y-49065605D01*
X79140857Y-49252726D01*
G37*
G04 #@! TD.AperFunction*
G04 #@! TA.AperFunction,SMDPad,CuDef*
G36*
X75912969Y-48566618D02*
G01*
X75663475Y-49740395D01*
X74783143Y-49553274D01*
X75032637Y-48379497D01*
X75912969Y-48566618D01*
G37*
G04 #@! TD.AperFunction*
G04 #@! TA.AperFunction,SMDPad,CuDef*
G36*
X83585857Y-31091726D02*
G01*
X83336363Y-32265503D01*
X82456031Y-32078382D01*
X82705525Y-30904605D01*
X83585857Y-31091726D01*
G37*
G04 #@! TD.AperFunction*
G04 #@! TA.AperFunction,SMDPad,CuDef*
G36*
X80357969Y-30405618D02*
G01*
X80108475Y-31579395D01*
X79228143Y-31392274D01*
X79477637Y-30218497D01*
X80357969Y-30405618D01*
G37*
G04 #@! TD.AperFunction*
G04 #@! TA.AperFunction,SMDPad,CuDef*
G36*
X55899857Y-68302726D02*
G01*
X55650363Y-69476503D01*
X54770031Y-69289382D01*
X55019525Y-68115605D01*
X55899857Y-68302726D01*
G37*
G04 #@! TD.AperFunction*
G04 #@! TA.AperFunction,SMDPad,CuDef*
G36*
X52671969Y-67616618D02*
G01*
X52422475Y-68790395D01*
X51542143Y-68603274D01*
X51791637Y-67429497D01*
X52671969Y-67616618D01*
G37*
G04 #@! TD.AperFunction*
G04 #@! TA.AperFunction,SMDPad,CuDef*
G36*
X35071857Y-74525726D02*
G01*
X34822363Y-75699503D01*
X33942031Y-75512382D01*
X34191525Y-74338605D01*
X35071857Y-74525726D01*
G37*
G04 #@! TD.AperFunction*
G04 #@! TA.AperFunction,SMDPad,CuDef*
G36*
X31843969Y-73839618D02*
G01*
X31594475Y-75013395D01*
X30714143Y-74826274D01*
X30963637Y-73652497D01*
X31843969Y-73839618D01*
G37*
G04 #@! TD.AperFunction*
G04 #@! TA.AperFunction,SMDPad,CuDef*
G36*
X60090857Y-50014726D02*
G01*
X59841363Y-51188503D01*
X58961031Y-51001382D01*
X59210525Y-49827605D01*
X60090857Y-50014726D01*
G37*
G04 #@! TD.AperFunction*
G04 #@! TA.AperFunction,SMDPad,CuDef*
G36*
X56862969Y-49328618D02*
G01*
X56613475Y-50502395D01*
X55733143Y-50315274D01*
X55982637Y-49141497D01*
X56862969Y-49328618D01*
G37*
G04 #@! TD.AperFunction*
G04 #@! TA.AperFunction,SMDPad,CuDef*
G36*
X63900857Y-31726726D02*
G01*
X63651363Y-32900503D01*
X62771031Y-32713382D01*
X63020525Y-31539605D01*
X63900857Y-31726726D01*
G37*
G04 #@! TD.AperFunction*
G04 #@! TA.AperFunction,SMDPad,CuDef*
G36*
X60672969Y-31040618D02*
G01*
X60423475Y-32214395D01*
X59543143Y-32027274D01*
X59792637Y-30853497D01*
X60672969Y-31040618D01*
G37*
G04 #@! TD.AperFunction*
G04 #@! TA.AperFunction,SMDPad,CuDef*
G36*
X39008857Y-54586726D02*
G01*
X38759363Y-55760503D01*
X37879031Y-55573382D01*
X38128525Y-54399605D01*
X39008857Y-54586726D01*
G37*
G04 #@! TD.AperFunction*
G04 #@! TA.AperFunction,SMDPad,CuDef*
G36*
X35780969Y-53900618D02*
G01*
X35531475Y-55074395D01*
X34651143Y-54887274D01*
X34900637Y-53713497D01*
X35780969Y-53900618D01*
G37*
G04 #@! TD.AperFunction*
G04 #@! TA.AperFunction,SMDPad,CuDef*
G36*
X42982913Y-36463672D02*
G01*
X42733419Y-37637449D01*
X41853087Y-37450328D01*
X42102581Y-36276551D01*
X42982913Y-36463672D01*
G37*
G04 #@! TD.AperFunction*
G04 #@! TA.AperFunction,SMDPad,CuDef*
G36*
X39755025Y-35777564D02*
G01*
X39505531Y-36951341D01*
X38625199Y-36764220D01*
X38874693Y-35590443D01*
X39755025Y-35777564D01*
G37*
G04 #@! TD.AperFunction*
D17*
X135925000Y-86741000D03*
X136373000Y-82321000D03*
X122364500Y-92900500D03*
X127312502Y-89158998D03*
X129476500Y-88201500D03*
X136342468Y-90304968D03*
X135510282Y-88901282D03*
X138366500Y-100266500D03*
X138763500Y-96656314D03*
X133794500Y-49530000D03*
X135826500Y-76009500D03*
X70217055Y-70866000D03*
X132524500Y-91376500D03*
X125920500Y-73152000D03*
X131622989Y-73675998D03*
X140372999Y-82985024D03*
X125857000Y-83058000D03*
X131445000Y-83820000D03*
X138022500Y-88392000D03*
X141795500Y-87376000D03*
X144018000Y-86487000D03*
X164782500Y-86296500D03*
X173672500Y-86132500D03*
X173736000Y-84232490D03*
X131572000Y-42354500D03*
X69596000Y-75184000D03*
X73807125Y-75481375D03*
X87503000Y-81026000D03*
X133873000Y-85650498D03*
X135191500Y-92075000D03*
X131622989Y-74739500D03*
X138684000Y-82613500D03*
X138747500Y-85125000D03*
X168535408Y-92710000D03*
X146748500Y-89725500D03*
X166941500Y-85407500D03*
X219710000Y-70675500D03*
X131373764Y-98041662D03*
X129921000Y-101854000D03*
X205132451Y-79438500D03*
X147447000Y-88850500D03*
X116014500Y-50736500D03*
X126746000Y-84582000D03*
X186309000Y-92837000D03*
X146878205Y-92135656D03*
X140223873Y-81118000D03*
D18*
X135925000Y-82769000D02*
X136373000Y-82321000D01*
X135925000Y-86741000D02*
X135925000Y-82769000D01*
X120895500Y-93610500D02*
X121654500Y-93610500D01*
X121654500Y-93610500D02*
X122364500Y-92900500D01*
X127312502Y-89158998D02*
X128519002Y-89158998D01*
X128519002Y-89158998D02*
X129476500Y-88201500D01*
X136342468Y-90304968D02*
X136342468Y-89733468D01*
X136342468Y-89733468D02*
X135510282Y-88901282D01*
D19*
X138366500Y-100266500D02*
X138366500Y-97053314D01*
X138366500Y-97053314D02*
X138763500Y-96656314D01*
D18*
X133794500Y-49530000D02*
X133794500Y-73977500D01*
X133794500Y-73977500D02*
X135826500Y-76009500D01*
D19*
X70217055Y-70866000D02*
X90727555Y-91376500D01*
X90727555Y-91376500D02*
X132524500Y-91376500D01*
X40411218Y-25286929D02*
X42103566Y-25286929D01*
X39890846Y-25807301D02*
X40411218Y-25286929D01*
X42103566Y-25286929D02*
X43517779Y-25286929D01*
X39890846Y-27199645D02*
X39890846Y-25807301D01*
X37539554Y-34620334D02*
X39190112Y-36270892D01*
X37401500Y-34482280D02*
X37539554Y-34620334D01*
X39890846Y-29149204D02*
X39433500Y-29606550D01*
X39890846Y-27199645D02*
X39890846Y-29149204D01*
X37401500Y-31699807D02*
X37401500Y-34482280D01*
X39433500Y-29606550D02*
X39433500Y-29667807D01*
X39433500Y-29667807D02*
X37401500Y-31699807D01*
X59525944Y-51121458D02*
X59525944Y-50508054D01*
X55567348Y-55080054D02*
X59525944Y-51121458D01*
X38443944Y-55080054D02*
X55567348Y-55080054D01*
X78575944Y-50359458D02*
X78575944Y-49746054D01*
X78427348Y-50508054D02*
X78575944Y-50359458D01*
X59525944Y-50508054D02*
X78427348Y-50508054D01*
X95830541Y-59463405D02*
X96149892Y-59144054D01*
X96149892Y-59144054D02*
X96609944Y-59144054D01*
X88293295Y-59463405D02*
X95830541Y-59463405D01*
X78575944Y-49746054D02*
X88293295Y-59463405D01*
X114437892Y-64478054D02*
X114897944Y-64478054D01*
X102263295Y-64797405D02*
X114118541Y-64797405D01*
X114118541Y-64797405D02*
X114437892Y-64478054D01*
X96609944Y-59144054D02*
X102263295Y-64797405D01*
X114897944Y-64478054D02*
X117246554Y-64478054D01*
X117246554Y-64478054D02*
X125920500Y-73152000D01*
X131622989Y-73675998D02*
X140372999Y-82426008D01*
X140372999Y-82426008D02*
X140372999Y-82985024D01*
X224752944Y-49673350D02*
X224752944Y-49059946D01*
X231927107Y-56847513D02*
X224752944Y-49673350D01*
X244016377Y-56847513D02*
X231927107Y-56847513D01*
X245707944Y-55155946D02*
X244016377Y-56847513D01*
X224373537Y-49439353D02*
X224752944Y-49059946D01*
X223061377Y-50751513D02*
X224373537Y-49439353D01*
X207727563Y-50751513D02*
X223061377Y-50751513D01*
X205908996Y-48932946D02*
X207727563Y-50751513D01*
X205448944Y-48932946D02*
X205908996Y-48932946D01*
X188509996Y-58330946D02*
X188049944Y-58330946D01*
X196664348Y-58330946D02*
X188509996Y-58330946D01*
X205448944Y-49546350D02*
X196664348Y-58330946D01*
X205448944Y-48932946D02*
X205448944Y-49546350D01*
X169840996Y-64045946D02*
X169380944Y-64045946D01*
X182948348Y-64045946D02*
X169840996Y-64045946D01*
X188049944Y-58944350D02*
X182948348Y-64045946D01*
X188049944Y-58330946D02*
X188049944Y-58944350D01*
X150441866Y-82985024D02*
X169380944Y-64045946D01*
X140372999Y-82985024D02*
X150441866Y-82985024D01*
X38142766Y-43920629D02*
X39556979Y-43920629D01*
X35930046Y-44441001D02*
X36450418Y-43920629D01*
X36450418Y-43920629D02*
X38142766Y-43920629D01*
X35930046Y-45833345D02*
X35930046Y-44441001D01*
X33578754Y-52756644D02*
X35216056Y-54393946D01*
X33401000Y-52578890D02*
X33578754Y-52756644D01*
X35930046Y-47782904D02*
X35560000Y-48152950D01*
X35930046Y-45833345D02*
X35930046Y-47782904D01*
X33401000Y-50373207D02*
X33401000Y-52578890D01*
X35560000Y-48152950D02*
X35560000Y-48214207D01*
X35560000Y-48214207D02*
X33401000Y-50373207D01*
X60629146Y-23262289D02*
X60629146Y-21869945D01*
X60629146Y-23819504D02*
X60629146Y-23262289D01*
X58277854Y-29703744D02*
X58277854Y-26170796D01*
X60108056Y-31533946D02*
X58277854Y-29703744D01*
X62841866Y-19957229D02*
X64256079Y-19957229D01*
X61149518Y-19957229D02*
X62841866Y-19957229D01*
X60629146Y-20477601D02*
X61149518Y-19957229D01*
X60629146Y-21869945D02*
X60629146Y-20477601D01*
X58277854Y-26170796D02*
X58665204Y-26170796D01*
X58665204Y-25844703D02*
X60388500Y-24121407D01*
X58665204Y-26170796D02*
X58665204Y-25844703D01*
X60388500Y-24060150D02*
X60629146Y-23819504D01*
X60388500Y-24121407D02*
X60388500Y-24060150D01*
X58881066Y-38590929D02*
X60295279Y-38590929D01*
X56668346Y-39111301D02*
X57188718Y-38590929D01*
X57188718Y-38590929D02*
X58881066Y-38590929D01*
X56668346Y-40503645D02*
X56668346Y-39111301D01*
X56298056Y-49208542D02*
X56298056Y-49821946D01*
X54165500Y-45148500D02*
X54165500Y-47075986D01*
X54675450Y-44829050D02*
X54484950Y-44829050D01*
X56668346Y-42453204D02*
X56606796Y-42453204D01*
X54484950Y-44829050D02*
X54165500Y-45148500D01*
X56668346Y-40503645D02*
X56668346Y-42453204D01*
X54165500Y-47075986D02*
X56298056Y-49208542D01*
X56606796Y-42453204D02*
X55666929Y-43393071D01*
X55666929Y-43837571D02*
X54675450Y-44829050D01*
X55666929Y-43393071D02*
X55666929Y-43837571D01*
X55334944Y-69409458D02*
X55334944Y-68796054D01*
X49725348Y-75019054D02*
X55334944Y-69409458D01*
X34506944Y-75019054D02*
X49725348Y-75019054D01*
X75126941Y-69175461D02*
X75146944Y-69155458D01*
X75146944Y-69155458D02*
X75146944Y-68542054D01*
X55714351Y-69175461D02*
X75126941Y-69175461D01*
X55334944Y-68796054D02*
X55714351Y-69175461D01*
X92212892Y-77813054D02*
X92672944Y-77813054D01*
X91893541Y-78132405D02*
X92212892Y-77813054D01*
X84737295Y-78132405D02*
X91893541Y-78132405D01*
X75146944Y-68542054D02*
X84737295Y-78132405D01*
X110119892Y-83020054D02*
X110579944Y-83020054D01*
X109800541Y-83339405D02*
X110119892Y-83020054D01*
X98199295Y-83339405D02*
X109800541Y-83339405D01*
X92672944Y-77813054D02*
X98199295Y-83339405D01*
X110579944Y-83020054D02*
X125450446Y-83020054D01*
X186525944Y-83095946D02*
X191732944Y-77888946D01*
X173444944Y-83095946D02*
X186525944Y-83095946D01*
X198844944Y-77888946D02*
X209004944Y-67728946D01*
X191732944Y-77888946D02*
X198844944Y-77888946D01*
X228310537Y-68616353D02*
X228689944Y-68236946D01*
X226998377Y-69928513D02*
X228310537Y-68616353D01*
X211664563Y-69928513D02*
X226998377Y-69928513D01*
X209464996Y-67728946D02*
X211664563Y-69928513D01*
X209004944Y-67728946D02*
X209464996Y-67728946D01*
X248207377Y-75516513D02*
X249519537Y-74204353D01*
X249519537Y-74204353D02*
X249898944Y-73824946D01*
X236429563Y-75516513D02*
X248207377Y-75516513D01*
X229149996Y-68236946D02*
X236429563Y-75516513D01*
X228689944Y-68236946D02*
X229149996Y-68236946D01*
X125450446Y-83020054D02*
X125819054Y-83020054D01*
X125819054Y-83020054D02*
X125857000Y-83058000D01*
X133450500Y-83820000D02*
X135199999Y-85569499D01*
X131445000Y-83820000D02*
X133450500Y-83820000D01*
X135199999Y-85569499D02*
X135199999Y-87089001D01*
X135199999Y-87089001D02*
X136502998Y-88392000D01*
X136502998Y-88392000D02*
X138022500Y-88392000D01*
X141795500Y-87376000D02*
X142684500Y-86487000D01*
X142684500Y-86487000D02*
X144018000Y-86487000D01*
X164782500Y-86296500D02*
X173508500Y-86296500D01*
X173508500Y-86296500D02*
X173672500Y-86132500D01*
X173736000Y-83387002D02*
X173444944Y-83095946D01*
X173736000Y-84232490D02*
X173736000Y-83387002D01*
X34182066Y-62554429D02*
X35596279Y-62554429D01*
X32489718Y-62554429D02*
X34182066Y-62554429D01*
X31969346Y-63074801D02*
X32489718Y-62554429D01*
X31969346Y-64467145D02*
X31969346Y-63074801D01*
X31940500Y-66357500D02*
X31969346Y-64467145D01*
X31623000Y-66675000D02*
X31940500Y-66357500D01*
X29618054Y-72671944D02*
X29555444Y-72671944D01*
X29555444Y-72671944D02*
X29555444Y-68891863D01*
X31279056Y-74332946D02*
X29618054Y-72671944D01*
X29555444Y-68891863D02*
X31623000Y-66824307D01*
X31623000Y-66824307D02*
X31623000Y-66675000D01*
X54920366Y-57224629D02*
X56334579Y-57224629D01*
X52707646Y-57745001D02*
X53228018Y-57224629D01*
X53228018Y-57224629D02*
X54920366Y-57224629D01*
X52707646Y-59137345D02*
X52707646Y-57745001D01*
X49720500Y-66183442D02*
X51647004Y-68109946D01*
X52707646Y-61086904D02*
X52324000Y-61470550D01*
X52707646Y-59137345D02*
X52707646Y-61086904D01*
X52324000Y-61470550D02*
X52324000Y-61531807D01*
X49720500Y-64135307D02*
X49720500Y-66183442D01*
X51647004Y-68109946D02*
X52107056Y-68109946D01*
X52324000Y-61531807D02*
X49720500Y-64135307D01*
X82452466Y-19321629D02*
X83866679Y-19321629D01*
X80760118Y-19321629D02*
X82452466Y-19321629D01*
X80239746Y-19842001D02*
X80760118Y-19321629D01*
X80239746Y-21234345D02*
X80239746Y-19842001D01*
X77888454Y-28994344D02*
X79793056Y-30898946D01*
X77660500Y-28766390D02*
X77888454Y-28994344D01*
X77660500Y-25844500D02*
X77660500Y-28766390D01*
X80239746Y-23183904D02*
X79238329Y-24185321D01*
X80239746Y-21234345D02*
X80239746Y-23183904D01*
X77969804Y-25535196D02*
X77660500Y-25844500D01*
X79238329Y-24185321D02*
X79238329Y-24330171D01*
X79238329Y-24330171D02*
X78033304Y-25535196D01*
X78033304Y-25535196D02*
X77969804Y-25535196D01*
X76799418Y-37955329D02*
X78491766Y-37955329D01*
X76279046Y-38475701D02*
X76799418Y-37955329D01*
X78491766Y-37955329D02*
X79905979Y-37955329D01*
X76279046Y-39868045D02*
X76279046Y-38475701D01*
X76279046Y-41817604D02*
X76279046Y-39868045D01*
X73787000Y-45212000D02*
X73787000Y-44450000D01*
X75277629Y-42819021D02*
X76279046Y-41817604D01*
X73927754Y-47639644D02*
X73927754Y-45352754D01*
X75348056Y-49059946D02*
X73927754Y-47639644D01*
X73927754Y-45352754D02*
X73787000Y-45212000D01*
X75277629Y-42959371D02*
X75277629Y-42819021D01*
X73787000Y-44450000D02*
X75277629Y-42959371D01*
X72838718Y-56589029D02*
X74531066Y-56589029D01*
X74531066Y-56589029D02*
X75945279Y-56589029D01*
X72318346Y-57109401D02*
X72838718Y-56589029D01*
X72318346Y-58501745D02*
X72318346Y-57109401D01*
X72318346Y-60451304D02*
X72318346Y-59894089D01*
X71945500Y-60824150D02*
X72318346Y-60451304D01*
X72318346Y-59894089D02*
X72318346Y-58501745D01*
X71945500Y-60885407D02*
X71945500Y-60824150D01*
X69723000Y-65659000D02*
X69723000Y-63107907D01*
X71919056Y-67855946D02*
X69967054Y-65903944D01*
X69967054Y-65903944D02*
X69967054Y-65903054D01*
X69967054Y-65903054D02*
X69723000Y-65659000D01*
X69723000Y-63107907D02*
X71945500Y-60885407D01*
X98153118Y-29120929D02*
X99845466Y-29120929D01*
X97632746Y-29641301D02*
X98153118Y-29120929D01*
X99845466Y-29120929D02*
X101259679Y-29120929D01*
X97632746Y-31033645D02*
X97632746Y-29641301D01*
X97632746Y-33044461D02*
X97632746Y-31033645D01*
X97448039Y-33044461D02*
X97632746Y-33044461D01*
X97319056Y-40169946D02*
X95281454Y-38132344D01*
X96964500Y-33528000D02*
X97448039Y-33044461D01*
X95281454Y-38131454D02*
X94297500Y-37147500D01*
X95281454Y-38132344D02*
X95281454Y-38131454D01*
X94297500Y-36512500D02*
X96964500Y-33845500D01*
X94297500Y-37147500D02*
X94297500Y-36512500D01*
X96964500Y-33845500D02*
X96964500Y-33528000D01*
X93671746Y-51059689D02*
X93671746Y-49667345D01*
X93671746Y-48275001D02*
X94192118Y-47754629D01*
X95884466Y-47754629D02*
X97298679Y-47754629D01*
X94192118Y-47754629D02*
X95884466Y-47754629D01*
X93671746Y-49667345D02*
X93671746Y-48275001D01*
X90868500Y-54481407D02*
X93216407Y-52133500D01*
X93216407Y-51944593D02*
X93599000Y-51562000D01*
X90868500Y-55943500D02*
X90868500Y-54481407D01*
X93216407Y-52133500D02*
X93216407Y-51944593D01*
X93599000Y-51562000D02*
X93671746Y-51059689D01*
X93382056Y-58457946D02*
X91320454Y-56396344D01*
X91320454Y-56396344D02*
X91320454Y-56395454D01*
X91320454Y-56395454D02*
X90868500Y-55943500D01*
X89711046Y-69693389D02*
X89711046Y-68301045D01*
X89711046Y-70250604D02*
X89711046Y-69693389D01*
X89445056Y-77126946D02*
X87359754Y-75041644D01*
X91923766Y-66388329D02*
X93337979Y-66388329D01*
X90231418Y-66388329D02*
X91923766Y-66388329D01*
X89711046Y-66908701D02*
X90231418Y-66388329D01*
X89711046Y-68301045D02*
X89711046Y-66908701D01*
X87359754Y-75041644D02*
X87359754Y-74977254D01*
X87359754Y-74977254D02*
X87122000Y-74739500D01*
X87122000Y-74739500D02*
X87122000Y-73025000D01*
X87122000Y-73025000D02*
X89217500Y-70929500D01*
X89217500Y-70744150D02*
X89711046Y-70250604D01*
X89217500Y-70929500D02*
X89217500Y-70744150D01*
X113650454Y-42721844D02*
X113650454Y-40537396D01*
X115607056Y-44678446D02*
X113650454Y-42721844D01*
X118214466Y-34323829D02*
X119628679Y-34323829D01*
X116522118Y-34323829D02*
X118214466Y-34323829D01*
X116001746Y-34844201D02*
X116522118Y-34323829D01*
X116001746Y-36236545D02*
X116001746Y-34844201D01*
X116001746Y-36236545D02*
X116001746Y-38186104D01*
X115770350Y-38478757D02*
X113672607Y-40576500D01*
X116001746Y-38186104D02*
X115770350Y-38417500D01*
X115770350Y-38417500D02*
X115770350Y-38478757D01*
X112562118Y-52957629D02*
X114254466Y-52957629D01*
X112041746Y-53478001D02*
X112562118Y-52957629D01*
X114254466Y-52957629D02*
X115668679Y-52957629D01*
X112041746Y-54870345D02*
X112041746Y-53478001D01*
X112041746Y-56262689D02*
X112041746Y-54870345D01*
X111569500Y-57467500D02*
X111569500Y-57292150D01*
X112041746Y-56819904D02*
X112041746Y-56262689D01*
X111569500Y-57292150D02*
X112041746Y-56819904D01*
X109690454Y-61812344D02*
X109690454Y-61811454D01*
X111670056Y-63791946D02*
X109690454Y-61812344D01*
X109690454Y-61811454D02*
X109410500Y-61531500D01*
X109410500Y-61531500D02*
X109410500Y-59626500D01*
X109410500Y-59626500D02*
X111569500Y-57467500D01*
X108080746Y-72111701D02*
X108601118Y-71591329D01*
X110293466Y-71591329D02*
X111707679Y-71591329D01*
X108601118Y-71591329D02*
X110293466Y-71591329D01*
X108080746Y-73504045D02*
X108080746Y-72111701D01*
X108080746Y-75453604D02*
X108080746Y-73504045D01*
X107079329Y-76753171D02*
X107079329Y-76455021D01*
X105600500Y-78232000D02*
X107079329Y-76753171D01*
X107079329Y-76455021D02*
X108080746Y-75453604D01*
X107352056Y-82333946D02*
X105729454Y-80711344D01*
X105600500Y-80518000D02*
X105600500Y-78232000D01*
X105729454Y-80646954D02*
X105600500Y-80518000D01*
X105729454Y-80711344D02*
X105729454Y-80646954D01*
X159057924Y-36840326D02*
X159057924Y-37527488D01*
X161593321Y-34304929D02*
X159057924Y-36840326D01*
X159057924Y-39386286D02*
X159057924Y-37527488D01*
X159258000Y-39586362D02*
X159057924Y-39386286D01*
X159258000Y-41465500D02*
X159258000Y-39586362D01*
X161350935Y-45682054D02*
X158913407Y-43244526D01*
X162216056Y-45682054D02*
X161350935Y-45682054D01*
X158944851Y-41778649D02*
X159258000Y-41465500D01*
X158913407Y-43244526D02*
X158913407Y-41778649D01*
X158913407Y-41778649D02*
X158944851Y-41778649D01*
X163028604Y-58029666D02*
X163018924Y-58019986D01*
X163018924Y-58019986D02*
X163018924Y-56161188D01*
X164316656Y-56161188D02*
X165554321Y-54923523D01*
X165554321Y-54352842D02*
X165554321Y-52938629D01*
X165554321Y-54923523D02*
X165554321Y-54352842D01*
X163018924Y-56161188D02*
X164316656Y-56161188D01*
X166153056Y-64732054D02*
X165693004Y-64732054D01*
X165693004Y-64732054D02*
X162874407Y-61913457D01*
X162874407Y-61913457D02*
X162874407Y-61909407D01*
X162874407Y-61909407D02*
X162750500Y-61785500D01*
X162750500Y-61785500D02*
X162750500Y-60769500D01*
X162750500Y-60769500D02*
X163195000Y-60325000D01*
X163195000Y-58196062D02*
X163018924Y-58019986D01*
X163195000Y-60325000D02*
X163195000Y-58196062D01*
X169515321Y-72986542D02*
X169515321Y-71572329D01*
X169515321Y-73557223D02*
X169515321Y-72986542D01*
X168277656Y-74794888D02*
X169515321Y-73557223D01*
X166979924Y-74794888D02*
X168277656Y-74794888D01*
X167068500Y-76742262D02*
X166979924Y-76653686D01*
X167068500Y-78812956D02*
X167068500Y-76742262D01*
X169757004Y-83782054D02*
X166835407Y-80860457D01*
X166751000Y-79130456D02*
X167068500Y-78812956D01*
X166835407Y-80856407D02*
X166751000Y-80772000D01*
X166979924Y-76653686D02*
X166979924Y-74794888D01*
X166835407Y-80860457D02*
X166835407Y-80856407D01*
X170217056Y-83782054D02*
X169757004Y-83782054D01*
X166751000Y-80772000D02*
X166751000Y-79130456D01*
X177427924Y-34183386D02*
X177427924Y-32324588D01*
X177437604Y-34193066D02*
X177427924Y-34183386D01*
X180044004Y-40729054D02*
X177863576Y-38548626D01*
X180504056Y-40729054D02*
X180044004Y-40729054D01*
X178725656Y-32324588D02*
X179963321Y-31086923D01*
X179963321Y-30516242D02*
X179963321Y-29102029D01*
X179963321Y-31086923D02*
X179963321Y-30516242D01*
X177427924Y-32324588D02*
X178725656Y-32324588D01*
X177790407Y-38548626D02*
X177038000Y-37796219D01*
X177863576Y-38548626D02*
X177790407Y-38548626D01*
X177038000Y-37796219D02*
X177038000Y-37084000D01*
X177038000Y-37084000D02*
X177546000Y-36576000D01*
X177546000Y-36576000D02*
X177546000Y-34417000D01*
X177427924Y-34298924D02*
X177427924Y-32324588D01*
X177546000Y-34417000D02*
X177427924Y-34298924D01*
X183924321Y-49149942D02*
X183924321Y-47735729D01*
X183924321Y-49720623D02*
X183924321Y-49149942D01*
X182686656Y-50958288D02*
X183924321Y-49720623D01*
X181388924Y-50958288D02*
X182686656Y-50958288D01*
X181388924Y-52817086D02*
X181388924Y-50958288D01*
X181737000Y-53165162D02*
X181388924Y-52817086D01*
X181737000Y-54800500D02*
X181737000Y-53165162D01*
X181038500Y-55499000D02*
X181737000Y-54800500D01*
X183586135Y-59017054D02*
X181244407Y-56675326D01*
X184822056Y-59017054D02*
X183586135Y-59017054D01*
X181244407Y-56675326D02*
X181244407Y-56593907D01*
X181244407Y-56593907D02*
X181038500Y-56388000D01*
X181038500Y-56388000D02*
X181038500Y-55499000D01*
X187884321Y-67783642D02*
X187884321Y-66369429D01*
X187884321Y-68354323D02*
X187884321Y-67783642D01*
X186646656Y-69591988D02*
X187884321Y-68354323D01*
X185348924Y-69591988D02*
X186646656Y-69591988D01*
X185483500Y-71585362D02*
X185348924Y-71450786D01*
X185348924Y-71450786D02*
X185348924Y-69591988D01*
X188045004Y-78575054D02*
X184594500Y-75124550D01*
X188505056Y-78575054D02*
X188045004Y-78575054D01*
X184594500Y-74739500D02*
X185483500Y-73850500D01*
X184594500Y-75124550D02*
X184594500Y-74739500D01*
X185483500Y-73850500D02*
X185483500Y-71585362D01*
X194795924Y-24389386D02*
X194795924Y-22530588D01*
X194805604Y-24399066D02*
X194795924Y-24389386D01*
X194651407Y-28539457D02*
X194651407Y-26781749D01*
X197316004Y-31204054D02*
X194651407Y-28539457D01*
X197776056Y-31204054D02*
X197316004Y-31204054D01*
X197331321Y-21292923D02*
X197331321Y-20722242D01*
X196093656Y-22530588D02*
X197331321Y-21292923D01*
X197331321Y-20722242D02*
X197331321Y-19308029D01*
X194795924Y-22530588D02*
X196093656Y-22530588D01*
X194805604Y-26627552D02*
X194805604Y-26491896D01*
X194651407Y-26781749D02*
X194805604Y-26627552D01*
X194805604Y-26491896D02*
X195008500Y-26289000D01*
X195008500Y-24601962D02*
X194795924Y-24389386D01*
X195008500Y-26289000D02*
X195008500Y-24601962D01*
X198756924Y-43023086D02*
X198756924Y-41164288D01*
X198766604Y-43032766D02*
X198756924Y-43023086D01*
X198612407Y-46881326D02*
X198612407Y-45415449D01*
X201350135Y-49619054D02*
X198612407Y-46881326D01*
X202221056Y-49619054D02*
X201350135Y-49619054D01*
X201292321Y-39926623D02*
X201292321Y-39355942D01*
X200054656Y-41164288D02*
X201292321Y-39926623D01*
X201292321Y-39355942D02*
X201292321Y-37941729D01*
X198756924Y-41164288D02*
X200054656Y-41164288D01*
X198612407Y-45415449D02*
X198678551Y-45415449D01*
X198766604Y-45327396D02*
X198766604Y-45200396D01*
X198678551Y-45415449D02*
X198766604Y-45327396D01*
X198766604Y-45200396D02*
X199199500Y-44767500D01*
X199199500Y-44767500D02*
X199199500Y-43624500D01*
X198756924Y-43181924D02*
X198756924Y-41164288D01*
X199199500Y-43624500D02*
X198756924Y-43181924D01*
X205252321Y-57989642D02*
X205252321Y-56575429D01*
X205252321Y-58560323D02*
X205252321Y-57989642D01*
X204014656Y-59797988D02*
X205252321Y-58560323D01*
X202716924Y-59797988D02*
X204014656Y-59797988D01*
X202716924Y-61656786D02*
X202716924Y-59797988D01*
X203073000Y-62012862D02*
X202716924Y-61656786D01*
X205317004Y-68415054D02*
X202247500Y-65345550D01*
X205777056Y-68415054D02*
X205317004Y-68415054D01*
X202247500Y-65345550D02*
X202247500Y-64579500D01*
X202247500Y-64579500D02*
X203073000Y-63754000D01*
X203073000Y-63754000D02*
X203073000Y-62012862D01*
X216945321Y-21253142D02*
X216945321Y-19838929D01*
X216945321Y-21823823D02*
X216945321Y-21253142D01*
X215707656Y-23061488D02*
X216945321Y-21823823D01*
X214409924Y-23061488D02*
X215707656Y-23061488D01*
X214409924Y-24920286D02*
X214409924Y-23061488D01*
X214630000Y-27178000D02*
X214630000Y-25140362D01*
X214419604Y-27388396D02*
X214630000Y-27178000D01*
X217334056Y-30950054D02*
X216436935Y-30950054D01*
X214058500Y-28049431D02*
X214419604Y-27688327D01*
X214058500Y-28571619D02*
X214058500Y-28049431D01*
X214630000Y-25140362D02*
X214409924Y-24920286D01*
X216436935Y-30950054D02*
X214058500Y-28571619D01*
X214419604Y-27688327D02*
X214419604Y-27388396D01*
X220906321Y-40457523D02*
X220906321Y-39886842D01*
X219668656Y-41695188D02*
X220906321Y-40457523D01*
X220906321Y-39886842D02*
X220906321Y-38472629D01*
X218370924Y-41695188D02*
X219668656Y-41695188D01*
X218503500Y-43686562D02*
X218370924Y-43553986D01*
X218370924Y-43553986D02*
X218370924Y-41695188D01*
X220560235Y-49746054D02*
X217995500Y-47181319D01*
X221525056Y-49746054D02*
X220560235Y-49746054D01*
X218503500Y-45910500D02*
X218503500Y-43686562D01*
X217995500Y-47181319D02*
X217995500Y-46418500D01*
X217995500Y-46418500D02*
X218503500Y-45910500D01*
X224867321Y-58520542D02*
X224867321Y-57106329D01*
X223629656Y-60328888D02*
X224867321Y-59091223D01*
X224867321Y-59091223D02*
X224867321Y-58520542D01*
X222331924Y-60328888D02*
X223629656Y-60328888D01*
X222504000Y-62359762D02*
X222331924Y-62187686D01*
X222331924Y-62187686D02*
X222331924Y-60328888D01*
X222504000Y-64325500D02*
X222504000Y-62359762D01*
X225002004Y-68923054D02*
X221678500Y-65599550D01*
X225462056Y-68923054D02*
X225002004Y-68923054D01*
X221678500Y-65405000D02*
X222631000Y-64452500D01*
X221678500Y-65599550D02*
X221678500Y-65405000D01*
X222631000Y-64452500D02*
X222504000Y-64325500D01*
X235054604Y-30385466D02*
X235044924Y-30375786D01*
X235044924Y-30375786D02*
X235044924Y-28516988D01*
X234900407Y-34234026D02*
X234900407Y-32768149D01*
X237712435Y-37046054D02*
X234900407Y-34234026D01*
X238289056Y-37046054D02*
X237712435Y-37046054D01*
X237580321Y-26708642D02*
X237580321Y-25294429D01*
X237580321Y-27279323D02*
X237580321Y-26708642D01*
X236342656Y-28516988D02*
X237580321Y-27279323D01*
X235044924Y-28516988D02*
X236342656Y-28516988D01*
X235054604Y-32613952D02*
X235054604Y-32534396D01*
X234900407Y-32768149D02*
X235054604Y-32613952D01*
X235054604Y-32534396D02*
X235521500Y-32067500D01*
X235521500Y-30852362D02*
X235044924Y-30375786D01*
X235521500Y-32067500D02*
X235521500Y-30852362D01*
X241541321Y-45913023D02*
X241541321Y-45342342D01*
X241541321Y-45342342D02*
X241541321Y-43928129D01*
X240303656Y-47150688D02*
X241541321Y-45913023D01*
X239005924Y-47150688D02*
X240303656Y-47150688D01*
X239005924Y-49009486D02*
X239005924Y-47150688D01*
X239204500Y-49208062D02*
X239005924Y-49009486D01*
X241835735Y-55842054D02*
X238861407Y-52867726D01*
X239015604Y-51496896D02*
X239204500Y-51308000D01*
X242480056Y-55842054D02*
X241835735Y-55842054D01*
X239204500Y-51308000D02*
X239204500Y-49208062D01*
X239015604Y-51777527D02*
X239015604Y-51496896D01*
X238861407Y-52867726D02*
X238861407Y-51931724D01*
X238861407Y-51931724D02*
X239015604Y-51777527D01*
X242966924Y-67643186D02*
X242966924Y-65784388D01*
X242822407Y-70035549D02*
X242976604Y-69881352D01*
X242822407Y-71501426D02*
X242822407Y-70035549D01*
X245832035Y-74511054D02*
X242822407Y-71501426D01*
X242976604Y-67652866D02*
X242966924Y-67643186D01*
X246671056Y-74511054D02*
X245832035Y-74511054D01*
X245502321Y-63976042D02*
X245502321Y-62561829D01*
X245502321Y-64546723D02*
X245502321Y-63976042D01*
X244264656Y-65784388D02*
X245502321Y-64546723D01*
X242966924Y-65784388D02*
X244264656Y-65784388D01*
X242976604Y-69881352D02*
X242983148Y-69881352D01*
X242983148Y-69881352D02*
X243332000Y-69532500D01*
X243332000Y-69532500D02*
X243332000Y-68834000D01*
X242966924Y-68468924D02*
X242966924Y-65784388D01*
X243332000Y-68834000D02*
X242966924Y-68468924D01*
X100366922Y-96387884D02*
X101275744Y-95479062D01*
X97277348Y-96387884D02*
X100366922Y-96387884D01*
X95902299Y-97762933D02*
X97277348Y-96387884D01*
X95902299Y-98725201D02*
X95902299Y-97762933D01*
X93644429Y-104281371D02*
X93644429Y-100411571D01*
X94710058Y-105347000D02*
X93644429Y-104281371D01*
X93644429Y-100411571D02*
X94424500Y-99631500D01*
X94424500Y-99631500D02*
X94996000Y-99631500D01*
X94996000Y-99631500D02*
X95902299Y-98725201D01*
X119995864Y-108298439D02*
X120152871Y-108455446D01*
X116055497Y-108298439D02*
X119995864Y-108298439D01*
X114852558Y-109501378D02*
X116055497Y-108298439D01*
X110378076Y-115966076D02*
X110378076Y-112531626D01*
X110696274Y-116284274D02*
X110378076Y-115966076D01*
X113419436Y-110934500D02*
X114852558Y-109501378D01*
X111975202Y-110934500D02*
X113419436Y-110934500D01*
X110378076Y-112531626D02*
X111975202Y-110934500D01*
X75910146Y-91090689D02*
X75910146Y-89698345D01*
X75910146Y-91647904D02*
X75910146Y-91090689D01*
X73558854Y-97458581D02*
X73558854Y-93999196D01*
X75241222Y-99140949D02*
X73558854Y-97458581D01*
X78122866Y-87785629D02*
X79537079Y-87785629D01*
X76430518Y-87785629D02*
X78122866Y-87785629D01*
X75910146Y-88306001D02*
X76430518Y-87785629D01*
X75910146Y-89698345D02*
X75910146Y-88306001D01*
X73558854Y-93999196D02*
X73767804Y-93999196D01*
X74908729Y-92858271D02*
X74908729Y-92649321D01*
X74908729Y-92649321D02*
X75910146Y-91647904D01*
X73767804Y-93999196D02*
X74908729Y-92858271D01*
D18*
X139416000Y-39830300D02*
X136891800Y-42354500D01*
X136891800Y-42354500D02*
X131572000Y-42354500D01*
D19*
X69596000Y-75184000D02*
X73509750Y-75184000D01*
X73509750Y-75184000D02*
X73807125Y-75481375D01*
X87503000Y-81026000D02*
X92127498Y-85650498D01*
X92127498Y-85650498D02*
X133873000Y-85650498D01*
X83991202Y-90879299D02*
X85213404Y-92101501D01*
X135164999Y-92101501D02*
X135191500Y-92075000D01*
X85213404Y-92101501D02*
X135164999Y-92101501D01*
X131622989Y-74739500D02*
X131622989Y-75552489D01*
X131622989Y-75552489D02*
X138684000Y-82613500D01*
X138747500Y-91821819D02*
X138747500Y-85125000D01*
X121326724Y-110925302D02*
X121326724Y-109242595D01*
X121326724Y-109242595D02*
X138747500Y-91821819D01*
X168535408Y-92710000D02*
X149733000Y-92710000D01*
X149733000Y-92710000D02*
X146748500Y-89725500D01*
X166941500Y-85407500D02*
X204978000Y-85407500D01*
X204978000Y-85407500D02*
X219710000Y-70675500D01*
X124595500Y-99810500D02*
X129604926Y-99810500D01*
X129604926Y-99810500D02*
X131373764Y-98041662D01*
X144666000Y-39230300D02*
X144666000Y-34410300D01*
X144666000Y-34410300D02*
X137366000Y-34410300D01*
X137366000Y-35610300D02*
X137366000Y-39230300D01*
X137366000Y-34410300D02*
X137366000Y-35610300D01*
X139691001Y-37755299D02*
X144390999Y-37755299D01*
X144390999Y-37755299D02*
X144666000Y-38030300D01*
X138216000Y-39230300D02*
X139691001Y-37755299D01*
X144666000Y-38030300D02*
X144666000Y-39230300D01*
X137366000Y-39230300D02*
X138216000Y-39230300D01*
X179654246Y-100323759D02*
X179387997Y-100057510D01*
X179654246Y-104461260D02*
X179654246Y-100323759D01*
X181808986Y-106616000D02*
X179654246Y-104461260D01*
X179387997Y-100057510D02*
X178468511Y-99138024D01*
X183737058Y-106616000D02*
X181808986Y-106616000D01*
X180083456Y-97523079D02*
X180083456Y-95369062D01*
X178468511Y-99138024D02*
X180083456Y-97523079D01*
X201822432Y-99487051D02*
X199039407Y-96704026D01*
X202749222Y-99487051D02*
X201822432Y-99487051D01*
X201719321Y-89178642D02*
X201719321Y-87764429D01*
X201719321Y-89749323D02*
X201719321Y-89178642D01*
X200481656Y-90986988D02*
X201719321Y-89749323D01*
X199183924Y-90986988D02*
X200481656Y-90986988D01*
X199039407Y-96704026D02*
X199002526Y-96704026D01*
X199183924Y-92845786D02*
X199263000Y-92924862D01*
X199183924Y-90986988D02*
X199183924Y-92845786D01*
X198882000Y-96546619D02*
X199039407Y-96704026D01*
X198882000Y-95925431D02*
X198882000Y-96546619D01*
X199263000Y-92924862D02*
X199263000Y-95544431D01*
X199263000Y-95544431D02*
X198882000Y-95925431D01*
X160560691Y-108975884D02*
X161145129Y-108391446D01*
X160560691Y-112449962D02*
X160560691Y-108975884D01*
X161675724Y-113564995D02*
X160560691Y-112449962D01*
X167401076Y-119364924D02*
X164894424Y-119364924D01*
X162623500Y-117094000D02*
X162623500Y-114512771D01*
X162623500Y-114512771D02*
X161675724Y-113564995D01*
X167719274Y-119046726D02*
X167401076Y-119364924D01*
X164894424Y-119364924D02*
X162623500Y-117094000D01*
X97048328Y-106997000D02*
X97567942Y-106997000D01*
X94916096Y-106997000D02*
X97048328Y-106997000D01*
X88281570Y-100362474D02*
X94916096Y-106997000D01*
X78796201Y-100362474D02*
X88281570Y-100362474D01*
X78428778Y-99995051D02*
X78796201Y-100362474D01*
X109188668Y-118617726D02*
X113029726Y-118617726D01*
X97567942Y-106997000D02*
X109188668Y-118617726D01*
X115246395Y-118617726D02*
X119177417Y-114686704D01*
X119177417Y-114686704D02*
X123099421Y-114686704D01*
X113029726Y-118617726D02*
X115246395Y-118617726D01*
X123099421Y-114686704D02*
X129921000Y-107865125D01*
X129921000Y-107865125D02*
X129921000Y-101854000D01*
X142170073Y-120114198D02*
X129921000Y-107865125D01*
X167959966Y-120114198D02*
X142170073Y-120114198D01*
X170052726Y-118021438D02*
X167959966Y-120114198D01*
X170052726Y-116713274D02*
X170052726Y-118021438D01*
X186594942Y-105658820D02*
X186594942Y-104966000D01*
X179947789Y-112305973D02*
X186594942Y-105658820D01*
X170052726Y-116713274D02*
X174460027Y-112305973D01*
X174460027Y-112305973D02*
X179947789Y-112305973D01*
X205569355Y-99000372D02*
X205936778Y-98632949D01*
X188730135Y-102830807D02*
X201738920Y-102830807D01*
X201738920Y-102830807D02*
X205569355Y-99000372D01*
X186594942Y-104966000D02*
X188730135Y-102830807D01*
X199613461Y-84957490D02*
X167564492Y-84957490D01*
X205132451Y-79438500D02*
X199613461Y-84957490D01*
X167564492Y-84957490D02*
X167289501Y-84682499D01*
X167289501Y-84682499D02*
X151615001Y-84682499D01*
X151615001Y-84682499D02*
X147447000Y-88850500D01*
X116014500Y-50736500D02*
X116769005Y-50736500D01*
X126746000Y-60713495D02*
X126746000Y-84582000D01*
X116769005Y-50736500D02*
X126746000Y-60713495D01*
X148177550Y-93435001D02*
X146878205Y-92135656D01*
X186309000Y-92837000D02*
X185710999Y-93435001D01*
X185710999Y-93435001D02*
X148177550Y-93435001D01*
X63335944Y-32833458D02*
X63335944Y-32220054D01*
X59212402Y-36957000D02*
X63335944Y-32833458D01*
X42418000Y-36957000D02*
X59212402Y-36957000D01*
X83020944Y-32198458D02*
X83020944Y-31585054D01*
X82999348Y-32220054D02*
X83020944Y-32198458D01*
X63335944Y-32220054D02*
X82999348Y-32220054D01*
X100086892Y-40856054D02*
X100546944Y-40856054D01*
X99767541Y-41175405D02*
X100086892Y-40856054D01*
X92611295Y-41175405D02*
X99767541Y-41175405D01*
X83020944Y-31585054D02*
X92611295Y-41175405D01*
X118374892Y-45364554D02*
X118834944Y-45364554D01*
X118055541Y-45683905D02*
X118374892Y-45364554D01*
X105374795Y-45683905D02*
X118055541Y-45683905D01*
X100546944Y-40856054D02*
X105374795Y-45683905D01*
X178778944Y-44995946D02*
X183731944Y-40042946D01*
X165443944Y-44995946D02*
X178778944Y-44995946D01*
X191478944Y-40042946D02*
X201003944Y-30517946D01*
X183731944Y-40042946D02*
X191478944Y-40042946D01*
X218870377Y-31955513D02*
X220182537Y-30643353D01*
X220182537Y-30643353D02*
X220561944Y-30263946D01*
X202901563Y-31955513D02*
X218870377Y-31955513D01*
X201463996Y-30517946D02*
X202901563Y-31955513D01*
X201003944Y-30517946D02*
X201463996Y-30517946D01*
X241137537Y-36739353D02*
X241516944Y-36359946D01*
X239825377Y-38051513D02*
X241137537Y-36739353D01*
X227736107Y-38051513D02*
X239825377Y-38051513D01*
X220561944Y-30877350D02*
X227736107Y-38051513D01*
X220561944Y-30263946D02*
X220561944Y-30877350D01*
X165064537Y-45375353D02*
X165443944Y-44995946D01*
X119294996Y-45364554D02*
X120617955Y-46687513D01*
X163752377Y-46687513D02*
X165064537Y-45375353D01*
X118834944Y-45364554D02*
X119294996Y-45364554D01*
X147955000Y-73386873D02*
X147955000Y-46736000D01*
X140223873Y-81118000D02*
X147955000Y-73386873D01*
X120617955Y-46687513D02*
X147955000Y-46736000D01*
X147955000Y-46736000D02*
X163752377Y-46687513D01*
M02*
