G04 #@! TF.GenerationSoftware,KiCad,Pcbnew,5.1.5*
G04 #@! TF.CreationDate,2020-02-23T20:52:15-06:00*
G04 #@! TF.ProjectId,m'ergo,6d276572-676f-42e6-9b69-6361645f7063,rev?*
G04 #@! TF.SameCoordinates,Original*
G04 #@! TF.FileFunction,Paste,Top*
G04 #@! TF.FilePolarity,Positive*
%FSLAX46Y46*%
G04 Gerber Fmt 4.6, Leading zero omitted, Abs format (unit mm)*
G04 Created by KiCad (PCBNEW 5.1.5) date 2020-02-23 20:52:15*
%MOMM*%
%LPD*%
G04 APERTURE LIST*
%ADD10R,0.550000X1.500000*%
%ADD11R,1.500000X0.550000*%
%ADD12R,1.400000X1.200000*%
%ADD13C,0.100000*%
G04 APERTURE END LIST*
D10*
X135573000Y-84025500D03*
X136373000Y-84025500D03*
X137173000Y-84025500D03*
X137973000Y-84025500D03*
X138773000Y-84025500D03*
X139573000Y-84025500D03*
X140373000Y-84025500D03*
X141173000Y-84025500D03*
X141973000Y-84025500D03*
X142773000Y-84025500D03*
X143573000Y-84025500D03*
D11*
X145273000Y-85725500D03*
X145273000Y-86525500D03*
X145273000Y-87325500D03*
X145273000Y-88125500D03*
X145273000Y-88925500D03*
X145273000Y-89725500D03*
X145273000Y-90525500D03*
X145273000Y-91325500D03*
X145273000Y-92125500D03*
X145273000Y-92925500D03*
X145273000Y-93725500D03*
D10*
X143573000Y-95425500D03*
X142773000Y-95425500D03*
X141973000Y-95425500D03*
X141173000Y-95425500D03*
X140373000Y-95425500D03*
X139573000Y-95425500D03*
X138773000Y-95425500D03*
X137973000Y-95425500D03*
X137173000Y-95425500D03*
X136373000Y-95425500D03*
X135573000Y-95425500D03*
D11*
X133873000Y-93725500D03*
X133873000Y-92925500D03*
X133873000Y-92125500D03*
X133873000Y-91325500D03*
X133873000Y-90525500D03*
X133873000Y-89725500D03*
X133873000Y-88925500D03*
X133873000Y-88125500D03*
X133873000Y-87325500D03*
X133873000Y-86525500D03*
X133873000Y-85725500D03*
D12*
X141816000Y-101116500D03*
X139616000Y-101116500D03*
X139616000Y-99416500D03*
X141816000Y-99416500D03*
D13*
G36*
X148239005Y-83500204D02*
G01*
X148263273Y-83503804D01*
X148287072Y-83509765D01*
X148310171Y-83518030D01*
X148332350Y-83528520D01*
X148353393Y-83541132D01*
X148373099Y-83555747D01*
X148391277Y-83572223D01*
X148407753Y-83590401D01*
X148422368Y-83610107D01*
X148434980Y-83631150D01*
X148445470Y-83653329D01*
X148453735Y-83676428D01*
X148459696Y-83700227D01*
X148463296Y-83724495D01*
X148464500Y-83748999D01*
X148464500Y-84399001D01*
X148463296Y-84423505D01*
X148459696Y-84447773D01*
X148453735Y-84471572D01*
X148445470Y-84494671D01*
X148434980Y-84516850D01*
X148422368Y-84537893D01*
X148407753Y-84557599D01*
X148391277Y-84575777D01*
X148373099Y-84592253D01*
X148353393Y-84606868D01*
X148332350Y-84619480D01*
X148310171Y-84629970D01*
X148287072Y-84638235D01*
X148263273Y-84644196D01*
X148239005Y-84647796D01*
X148214501Y-84649000D01*
X147314499Y-84649000D01*
X147289995Y-84647796D01*
X147265727Y-84644196D01*
X147241928Y-84638235D01*
X147218829Y-84629970D01*
X147196650Y-84619480D01*
X147175607Y-84606868D01*
X147155901Y-84592253D01*
X147137723Y-84575777D01*
X147121247Y-84557599D01*
X147106632Y-84537893D01*
X147094020Y-84516850D01*
X147083530Y-84494671D01*
X147075265Y-84471572D01*
X147069304Y-84447773D01*
X147065704Y-84423505D01*
X147064500Y-84399001D01*
X147064500Y-83748999D01*
X147065704Y-83724495D01*
X147069304Y-83700227D01*
X147075265Y-83676428D01*
X147083530Y-83653329D01*
X147094020Y-83631150D01*
X147106632Y-83610107D01*
X147121247Y-83590401D01*
X147137723Y-83572223D01*
X147155901Y-83555747D01*
X147175607Y-83541132D01*
X147196650Y-83528520D01*
X147218829Y-83518030D01*
X147241928Y-83509765D01*
X147265727Y-83503804D01*
X147289995Y-83500204D01*
X147314499Y-83499000D01*
X148214501Y-83499000D01*
X148239005Y-83500204D01*
G37*
G36*
X148239005Y-81450204D02*
G01*
X148263273Y-81453804D01*
X148287072Y-81459765D01*
X148310171Y-81468030D01*
X148332350Y-81478520D01*
X148353393Y-81491132D01*
X148373099Y-81505747D01*
X148391277Y-81522223D01*
X148407753Y-81540401D01*
X148422368Y-81560107D01*
X148434980Y-81581150D01*
X148445470Y-81603329D01*
X148453735Y-81626428D01*
X148459696Y-81650227D01*
X148463296Y-81674495D01*
X148464500Y-81698999D01*
X148464500Y-82349001D01*
X148463296Y-82373505D01*
X148459696Y-82397773D01*
X148453735Y-82421572D01*
X148445470Y-82444671D01*
X148434980Y-82466850D01*
X148422368Y-82487893D01*
X148407753Y-82507599D01*
X148391277Y-82525777D01*
X148373099Y-82542253D01*
X148353393Y-82556868D01*
X148332350Y-82569480D01*
X148310171Y-82579970D01*
X148287072Y-82588235D01*
X148263273Y-82594196D01*
X148239005Y-82597796D01*
X148214501Y-82599000D01*
X147314499Y-82599000D01*
X147289995Y-82597796D01*
X147265727Y-82594196D01*
X147241928Y-82588235D01*
X147218829Y-82579970D01*
X147196650Y-82569480D01*
X147175607Y-82556868D01*
X147155901Y-82542253D01*
X147137723Y-82525777D01*
X147121247Y-82507599D01*
X147106632Y-82487893D01*
X147094020Y-82466850D01*
X147083530Y-82444671D01*
X147075265Y-82421572D01*
X147069304Y-82397773D01*
X147065704Y-82373505D01*
X147064500Y-82349001D01*
X147064500Y-81698999D01*
X147065704Y-81674495D01*
X147069304Y-81650227D01*
X147075265Y-81626428D01*
X147083530Y-81603329D01*
X147094020Y-81581150D01*
X147106632Y-81560107D01*
X147121247Y-81540401D01*
X147137723Y-81522223D01*
X147155901Y-81505747D01*
X147175607Y-81491132D01*
X147196650Y-81478520D01*
X147218829Y-81468030D01*
X147241928Y-81459765D01*
X147265727Y-81453804D01*
X147289995Y-81450204D01*
X147314499Y-81449000D01*
X148214501Y-81449000D01*
X148239005Y-81450204D01*
G37*
G36*
X131919505Y-96690204D02*
G01*
X131943773Y-96693804D01*
X131967572Y-96699765D01*
X131990671Y-96708030D01*
X132012850Y-96718520D01*
X132033893Y-96731132D01*
X132053599Y-96745747D01*
X132071777Y-96762223D01*
X132088253Y-96780401D01*
X132102868Y-96800107D01*
X132115480Y-96821150D01*
X132125970Y-96843329D01*
X132134235Y-96866428D01*
X132140196Y-96890227D01*
X132143796Y-96914495D01*
X132145000Y-96938999D01*
X132145000Y-97589001D01*
X132143796Y-97613505D01*
X132140196Y-97637773D01*
X132134235Y-97661572D01*
X132125970Y-97684671D01*
X132115480Y-97706850D01*
X132102868Y-97727893D01*
X132088253Y-97747599D01*
X132071777Y-97765777D01*
X132053599Y-97782253D01*
X132033893Y-97796868D01*
X132012850Y-97809480D01*
X131990671Y-97819970D01*
X131967572Y-97828235D01*
X131943773Y-97834196D01*
X131919505Y-97837796D01*
X131895001Y-97839000D01*
X130994999Y-97839000D01*
X130970495Y-97837796D01*
X130946227Y-97834196D01*
X130922428Y-97828235D01*
X130899329Y-97819970D01*
X130877150Y-97809480D01*
X130856107Y-97796868D01*
X130836401Y-97782253D01*
X130818223Y-97765777D01*
X130801747Y-97747599D01*
X130787132Y-97727893D01*
X130774520Y-97706850D01*
X130764030Y-97684671D01*
X130755765Y-97661572D01*
X130749804Y-97637773D01*
X130746204Y-97613505D01*
X130745000Y-97589001D01*
X130745000Y-96938999D01*
X130746204Y-96914495D01*
X130749804Y-96890227D01*
X130755765Y-96866428D01*
X130764030Y-96843329D01*
X130774520Y-96821150D01*
X130787132Y-96800107D01*
X130801747Y-96780401D01*
X130818223Y-96762223D01*
X130836401Y-96745747D01*
X130856107Y-96731132D01*
X130877150Y-96718520D01*
X130899329Y-96708030D01*
X130922428Y-96699765D01*
X130946227Y-96693804D01*
X130970495Y-96690204D01*
X130994999Y-96689000D01*
X131895001Y-96689000D01*
X131919505Y-96690204D01*
G37*
G36*
X131919505Y-98740204D02*
G01*
X131943773Y-98743804D01*
X131967572Y-98749765D01*
X131990671Y-98758030D01*
X132012850Y-98768520D01*
X132033893Y-98781132D01*
X132053599Y-98795747D01*
X132071777Y-98812223D01*
X132088253Y-98830401D01*
X132102868Y-98850107D01*
X132115480Y-98871150D01*
X132125970Y-98893329D01*
X132134235Y-98916428D01*
X132140196Y-98940227D01*
X132143796Y-98964495D01*
X132145000Y-98988999D01*
X132145000Y-99639001D01*
X132143796Y-99663505D01*
X132140196Y-99687773D01*
X132134235Y-99711572D01*
X132125970Y-99734671D01*
X132115480Y-99756850D01*
X132102868Y-99777893D01*
X132088253Y-99797599D01*
X132071777Y-99815777D01*
X132053599Y-99832253D01*
X132033893Y-99846868D01*
X132012850Y-99859480D01*
X131990671Y-99869970D01*
X131967572Y-99878235D01*
X131943773Y-99884196D01*
X131919505Y-99887796D01*
X131895001Y-99889000D01*
X130994999Y-99889000D01*
X130970495Y-99887796D01*
X130946227Y-99884196D01*
X130922428Y-99878235D01*
X130899329Y-99869970D01*
X130877150Y-99859480D01*
X130856107Y-99846868D01*
X130836401Y-99832253D01*
X130818223Y-99815777D01*
X130801747Y-99797599D01*
X130787132Y-99777893D01*
X130774520Y-99756850D01*
X130764030Y-99734671D01*
X130755765Y-99711572D01*
X130749804Y-99687773D01*
X130746204Y-99663505D01*
X130745000Y-99639001D01*
X130745000Y-98988999D01*
X130746204Y-98964495D01*
X130749804Y-98940227D01*
X130755765Y-98916428D01*
X130764030Y-98893329D01*
X130774520Y-98871150D01*
X130787132Y-98850107D01*
X130801747Y-98830401D01*
X130818223Y-98812223D01*
X130836401Y-98795747D01*
X130856107Y-98781132D01*
X130877150Y-98768520D01*
X130899329Y-98758030D01*
X130922428Y-98749765D01*
X130946227Y-98743804D01*
X130970495Y-98740204D01*
X130994999Y-98739000D01*
X131895001Y-98739000D01*
X131919505Y-98740204D01*
G37*
G36*
X142531505Y-45793704D02*
G01*
X142555773Y-45797304D01*
X142579572Y-45803265D01*
X142602671Y-45811530D01*
X142624850Y-45822020D01*
X142645893Y-45834632D01*
X142665599Y-45849247D01*
X142683777Y-45865723D01*
X142700253Y-45883901D01*
X142714868Y-45903607D01*
X142727480Y-45924650D01*
X142737970Y-45946829D01*
X142746235Y-45969928D01*
X142752196Y-45993727D01*
X142755796Y-46017995D01*
X142757000Y-46042499D01*
X142757000Y-46692501D01*
X142755796Y-46717005D01*
X142752196Y-46741273D01*
X142746235Y-46765072D01*
X142737970Y-46788171D01*
X142727480Y-46810350D01*
X142714868Y-46831393D01*
X142700253Y-46851099D01*
X142683777Y-46869277D01*
X142665599Y-46885753D01*
X142645893Y-46900368D01*
X142624850Y-46912980D01*
X142602671Y-46923470D01*
X142579572Y-46931735D01*
X142555773Y-46937696D01*
X142531505Y-46941296D01*
X142507001Y-46942500D01*
X141606999Y-46942500D01*
X141582495Y-46941296D01*
X141558227Y-46937696D01*
X141534428Y-46931735D01*
X141511329Y-46923470D01*
X141489150Y-46912980D01*
X141468107Y-46900368D01*
X141448401Y-46885753D01*
X141430223Y-46869277D01*
X141413747Y-46851099D01*
X141399132Y-46831393D01*
X141386520Y-46810350D01*
X141376030Y-46788171D01*
X141367765Y-46765072D01*
X141361804Y-46741273D01*
X141358204Y-46717005D01*
X141357000Y-46692501D01*
X141357000Y-46042499D01*
X141358204Y-46017995D01*
X141361804Y-45993727D01*
X141367765Y-45969928D01*
X141376030Y-45946829D01*
X141386520Y-45924650D01*
X141399132Y-45903607D01*
X141413747Y-45883901D01*
X141430223Y-45865723D01*
X141448401Y-45849247D01*
X141468107Y-45834632D01*
X141489150Y-45822020D01*
X141511329Y-45811530D01*
X141534428Y-45803265D01*
X141558227Y-45797304D01*
X141582495Y-45793704D01*
X141606999Y-45792500D01*
X142507001Y-45792500D01*
X142531505Y-45793704D01*
G37*
G36*
X142531505Y-47843704D02*
G01*
X142555773Y-47847304D01*
X142579572Y-47853265D01*
X142602671Y-47861530D01*
X142624850Y-47872020D01*
X142645893Y-47884632D01*
X142665599Y-47899247D01*
X142683777Y-47915723D01*
X142700253Y-47933901D01*
X142714868Y-47953607D01*
X142727480Y-47974650D01*
X142737970Y-47996829D01*
X142746235Y-48019928D01*
X142752196Y-48043727D01*
X142755796Y-48067995D01*
X142757000Y-48092499D01*
X142757000Y-48742501D01*
X142755796Y-48767005D01*
X142752196Y-48791273D01*
X142746235Y-48815072D01*
X142737970Y-48838171D01*
X142727480Y-48860350D01*
X142714868Y-48881393D01*
X142700253Y-48901099D01*
X142683777Y-48919277D01*
X142665599Y-48935753D01*
X142645893Y-48950368D01*
X142624850Y-48962980D01*
X142602671Y-48973470D01*
X142579572Y-48981735D01*
X142555773Y-48987696D01*
X142531505Y-48991296D01*
X142507001Y-48992500D01*
X141606999Y-48992500D01*
X141582495Y-48991296D01*
X141558227Y-48987696D01*
X141534428Y-48981735D01*
X141511329Y-48973470D01*
X141489150Y-48962980D01*
X141468107Y-48950368D01*
X141448401Y-48935753D01*
X141430223Y-48919277D01*
X141413747Y-48901099D01*
X141399132Y-48881393D01*
X141386520Y-48860350D01*
X141376030Y-48838171D01*
X141367765Y-48815072D01*
X141361804Y-48791273D01*
X141358204Y-48767005D01*
X141357000Y-48742501D01*
X141357000Y-48092499D01*
X141358204Y-48067995D01*
X141361804Y-48043727D01*
X141367765Y-48019928D01*
X141376030Y-47996829D01*
X141386520Y-47974650D01*
X141399132Y-47953607D01*
X141413747Y-47933901D01*
X141430223Y-47915723D01*
X141448401Y-47899247D01*
X141468107Y-47884632D01*
X141489150Y-47872020D01*
X141511329Y-47861530D01*
X141534428Y-47853265D01*
X141558227Y-47847304D01*
X141582495Y-47843704D01*
X141606999Y-47842500D01*
X142507001Y-47842500D01*
X142531505Y-47843704D01*
G37*
G36*
X139476505Y-45793704D02*
G01*
X139500773Y-45797304D01*
X139524572Y-45803265D01*
X139547671Y-45811530D01*
X139569850Y-45822020D01*
X139590893Y-45834632D01*
X139610599Y-45849247D01*
X139628777Y-45865723D01*
X139645253Y-45883901D01*
X139659868Y-45903607D01*
X139672480Y-45924650D01*
X139682970Y-45946829D01*
X139691235Y-45969928D01*
X139697196Y-45993727D01*
X139700796Y-46017995D01*
X139702000Y-46042499D01*
X139702000Y-46692501D01*
X139700796Y-46717005D01*
X139697196Y-46741273D01*
X139691235Y-46765072D01*
X139682970Y-46788171D01*
X139672480Y-46810350D01*
X139659868Y-46831393D01*
X139645253Y-46851099D01*
X139628777Y-46869277D01*
X139610599Y-46885753D01*
X139590893Y-46900368D01*
X139569850Y-46912980D01*
X139547671Y-46923470D01*
X139524572Y-46931735D01*
X139500773Y-46937696D01*
X139476505Y-46941296D01*
X139452001Y-46942500D01*
X138551999Y-46942500D01*
X138527495Y-46941296D01*
X138503227Y-46937696D01*
X138479428Y-46931735D01*
X138456329Y-46923470D01*
X138434150Y-46912980D01*
X138413107Y-46900368D01*
X138393401Y-46885753D01*
X138375223Y-46869277D01*
X138358747Y-46851099D01*
X138344132Y-46831393D01*
X138331520Y-46810350D01*
X138321030Y-46788171D01*
X138312765Y-46765072D01*
X138306804Y-46741273D01*
X138303204Y-46717005D01*
X138302000Y-46692501D01*
X138302000Y-46042499D01*
X138303204Y-46017995D01*
X138306804Y-45993727D01*
X138312765Y-45969928D01*
X138321030Y-45946829D01*
X138331520Y-45924650D01*
X138344132Y-45903607D01*
X138358747Y-45883901D01*
X138375223Y-45865723D01*
X138393401Y-45849247D01*
X138413107Y-45834632D01*
X138434150Y-45822020D01*
X138456329Y-45811530D01*
X138479428Y-45803265D01*
X138503227Y-45797304D01*
X138527495Y-45793704D01*
X138551999Y-45792500D01*
X139452001Y-45792500D01*
X139476505Y-45793704D01*
G37*
G36*
X139476505Y-47843704D02*
G01*
X139500773Y-47847304D01*
X139524572Y-47853265D01*
X139547671Y-47861530D01*
X139569850Y-47872020D01*
X139590893Y-47884632D01*
X139610599Y-47899247D01*
X139628777Y-47915723D01*
X139645253Y-47933901D01*
X139659868Y-47953607D01*
X139672480Y-47974650D01*
X139682970Y-47996829D01*
X139691235Y-48019928D01*
X139697196Y-48043727D01*
X139700796Y-48067995D01*
X139702000Y-48092499D01*
X139702000Y-48742501D01*
X139700796Y-48767005D01*
X139697196Y-48791273D01*
X139691235Y-48815072D01*
X139682970Y-48838171D01*
X139672480Y-48860350D01*
X139659868Y-48881393D01*
X139645253Y-48901099D01*
X139628777Y-48919277D01*
X139610599Y-48935753D01*
X139590893Y-48950368D01*
X139569850Y-48962980D01*
X139547671Y-48973470D01*
X139524572Y-48981735D01*
X139500773Y-48987696D01*
X139476505Y-48991296D01*
X139452001Y-48992500D01*
X138551999Y-48992500D01*
X138527495Y-48991296D01*
X138503227Y-48987696D01*
X138479428Y-48981735D01*
X138456329Y-48973470D01*
X138434150Y-48962980D01*
X138413107Y-48950368D01*
X138393401Y-48935753D01*
X138375223Y-48919277D01*
X138358747Y-48901099D01*
X138344132Y-48881393D01*
X138331520Y-48860350D01*
X138321030Y-48838171D01*
X138312765Y-48815072D01*
X138306804Y-48791273D01*
X138303204Y-48767005D01*
X138302000Y-48742501D01*
X138302000Y-48092499D01*
X138303204Y-48067995D01*
X138306804Y-48043727D01*
X138312765Y-48019928D01*
X138321030Y-47996829D01*
X138331520Y-47974650D01*
X138344132Y-47953607D01*
X138358747Y-47933901D01*
X138375223Y-47915723D01*
X138393401Y-47899247D01*
X138413107Y-47884632D01*
X138434150Y-47872020D01*
X138456329Y-47861530D01*
X138479428Y-47853265D01*
X138503227Y-47847304D01*
X138527495Y-47843704D01*
X138551999Y-47842500D01*
X139452001Y-47842500D01*
X139476505Y-47843704D01*
G37*
G36*
X131840504Y-43176704D02*
G01*
X131864773Y-43180304D01*
X131888571Y-43186265D01*
X131911671Y-43194530D01*
X131933849Y-43205020D01*
X131954893Y-43217633D01*
X131974598Y-43232247D01*
X131992777Y-43248723D01*
X132009253Y-43266902D01*
X132023867Y-43286607D01*
X132036480Y-43307651D01*
X132046970Y-43329829D01*
X132055235Y-43352929D01*
X132061196Y-43376727D01*
X132064796Y-43400996D01*
X132066000Y-43425500D01*
X132066000Y-44350500D01*
X132064796Y-44375004D01*
X132061196Y-44399273D01*
X132055235Y-44423071D01*
X132046970Y-44446171D01*
X132036480Y-44468349D01*
X132023867Y-44489393D01*
X132009253Y-44509098D01*
X131992777Y-44527277D01*
X131974598Y-44543753D01*
X131954893Y-44558367D01*
X131933849Y-44570980D01*
X131911671Y-44581470D01*
X131888571Y-44589735D01*
X131864773Y-44595696D01*
X131840504Y-44599296D01*
X131816000Y-44600500D01*
X130566000Y-44600500D01*
X130541496Y-44599296D01*
X130517227Y-44595696D01*
X130493429Y-44589735D01*
X130470329Y-44581470D01*
X130448151Y-44570980D01*
X130427107Y-44558367D01*
X130407402Y-44543753D01*
X130389223Y-44527277D01*
X130372747Y-44509098D01*
X130358133Y-44489393D01*
X130345520Y-44468349D01*
X130335030Y-44446171D01*
X130326765Y-44423071D01*
X130320804Y-44399273D01*
X130317204Y-44375004D01*
X130316000Y-44350500D01*
X130316000Y-43425500D01*
X130317204Y-43400996D01*
X130320804Y-43376727D01*
X130326765Y-43352929D01*
X130335030Y-43329829D01*
X130345520Y-43307651D01*
X130358133Y-43286607D01*
X130372747Y-43266902D01*
X130389223Y-43248723D01*
X130407402Y-43232247D01*
X130427107Y-43217633D01*
X130448151Y-43205020D01*
X130470329Y-43194530D01*
X130493429Y-43186265D01*
X130517227Y-43180304D01*
X130541496Y-43176704D01*
X130566000Y-43175500D01*
X131816000Y-43175500D01*
X131840504Y-43176704D01*
G37*
G36*
X131840504Y-46151704D02*
G01*
X131864773Y-46155304D01*
X131888571Y-46161265D01*
X131911671Y-46169530D01*
X131933849Y-46180020D01*
X131954893Y-46192633D01*
X131974598Y-46207247D01*
X131992777Y-46223723D01*
X132009253Y-46241902D01*
X132023867Y-46261607D01*
X132036480Y-46282651D01*
X132046970Y-46304829D01*
X132055235Y-46327929D01*
X132061196Y-46351727D01*
X132064796Y-46375996D01*
X132066000Y-46400500D01*
X132066000Y-47325500D01*
X132064796Y-47350004D01*
X132061196Y-47374273D01*
X132055235Y-47398071D01*
X132046970Y-47421171D01*
X132036480Y-47443349D01*
X132023867Y-47464393D01*
X132009253Y-47484098D01*
X131992777Y-47502277D01*
X131974598Y-47518753D01*
X131954893Y-47533367D01*
X131933849Y-47545980D01*
X131911671Y-47556470D01*
X131888571Y-47564735D01*
X131864773Y-47570696D01*
X131840504Y-47574296D01*
X131816000Y-47575500D01*
X130566000Y-47575500D01*
X130541496Y-47574296D01*
X130517227Y-47570696D01*
X130493429Y-47564735D01*
X130470329Y-47556470D01*
X130448151Y-47545980D01*
X130427107Y-47533367D01*
X130407402Y-47518753D01*
X130389223Y-47502277D01*
X130372747Y-47484098D01*
X130358133Y-47464393D01*
X130345520Y-47443349D01*
X130335030Y-47421171D01*
X130326765Y-47398071D01*
X130320804Y-47374273D01*
X130317204Y-47350004D01*
X130316000Y-47325500D01*
X130316000Y-46400500D01*
X130317204Y-46375996D01*
X130320804Y-46351727D01*
X130326765Y-46327929D01*
X130335030Y-46304829D01*
X130345520Y-46282651D01*
X130358133Y-46261607D01*
X130372747Y-46241902D01*
X130389223Y-46223723D01*
X130407402Y-46207247D01*
X130427107Y-46192633D01*
X130448151Y-46180020D01*
X130470329Y-46169530D01*
X130493429Y-46161265D01*
X130517227Y-46155304D01*
X130541496Y-46151704D01*
X130566000Y-46150500D01*
X131816000Y-46150500D01*
X131840504Y-46151704D01*
G37*
G36*
X148493005Y-95574204D02*
G01*
X148517273Y-95577804D01*
X148541072Y-95583765D01*
X148564171Y-95592030D01*
X148586350Y-95602520D01*
X148607393Y-95615132D01*
X148627099Y-95629747D01*
X148645277Y-95646223D01*
X148661753Y-95664401D01*
X148676368Y-95684107D01*
X148688980Y-95705150D01*
X148699470Y-95727329D01*
X148707735Y-95750428D01*
X148713696Y-95774227D01*
X148717296Y-95798495D01*
X148718500Y-95822999D01*
X148718500Y-96473001D01*
X148717296Y-96497505D01*
X148713696Y-96521773D01*
X148707735Y-96545572D01*
X148699470Y-96568671D01*
X148688980Y-96590850D01*
X148676368Y-96611893D01*
X148661753Y-96631599D01*
X148645277Y-96649777D01*
X148627099Y-96666253D01*
X148607393Y-96680868D01*
X148586350Y-96693480D01*
X148564171Y-96703970D01*
X148541072Y-96712235D01*
X148517273Y-96718196D01*
X148493005Y-96721796D01*
X148468501Y-96723000D01*
X147568499Y-96723000D01*
X147543995Y-96721796D01*
X147519727Y-96718196D01*
X147495928Y-96712235D01*
X147472829Y-96703970D01*
X147450650Y-96693480D01*
X147429607Y-96680868D01*
X147409901Y-96666253D01*
X147391723Y-96649777D01*
X147375247Y-96631599D01*
X147360632Y-96611893D01*
X147348020Y-96590850D01*
X147337530Y-96568671D01*
X147329265Y-96545572D01*
X147323304Y-96521773D01*
X147319704Y-96497505D01*
X147318500Y-96473001D01*
X147318500Y-95822999D01*
X147319704Y-95798495D01*
X147323304Y-95774227D01*
X147329265Y-95750428D01*
X147337530Y-95727329D01*
X147348020Y-95705150D01*
X147360632Y-95684107D01*
X147375247Y-95664401D01*
X147391723Y-95646223D01*
X147409901Y-95629747D01*
X147429607Y-95615132D01*
X147450650Y-95602520D01*
X147472829Y-95592030D01*
X147495928Y-95583765D01*
X147519727Y-95577804D01*
X147543995Y-95574204D01*
X147568499Y-95573000D01*
X148468501Y-95573000D01*
X148493005Y-95574204D01*
G37*
G36*
X148493005Y-93524204D02*
G01*
X148517273Y-93527804D01*
X148541072Y-93533765D01*
X148564171Y-93542030D01*
X148586350Y-93552520D01*
X148607393Y-93565132D01*
X148627099Y-93579747D01*
X148645277Y-93596223D01*
X148661753Y-93614401D01*
X148676368Y-93634107D01*
X148688980Y-93655150D01*
X148699470Y-93677329D01*
X148707735Y-93700428D01*
X148713696Y-93724227D01*
X148717296Y-93748495D01*
X148718500Y-93772999D01*
X148718500Y-94423001D01*
X148717296Y-94447505D01*
X148713696Y-94471773D01*
X148707735Y-94495572D01*
X148699470Y-94518671D01*
X148688980Y-94540850D01*
X148676368Y-94561893D01*
X148661753Y-94581599D01*
X148645277Y-94599777D01*
X148627099Y-94616253D01*
X148607393Y-94630868D01*
X148586350Y-94643480D01*
X148564171Y-94653970D01*
X148541072Y-94662235D01*
X148517273Y-94668196D01*
X148493005Y-94671796D01*
X148468501Y-94673000D01*
X147568499Y-94673000D01*
X147543995Y-94671796D01*
X147519727Y-94668196D01*
X147495928Y-94662235D01*
X147472829Y-94653970D01*
X147450650Y-94643480D01*
X147429607Y-94630868D01*
X147409901Y-94616253D01*
X147391723Y-94599777D01*
X147375247Y-94581599D01*
X147360632Y-94561893D01*
X147348020Y-94540850D01*
X147337530Y-94518671D01*
X147329265Y-94495572D01*
X147323304Y-94471773D01*
X147319704Y-94447505D01*
X147318500Y-94423001D01*
X147318500Y-93772999D01*
X147319704Y-93748495D01*
X147323304Y-93724227D01*
X147329265Y-93700428D01*
X147337530Y-93677329D01*
X147348020Y-93655150D01*
X147360632Y-93634107D01*
X147375247Y-93614401D01*
X147391723Y-93596223D01*
X147409901Y-93579747D01*
X147429607Y-93565132D01*
X147450650Y-93552520D01*
X147472829Y-93542030D01*
X147495928Y-93533765D01*
X147519727Y-93527804D01*
X147543995Y-93524204D01*
X147568499Y-93523000D01*
X148468501Y-93523000D01*
X148493005Y-93524204D01*
G37*
G36*
X137645505Y-79628704D02*
G01*
X137669773Y-79632304D01*
X137693572Y-79638265D01*
X137716671Y-79646530D01*
X137738850Y-79657020D01*
X137759893Y-79669632D01*
X137779599Y-79684247D01*
X137797777Y-79700723D01*
X137814253Y-79718901D01*
X137828868Y-79738607D01*
X137841480Y-79759650D01*
X137851970Y-79781829D01*
X137860235Y-79804928D01*
X137866196Y-79828727D01*
X137869796Y-79852995D01*
X137871000Y-79877499D01*
X137871000Y-80777501D01*
X137869796Y-80802005D01*
X137866196Y-80826273D01*
X137860235Y-80850072D01*
X137851970Y-80873171D01*
X137841480Y-80895350D01*
X137828868Y-80916393D01*
X137814253Y-80936099D01*
X137797777Y-80954277D01*
X137779599Y-80970753D01*
X137759893Y-80985368D01*
X137738850Y-80997980D01*
X137716671Y-81008470D01*
X137693572Y-81016735D01*
X137669773Y-81022696D01*
X137645505Y-81026296D01*
X137621001Y-81027500D01*
X136970999Y-81027500D01*
X136946495Y-81026296D01*
X136922227Y-81022696D01*
X136898428Y-81016735D01*
X136875329Y-81008470D01*
X136853150Y-80997980D01*
X136832107Y-80985368D01*
X136812401Y-80970753D01*
X136794223Y-80954277D01*
X136777747Y-80936099D01*
X136763132Y-80916393D01*
X136750520Y-80895350D01*
X136740030Y-80873171D01*
X136731765Y-80850072D01*
X136725804Y-80826273D01*
X136722204Y-80802005D01*
X136721000Y-80777501D01*
X136721000Y-79877499D01*
X136722204Y-79852995D01*
X136725804Y-79828727D01*
X136731765Y-79804928D01*
X136740030Y-79781829D01*
X136750520Y-79759650D01*
X136763132Y-79738607D01*
X136777747Y-79718901D01*
X136794223Y-79700723D01*
X136812401Y-79684247D01*
X136832107Y-79669632D01*
X136853150Y-79657020D01*
X136875329Y-79646530D01*
X136898428Y-79638265D01*
X136922227Y-79632304D01*
X136946495Y-79628704D01*
X136970999Y-79627500D01*
X137621001Y-79627500D01*
X137645505Y-79628704D01*
G37*
G36*
X135595505Y-79628704D02*
G01*
X135619773Y-79632304D01*
X135643572Y-79638265D01*
X135666671Y-79646530D01*
X135688850Y-79657020D01*
X135709893Y-79669632D01*
X135729599Y-79684247D01*
X135747777Y-79700723D01*
X135764253Y-79718901D01*
X135778868Y-79738607D01*
X135791480Y-79759650D01*
X135801970Y-79781829D01*
X135810235Y-79804928D01*
X135816196Y-79828727D01*
X135819796Y-79852995D01*
X135821000Y-79877499D01*
X135821000Y-80777501D01*
X135819796Y-80802005D01*
X135816196Y-80826273D01*
X135810235Y-80850072D01*
X135801970Y-80873171D01*
X135791480Y-80895350D01*
X135778868Y-80916393D01*
X135764253Y-80936099D01*
X135747777Y-80954277D01*
X135729599Y-80970753D01*
X135709893Y-80985368D01*
X135688850Y-80997980D01*
X135666671Y-81008470D01*
X135643572Y-81016735D01*
X135619773Y-81022696D01*
X135595505Y-81026296D01*
X135571001Y-81027500D01*
X134920999Y-81027500D01*
X134896495Y-81026296D01*
X134872227Y-81022696D01*
X134848428Y-81016735D01*
X134825329Y-81008470D01*
X134803150Y-80997980D01*
X134782107Y-80985368D01*
X134762401Y-80970753D01*
X134744223Y-80954277D01*
X134727747Y-80936099D01*
X134713132Y-80916393D01*
X134700520Y-80895350D01*
X134690030Y-80873171D01*
X134681765Y-80850072D01*
X134675804Y-80826273D01*
X134672204Y-80802005D01*
X134671000Y-80777501D01*
X134671000Y-79877499D01*
X134672204Y-79852995D01*
X134675804Y-79828727D01*
X134681765Y-79804928D01*
X134690030Y-79781829D01*
X134700520Y-79759650D01*
X134713132Y-79738607D01*
X134727747Y-79718901D01*
X134744223Y-79700723D01*
X134762401Y-79684247D01*
X134782107Y-79669632D01*
X134803150Y-79657020D01*
X134825329Y-79646530D01*
X134848428Y-79638265D01*
X134872227Y-79632304D01*
X134896495Y-79628704D01*
X134920999Y-79627500D01*
X135571001Y-79627500D01*
X135595505Y-79628704D01*
G37*
G36*
X151541005Y-95710204D02*
G01*
X151565273Y-95713804D01*
X151589072Y-95719765D01*
X151612171Y-95728030D01*
X151634350Y-95738520D01*
X151655393Y-95751132D01*
X151675099Y-95765747D01*
X151693277Y-95782223D01*
X151709753Y-95800401D01*
X151724368Y-95820107D01*
X151736980Y-95841150D01*
X151747470Y-95863329D01*
X151755735Y-95886428D01*
X151761696Y-95910227D01*
X151765296Y-95934495D01*
X151766500Y-95958999D01*
X151766500Y-96609001D01*
X151765296Y-96633505D01*
X151761696Y-96657773D01*
X151755735Y-96681572D01*
X151747470Y-96704671D01*
X151736980Y-96726850D01*
X151724368Y-96747893D01*
X151709753Y-96767599D01*
X151693277Y-96785777D01*
X151675099Y-96802253D01*
X151655393Y-96816868D01*
X151634350Y-96829480D01*
X151612171Y-96839970D01*
X151589072Y-96848235D01*
X151565273Y-96854196D01*
X151541005Y-96857796D01*
X151516501Y-96859000D01*
X150616499Y-96859000D01*
X150591995Y-96857796D01*
X150567727Y-96854196D01*
X150543928Y-96848235D01*
X150520829Y-96839970D01*
X150498650Y-96829480D01*
X150477607Y-96816868D01*
X150457901Y-96802253D01*
X150439723Y-96785777D01*
X150423247Y-96767599D01*
X150408632Y-96747893D01*
X150396020Y-96726850D01*
X150385530Y-96704671D01*
X150377265Y-96681572D01*
X150371304Y-96657773D01*
X150367704Y-96633505D01*
X150366500Y-96609001D01*
X150366500Y-95958999D01*
X150367704Y-95934495D01*
X150371304Y-95910227D01*
X150377265Y-95886428D01*
X150385530Y-95863329D01*
X150396020Y-95841150D01*
X150408632Y-95820107D01*
X150423247Y-95800401D01*
X150439723Y-95782223D01*
X150457901Y-95765747D01*
X150477607Y-95751132D01*
X150498650Y-95738520D01*
X150520829Y-95728030D01*
X150543928Y-95719765D01*
X150567727Y-95713804D01*
X150591995Y-95710204D01*
X150616499Y-95709000D01*
X151516501Y-95709000D01*
X151541005Y-95710204D01*
G37*
G36*
X151541005Y-93660204D02*
G01*
X151565273Y-93663804D01*
X151589072Y-93669765D01*
X151612171Y-93678030D01*
X151634350Y-93688520D01*
X151655393Y-93701132D01*
X151675099Y-93715747D01*
X151693277Y-93732223D01*
X151709753Y-93750401D01*
X151724368Y-93770107D01*
X151736980Y-93791150D01*
X151747470Y-93813329D01*
X151755735Y-93836428D01*
X151761696Y-93860227D01*
X151765296Y-93884495D01*
X151766500Y-93908999D01*
X151766500Y-94559001D01*
X151765296Y-94583505D01*
X151761696Y-94607773D01*
X151755735Y-94631572D01*
X151747470Y-94654671D01*
X151736980Y-94676850D01*
X151724368Y-94697893D01*
X151709753Y-94717599D01*
X151693277Y-94735777D01*
X151675099Y-94752253D01*
X151655393Y-94766868D01*
X151634350Y-94779480D01*
X151612171Y-94789970D01*
X151589072Y-94798235D01*
X151565273Y-94804196D01*
X151541005Y-94807796D01*
X151516501Y-94809000D01*
X150616499Y-94809000D01*
X150591995Y-94807796D01*
X150567727Y-94804196D01*
X150543928Y-94798235D01*
X150520829Y-94789970D01*
X150498650Y-94779480D01*
X150477607Y-94766868D01*
X150457901Y-94752253D01*
X150439723Y-94735777D01*
X150423247Y-94717599D01*
X150408632Y-94697893D01*
X150396020Y-94676850D01*
X150385530Y-94654671D01*
X150377265Y-94631572D01*
X150371304Y-94607773D01*
X150367704Y-94583505D01*
X150366500Y-94559001D01*
X150366500Y-93908999D01*
X150367704Y-93884495D01*
X150371304Y-93860227D01*
X150377265Y-93836428D01*
X150385530Y-93813329D01*
X150396020Y-93791150D01*
X150408632Y-93770107D01*
X150423247Y-93750401D01*
X150439723Y-93732223D01*
X150457901Y-93715747D01*
X150477607Y-93701132D01*
X150498650Y-93688520D01*
X150520829Y-93678030D01*
X150543928Y-93669765D01*
X150567727Y-93663804D01*
X150591995Y-93660204D01*
X150616499Y-93659000D01*
X151516501Y-93659000D01*
X151541005Y-93660204D01*
G37*
G36*
X141818505Y-79628704D02*
G01*
X141842773Y-79632304D01*
X141866572Y-79638265D01*
X141889671Y-79646530D01*
X141911850Y-79657020D01*
X141932893Y-79669632D01*
X141952599Y-79684247D01*
X141970777Y-79700723D01*
X141987253Y-79718901D01*
X142001868Y-79738607D01*
X142014480Y-79759650D01*
X142024970Y-79781829D01*
X142033235Y-79804928D01*
X142039196Y-79828727D01*
X142042796Y-79852995D01*
X142044000Y-79877499D01*
X142044000Y-80777501D01*
X142042796Y-80802005D01*
X142039196Y-80826273D01*
X142033235Y-80850072D01*
X142024970Y-80873171D01*
X142014480Y-80895350D01*
X142001868Y-80916393D01*
X141987253Y-80936099D01*
X141970777Y-80954277D01*
X141952599Y-80970753D01*
X141932893Y-80985368D01*
X141911850Y-80997980D01*
X141889671Y-81008470D01*
X141866572Y-81016735D01*
X141842773Y-81022696D01*
X141818505Y-81026296D01*
X141794001Y-81027500D01*
X141143999Y-81027500D01*
X141119495Y-81026296D01*
X141095227Y-81022696D01*
X141071428Y-81016735D01*
X141048329Y-81008470D01*
X141026150Y-80997980D01*
X141005107Y-80985368D01*
X140985401Y-80970753D01*
X140967223Y-80954277D01*
X140950747Y-80936099D01*
X140936132Y-80916393D01*
X140923520Y-80895350D01*
X140913030Y-80873171D01*
X140904765Y-80850072D01*
X140898804Y-80826273D01*
X140895204Y-80802005D01*
X140894000Y-80777501D01*
X140894000Y-79877499D01*
X140895204Y-79852995D01*
X140898804Y-79828727D01*
X140904765Y-79804928D01*
X140913030Y-79781829D01*
X140923520Y-79759650D01*
X140936132Y-79738607D01*
X140950747Y-79718901D01*
X140967223Y-79700723D01*
X140985401Y-79684247D01*
X141005107Y-79669632D01*
X141026150Y-79657020D01*
X141048329Y-79646530D01*
X141071428Y-79638265D01*
X141095227Y-79632304D01*
X141119495Y-79628704D01*
X141143999Y-79627500D01*
X141794001Y-79627500D01*
X141818505Y-79628704D01*
G37*
G36*
X143868505Y-79628704D02*
G01*
X143892773Y-79632304D01*
X143916572Y-79638265D01*
X143939671Y-79646530D01*
X143961850Y-79657020D01*
X143982893Y-79669632D01*
X144002599Y-79684247D01*
X144020777Y-79700723D01*
X144037253Y-79718901D01*
X144051868Y-79738607D01*
X144064480Y-79759650D01*
X144074970Y-79781829D01*
X144083235Y-79804928D01*
X144089196Y-79828727D01*
X144092796Y-79852995D01*
X144094000Y-79877499D01*
X144094000Y-80777501D01*
X144092796Y-80802005D01*
X144089196Y-80826273D01*
X144083235Y-80850072D01*
X144074970Y-80873171D01*
X144064480Y-80895350D01*
X144051868Y-80916393D01*
X144037253Y-80936099D01*
X144020777Y-80954277D01*
X144002599Y-80970753D01*
X143982893Y-80985368D01*
X143961850Y-80997980D01*
X143939671Y-81008470D01*
X143916572Y-81016735D01*
X143892773Y-81022696D01*
X143868505Y-81026296D01*
X143844001Y-81027500D01*
X143193999Y-81027500D01*
X143169495Y-81026296D01*
X143145227Y-81022696D01*
X143121428Y-81016735D01*
X143098329Y-81008470D01*
X143076150Y-80997980D01*
X143055107Y-80985368D01*
X143035401Y-80970753D01*
X143017223Y-80954277D01*
X143000747Y-80936099D01*
X142986132Y-80916393D01*
X142973520Y-80895350D01*
X142963030Y-80873171D01*
X142954765Y-80850072D01*
X142948804Y-80826273D01*
X142945204Y-80802005D01*
X142944000Y-80777501D01*
X142944000Y-79877499D01*
X142945204Y-79852995D01*
X142948804Y-79828727D01*
X142954765Y-79804928D01*
X142963030Y-79781829D01*
X142973520Y-79759650D01*
X142986132Y-79738607D01*
X143000747Y-79718901D01*
X143017223Y-79700723D01*
X143035401Y-79684247D01*
X143055107Y-79669632D01*
X143076150Y-79657020D01*
X143098329Y-79646530D01*
X143121428Y-79638265D01*
X143145227Y-79632304D01*
X143169495Y-79628704D01*
X143193999Y-79627500D01*
X143844001Y-79627500D01*
X143868505Y-79628704D01*
G37*
G36*
X131475005Y-87609704D02*
G01*
X131499273Y-87613304D01*
X131523072Y-87619265D01*
X131546171Y-87627530D01*
X131568350Y-87638020D01*
X131589393Y-87650632D01*
X131609099Y-87665247D01*
X131627277Y-87681723D01*
X131643753Y-87699901D01*
X131658368Y-87719607D01*
X131670980Y-87740650D01*
X131681470Y-87762829D01*
X131689735Y-87785928D01*
X131695696Y-87809727D01*
X131699296Y-87833995D01*
X131700500Y-87858499D01*
X131700500Y-88508501D01*
X131699296Y-88533005D01*
X131695696Y-88557273D01*
X131689735Y-88581072D01*
X131681470Y-88604171D01*
X131670980Y-88626350D01*
X131658368Y-88647393D01*
X131643753Y-88667099D01*
X131627277Y-88685277D01*
X131609099Y-88701753D01*
X131589393Y-88716368D01*
X131568350Y-88728980D01*
X131546171Y-88739470D01*
X131523072Y-88747735D01*
X131499273Y-88753696D01*
X131475005Y-88757296D01*
X131450501Y-88758500D01*
X130550499Y-88758500D01*
X130525995Y-88757296D01*
X130501727Y-88753696D01*
X130477928Y-88747735D01*
X130454829Y-88739470D01*
X130432650Y-88728980D01*
X130411607Y-88716368D01*
X130391901Y-88701753D01*
X130373723Y-88685277D01*
X130357247Y-88667099D01*
X130342632Y-88647393D01*
X130330020Y-88626350D01*
X130319530Y-88604171D01*
X130311265Y-88581072D01*
X130305304Y-88557273D01*
X130301704Y-88533005D01*
X130300500Y-88508501D01*
X130300500Y-87858499D01*
X130301704Y-87833995D01*
X130305304Y-87809727D01*
X130311265Y-87785928D01*
X130319530Y-87762829D01*
X130330020Y-87740650D01*
X130342632Y-87719607D01*
X130357247Y-87699901D01*
X130373723Y-87681723D01*
X130391901Y-87665247D01*
X130411607Y-87650632D01*
X130432650Y-87638020D01*
X130454829Y-87627530D01*
X130477928Y-87619265D01*
X130501727Y-87613304D01*
X130525995Y-87609704D01*
X130550499Y-87608500D01*
X131450501Y-87608500D01*
X131475005Y-87609704D01*
G37*
G36*
X131475005Y-89659704D02*
G01*
X131499273Y-89663304D01*
X131523072Y-89669265D01*
X131546171Y-89677530D01*
X131568350Y-89688020D01*
X131589393Y-89700632D01*
X131609099Y-89715247D01*
X131627277Y-89731723D01*
X131643753Y-89749901D01*
X131658368Y-89769607D01*
X131670980Y-89790650D01*
X131681470Y-89812829D01*
X131689735Y-89835928D01*
X131695696Y-89859727D01*
X131699296Y-89883995D01*
X131700500Y-89908499D01*
X131700500Y-90558501D01*
X131699296Y-90583005D01*
X131695696Y-90607273D01*
X131689735Y-90631072D01*
X131681470Y-90654171D01*
X131670980Y-90676350D01*
X131658368Y-90697393D01*
X131643753Y-90717099D01*
X131627277Y-90735277D01*
X131609099Y-90751753D01*
X131589393Y-90766368D01*
X131568350Y-90778980D01*
X131546171Y-90789470D01*
X131523072Y-90797735D01*
X131499273Y-90803696D01*
X131475005Y-90807296D01*
X131450501Y-90808500D01*
X130550499Y-90808500D01*
X130525995Y-90807296D01*
X130501727Y-90803696D01*
X130477928Y-90797735D01*
X130454829Y-90789470D01*
X130432650Y-90778980D01*
X130411607Y-90766368D01*
X130391901Y-90751753D01*
X130373723Y-90735277D01*
X130357247Y-90717099D01*
X130342632Y-90697393D01*
X130330020Y-90676350D01*
X130319530Y-90654171D01*
X130311265Y-90631072D01*
X130305304Y-90607273D01*
X130301704Y-90583005D01*
X130300500Y-90558501D01*
X130300500Y-89908499D01*
X130301704Y-89883995D01*
X130305304Y-89859727D01*
X130311265Y-89835928D01*
X130319530Y-89812829D01*
X130330020Y-89790650D01*
X130342632Y-89769607D01*
X130357247Y-89749901D01*
X130373723Y-89731723D01*
X130391901Y-89715247D01*
X130411607Y-89700632D01*
X130432650Y-89688020D01*
X130454829Y-89677530D01*
X130477928Y-89669265D01*
X130501727Y-89663304D01*
X130525995Y-89659704D01*
X130550499Y-89658500D01*
X131450501Y-89658500D01*
X131475005Y-89659704D01*
G37*
G36*
X137507505Y-98803704D02*
G01*
X137531773Y-98807304D01*
X137555572Y-98813265D01*
X137578671Y-98821530D01*
X137600850Y-98832020D01*
X137621893Y-98844632D01*
X137641599Y-98859247D01*
X137659777Y-98875723D01*
X137676253Y-98893901D01*
X137690868Y-98913607D01*
X137703480Y-98934650D01*
X137713970Y-98956829D01*
X137722235Y-98979928D01*
X137728196Y-99003727D01*
X137731796Y-99027995D01*
X137733000Y-99052499D01*
X137733000Y-99702501D01*
X137731796Y-99727005D01*
X137728196Y-99751273D01*
X137722235Y-99775072D01*
X137713970Y-99798171D01*
X137703480Y-99820350D01*
X137690868Y-99841393D01*
X137676253Y-99861099D01*
X137659777Y-99879277D01*
X137641599Y-99895753D01*
X137621893Y-99910368D01*
X137600850Y-99922980D01*
X137578671Y-99933470D01*
X137555572Y-99941735D01*
X137531773Y-99947696D01*
X137507505Y-99951296D01*
X137483001Y-99952500D01*
X136582999Y-99952500D01*
X136558495Y-99951296D01*
X136534227Y-99947696D01*
X136510428Y-99941735D01*
X136487329Y-99933470D01*
X136465150Y-99922980D01*
X136444107Y-99910368D01*
X136424401Y-99895753D01*
X136406223Y-99879277D01*
X136389747Y-99861099D01*
X136375132Y-99841393D01*
X136362520Y-99820350D01*
X136352030Y-99798171D01*
X136343765Y-99775072D01*
X136337804Y-99751273D01*
X136334204Y-99727005D01*
X136333000Y-99702501D01*
X136333000Y-99052499D01*
X136334204Y-99027995D01*
X136337804Y-99003727D01*
X136343765Y-98979928D01*
X136352030Y-98956829D01*
X136362520Y-98934650D01*
X136375132Y-98913607D01*
X136389747Y-98893901D01*
X136406223Y-98875723D01*
X136424401Y-98859247D01*
X136444107Y-98844632D01*
X136465150Y-98832020D01*
X136487329Y-98821530D01*
X136510428Y-98813265D01*
X136534227Y-98807304D01*
X136558495Y-98803704D01*
X136582999Y-98802500D01*
X137483001Y-98802500D01*
X137507505Y-98803704D01*
G37*
G36*
X137507505Y-100853704D02*
G01*
X137531773Y-100857304D01*
X137555572Y-100863265D01*
X137578671Y-100871530D01*
X137600850Y-100882020D01*
X137621893Y-100894632D01*
X137641599Y-100909247D01*
X137659777Y-100925723D01*
X137676253Y-100943901D01*
X137690868Y-100963607D01*
X137703480Y-100984650D01*
X137713970Y-101006829D01*
X137722235Y-101029928D01*
X137728196Y-101053727D01*
X137731796Y-101077995D01*
X137733000Y-101102499D01*
X137733000Y-101752501D01*
X137731796Y-101777005D01*
X137728196Y-101801273D01*
X137722235Y-101825072D01*
X137713970Y-101848171D01*
X137703480Y-101870350D01*
X137690868Y-101891393D01*
X137676253Y-101911099D01*
X137659777Y-101929277D01*
X137641599Y-101945753D01*
X137621893Y-101960368D01*
X137600850Y-101972980D01*
X137578671Y-101983470D01*
X137555572Y-101991735D01*
X137531773Y-101997696D01*
X137507505Y-102001296D01*
X137483001Y-102002500D01*
X136582999Y-102002500D01*
X136558495Y-102001296D01*
X136534227Y-101997696D01*
X136510428Y-101991735D01*
X136487329Y-101983470D01*
X136465150Y-101972980D01*
X136444107Y-101960368D01*
X136424401Y-101945753D01*
X136406223Y-101929277D01*
X136389747Y-101911099D01*
X136375132Y-101891393D01*
X136362520Y-101870350D01*
X136352030Y-101848171D01*
X136343765Y-101825072D01*
X136337804Y-101801273D01*
X136334204Y-101777005D01*
X136333000Y-101752501D01*
X136333000Y-101102499D01*
X136334204Y-101077995D01*
X136337804Y-101053727D01*
X136343765Y-101029928D01*
X136352030Y-101006829D01*
X136362520Y-100984650D01*
X136375132Y-100963607D01*
X136389747Y-100943901D01*
X136406223Y-100925723D01*
X136424401Y-100909247D01*
X136444107Y-100894632D01*
X136465150Y-100882020D01*
X136487329Y-100871530D01*
X136510428Y-100863265D01*
X136534227Y-100857304D01*
X136558495Y-100853704D01*
X136582999Y-100852500D01*
X137483001Y-100852500D01*
X137507505Y-100853704D01*
G37*
G36*
X145254505Y-100726704D02*
G01*
X145278773Y-100730304D01*
X145302572Y-100736265D01*
X145325671Y-100744530D01*
X145347850Y-100755020D01*
X145368893Y-100767632D01*
X145388599Y-100782247D01*
X145406777Y-100798723D01*
X145423253Y-100816901D01*
X145437868Y-100836607D01*
X145450480Y-100857650D01*
X145460970Y-100879829D01*
X145469235Y-100902928D01*
X145475196Y-100926727D01*
X145478796Y-100950995D01*
X145480000Y-100975499D01*
X145480000Y-101625501D01*
X145478796Y-101650005D01*
X145475196Y-101674273D01*
X145469235Y-101698072D01*
X145460970Y-101721171D01*
X145450480Y-101743350D01*
X145437868Y-101764393D01*
X145423253Y-101784099D01*
X145406777Y-101802277D01*
X145388599Y-101818753D01*
X145368893Y-101833368D01*
X145347850Y-101845980D01*
X145325671Y-101856470D01*
X145302572Y-101864735D01*
X145278773Y-101870696D01*
X145254505Y-101874296D01*
X145230001Y-101875500D01*
X144329999Y-101875500D01*
X144305495Y-101874296D01*
X144281227Y-101870696D01*
X144257428Y-101864735D01*
X144234329Y-101856470D01*
X144212150Y-101845980D01*
X144191107Y-101833368D01*
X144171401Y-101818753D01*
X144153223Y-101802277D01*
X144136747Y-101784099D01*
X144122132Y-101764393D01*
X144109520Y-101743350D01*
X144099030Y-101721171D01*
X144090765Y-101698072D01*
X144084804Y-101674273D01*
X144081204Y-101650005D01*
X144080000Y-101625501D01*
X144080000Y-100975499D01*
X144081204Y-100950995D01*
X144084804Y-100926727D01*
X144090765Y-100902928D01*
X144099030Y-100879829D01*
X144109520Y-100857650D01*
X144122132Y-100836607D01*
X144136747Y-100816901D01*
X144153223Y-100798723D01*
X144171401Y-100782247D01*
X144191107Y-100767632D01*
X144212150Y-100755020D01*
X144234329Y-100744530D01*
X144257428Y-100736265D01*
X144281227Y-100730304D01*
X144305495Y-100726704D01*
X144329999Y-100725500D01*
X145230001Y-100725500D01*
X145254505Y-100726704D01*
G37*
G36*
X145254505Y-98676704D02*
G01*
X145278773Y-98680304D01*
X145302572Y-98686265D01*
X145325671Y-98694530D01*
X145347850Y-98705020D01*
X145368893Y-98717632D01*
X145388599Y-98732247D01*
X145406777Y-98748723D01*
X145423253Y-98766901D01*
X145437868Y-98786607D01*
X145450480Y-98807650D01*
X145460970Y-98829829D01*
X145469235Y-98852928D01*
X145475196Y-98876727D01*
X145478796Y-98900995D01*
X145480000Y-98925499D01*
X145480000Y-99575501D01*
X145478796Y-99600005D01*
X145475196Y-99624273D01*
X145469235Y-99648072D01*
X145460970Y-99671171D01*
X145450480Y-99693350D01*
X145437868Y-99714393D01*
X145423253Y-99734099D01*
X145406777Y-99752277D01*
X145388599Y-99768753D01*
X145368893Y-99783368D01*
X145347850Y-99795980D01*
X145325671Y-99806470D01*
X145302572Y-99814735D01*
X145278773Y-99820696D01*
X145254505Y-99824296D01*
X145230001Y-99825500D01*
X144329999Y-99825500D01*
X144305495Y-99824296D01*
X144281227Y-99820696D01*
X144257428Y-99814735D01*
X144234329Y-99806470D01*
X144212150Y-99795980D01*
X144191107Y-99783368D01*
X144171401Y-99768753D01*
X144153223Y-99752277D01*
X144136747Y-99734099D01*
X144122132Y-99714393D01*
X144109520Y-99693350D01*
X144099030Y-99671171D01*
X144090765Y-99648072D01*
X144084804Y-99624273D01*
X144081204Y-99600005D01*
X144080000Y-99575501D01*
X144080000Y-98925499D01*
X144081204Y-98900995D01*
X144084804Y-98876727D01*
X144090765Y-98852928D01*
X144099030Y-98829829D01*
X144109520Y-98807650D01*
X144122132Y-98786607D01*
X144136747Y-98766901D01*
X144153223Y-98748723D01*
X144171401Y-98732247D01*
X144191107Y-98717632D01*
X144212150Y-98705020D01*
X144234329Y-98694530D01*
X144257428Y-98686265D01*
X144281227Y-98680304D01*
X144305495Y-98676704D01*
X144329999Y-98675500D01*
X145230001Y-98675500D01*
X145254505Y-98676704D01*
G37*
M02*
