G04 #@! TF.GenerationSoftware,KiCad,Pcbnew,5.1.5*
G04 #@! TF.CreationDate,2020-02-23T20:52:15-06:00*
G04 #@! TF.ProjectId,m'ergo,6d276572-676f-42e6-9b69-6361645f7063,rev?*
G04 #@! TF.SameCoordinates,Original*
G04 #@! TF.FileFunction,Legend,Top*
G04 #@! TF.FilePolarity,Positive*
%FSLAX46Y46*%
G04 Gerber Fmt 4.6, Leading zero omitted, Abs format (unit mm)*
G04 Created by KiCad (PCBNEW 5.1.5) date 2020-02-23 20:52:15*
%MOMM*%
%LPD*%
G04 APERTURE LIST*
%ADD10C,0.120000*%
%ADD11C,0.010000*%
%ADD12C,0.150000*%
%ADD13C,0.200000*%
G04 APERTURE END LIST*
D10*
X136376531Y-85957530D02*
G75*
G03X136376531Y-85957530I-740531J0D01*
G01*
D11*
G36*
X56186508Y-80911597D02*
G01*
X56274283Y-81021120D01*
X56429824Y-81327609D01*
X56546834Y-81737657D01*
X56606422Y-82180071D01*
X56604279Y-82398281D01*
X56537138Y-82534031D01*
X56364304Y-82662751D01*
X56336749Y-82679933D01*
X56144062Y-82826999D01*
X56032373Y-83007815D01*
X55962843Y-83259944D01*
X55917932Y-83721367D01*
X55982259Y-84119182D01*
X56145459Y-84427221D01*
X56397169Y-84619312D01*
X56516120Y-84656945D01*
X56714781Y-84636204D01*
X56971032Y-84527203D01*
X57054442Y-84477071D01*
X57254505Y-84332614D01*
X57373477Y-84187158D01*
X57411607Y-84083869D01*
X59109682Y-84444806D01*
X59111104Y-84723308D01*
X59167884Y-84948486D01*
X59271076Y-85151120D01*
X59395127Y-85306657D01*
X59514484Y-85390546D01*
X59603594Y-85378231D01*
X59636903Y-85245162D01*
X59636367Y-85228021D01*
X59693592Y-85058023D01*
X59892666Y-84871695D01*
X59964225Y-84821641D01*
X60237282Y-84664230D01*
X60417301Y-84630288D01*
X60525854Y-84718631D01*
X60554520Y-84789302D01*
X60607448Y-84848404D01*
X60672563Y-84777735D01*
X60736402Y-84614906D01*
X60785501Y-84397526D01*
X60806394Y-84163202D01*
X60804881Y-84089980D01*
X60734243Y-83782949D01*
X60579239Y-83511635D01*
X60375866Y-83330365D01*
X60276287Y-83292239D01*
X59952162Y-83302510D01*
X59649343Y-83452496D01*
X59391927Y-83712604D01*
X59204007Y-84053239D01*
X59109682Y-84444806D01*
X57411607Y-84083869D01*
X57450560Y-83978356D01*
X57498538Y-83770803D01*
X57551067Y-83345115D01*
X57502620Y-83007107D01*
X57493505Y-82979921D01*
X57385802Y-82673581D01*
X57632005Y-82635267D01*
X58294216Y-82602293D01*
X59007156Y-82687231D01*
X59722211Y-82876118D01*
X60390763Y-83154993D01*
X60964195Y-83509892D01*
X61119053Y-83636698D01*
X61501757Y-83974559D01*
X61635114Y-83604238D01*
X61815657Y-83244390D01*
X62072367Y-82907794D01*
X62360561Y-82646183D01*
X62559004Y-82534631D01*
X62775670Y-82480945D01*
X62966582Y-82481330D01*
X63084403Y-82528781D01*
X63084578Y-82612427D01*
X62801673Y-83020656D01*
X62600091Y-83322766D01*
X62463729Y-83551134D01*
X62376480Y-83738138D01*
X62322242Y-83916154D01*
X62284907Y-84117561D01*
X62264081Y-84261944D01*
X62223507Y-84646488D01*
X62230946Y-84870219D01*
X62285825Y-84932589D01*
X62387567Y-84833048D01*
X62535601Y-84571048D01*
X62552240Y-84537301D01*
X62724972Y-84215947D01*
X62925407Y-83892055D01*
X63130182Y-83597799D01*
X63315936Y-83365352D01*
X63459308Y-83226889D01*
X63521129Y-83202928D01*
X63553672Y-83273321D01*
X63514966Y-83353094D01*
X63457460Y-83486311D01*
X63373202Y-83744180D01*
X63274575Y-84086606D01*
X63195102Y-84388722D01*
X62967008Y-85292379D01*
X63236843Y-84957994D01*
X63447122Y-84716295D01*
X63660157Y-84499863D01*
X63732037Y-84435772D01*
X63885342Y-84334145D01*
X63965773Y-84351419D01*
X63973648Y-84496099D01*
X63909289Y-84776693D01*
X63773015Y-85201708D01*
X63762043Y-85233474D01*
X63615368Y-85717615D01*
X63503328Y-86239823D01*
X63413032Y-86861702D01*
X63402352Y-86951922D01*
X63327408Y-87508406D01*
X63239877Y-87937413D01*
X63125206Y-88280789D01*
X62968834Y-88580377D01*
X62756205Y-88878023D01*
X62713940Y-88930793D01*
X62558813Y-89186208D01*
X62408343Y-89544580D01*
X62328729Y-89794773D01*
X62196564Y-90191840D01*
X62035479Y-90473692D01*
X61803817Y-90689392D01*
X61459922Y-90888000D01*
X61358560Y-90937381D01*
X60853937Y-91114860D01*
X60223544Y-91232764D01*
X59502281Y-91284975D01*
X59363586Y-91286936D01*
X58972781Y-91267274D01*
X58469832Y-91210717D01*
X57905152Y-91126044D01*
X57329152Y-91022036D01*
X56792245Y-90907471D01*
X56344845Y-90791131D01*
X56147725Y-90726849D01*
X55424852Y-90426687D01*
X54773964Y-90086847D01*
X54225178Y-89725353D01*
X53808613Y-89360229D01*
X53743716Y-89288237D01*
X53481315Y-88901317D01*
X53367499Y-88501887D01*
X53390509Y-88042518D01*
X53409936Y-87941918D01*
X53459608Y-87600084D01*
X53448055Y-87356970D01*
X53425712Y-87296085D01*
X53374124Y-87135913D01*
X53323547Y-86865238D01*
X53301814Y-86683718D01*
X54382329Y-86913389D01*
X54393896Y-86972715D01*
X54543497Y-86940203D01*
X54615563Y-86910119D01*
X54740199Y-86797549D01*
X54897223Y-86579310D01*
X55038612Y-86329216D01*
X55179622Y-86059708D01*
X55284395Y-85911665D01*
X55387892Y-85852910D01*
X55525076Y-85851271D01*
X55554561Y-85854392D01*
X55808920Y-85941723D01*
X55960312Y-86140845D01*
X56011736Y-86460896D01*
X55966191Y-86911014D01*
X55942056Y-87035144D01*
X55880729Y-87348242D01*
X55860035Y-87519425D01*
X55880111Y-87571199D01*
X55941098Y-87526067D01*
X55945081Y-87521824D01*
X56029236Y-87369512D01*
X56123007Y-87106026D01*
X56206760Y-86786975D01*
X56210316Y-86770641D01*
X56274341Y-86452026D01*
X56294031Y-86244178D01*
X56264120Y-86093098D01*
X56179340Y-85944786D01*
X56121938Y-85864635D01*
X55849782Y-85596804D01*
X55561365Y-85485790D01*
X55283578Y-85524669D01*
X55043307Y-85706514D01*
X54867439Y-86024399D01*
X54818485Y-86200381D01*
X54693783Y-86558283D01*
X54517192Y-86773852D01*
X54382329Y-86913389D01*
X53301814Y-86683718D01*
X53284915Y-86542595D01*
X53284857Y-86541927D01*
X53269932Y-86333822D01*
X53267681Y-86140295D01*
X53282562Y-85933599D01*
X53319037Y-85685985D01*
X53381565Y-85369708D01*
X53474605Y-84957020D01*
X53540147Y-84682156D01*
X56692246Y-85352155D01*
X56713662Y-85540719D01*
X56781899Y-85849650D01*
X56786516Y-85868902D01*
X56949657Y-86380875D01*
X57154951Y-86729669D01*
X57404457Y-86916620D01*
X57700236Y-86943069D01*
X58044217Y-86810404D01*
X59305956Y-87078595D01*
X59278424Y-87288472D01*
X59262363Y-87573221D01*
X59257473Y-87886476D01*
X59263453Y-88181874D01*
X59280000Y-88413052D01*
X59306813Y-88533647D01*
X59315461Y-88541174D01*
X59345413Y-88467196D01*
X59395627Y-88261395D01*
X59458081Y-87958902D01*
X59501578Y-87726295D01*
X59594515Y-87272348D01*
X59689332Y-86966067D01*
X59798951Y-86786142D01*
X59936296Y-86711268D01*
X60112051Y-86719656D01*
X60338338Y-86825134D01*
X60469547Y-87037473D01*
X60516532Y-87377447D01*
X60516207Y-87492958D01*
X60539506Y-87947631D01*
X60633387Y-88257543D01*
X60796154Y-88417867D01*
X60847171Y-88433958D01*
X61020070Y-88470709D01*
X60874363Y-88288261D01*
X60793270Y-88127124D01*
X60764053Y-87887669D01*
X60781636Y-87527410D01*
X60782429Y-87518698D01*
X60802724Y-87178458D01*
X60781984Y-86949381D01*
X60711575Y-86776421D01*
X60652487Y-86690416D01*
X60392239Y-86463088D01*
X60070589Y-86390774D01*
X59795646Y-86432805D01*
X59576187Y-86523202D01*
X59435331Y-86675938D01*
X59339250Y-86935626D01*
X59305956Y-87078595D01*
X58044217Y-86810404D01*
X58044349Y-86810353D01*
X58142420Y-86749656D01*
X58419274Y-86539791D01*
X58674371Y-86300393D01*
X58880241Y-86063500D01*
X59009420Y-85861153D01*
X59034437Y-85725390D01*
X59029248Y-85715267D01*
X58891223Y-85653804D01*
X58610428Y-85663963D01*
X58610050Y-85664014D01*
X58070698Y-85664725D01*
X57577221Y-85527217D01*
X57240940Y-85322928D01*
X57045397Y-85176101D01*
X56921149Y-85127299D01*
X56815564Y-85159156D01*
X56790898Y-85174427D01*
X56717907Y-85243533D01*
X56692246Y-85352155D01*
X53540147Y-84682156D01*
X53602619Y-84420172D01*
X53671630Y-84135591D01*
X53801744Y-83610620D01*
X53921487Y-83146625D01*
X54024441Y-82766958D01*
X54104183Y-82494975D01*
X54154294Y-82354030D01*
X54165396Y-82339562D01*
X54234166Y-82431635D01*
X54299959Y-82650352D01*
X54357076Y-82953040D01*
X54399816Y-83297032D01*
X54422480Y-83639656D01*
X54419367Y-83938244D01*
X54399737Y-84093787D01*
X54379352Y-84316967D01*
X54420713Y-84419435D01*
X54503471Y-84383660D01*
X54582458Y-84251188D01*
X54640787Y-84081252D01*
X54718796Y-83797138D01*
X54809071Y-83432856D01*
X54904202Y-83022420D01*
X54914615Y-82974883D01*
X55064522Y-83006746D01*
X55097129Y-83056957D01*
X55147339Y-83024350D01*
X55114732Y-82974140D01*
X55064522Y-83006746D01*
X54914615Y-82974883D01*
X54996774Y-82599847D01*
X55079377Y-82199149D01*
X55144598Y-81854340D01*
X55185025Y-81599434D01*
X55193246Y-81468445D01*
X55190608Y-81460453D01*
X55170379Y-81336279D01*
X55197888Y-81171797D01*
X55253959Y-81045842D01*
X55297225Y-81022093D01*
X55349706Y-81101829D01*
X55416781Y-81279972D01*
X55477708Y-81489321D01*
X55511743Y-81662678D01*
X55511761Y-81717100D01*
X55447271Y-81709633D01*
X55377540Y-81670923D01*
X55286543Y-81639385D01*
X55290257Y-81698367D01*
X55400185Y-81815862D01*
X55445673Y-81832670D01*
X55516544Y-81925268D01*
X55571747Y-82137410D01*
X55605637Y-82419601D01*
X55612574Y-82722348D01*
X55586916Y-82996158D01*
X55581498Y-83024146D01*
X55559024Y-83251672D01*
X55579123Y-83414568D01*
X55634937Y-83463560D01*
X55703220Y-83371282D01*
X55778151Y-83164804D01*
X55853905Y-82871198D01*
X55924662Y-82517535D01*
X55984601Y-82130887D01*
X56027897Y-81738325D01*
X56048729Y-81366921D01*
X56049435Y-81227689D01*
X56058138Y-80967435D01*
X56100325Y-80865291D01*
X56186508Y-80911597D01*
G37*
X56186508Y-80911597D02*
X56274283Y-81021120D01*
X56429824Y-81327609D01*
X56546834Y-81737657D01*
X56606422Y-82180071D01*
X56604279Y-82398281D01*
X56537138Y-82534031D01*
X56364304Y-82662751D01*
X56336749Y-82679933D01*
X56144062Y-82826999D01*
X56032373Y-83007815D01*
X55962843Y-83259944D01*
X55917932Y-83721367D01*
X55982259Y-84119182D01*
X56145459Y-84427221D01*
X56397169Y-84619312D01*
X56516120Y-84656945D01*
X56714781Y-84636204D01*
X56971032Y-84527203D01*
X57054442Y-84477071D01*
X57254505Y-84332614D01*
X57373477Y-84187158D01*
X57411607Y-84083869D01*
X59109682Y-84444806D01*
X59111104Y-84723308D01*
X59167884Y-84948486D01*
X59271076Y-85151120D01*
X59395127Y-85306657D01*
X59514484Y-85390546D01*
X59603594Y-85378231D01*
X59636903Y-85245162D01*
X59636367Y-85228021D01*
X59693592Y-85058023D01*
X59892666Y-84871695D01*
X59964225Y-84821641D01*
X60237282Y-84664230D01*
X60417301Y-84630288D01*
X60525854Y-84718631D01*
X60554520Y-84789302D01*
X60607448Y-84848404D01*
X60672563Y-84777735D01*
X60736402Y-84614906D01*
X60785501Y-84397526D01*
X60806394Y-84163202D01*
X60804881Y-84089980D01*
X60734243Y-83782949D01*
X60579239Y-83511635D01*
X60375866Y-83330365D01*
X60276287Y-83292239D01*
X59952162Y-83302510D01*
X59649343Y-83452496D01*
X59391927Y-83712604D01*
X59204007Y-84053239D01*
X59109682Y-84444806D01*
X57411607Y-84083869D01*
X57450560Y-83978356D01*
X57498538Y-83770803D01*
X57551067Y-83345115D01*
X57502620Y-83007107D01*
X57493505Y-82979921D01*
X57385802Y-82673581D01*
X57632005Y-82635267D01*
X58294216Y-82602293D01*
X59007156Y-82687231D01*
X59722211Y-82876118D01*
X60390763Y-83154993D01*
X60964195Y-83509892D01*
X61119053Y-83636698D01*
X61501757Y-83974559D01*
X61635114Y-83604238D01*
X61815657Y-83244390D01*
X62072367Y-82907794D01*
X62360561Y-82646183D01*
X62559004Y-82534631D01*
X62775670Y-82480945D01*
X62966582Y-82481330D01*
X63084403Y-82528781D01*
X63084578Y-82612427D01*
X62801673Y-83020656D01*
X62600091Y-83322766D01*
X62463729Y-83551134D01*
X62376480Y-83738138D01*
X62322242Y-83916154D01*
X62284907Y-84117561D01*
X62264081Y-84261944D01*
X62223507Y-84646488D01*
X62230946Y-84870219D01*
X62285825Y-84932589D01*
X62387567Y-84833048D01*
X62535601Y-84571048D01*
X62552240Y-84537301D01*
X62724972Y-84215947D01*
X62925407Y-83892055D01*
X63130182Y-83597799D01*
X63315936Y-83365352D01*
X63459308Y-83226889D01*
X63521129Y-83202928D01*
X63553672Y-83273321D01*
X63514966Y-83353094D01*
X63457460Y-83486311D01*
X63373202Y-83744180D01*
X63274575Y-84086606D01*
X63195102Y-84388722D01*
X62967008Y-85292379D01*
X63236843Y-84957994D01*
X63447122Y-84716295D01*
X63660157Y-84499863D01*
X63732037Y-84435772D01*
X63885342Y-84334145D01*
X63965773Y-84351419D01*
X63973648Y-84496099D01*
X63909289Y-84776693D01*
X63773015Y-85201708D01*
X63762043Y-85233474D01*
X63615368Y-85717615D01*
X63503328Y-86239823D01*
X63413032Y-86861702D01*
X63402352Y-86951922D01*
X63327408Y-87508406D01*
X63239877Y-87937413D01*
X63125206Y-88280789D01*
X62968834Y-88580377D01*
X62756205Y-88878023D01*
X62713940Y-88930793D01*
X62558813Y-89186208D01*
X62408343Y-89544580D01*
X62328729Y-89794773D01*
X62196564Y-90191840D01*
X62035479Y-90473692D01*
X61803817Y-90689392D01*
X61459922Y-90888000D01*
X61358560Y-90937381D01*
X60853937Y-91114860D01*
X60223544Y-91232764D01*
X59502281Y-91284975D01*
X59363586Y-91286936D01*
X58972781Y-91267274D01*
X58469832Y-91210717D01*
X57905152Y-91126044D01*
X57329152Y-91022036D01*
X56792245Y-90907471D01*
X56344845Y-90791131D01*
X56147725Y-90726849D01*
X55424852Y-90426687D01*
X54773964Y-90086847D01*
X54225178Y-89725353D01*
X53808613Y-89360229D01*
X53743716Y-89288237D01*
X53481315Y-88901317D01*
X53367499Y-88501887D01*
X53390509Y-88042518D01*
X53409936Y-87941918D01*
X53459608Y-87600084D01*
X53448055Y-87356970D01*
X53425712Y-87296085D01*
X53374124Y-87135913D01*
X53323547Y-86865238D01*
X53301814Y-86683718D01*
X54382329Y-86913389D01*
X54393896Y-86972715D01*
X54543497Y-86940203D01*
X54615563Y-86910119D01*
X54740199Y-86797549D01*
X54897223Y-86579310D01*
X55038612Y-86329216D01*
X55179622Y-86059708D01*
X55284395Y-85911665D01*
X55387892Y-85852910D01*
X55525076Y-85851271D01*
X55554561Y-85854392D01*
X55808920Y-85941723D01*
X55960312Y-86140845D01*
X56011736Y-86460896D01*
X55966191Y-86911014D01*
X55942056Y-87035144D01*
X55880729Y-87348242D01*
X55860035Y-87519425D01*
X55880111Y-87571199D01*
X55941098Y-87526067D01*
X55945081Y-87521824D01*
X56029236Y-87369512D01*
X56123007Y-87106026D01*
X56206760Y-86786975D01*
X56210316Y-86770641D01*
X56274341Y-86452026D01*
X56294031Y-86244178D01*
X56264120Y-86093098D01*
X56179340Y-85944786D01*
X56121938Y-85864635D01*
X55849782Y-85596804D01*
X55561365Y-85485790D01*
X55283578Y-85524669D01*
X55043307Y-85706514D01*
X54867439Y-86024399D01*
X54818485Y-86200381D01*
X54693783Y-86558283D01*
X54517192Y-86773852D01*
X54382329Y-86913389D01*
X53301814Y-86683718D01*
X53284915Y-86542595D01*
X53284857Y-86541927D01*
X53269932Y-86333822D01*
X53267681Y-86140295D01*
X53282562Y-85933599D01*
X53319037Y-85685985D01*
X53381565Y-85369708D01*
X53474605Y-84957020D01*
X53540147Y-84682156D01*
X56692246Y-85352155D01*
X56713662Y-85540719D01*
X56781899Y-85849650D01*
X56786516Y-85868902D01*
X56949657Y-86380875D01*
X57154951Y-86729669D01*
X57404457Y-86916620D01*
X57700236Y-86943069D01*
X58044217Y-86810404D01*
X59305956Y-87078595D01*
X59278424Y-87288472D01*
X59262363Y-87573221D01*
X59257473Y-87886476D01*
X59263453Y-88181874D01*
X59280000Y-88413052D01*
X59306813Y-88533647D01*
X59315461Y-88541174D01*
X59345413Y-88467196D01*
X59395627Y-88261395D01*
X59458081Y-87958902D01*
X59501578Y-87726295D01*
X59594515Y-87272348D01*
X59689332Y-86966067D01*
X59798951Y-86786142D01*
X59936296Y-86711268D01*
X60112051Y-86719656D01*
X60338338Y-86825134D01*
X60469547Y-87037473D01*
X60516532Y-87377447D01*
X60516207Y-87492958D01*
X60539506Y-87947631D01*
X60633387Y-88257543D01*
X60796154Y-88417867D01*
X60847171Y-88433958D01*
X61020070Y-88470709D01*
X60874363Y-88288261D01*
X60793270Y-88127124D01*
X60764053Y-87887669D01*
X60781636Y-87527410D01*
X60782429Y-87518698D01*
X60802724Y-87178458D01*
X60781984Y-86949381D01*
X60711575Y-86776421D01*
X60652487Y-86690416D01*
X60392239Y-86463088D01*
X60070589Y-86390774D01*
X59795646Y-86432805D01*
X59576187Y-86523202D01*
X59435331Y-86675938D01*
X59339250Y-86935626D01*
X59305956Y-87078595D01*
X58044217Y-86810404D01*
X58044349Y-86810353D01*
X58142420Y-86749656D01*
X58419274Y-86539791D01*
X58674371Y-86300393D01*
X58880241Y-86063500D01*
X59009420Y-85861153D01*
X59034437Y-85725390D01*
X59029248Y-85715267D01*
X58891223Y-85653804D01*
X58610428Y-85663963D01*
X58610050Y-85664014D01*
X58070698Y-85664725D01*
X57577221Y-85527217D01*
X57240940Y-85322928D01*
X57045397Y-85176101D01*
X56921149Y-85127299D01*
X56815564Y-85159156D01*
X56790898Y-85174427D01*
X56717907Y-85243533D01*
X56692246Y-85352155D01*
X53540147Y-84682156D01*
X53602619Y-84420172D01*
X53671630Y-84135591D01*
X53801744Y-83610620D01*
X53921487Y-83146625D01*
X54024441Y-82766958D01*
X54104183Y-82494975D01*
X54154294Y-82354030D01*
X54165396Y-82339562D01*
X54234166Y-82431635D01*
X54299959Y-82650352D01*
X54357076Y-82953040D01*
X54399816Y-83297032D01*
X54422480Y-83639656D01*
X54419367Y-83938244D01*
X54399737Y-84093787D01*
X54379352Y-84316967D01*
X54420713Y-84419435D01*
X54503471Y-84383660D01*
X54582458Y-84251188D01*
X54640787Y-84081252D01*
X54718796Y-83797138D01*
X54809071Y-83432856D01*
X54904202Y-83022420D01*
X54914615Y-82974883D01*
X55064522Y-83006746D01*
X55097129Y-83056957D01*
X55147339Y-83024350D01*
X55114732Y-82974140D01*
X55064522Y-83006746D01*
X54914615Y-82974883D01*
X54996774Y-82599847D01*
X55079377Y-82199149D01*
X55144598Y-81854340D01*
X55185025Y-81599434D01*
X55193246Y-81468445D01*
X55190608Y-81460453D01*
X55170379Y-81336279D01*
X55197888Y-81171797D01*
X55253959Y-81045842D01*
X55297225Y-81022093D01*
X55349706Y-81101829D01*
X55416781Y-81279972D01*
X55477708Y-81489321D01*
X55511743Y-81662678D01*
X55511761Y-81717100D01*
X55447271Y-81709633D01*
X55377540Y-81670923D01*
X55286543Y-81639385D01*
X55290257Y-81698367D01*
X55400185Y-81815862D01*
X55445673Y-81832670D01*
X55516544Y-81925268D01*
X55571747Y-82137410D01*
X55605637Y-82419601D01*
X55612574Y-82722348D01*
X55586916Y-82996158D01*
X55581498Y-83024146D01*
X55559024Y-83251672D01*
X55579123Y-83414568D01*
X55634937Y-83463560D01*
X55703220Y-83371282D01*
X55778151Y-83164804D01*
X55853905Y-82871198D01*
X55924662Y-82517535D01*
X55984601Y-82130887D01*
X56027897Y-81738325D01*
X56048729Y-81366921D01*
X56049435Y-81227689D01*
X56058138Y-80967435D01*
X56100325Y-80865291D01*
X56186508Y-80911597D01*
G36*
X57288887Y-83901370D02*
G01*
X57306371Y-84074894D01*
X57218965Y-84256750D01*
X57066159Y-84413847D01*
X56887445Y-84513098D01*
X56722310Y-84521413D01*
X56632972Y-84450961D01*
X56610830Y-84279697D01*
X56696286Y-84071340D01*
X56861893Y-83890956D01*
X56872391Y-83883413D01*
X57071524Y-83770263D01*
X57198947Y-83782262D01*
X57288887Y-83901370D01*
G37*
X57288887Y-83901370D02*
X57306371Y-84074894D01*
X57218965Y-84256750D01*
X57066159Y-84413847D01*
X56887445Y-84513098D01*
X56722310Y-84521413D01*
X56632972Y-84450961D01*
X56610830Y-84279697D01*
X56696286Y-84071340D01*
X56861893Y-83890956D01*
X56872391Y-83883413D01*
X57071524Y-83770263D01*
X57198947Y-83782262D01*
X57288887Y-83901370D01*
G36*
X56855247Y-82668491D02*
G01*
X57022139Y-82768360D01*
X57036396Y-82908990D01*
X56895969Y-83097217D01*
X56669818Y-83287461D01*
X56439526Y-83448146D01*
X56299856Y-83505471D01*
X56217312Y-83471269D01*
X56203272Y-83452296D01*
X56151656Y-83237545D01*
X56223728Y-83008143D01*
X56383886Y-82806895D01*
X56596525Y-82676601D01*
X56826045Y-82660061D01*
X56855247Y-82668491D01*
G37*
X56855247Y-82668491D02*
X57022139Y-82768360D01*
X57036396Y-82908990D01*
X56895969Y-83097217D01*
X56669818Y-83287461D01*
X56439526Y-83448146D01*
X56299856Y-83505471D01*
X56217312Y-83471269D01*
X56203272Y-83452296D01*
X56151656Y-83237545D01*
X56223728Y-83008143D01*
X56383886Y-82806895D01*
X56596525Y-82676601D01*
X56826045Y-82660061D01*
X56855247Y-82668491D01*
G36*
X60284110Y-83520171D02*
G01*
X60278253Y-83675088D01*
X60123815Y-83896481D01*
X59944016Y-84074207D01*
X59696410Y-84253047D01*
X59483985Y-84325640D01*
X59337487Y-84286722D01*
X59290021Y-84186218D01*
X59329882Y-84025788D01*
X59452767Y-83813174D01*
X59615970Y-83609620D01*
X59776786Y-83476371D01*
X59789385Y-83470059D01*
X60002008Y-83426569D01*
X60139957Y-83436377D01*
X60284110Y-83520171D01*
G37*
X60284110Y-83520171D02*
X60278253Y-83675088D01*
X60123815Y-83896481D01*
X59944016Y-84074207D01*
X59696410Y-84253047D01*
X59483985Y-84325640D01*
X59337487Y-84286722D01*
X59290021Y-84186218D01*
X59329882Y-84025788D01*
X59452767Y-83813174D01*
X59615970Y-83609620D01*
X59776786Y-83476371D01*
X59789385Y-83470059D01*
X60002008Y-83426569D01*
X60139957Y-83436377D01*
X60284110Y-83520171D01*
G36*
X223432887Y-82880485D02*
G01*
X223490546Y-83024391D01*
X223439509Y-83289460D01*
X223347542Y-83524951D01*
X223194083Y-83789040D01*
X223029550Y-83941758D01*
X222879888Y-83965791D01*
X222795647Y-83893282D01*
X222766809Y-83730509D01*
X222792592Y-83486294D01*
X222858893Y-83233958D01*
X222951608Y-83046819D01*
X222960550Y-83035929D01*
X223137103Y-82909717D01*
X223267114Y-82862568D01*
X223432887Y-82880485D01*
G37*
X223432887Y-82880485D02*
X223490546Y-83024391D01*
X223439509Y-83289460D01*
X223347542Y-83524951D01*
X223194083Y-83789040D01*
X223029550Y-83941758D01*
X222879888Y-83965791D01*
X222795647Y-83893282D01*
X222766809Y-83730509D01*
X222792592Y-83486294D01*
X222858893Y-83233958D01*
X222951608Y-83046819D01*
X222960550Y-83035929D01*
X223137103Y-82909717D01*
X223267114Y-82862568D01*
X223432887Y-82880485D01*
G36*
X219954055Y-83497081D02*
G01*
X220147139Y-83520435D01*
X220217363Y-83643108D01*
X220165635Y-83872178D01*
X220036415Y-84137959D01*
X219891390Y-84378421D01*
X219787110Y-84487598D01*
X219697792Y-84489927D01*
X219677248Y-84478305D01*
X219542748Y-84303114D01*
X219515283Y-84064231D01*
X219579739Y-83815239D01*
X219721000Y-83609722D01*
X219923949Y-83501257D01*
X219954055Y-83497081D01*
G37*
X219954055Y-83497081D02*
X220147139Y-83520435D01*
X220217363Y-83643108D01*
X220165635Y-83872178D01*
X220036415Y-84137959D01*
X219891390Y-84378421D01*
X219787110Y-84487598D01*
X219697792Y-84489927D01*
X219677248Y-84478305D01*
X219542748Y-84303114D01*
X219515283Y-84064231D01*
X219579739Y-83815239D01*
X219721000Y-83609722D01*
X219923949Y-83501257D01*
X219954055Y-83497081D01*
G36*
X220851662Y-84446994D02*
G01*
X220938213Y-84598406D01*
X220932331Y-84800090D01*
X220856633Y-85005757D01*
X220733738Y-85169117D01*
X220586262Y-85243880D01*
X220475992Y-85215856D01*
X220386105Y-85068404D01*
X220379427Y-84843303D01*
X220457347Y-84611155D01*
X220463870Y-84599994D01*
X220599765Y-84415632D01*
X220721052Y-84374766D01*
X220851662Y-84446994D01*
G37*
X220851662Y-84446994D02*
X220938213Y-84598406D01*
X220932331Y-84800090D01*
X220856633Y-85005757D01*
X220733738Y-85169117D01*
X220586262Y-85243880D01*
X220475992Y-85215856D01*
X220386105Y-85068404D01*
X220379427Y-84843303D01*
X220457347Y-84611155D01*
X220463870Y-84599994D01*
X220599765Y-84415632D01*
X220721052Y-84374766D01*
X220851662Y-84446994D01*
G36*
X218628539Y-82164079D02*
G01*
X218753272Y-82228432D01*
X219020026Y-82445160D01*
X219293701Y-82772164D01*
X219528084Y-83152094D01*
X219614880Y-83352310D01*
X219608758Y-83503633D01*
X219503222Y-83691522D01*
X219485037Y-83718427D01*
X219368827Y-83931151D01*
X219340338Y-84141762D01*
X219379369Y-84400373D01*
X219526019Y-84840172D01*
X219746590Y-85177429D01*
X220020971Y-85392457D01*
X220329050Y-85465563D01*
X220453024Y-85451560D01*
X220626074Y-85351809D01*
X220815836Y-85148005D01*
X220871645Y-85068281D01*
X220995655Y-84854940D01*
X221045179Y-84673669D01*
X221038002Y-84563802D01*
X222736077Y-84202865D01*
X222850652Y-84456710D01*
X222994112Y-84639326D01*
X223170801Y-84782469D01*
X223347390Y-84874104D01*
X223490548Y-84902193D01*
X223566945Y-84854698D01*
X223543251Y-84719585D01*
X223535790Y-84704145D01*
X223518923Y-84525569D01*
X223624999Y-84274378D01*
X223670013Y-84199546D01*
X223855438Y-83944681D01*
X224006088Y-83840454D01*
X224141188Y-83877007D01*
X224196121Y-83929909D01*
X224268512Y-83962373D01*
X224299254Y-83871329D01*
X224291345Y-83696611D01*
X224247783Y-83478054D01*
X224171562Y-83255491D01*
X224140397Y-83189215D01*
X223950985Y-82937460D01*
X223699029Y-82752648D01*
X223439509Y-82669768D01*
X223333031Y-82675441D01*
X223041107Y-82816657D01*
X222825472Y-83076844D01*
X222696106Y-83419165D01*
X222662982Y-83806785D01*
X222736077Y-84202865D01*
X221038002Y-84563802D01*
X221030671Y-84451567D01*
X220990081Y-84242443D01*
X220864926Y-83832193D01*
X220683187Y-83543112D01*
X220663803Y-83521984D01*
X220440811Y-83285935D01*
X220650145Y-83150794D01*
X221241693Y-82851325D01*
X221927544Y-82638940D01*
X222657607Y-82520658D01*
X223381788Y-82503498D01*
X224049994Y-82594480D01*
X224243041Y-82647336D01*
X224730079Y-82800327D01*
X224701283Y-82407781D01*
X224719854Y-82005611D01*
X224817465Y-81593701D01*
X224974336Y-81237489D01*
X225110251Y-81054867D01*
X225286348Y-80917696D01*
X225460913Y-80840397D01*
X225587847Y-80835823D01*
X225622028Y-80912167D01*
X225529624Y-81400171D01*
X225468349Y-81758152D01*
X225436662Y-82022240D01*
X225433017Y-82228564D01*
X225455873Y-82413251D01*
X225503686Y-82612430D01*
X225543386Y-82752802D01*
X225662728Y-83120603D01*
X225760524Y-83321966D01*
X225836026Y-83356622D01*
X225888486Y-83224305D01*
X225917156Y-82924745D01*
X225918630Y-82887148D01*
X225945722Y-82523321D01*
X225997090Y-82145906D01*
X226064477Y-81793800D01*
X226139627Y-81505896D01*
X226214286Y-81321089D01*
X226261016Y-81274055D01*
X226319377Y-81325126D01*
X226316464Y-81413745D01*
X226318114Y-81558835D01*
X226346025Y-81828680D01*
X226395203Y-82181617D01*
X226445482Y-82489939D01*
X226604658Y-83408245D01*
X226715158Y-82993017D01*
X226808949Y-82686686D01*
X226915536Y-82402317D01*
X226955133Y-82314530D01*
X227053849Y-82159334D01*
X227134352Y-82142401D01*
X227200393Y-82271369D01*
X227255726Y-82553882D01*
X227304102Y-82997580D01*
X227307000Y-83031062D01*
X227369923Y-83533006D01*
X227479971Y-84055637D01*
X227650422Y-84660479D01*
X227677361Y-84747243D01*
X227835239Y-85286098D01*
X227929769Y-85713618D01*
X227964674Y-86073949D01*
X227943675Y-86411238D01*
X227870493Y-86769635D01*
X227853345Y-86835034D01*
X227815516Y-87131463D01*
X227823818Y-87520053D01*
X227852849Y-87780999D01*
X227893612Y-88197493D01*
X227861094Y-88520497D01*
X227737193Y-88811774D01*
X227503811Y-89133086D01*
X227431296Y-89219425D01*
X227042488Y-89586809D01*
X226514551Y-89950923D01*
X225876881Y-90291985D01*
X225750974Y-90350189D01*
X225385959Y-90491182D01*
X224903488Y-90644081D01*
X224353188Y-90796405D01*
X223784681Y-90935669D01*
X223247595Y-91049389D01*
X222791555Y-91125081D01*
X222585331Y-91146532D01*
X221802867Y-91166339D01*
X221070026Y-91120621D01*
X220421652Y-91013591D01*
X219892592Y-90849465D01*
X219804024Y-90810094D01*
X219406934Y-90563352D01*
X219140495Y-90244749D01*
X218974673Y-89815735D01*
X218951503Y-89715930D01*
X218857845Y-89383446D01*
X218748407Y-89166049D01*
X218703231Y-89119516D01*
X218590955Y-88994174D01*
X218434658Y-88767471D01*
X218340972Y-88610485D01*
X219421488Y-88380815D01*
X219456185Y-88430307D01*
X219579628Y-88339757D01*
X219633227Y-88282963D01*
X219701302Y-88129431D01*
X219755984Y-87866192D01*
X219783427Y-87580212D01*
X219802628Y-87276650D01*
X219838128Y-87098791D01*
X219908780Y-87003020D01*
X220033436Y-86945725D01*
X220061642Y-86936583D01*
X220329531Y-86912906D01*
X220548825Y-87033237D01*
X220725980Y-87304702D01*
X220867452Y-87734431D01*
X220895891Y-87857645D01*
X220967215Y-88168619D01*
X221017936Y-88333420D01*
X221057335Y-88372551D01*
X221094693Y-88306515D01*
X221096606Y-88301019D01*
X221111534Y-88127647D01*
X221090028Y-87848800D01*
X221036771Y-87523267D01*
X221033376Y-87506899D01*
X220962273Y-87189788D01*
X220895722Y-86991901D01*
X220806947Y-86866048D01*
X220669173Y-86765042D01*
X220584133Y-86715168D01*
X220226569Y-86581188D01*
X219917934Y-86597081D01*
X219679976Y-86745585D01*
X219534440Y-87009436D01*
X219503073Y-87371370D01*
X219529929Y-87552049D01*
X219561580Y-87929729D01*
X219487936Y-88198488D01*
X219421488Y-88380815D01*
X218340972Y-88610485D01*
X218268135Y-88488436D01*
X218267810Y-88487850D01*
X218169531Y-88303806D01*
X218088760Y-88127926D01*
X218018284Y-87933047D01*
X217950892Y-87692005D01*
X217879373Y-87377639D01*
X217796514Y-86962787D01*
X217744592Y-86685028D01*
X220896691Y-86015029D01*
X220992952Y-86178580D01*
X221180943Y-86433048D01*
X221192991Y-86448757D01*
X221550266Y-86850112D01*
X221879678Y-87085251D01*
X222183653Y-87154556D01*
X222464618Y-87058415D01*
X222724901Y-86797309D01*
X223986640Y-86529118D01*
X224046852Y-86732049D01*
X224147998Y-86998713D01*
X224270943Y-87286874D01*
X224396555Y-87554302D01*
X224505700Y-87758763D01*
X224579246Y-87858026D01*
X224590208Y-87861384D01*
X224587481Y-87781620D01*
X224549647Y-87573188D01*
X224483666Y-87271444D01*
X224428793Y-87041255D01*
X224329058Y-86588753D01*
X224291102Y-86270386D01*
X224318063Y-86061430D01*
X224413079Y-85937166D01*
X224577051Y-85873344D01*
X224826677Y-85877663D01*
X225032907Y-86018277D01*
X225214110Y-86309748D01*
X225260796Y-86415404D01*
X225467013Y-86821292D01*
X225678830Y-87066226D01*
X225892735Y-87146486D01*
X225945886Y-87140436D01*
X226118785Y-87103685D01*
X225911466Y-86996275D01*
X225771844Y-86882053D01*
X225647758Y-86675183D01*
X225517290Y-86338918D01*
X225514471Y-86330637D01*
X225394624Y-86011558D01*
X225282503Y-85810721D01*
X225147831Y-85681352D01*
X225058870Y-85626815D01*
X224728660Y-85524994D01*
X224405405Y-85589759D01*
X224171328Y-85739985D01*
X224007610Y-85911829D01*
X223941055Y-86108652D01*
X223958904Y-86384968D01*
X223986640Y-86529118D01*
X222724901Y-86797309D01*
X222725001Y-86797209D01*
X222789906Y-86701870D01*
X222957464Y-86397543D01*
X223093135Y-86075085D01*
X223184854Y-85774937D01*
X223220563Y-85537542D01*
X223188197Y-85403341D01*
X223179339Y-85396203D01*
X223028248Y-85396194D01*
X222775860Y-85519685D01*
X222775536Y-85519885D01*
X222283103Y-85739908D01*
X221776359Y-85815004D01*
X221386060Y-85765155D01*
X221147703Y-85710556D01*
X221014347Y-85716509D01*
X220930847Y-85788557D01*
X220914525Y-85812541D01*
X220875952Y-85905361D01*
X220896691Y-86015029D01*
X217744592Y-86685028D01*
X217695104Y-86420285D01*
X217642400Y-86132237D01*
X217547740Y-85599730D01*
X217468406Y-85127146D01*
X217408035Y-84738428D01*
X217370258Y-84457525D01*
X217358709Y-84308383D01*
X217362966Y-84290650D01*
X217463241Y-84346792D01*
X217612306Y-84519839D01*
X217787599Y-84773128D01*
X217966558Y-85069995D01*
X218126620Y-85373780D01*
X218245223Y-85647820D01*
X218290555Y-85797900D01*
X218362708Y-86010076D01*
X218442171Y-86086862D01*
X218503222Y-86020520D01*
X218521500Y-85867373D01*
X218505667Y-85688405D01*
X218461372Y-85397124D01*
X218395675Y-85027618D01*
X218315643Y-84613973D01*
X218305821Y-84566310D01*
X218455728Y-84534446D01*
X218505937Y-84567053D01*
X218538544Y-84516843D01*
X218488334Y-84484237D01*
X218455728Y-84534446D01*
X218305821Y-84566310D01*
X218228335Y-84190281D01*
X218140818Y-83790627D01*
X218060154Y-83449101D01*
X217993407Y-83199789D01*
X217947639Y-83076781D01*
X217941978Y-83070553D01*
X217872992Y-82965342D01*
X217831222Y-82803891D01*
X217831215Y-82666020D01*
X217861081Y-82626726D01*
X217941456Y-82678223D01*
X218075189Y-82813683D01*
X218215999Y-82980151D01*
X218317602Y-83124677D01*
X218339754Y-83174387D01*
X218277803Y-83193796D01*
X218198355Y-83186795D01*
X218102397Y-83194995D01*
X218129780Y-83247368D01*
X218277994Y-83309993D01*
X218326386Y-83306846D01*
X218428793Y-83362613D01*
X218565509Y-83533961D01*
X218711247Y-83777971D01*
X218840723Y-84051722D01*
X218928652Y-84312296D01*
X218935085Y-84340068D01*
X219007097Y-84557065D01*
X219091714Y-84697703D01*
X219162630Y-84719757D01*
X219187477Y-84607684D01*
X219171947Y-84388580D01*
X219121732Y-84089546D01*
X219042524Y-83737679D01*
X218940017Y-83360079D01*
X218819901Y-82983846D01*
X218687869Y-82636078D01*
X218631882Y-82508596D01*
X218533978Y-82267302D01*
X218530972Y-82156830D01*
X218628539Y-82164079D01*
G37*
X218628539Y-82164079D02*
X218753272Y-82228432D01*
X219020026Y-82445160D01*
X219293701Y-82772164D01*
X219528084Y-83152094D01*
X219614880Y-83352310D01*
X219608758Y-83503633D01*
X219503222Y-83691522D01*
X219485037Y-83718427D01*
X219368827Y-83931151D01*
X219340338Y-84141762D01*
X219379369Y-84400373D01*
X219526019Y-84840172D01*
X219746590Y-85177429D01*
X220020971Y-85392457D01*
X220329050Y-85465563D01*
X220453024Y-85451560D01*
X220626074Y-85351809D01*
X220815836Y-85148005D01*
X220871645Y-85068281D01*
X220995655Y-84854940D01*
X221045179Y-84673669D01*
X221038002Y-84563802D01*
X222736077Y-84202865D01*
X222850652Y-84456710D01*
X222994112Y-84639326D01*
X223170801Y-84782469D01*
X223347390Y-84874104D01*
X223490548Y-84902193D01*
X223566945Y-84854698D01*
X223543251Y-84719585D01*
X223535790Y-84704145D01*
X223518923Y-84525569D01*
X223624999Y-84274378D01*
X223670013Y-84199546D01*
X223855438Y-83944681D01*
X224006088Y-83840454D01*
X224141188Y-83877007D01*
X224196121Y-83929909D01*
X224268512Y-83962373D01*
X224299254Y-83871329D01*
X224291345Y-83696611D01*
X224247783Y-83478054D01*
X224171562Y-83255491D01*
X224140397Y-83189215D01*
X223950985Y-82937460D01*
X223699029Y-82752648D01*
X223439509Y-82669768D01*
X223333031Y-82675441D01*
X223041107Y-82816657D01*
X222825472Y-83076844D01*
X222696106Y-83419165D01*
X222662982Y-83806785D01*
X222736077Y-84202865D01*
X221038002Y-84563802D01*
X221030671Y-84451567D01*
X220990081Y-84242443D01*
X220864926Y-83832193D01*
X220683187Y-83543112D01*
X220663803Y-83521984D01*
X220440811Y-83285935D01*
X220650145Y-83150794D01*
X221241693Y-82851325D01*
X221927544Y-82638940D01*
X222657607Y-82520658D01*
X223381788Y-82503498D01*
X224049994Y-82594480D01*
X224243041Y-82647336D01*
X224730079Y-82800327D01*
X224701283Y-82407781D01*
X224719854Y-82005611D01*
X224817465Y-81593701D01*
X224974336Y-81237489D01*
X225110251Y-81054867D01*
X225286348Y-80917696D01*
X225460913Y-80840397D01*
X225587847Y-80835823D01*
X225622028Y-80912167D01*
X225529624Y-81400171D01*
X225468349Y-81758152D01*
X225436662Y-82022240D01*
X225433017Y-82228564D01*
X225455873Y-82413251D01*
X225503686Y-82612430D01*
X225543386Y-82752802D01*
X225662728Y-83120603D01*
X225760524Y-83321966D01*
X225836026Y-83356622D01*
X225888486Y-83224305D01*
X225917156Y-82924745D01*
X225918630Y-82887148D01*
X225945722Y-82523321D01*
X225997090Y-82145906D01*
X226064477Y-81793800D01*
X226139627Y-81505896D01*
X226214286Y-81321089D01*
X226261016Y-81274055D01*
X226319377Y-81325126D01*
X226316464Y-81413745D01*
X226318114Y-81558835D01*
X226346025Y-81828680D01*
X226395203Y-82181617D01*
X226445482Y-82489939D01*
X226604658Y-83408245D01*
X226715158Y-82993017D01*
X226808949Y-82686686D01*
X226915536Y-82402317D01*
X226955133Y-82314530D01*
X227053849Y-82159334D01*
X227134352Y-82142401D01*
X227200393Y-82271369D01*
X227255726Y-82553882D01*
X227304102Y-82997580D01*
X227307000Y-83031062D01*
X227369923Y-83533006D01*
X227479971Y-84055637D01*
X227650422Y-84660479D01*
X227677361Y-84747243D01*
X227835239Y-85286098D01*
X227929769Y-85713618D01*
X227964674Y-86073949D01*
X227943675Y-86411238D01*
X227870493Y-86769635D01*
X227853345Y-86835034D01*
X227815516Y-87131463D01*
X227823818Y-87520053D01*
X227852849Y-87780999D01*
X227893612Y-88197493D01*
X227861094Y-88520497D01*
X227737193Y-88811774D01*
X227503811Y-89133086D01*
X227431296Y-89219425D01*
X227042488Y-89586809D01*
X226514551Y-89950923D01*
X225876881Y-90291985D01*
X225750974Y-90350189D01*
X225385959Y-90491182D01*
X224903488Y-90644081D01*
X224353188Y-90796405D01*
X223784681Y-90935669D01*
X223247595Y-91049389D01*
X222791555Y-91125081D01*
X222585331Y-91146532D01*
X221802867Y-91166339D01*
X221070026Y-91120621D01*
X220421652Y-91013591D01*
X219892592Y-90849465D01*
X219804024Y-90810094D01*
X219406934Y-90563352D01*
X219140495Y-90244749D01*
X218974673Y-89815735D01*
X218951503Y-89715930D01*
X218857845Y-89383446D01*
X218748407Y-89166049D01*
X218703231Y-89119516D01*
X218590955Y-88994174D01*
X218434658Y-88767471D01*
X218340972Y-88610485D01*
X219421488Y-88380815D01*
X219456185Y-88430307D01*
X219579628Y-88339757D01*
X219633227Y-88282963D01*
X219701302Y-88129431D01*
X219755984Y-87866192D01*
X219783427Y-87580212D01*
X219802628Y-87276650D01*
X219838128Y-87098791D01*
X219908780Y-87003020D01*
X220033436Y-86945725D01*
X220061642Y-86936583D01*
X220329531Y-86912906D01*
X220548825Y-87033237D01*
X220725980Y-87304702D01*
X220867452Y-87734431D01*
X220895891Y-87857645D01*
X220967215Y-88168619D01*
X221017936Y-88333420D01*
X221057335Y-88372551D01*
X221094693Y-88306515D01*
X221096606Y-88301019D01*
X221111534Y-88127647D01*
X221090028Y-87848800D01*
X221036771Y-87523267D01*
X221033376Y-87506899D01*
X220962273Y-87189788D01*
X220895722Y-86991901D01*
X220806947Y-86866048D01*
X220669173Y-86765042D01*
X220584133Y-86715168D01*
X220226569Y-86581188D01*
X219917934Y-86597081D01*
X219679976Y-86745585D01*
X219534440Y-87009436D01*
X219503073Y-87371370D01*
X219529929Y-87552049D01*
X219561580Y-87929729D01*
X219487936Y-88198488D01*
X219421488Y-88380815D01*
X218340972Y-88610485D01*
X218268135Y-88488436D01*
X218267810Y-88487850D01*
X218169531Y-88303806D01*
X218088760Y-88127926D01*
X218018284Y-87933047D01*
X217950892Y-87692005D01*
X217879373Y-87377639D01*
X217796514Y-86962787D01*
X217744592Y-86685028D01*
X220896691Y-86015029D01*
X220992952Y-86178580D01*
X221180943Y-86433048D01*
X221192991Y-86448757D01*
X221550266Y-86850112D01*
X221879678Y-87085251D01*
X222183653Y-87154556D01*
X222464618Y-87058415D01*
X222724901Y-86797309D01*
X223986640Y-86529118D01*
X224046852Y-86732049D01*
X224147998Y-86998713D01*
X224270943Y-87286874D01*
X224396555Y-87554302D01*
X224505700Y-87758763D01*
X224579246Y-87858026D01*
X224590208Y-87861384D01*
X224587481Y-87781620D01*
X224549647Y-87573188D01*
X224483666Y-87271444D01*
X224428793Y-87041255D01*
X224329058Y-86588753D01*
X224291102Y-86270386D01*
X224318063Y-86061430D01*
X224413079Y-85937166D01*
X224577051Y-85873344D01*
X224826677Y-85877663D01*
X225032907Y-86018277D01*
X225214110Y-86309748D01*
X225260796Y-86415404D01*
X225467013Y-86821292D01*
X225678830Y-87066226D01*
X225892735Y-87146486D01*
X225945886Y-87140436D01*
X226118785Y-87103685D01*
X225911466Y-86996275D01*
X225771844Y-86882053D01*
X225647758Y-86675183D01*
X225517290Y-86338918D01*
X225514471Y-86330637D01*
X225394624Y-86011558D01*
X225282503Y-85810721D01*
X225147831Y-85681352D01*
X225058870Y-85626815D01*
X224728660Y-85524994D01*
X224405405Y-85589759D01*
X224171328Y-85739985D01*
X224007610Y-85911829D01*
X223941055Y-86108652D01*
X223958904Y-86384968D01*
X223986640Y-86529118D01*
X222724901Y-86797309D01*
X222725001Y-86797209D01*
X222789906Y-86701870D01*
X222957464Y-86397543D01*
X223093135Y-86075085D01*
X223184854Y-85774937D01*
X223220563Y-85537542D01*
X223188197Y-85403341D01*
X223179339Y-85396203D01*
X223028248Y-85396194D01*
X222775860Y-85519685D01*
X222775536Y-85519885D01*
X222283103Y-85739908D01*
X221776359Y-85815004D01*
X221386060Y-85765155D01*
X221147703Y-85710556D01*
X221014347Y-85716509D01*
X220930847Y-85788557D01*
X220914525Y-85812541D01*
X220875952Y-85905361D01*
X220896691Y-86015029D01*
X217744592Y-86685028D01*
X217695104Y-86420285D01*
X217642400Y-86132237D01*
X217547740Y-85599730D01*
X217468406Y-85127146D01*
X217408035Y-84738428D01*
X217370258Y-84457525D01*
X217358709Y-84308383D01*
X217362966Y-84290650D01*
X217463241Y-84346792D01*
X217612306Y-84519839D01*
X217787599Y-84773128D01*
X217966558Y-85069995D01*
X218126620Y-85373780D01*
X218245223Y-85647820D01*
X218290555Y-85797900D01*
X218362708Y-86010076D01*
X218442171Y-86086862D01*
X218503222Y-86020520D01*
X218521500Y-85867373D01*
X218505667Y-85688405D01*
X218461372Y-85397124D01*
X218395675Y-85027618D01*
X218315643Y-84613973D01*
X218305821Y-84566310D01*
X218455728Y-84534446D01*
X218505937Y-84567053D01*
X218538544Y-84516843D01*
X218488334Y-84484237D01*
X218455728Y-84534446D01*
X218305821Y-84566310D01*
X218228335Y-84190281D01*
X218140818Y-83790627D01*
X218060154Y-83449101D01*
X217993407Y-83199789D01*
X217947639Y-83076781D01*
X217941978Y-83070553D01*
X217872992Y-82965342D01*
X217831222Y-82803891D01*
X217831215Y-82666020D01*
X217861081Y-82626726D01*
X217941456Y-82678223D01*
X218075189Y-82813683D01*
X218215999Y-82980151D01*
X218317602Y-83124677D01*
X218339754Y-83174387D01*
X218277803Y-83193796D01*
X218198355Y-83186795D01*
X218102397Y-83194995D01*
X218129780Y-83247368D01*
X218277994Y-83309993D01*
X218326386Y-83306846D01*
X218428793Y-83362613D01*
X218565509Y-83533961D01*
X218711247Y-83777971D01*
X218840723Y-84051722D01*
X218928652Y-84312296D01*
X218935085Y-84340068D01*
X219007097Y-84557065D01*
X219091714Y-84697703D01*
X219162630Y-84719757D01*
X219187477Y-84607684D01*
X219171947Y-84388580D01*
X219121732Y-84089546D01*
X219042524Y-83737679D01*
X218940017Y-83360079D01*
X218819901Y-82983846D01*
X218687869Y-82636078D01*
X218631882Y-82508596D01*
X218533978Y-82267302D01*
X218530972Y-82156830D01*
X218628539Y-82164079D01*
G36*
X139946945Y-119006056D02*
G01*
X139957078Y-119106535D01*
X139946945Y-119118945D01*
X139896610Y-119107322D01*
X139890500Y-119062500D01*
X139921478Y-118992810D01*
X139946945Y-119006056D01*
G37*
X139946945Y-119006056D02*
X139957078Y-119106535D01*
X139946945Y-119118945D01*
X139896610Y-119107322D01*
X139890500Y-119062500D01*
X139921478Y-118992810D01*
X139946945Y-119006056D01*
G36*
X139188563Y-106693989D02*
G01*
X139248928Y-106733576D01*
X139274828Y-106799621D01*
X139280394Y-106832838D01*
X139233391Y-107026559D01*
X139033530Y-107219411D01*
X138676253Y-107414135D01*
X138157003Y-107613474D01*
X137791202Y-107728907D01*
X137512238Y-107811890D01*
X137698665Y-108124362D01*
X137886045Y-108399375D01*
X138106137Y-108672190D01*
X138142405Y-108712000D01*
X138399718Y-108987167D01*
X138150276Y-108988099D01*
X137883925Y-109003220D01*
X137604500Y-109037303D01*
X137440832Y-109057162D01*
X137335539Y-109028103D01*
X137252937Y-108917231D01*
X137157342Y-108691650D01*
X137117667Y-108588531D01*
X137017628Y-108313756D01*
X136948638Y-108097962D01*
X136927167Y-107999765D01*
X136844699Y-107951739D01*
X136605315Y-107916717D01*
X136221046Y-107896245D01*
X136101667Y-107893546D01*
X135426802Y-107869880D01*
X134794829Y-107825304D01*
X134235335Y-107763282D01*
X133777913Y-107687279D01*
X133452150Y-107600760D01*
X133390724Y-107576099D01*
X133074834Y-107434103D01*
X134725834Y-107315080D01*
X135938554Y-107202507D01*
X137035065Y-107049213D01*
X137604500Y-106943430D01*
X138165159Y-106829082D01*
X138582031Y-106748407D01*
X138876979Y-106699961D01*
X139071868Y-106682303D01*
X139188563Y-106693989D01*
G37*
X139188563Y-106693989D02*
X139248928Y-106733576D01*
X139274828Y-106799621D01*
X139280394Y-106832838D01*
X139233391Y-107026559D01*
X139033530Y-107219411D01*
X138676253Y-107414135D01*
X138157003Y-107613474D01*
X137791202Y-107728907D01*
X137512238Y-107811890D01*
X137698665Y-108124362D01*
X137886045Y-108399375D01*
X138106137Y-108672190D01*
X138142405Y-108712000D01*
X138399718Y-108987167D01*
X138150276Y-108988099D01*
X137883925Y-109003220D01*
X137604500Y-109037303D01*
X137440832Y-109057162D01*
X137335539Y-109028103D01*
X137252937Y-108917231D01*
X137157342Y-108691650D01*
X137117667Y-108588531D01*
X137017628Y-108313756D01*
X136948638Y-108097962D01*
X136927167Y-107999765D01*
X136844699Y-107951739D01*
X136605315Y-107916717D01*
X136221046Y-107896245D01*
X136101667Y-107893546D01*
X135426802Y-107869880D01*
X134794829Y-107825304D01*
X134235335Y-107763282D01*
X133777913Y-107687279D01*
X133452150Y-107600760D01*
X133390724Y-107576099D01*
X133074834Y-107434103D01*
X134725834Y-107315080D01*
X135938554Y-107202507D01*
X137035065Y-107049213D01*
X137604500Y-106943430D01*
X138165159Y-106829082D01*
X138582031Y-106748407D01*
X138876979Y-106699961D01*
X139071868Y-106682303D01*
X139188563Y-106693989D01*
G36*
X134810500Y-113347500D02*
G01*
X134806300Y-113573878D01*
X134795673Y-113708321D01*
X134789334Y-113724758D01*
X134708685Y-113686789D01*
X134532846Y-113596447D01*
X134463339Y-113559903D01*
X134225860Y-113398775D01*
X134037608Y-113211752D01*
X134016887Y-113182645D01*
X133875263Y-112966500D01*
X134810500Y-112966500D01*
X134810500Y-113347500D01*
G37*
X134810500Y-113347500D02*
X134806300Y-113573878D01*
X134795673Y-113708321D01*
X134789334Y-113724758D01*
X134708685Y-113686789D01*
X134532846Y-113596447D01*
X134463339Y-113559903D01*
X134225860Y-113398775D01*
X134037608Y-113211752D01*
X134016887Y-113182645D01*
X133875263Y-112966500D01*
X134810500Y-112966500D01*
X134810500Y-113347500D01*
G36*
X134132515Y-114584837D02*
G01*
X134542165Y-114603577D01*
X134882322Y-114635676D01*
X135125837Y-114678820D01*
X135245561Y-114730700D01*
X135242711Y-114769489D01*
X135175021Y-114910803D01*
X135150666Y-115110521D01*
X135168392Y-115301628D01*
X135226947Y-115417110D01*
X135255000Y-115427200D01*
X135267499Y-115456531D01*
X135149167Y-115519310D01*
X134949667Y-115559001D01*
X134657256Y-115570328D01*
X134429500Y-115558488D01*
X134106669Y-115545948D01*
X133690295Y-115554063D01*
X133254651Y-115580841D01*
X133117167Y-115593655D01*
X132505268Y-115656898D01*
X132041866Y-115704326D01*
X131706897Y-115736285D01*
X131480297Y-115753121D01*
X131342001Y-115755176D01*
X131271947Y-115742797D01*
X131250069Y-115716328D01*
X131256304Y-115676114D01*
X131270013Y-115625391D01*
X131359602Y-115499657D01*
X131448069Y-115489045D01*
X131567862Y-115451761D01*
X131579097Y-115401591D01*
X131714555Y-115401591D01*
X131797778Y-115415149D01*
X131907592Y-115399583D01*
X131908903Y-115370681D01*
X131795586Y-115350469D01*
X131746625Y-115363997D01*
X131714555Y-115401591D01*
X131579097Y-115401591D01*
X131593167Y-115338762D01*
X131603502Y-115311996D01*
X132069364Y-115311996D01*
X132185834Y-115323798D01*
X132306029Y-115310493D01*
X132291667Y-115281094D01*
X132118325Y-115269911D01*
X132080000Y-115281094D01*
X132069364Y-115311996D01*
X131603502Y-115311996D01*
X131634291Y-115232258D01*
X132476555Y-115232258D01*
X132559778Y-115245816D01*
X132669592Y-115230249D01*
X132670903Y-115201347D01*
X132557586Y-115181136D01*
X132508625Y-115194663D01*
X132476555Y-115232258D01*
X131634291Y-115232258D01*
X131649126Y-115193839D01*
X131837907Y-115114694D01*
X131847167Y-115112800D01*
X132050073Y-115025705D01*
X132071451Y-114978258D01*
X132222555Y-114978258D01*
X132305778Y-114991816D01*
X132415592Y-114976249D01*
X132416903Y-114947347D01*
X132303586Y-114927136D01*
X132254625Y-114940663D01*
X132222555Y-114978258D01*
X132071451Y-114978258D01*
X132101167Y-114912309D01*
X132108889Y-114880011D01*
X132603983Y-114880011D01*
X132721055Y-114893372D01*
X132778500Y-114894191D01*
X132932536Y-114885363D01*
X132950689Y-114863386D01*
X132926667Y-114855471D01*
X132711933Y-114842303D01*
X132630334Y-114855471D01*
X132603983Y-114880011D01*
X132108889Y-114880011D01*
X132127012Y-114804210D01*
X132220993Y-114725893D01*
X132407772Y-114670360D01*
X132712015Y-114630610D01*
X133158388Y-114599643D01*
X133213326Y-114596678D01*
X133680519Y-114581767D01*
X134132515Y-114584837D01*
G37*
X134132515Y-114584837D02*
X134542165Y-114603577D01*
X134882322Y-114635676D01*
X135125837Y-114678820D01*
X135245561Y-114730700D01*
X135242711Y-114769489D01*
X135175021Y-114910803D01*
X135150666Y-115110521D01*
X135168392Y-115301628D01*
X135226947Y-115417110D01*
X135255000Y-115427200D01*
X135267499Y-115456531D01*
X135149167Y-115519310D01*
X134949667Y-115559001D01*
X134657256Y-115570328D01*
X134429500Y-115558488D01*
X134106669Y-115545948D01*
X133690295Y-115554063D01*
X133254651Y-115580841D01*
X133117167Y-115593655D01*
X132505268Y-115656898D01*
X132041866Y-115704326D01*
X131706897Y-115736285D01*
X131480297Y-115753121D01*
X131342001Y-115755176D01*
X131271947Y-115742797D01*
X131250069Y-115716328D01*
X131256304Y-115676114D01*
X131270013Y-115625391D01*
X131359602Y-115499657D01*
X131448069Y-115489045D01*
X131567862Y-115451761D01*
X131579097Y-115401591D01*
X131714555Y-115401591D01*
X131797778Y-115415149D01*
X131907592Y-115399583D01*
X131908903Y-115370681D01*
X131795586Y-115350469D01*
X131746625Y-115363997D01*
X131714555Y-115401591D01*
X131579097Y-115401591D01*
X131593167Y-115338762D01*
X131603502Y-115311996D01*
X132069364Y-115311996D01*
X132185834Y-115323798D01*
X132306029Y-115310493D01*
X132291667Y-115281094D01*
X132118325Y-115269911D01*
X132080000Y-115281094D01*
X132069364Y-115311996D01*
X131603502Y-115311996D01*
X131634291Y-115232258D01*
X132476555Y-115232258D01*
X132559778Y-115245816D01*
X132669592Y-115230249D01*
X132670903Y-115201347D01*
X132557586Y-115181136D01*
X132508625Y-115194663D01*
X132476555Y-115232258D01*
X131634291Y-115232258D01*
X131649126Y-115193839D01*
X131837907Y-115114694D01*
X131847167Y-115112800D01*
X132050073Y-115025705D01*
X132071451Y-114978258D01*
X132222555Y-114978258D01*
X132305778Y-114991816D01*
X132415592Y-114976249D01*
X132416903Y-114947347D01*
X132303586Y-114927136D01*
X132254625Y-114940663D01*
X132222555Y-114978258D01*
X132071451Y-114978258D01*
X132101167Y-114912309D01*
X132108889Y-114880011D01*
X132603983Y-114880011D01*
X132721055Y-114893372D01*
X132778500Y-114894191D01*
X132932536Y-114885363D01*
X132950689Y-114863386D01*
X132926667Y-114855471D01*
X132711933Y-114842303D01*
X132630334Y-114855471D01*
X132603983Y-114880011D01*
X132108889Y-114880011D01*
X132127012Y-114804210D01*
X132220993Y-114725893D01*
X132407772Y-114670360D01*
X132712015Y-114630610D01*
X133158388Y-114599643D01*
X133213326Y-114596678D01*
X133680519Y-114581767D01*
X134132515Y-114584837D01*
G36*
X136419167Y-116226167D02*
G01*
X136376834Y-116268500D01*
X136334500Y-116226167D01*
X136376834Y-116183834D01*
X136419167Y-116226167D01*
G37*
X136419167Y-116226167D02*
X136376834Y-116268500D01*
X136334500Y-116226167D01*
X136376834Y-116183834D01*
X136419167Y-116226167D01*
G36*
X136588500Y-117326834D02*
G01*
X136546167Y-117369167D01*
X136503834Y-117326834D01*
X136546167Y-117284500D01*
X136588500Y-117326834D01*
G37*
X136588500Y-117326834D02*
X136546167Y-117369167D01*
X136503834Y-117326834D01*
X136546167Y-117284500D01*
X136588500Y-117326834D01*
G36*
X132927438Y-116300713D02*
G01*
X133135711Y-116318265D01*
X133477825Y-116334643D01*
X133918290Y-116348688D01*
X134421613Y-116359240D01*
X134885817Y-116364697D01*
X135365685Y-116370100D01*
X135766774Y-116378301D01*
X136066884Y-116388529D01*
X136243817Y-116400011D01*
X136275376Y-116411973D01*
X136271000Y-116412919D01*
X136143006Y-116467865D01*
X136089040Y-116600387D01*
X136080500Y-116772514D01*
X136100516Y-116997637D01*
X136178928Y-117110700D01*
X136271000Y-117148979D01*
X136382853Y-117198623D01*
X136367172Y-117252477D01*
X136214970Y-117313530D01*
X135917260Y-117384768D01*
X135465056Y-117469181D01*
X135149167Y-117521992D01*
X134544290Y-117616820D01*
X134060333Y-117682181D01*
X133652039Y-117721135D01*
X133274148Y-117736744D01*
X132881401Y-117732067D01*
X132428539Y-117710167D01*
X132395707Y-117708206D01*
X132026149Y-117680628D01*
X131716262Y-117647638D01*
X131507655Y-117614197D01*
X131446905Y-117595093D01*
X131388313Y-117471951D01*
X131464492Y-117272289D01*
X131624557Y-117066961D01*
X131895001Y-117066961D01*
X131910010Y-117088879D01*
X132016500Y-117115167D01*
X132225576Y-117146929D01*
X132478148Y-117168255D01*
X132739302Y-117179144D01*
X132974123Y-117179595D01*
X133147697Y-117169610D01*
X133225110Y-117149187D01*
X133171447Y-117118328D01*
X133159500Y-117115167D01*
X132943415Y-117082037D01*
X132629142Y-117059127D01*
X132312834Y-117051663D01*
X132025282Y-117055412D01*
X131895001Y-117066961D01*
X131624557Y-117066961D01*
X131652307Y-117031365D01*
X131784592Y-116872574D01*
X131846532Y-116767330D01*
X131847167Y-116761904D01*
X131916933Y-116693242D01*
X132024858Y-116646847D01*
X132043379Y-116637069D01*
X132482167Y-116637069D01*
X133074834Y-116691834D01*
X133382039Y-116721004D01*
X133624340Y-116745451D01*
X133750656Y-116760015D01*
X133752167Y-116760253D01*
X133767543Y-116736726D01*
X133709834Y-116691834D01*
X133562607Y-116651099D01*
X133305415Y-116626653D01*
X133032500Y-116623414D01*
X132482167Y-116637069D01*
X132043379Y-116637069D01*
X132220183Y-116543730D01*
X132373646Y-116419354D01*
X132518112Y-116312560D01*
X132699007Y-116280660D01*
X132927438Y-116300713D01*
G37*
X132927438Y-116300713D02*
X133135711Y-116318265D01*
X133477825Y-116334643D01*
X133918290Y-116348688D01*
X134421613Y-116359240D01*
X134885817Y-116364697D01*
X135365685Y-116370100D01*
X135766774Y-116378301D01*
X136066884Y-116388529D01*
X136243817Y-116400011D01*
X136275376Y-116411973D01*
X136271000Y-116412919D01*
X136143006Y-116467865D01*
X136089040Y-116600387D01*
X136080500Y-116772514D01*
X136100516Y-116997637D01*
X136178928Y-117110700D01*
X136271000Y-117148979D01*
X136382853Y-117198623D01*
X136367172Y-117252477D01*
X136214970Y-117313530D01*
X135917260Y-117384768D01*
X135465056Y-117469181D01*
X135149167Y-117521992D01*
X134544290Y-117616820D01*
X134060333Y-117682181D01*
X133652039Y-117721135D01*
X133274148Y-117736744D01*
X132881401Y-117732067D01*
X132428539Y-117710167D01*
X132395707Y-117708206D01*
X132026149Y-117680628D01*
X131716262Y-117647638D01*
X131507655Y-117614197D01*
X131446905Y-117595093D01*
X131388313Y-117471951D01*
X131464492Y-117272289D01*
X131624557Y-117066961D01*
X131895001Y-117066961D01*
X131910010Y-117088879D01*
X132016500Y-117115167D01*
X132225576Y-117146929D01*
X132478148Y-117168255D01*
X132739302Y-117179144D01*
X132974123Y-117179595D01*
X133147697Y-117169610D01*
X133225110Y-117149187D01*
X133171447Y-117118328D01*
X133159500Y-117115167D01*
X132943415Y-117082037D01*
X132629142Y-117059127D01*
X132312834Y-117051663D01*
X132025282Y-117055412D01*
X131895001Y-117066961D01*
X131624557Y-117066961D01*
X131652307Y-117031365D01*
X131784592Y-116872574D01*
X131846532Y-116767330D01*
X131847167Y-116761904D01*
X131916933Y-116693242D01*
X132024858Y-116646847D01*
X132043379Y-116637069D01*
X132482167Y-116637069D01*
X133074834Y-116691834D01*
X133382039Y-116721004D01*
X133624340Y-116745451D01*
X133750656Y-116760015D01*
X133752167Y-116760253D01*
X133767543Y-116736726D01*
X133709834Y-116691834D01*
X133562607Y-116651099D01*
X133305415Y-116626653D01*
X133032500Y-116623414D01*
X132482167Y-116637069D01*
X132043379Y-116637069D01*
X132220183Y-116543730D01*
X132373646Y-116419354D01*
X132518112Y-116312560D01*
X132699007Y-116280660D01*
X132927438Y-116300713D01*
G36*
X139142411Y-109168928D02*
G01*
X139326485Y-109201230D01*
X139382500Y-109238589D01*
X139456459Y-109293308D01*
X139636626Y-109316549D01*
X139657667Y-109316466D01*
X139822873Y-109321465D01*
X139994946Y-109347952D01*
X140201869Y-109405308D01*
X140471625Y-109502914D01*
X140832199Y-109650153D01*
X141311574Y-109856404D01*
X141454503Y-109918830D01*
X141967937Y-110135926D01*
X142553245Y-110371591D01*
X143127412Y-110592906D01*
X143486503Y-110724601D01*
X143953611Y-110893166D01*
X144437629Y-111071890D01*
X144876239Y-111237553D01*
X145163204Y-111349318D01*
X145564888Y-111495156D01*
X145903857Y-111575882D01*
X146265546Y-111608384D01*
X146491169Y-111611834D01*
X147458108Y-111685809D01*
X148360806Y-111901631D01*
X149186490Y-112250140D01*
X149922384Y-112722178D01*
X150555713Y-113308587D01*
X151073702Y-114000208D01*
X151463577Y-114787884D01*
X151628572Y-115294834D01*
X151717939Y-115653585D01*
X151743868Y-115882761D01*
X151691730Y-116014932D01*
X151546899Y-116082666D01*
X151294747Y-116118535D01*
X151257000Y-116122204D01*
X150791229Y-116198376D01*
X150182484Y-116350309D01*
X149437985Y-116575556D01*
X148564947Y-116871670D01*
X147570590Y-117236202D01*
X146462129Y-117666704D01*
X145251479Y-118158784D01*
X144072094Y-118627286D01*
X142954277Y-119030862D01*
X141917328Y-119363416D01*
X140980550Y-119618850D01*
X140163244Y-119791069D01*
X140001282Y-119817199D01*
X139622952Y-119870540D01*
X139355828Y-119894196D01*
X139144488Y-119888620D01*
X138933507Y-119854262D01*
X138812697Y-119826874D01*
X138526091Y-119690648D01*
X138204830Y-119425030D01*
X137915694Y-119104353D01*
X139814725Y-119104353D01*
X139874502Y-119259066D01*
X139907434Y-119299567D01*
X140028315Y-119357759D01*
X140100770Y-119290988D01*
X140094892Y-119142610D01*
X140064698Y-119071590D01*
X139960252Y-118933102D01*
X139887521Y-118893167D01*
X139817875Y-118958105D01*
X139814725Y-119104353D01*
X137915694Y-119104353D01*
X137874645Y-119058827D01*
X137561267Y-118620848D01*
X137290428Y-118139900D01*
X137272192Y-118102156D01*
X137120128Y-117763658D01*
X137002039Y-117462951D01*
X136935086Y-117245584D01*
X136926147Y-117183712D01*
X136884287Y-116995654D01*
X136779378Y-116742665D01*
X136714480Y-116619691D01*
X136588384Y-116349972D01*
X136513141Y-116094127D01*
X136503834Y-116005858D01*
X136484022Y-115831211D01*
X136437651Y-115760500D01*
X136378780Y-115678428D01*
X136291345Y-115436978D01*
X136177479Y-115043298D01*
X136039318Y-114504538D01*
X135944445Y-114109500D01*
X135891279Y-113884547D01*
X135854042Y-113728500D01*
X135815998Y-113458397D01*
X135805032Y-113109556D01*
X135817462Y-112717602D01*
X135849608Y-112318157D01*
X135897790Y-111946845D01*
X135938040Y-111742353D01*
X142453878Y-111742353D01*
X142560252Y-111755637D01*
X142684500Y-111758107D01*
X142867621Y-111751502D01*
X142917891Y-111734615D01*
X142875000Y-111721415D01*
X142628283Y-111707407D01*
X142494000Y-111721415D01*
X142453878Y-111742353D01*
X135938040Y-111742353D01*
X135958326Y-111639290D01*
X135987534Y-111551436D01*
X141936148Y-111551436D01*
X141956749Y-111598752D01*
X142041999Y-111689645D01*
X142091009Y-111671000D01*
X142091834Y-111659164D01*
X142075789Y-111640056D01*
X143305389Y-111640056D01*
X143317011Y-111690390D01*
X143361834Y-111696500D01*
X143431524Y-111665522D01*
X143418278Y-111640056D01*
X143317798Y-111629923D01*
X143305389Y-111640056D01*
X142075789Y-111640056D01*
X142031697Y-111587551D01*
X141994085Y-111561415D01*
X141936148Y-111551436D01*
X135987534Y-111551436D01*
X136027536Y-111431116D01*
X136098984Y-111357834D01*
X136145814Y-111284297D01*
X136146995Y-111273569D01*
X141599810Y-111273569D01*
X141665522Y-111396579D01*
X141773094Y-111504066D01*
X141816234Y-111527167D01*
X141807123Y-111474415D01*
X141756245Y-111403876D01*
X141698763Y-111249331D01*
X141703108Y-111229555D01*
X143576282Y-111229555D01*
X143663151Y-111313891D01*
X143771542Y-111417729D01*
X143743758Y-111492420D01*
X143700500Y-111524261D01*
X143634910Y-111594566D01*
X143674337Y-111610537D01*
X143809414Y-111549225D01*
X143829792Y-111523458D01*
X143826664Y-111394951D01*
X143731338Y-111258068D01*
X143598409Y-111188847D01*
X143589284Y-111188500D01*
X143576282Y-111229555D01*
X141703108Y-111229555D01*
X141715966Y-111171042D01*
X141725982Y-111146167D01*
X143361834Y-111146167D01*
X143404167Y-111188500D01*
X143446500Y-111146167D01*
X143404167Y-111103834D01*
X143361834Y-111146167D01*
X141725982Y-111146167D01*
X141742609Y-111104880D01*
X141667576Y-111163745D01*
X141599810Y-111273569D01*
X136146995Y-111273569D01*
X136165167Y-111108634D01*
X136176008Y-111061500D01*
X141837834Y-111061500D01*
X141880167Y-111103834D01*
X141922500Y-111061500D01*
X141908389Y-111047389D01*
X143051389Y-111047389D01*
X143063011Y-111097723D01*
X143107834Y-111103834D01*
X143177524Y-111072855D01*
X143164278Y-111047389D01*
X143063798Y-111037256D01*
X143051389Y-111047389D01*
X141908389Y-111047389D01*
X141880167Y-111019167D01*
X141837834Y-111061500D01*
X136176008Y-111061500D01*
X136193525Y-110985344D01*
X142255983Y-110985344D01*
X142373055Y-110998705D01*
X142430500Y-110999524D01*
X142584536Y-110990697D01*
X142602689Y-110968719D01*
X142578667Y-110960804D01*
X142363933Y-110947637D01*
X142282334Y-110960804D01*
X142255983Y-110985344D01*
X136193525Y-110985344D01*
X136218204Y-110878056D01*
X140934722Y-110878056D01*
X140946345Y-110928390D01*
X140991167Y-110934500D01*
X141060857Y-110903522D01*
X141054951Y-110892167D01*
X141499167Y-110892167D01*
X141541500Y-110934500D01*
X141583834Y-110892167D01*
X141541500Y-110849834D01*
X141499167Y-110892167D01*
X141054951Y-110892167D01*
X141047611Y-110878056D01*
X140947132Y-110867923D01*
X140934722Y-110878056D01*
X136218204Y-110878056D01*
X136218222Y-110877981D01*
X136318909Y-110748801D01*
X136356981Y-110709422D01*
X140509876Y-110709422D01*
X140577952Y-110821880D01*
X140667864Y-110849834D01*
X140710130Y-110808174D01*
X140663602Y-110736210D01*
X140658888Y-110726558D01*
X141950722Y-110726558D01*
X141969192Y-110841595D01*
X142030491Y-110794875D01*
X142045884Y-110771017D01*
X142041622Y-110664279D01*
X142022659Y-110647742D01*
X141959634Y-110672818D01*
X141950722Y-110726558D01*
X140658888Y-110726558D01*
X140602684Y-110611490D01*
X140610196Y-110566171D01*
X140598104Y-110556825D01*
X140557572Y-110587751D01*
X140509876Y-110709422D01*
X136356981Y-110709422D01*
X136470390Y-110592121D01*
X136527919Y-110490000D01*
X136558170Y-110454722D01*
X140765389Y-110454722D01*
X140777011Y-110505057D01*
X140821834Y-110511167D01*
X140867371Y-110490925D01*
X141281888Y-110490925D01*
X141365111Y-110504483D01*
X141474925Y-110488916D01*
X141476236Y-110460014D01*
X141362919Y-110439803D01*
X141313959Y-110453330D01*
X141281888Y-110490925D01*
X140867371Y-110490925D01*
X140891524Y-110480189D01*
X140878278Y-110454722D01*
X140777798Y-110444589D01*
X140765389Y-110454722D01*
X136558170Y-110454722D01*
X136635402Y-110364658D01*
X136712843Y-110341834D01*
X136826507Y-110273826D01*
X136842500Y-110211138D01*
X136915721Y-110027220D01*
X136926027Y-110016011D01*
X139501562Y-110016011D01*
X139513253Y-110130472D01*
X139631137Y-110249347D01*
X139799777Y-110326555D01*
X139885516Y-110335149D01*
X139912658Y-110307668D01*
X139869920Y-110285389D01*
X140342056Y-110285389D01*
X140353678Y-110335723D01*
X140398500Y-110341834D01*
X140468190Y-110310855D01*
X140454945Y-110285389D01*
X140354465Y-110275256D01*
X140342056Y-110285389D01*
X139869920Y-110285389D01*
X139801507Y-110249727D01*
X139784667Y-110243427D01*
X139596623Y-110143365D01*
X139592058Y-110130167D01*
X140652500Y-110130167D01*
X140694834Y-110172500D01*
X140737167Y-110130167D01*
X140694834Y-110087834D01*
X140652500Y-110130167D01*
X139592058Y-110130167D01*
X139562772Y-110045500D01*
X140483167Y-110045500D01*
X140525500Y-110087834D01*
X140567834Y-110045500D01*
X140525500Y-110003167D01*
X140483167Y-110045500D01*
X139562772Y-110045500D01*
X139562582Y-110044951D01*
X139657667Y-109974573D01*
X139697892Y-109946722D01*
X140172722Y-109946722D01*
X140184345Y-109997057D01*
X140229167Y-110003167D01*
X140298857Y-109972189D01*
X140285611Y-109946722D01*
X140185132Y-109936589D01*
X140172722Y-109946722D01*
X139697892Y-109946722D01*
X139714040Y-109935542D01*
X139662664Y-109925184D01*
X139530102Y-109981312D01*
X139501562Y-110016011D01*
X136926027Y-110016011D01*
X137107064Y-109819131D01*
X137162027Y-109777389D01*
X139072056Y-109777389D01*
X139083678Y-109827723D01*
X139128500Y-109833834D01*
X139198190Y-109802855D01*
X139184945Y-109777389D01*
X139084465Y-109767256D01*
X139072056Y-109777389D01*
X137162027Y-109777389D01*
X137374047Y-109616371D01*
X137466297Y-109564757D01*
X138655657Y-109564757D01*
X138656983Y-109655034D01*
X138767678Y-109743570D01*
X138799827Y-109749167D01*
X138843113Y-109695832D01*
X138841833Y-109692722D01*
X139580056Y-109692722D01*
X139591678Y-109743057D01*
X139636500Y-109749167D01*
X139706190Y-109718189D01*
X139692945Y-109692722D01*
X139592465Y-109682589D01*
X139580056Y-109692722D01*
X138841833Y-109692722D01*
X138826317Y-109655034D01*
X138834306Y-109536677D01*
X138884820Y-109486997D01*
X138896333Y-109474925D01*
X139080555Y-109474925D01*
X139163778Y-109488483D01*
X139273592Y-109472916D01*
X139274903Y-109444014D01*
X139161586Y-109423803D01*
X139112625Y-109437330D01*
X139080555Y-109474925D01*
X138896333Y-109474925D01*
X138943972Y-109424974D01*
X138916834Y-109413093D01*
X138756855Y-109460046D01*
X138655657Y-109564757D01*
X137466297Y-109564757D01*
X137674189Y-109448442D01*
X137965011Y-109344842D01*
X138117340Y-109325834D01*
X138293578Y-109300871D01*
X138366500Y-109241167D01*
X138443620Y-109196069D01*
X138645083Y-109165493D01*
X138874500Y-109156500D01*
X139142411Y-109168928D01*
G37*
X139142411Y-109168928D02*
X139326485Y-109201230D01*
X139382500Y-109238589D01*
X139456459Y-109293308D01*
X139636626Y-109316549D01*
X139657667Y-109316466D01*
X139822873Y-109321465D01*
X139994946Y-109347952D01*
X140201869Y-109405308D01*
X140471625Y-109502914D01*
X140832199Y-109650153D01*
X141311574Y-109856404D01*
X141454503Y-109918830D01*
X141967937Y-110135926D01*
X142553245Y-110371591D01*
X143127412Y-110592906D01*
X143486503Y-110724601D01*
X143953611Y-110893166D01*
X144437629Y-111071890D01*
X144876239Y-111237553D01*
X145163204Y-111349318D01*
X145564888Y-111495156D01*
X145903857Y-111575882D01*
X146265546Y-111608384D01*
X146491169Y-111611834D01*
X147458108Y-111685809D01*
X148360806Y-111901631D01*
X149186490Y-112250140D01*
X149922384Y-112722178D01*
X150555713Y-113308587D01*
X151073702Y-114000208D01*
X151463577Y-114787884D01*
X151628572Y-115294834D01*
X151717939Y-115653585D01*
X151743868Y-115882761D01*
X151691730Y-116014932D01*
X151546899Y-116082666D01*
X151294747Y-116118535D01*
X151257000Y-116122204D01*
X150791229Y-116198376D01*
X150182484Y-116350309D01*
X149437985Y-116575556D01*
X148564947Y-116871670D01*
X147570590Y-117236202D01*
X146462129Y-117666704D01*
X145251479Y-118158784D01*
X144072094Y-118627286D01*
X142954277Y-119030862D01*
X141917328Y-119363416D01*
X140980550Y-119618850D01*
X140163244Y-119791069D01*
X140001282Y-119817199D01*
X139622952Y-119870540D01*
X139355828Y-119894196D01*
X139144488Y-119888620D01*
X138933507Y-119854262D01*
X138812697Y-119826874D01*
X138526091Y-119690648D01*
X138204830Y-119425030D01*
X137915694Y-119104353D01*
X139814725Y-119104353D01*
X139874502Y-119259066D01*
X139907434Y-119299567D01*
X140028315Y-119357759D01*
X140100770Y-119290988D01*
X140094892Y-119142610D01*
X140064698Y-119071590D01*
X139960252Y-118933102D01*
X139887521Y-118893167D01*
X139817875Y-118958105D01*
X139814725Y-119104353D01*
X137915694Y-119104353D01*
X137874645Y-119058827D01*
X137561267Y-118620848D01*
X137290428Y-118139900D01*
X137272192Y-118102156D01*
X137120128Y-117763658D01*
X137002039Y-117462951D01*
X136935086Y-117245584D01*
X136926147Y-117183712D01*
X136884287Y-116995654D01*
X136779378Y-116742665D01*
X136714480Y-116619691D01*
X136588384Y-116349972D01*
X136513141Y-116094127D01*
X136503834Y-116005858D01*
X136484022Y-115831211D01*
X136437651Y-115760500D01*
X136378780Y-115678428D01*
X136291345Y-115436978D01*
X136177479Y-115043298D01*
X136039318Y-114504538D01*
X135944445Y-114109500D01*
X135891279Y-113884547D01*
X135854042Y-113728500D01*
X135815998Y-113458397D01*
X135805032Y-113109556D01*
X135817462Y-112717602D01*
X135849608Y-112318157D01*
X135897790Y-111946845D01*
X135938040Y-111742353D01*
X142453878Y-111742353D01*
X142560252Y-111755637D01*
X142684500Y-111758107D01*
X142867621Y-111751502D01*
X142917891Y-111734615D01*
X142875000Y-111721415D01*
X142628283Y-111707407D01*
X142494000Y-111721415D01*
X142453878Y-111742353D01*
X135938040Y-111742353D01*
X135958326Y-111639290D01*
X135987534Y-111551436D01*
X141936148Y-111551436D01*
X141956749Y-111598752D01*
X142041999Y-111689645D01*
X142091009Y-111671000D01*
X142091834Y-111659164D01*
X142075789Y-111640056D01*
X143305389Y-111640056D01*
X143317011Y-111690390D01*
X143361834Y-111696500D01*
X143431524Y-111665522D01*
X143418278Y-111640056D01*
X143317798Y-111629923D01*
X143305389Y-111640056D01*
X142075789Y-111640056D01*
X142031697Y-111587551D01*
X141994085Y-111561415D01*
X141936148Y-111551436D01*
X135987534Y-111551436D01*
X136027536Y-111431116D01*
X136098984Y-111357834D01*
X136145814Y-111284297D01*
X136146995Y-111273569D01*
X141599810Y-111273569D01*
X141665522Y-111396579D01*
X141773094Y-111504066D01*
X141816234Y-111527167D01*
X141807123Y-111474415D01*
X141756245Y-111403876D01*
X141698763Y-111249331D01*
X141703108Y-111229555D01*
X143576282Y-111229555D01*
X143663151Y-111313891D01*
X143771542Y-111417729D01*
X143743758Y-111492420D01*
X143700500Y-111524261D01*
X143634910Y-111594566D01*
X143674337Y-111610537D01*
X143809414Y-111549225D01*
X143829792Y-111523458D01*
X143826664Y-111394951D01*
X143731338Y-111258068D01*
X143598409Y-111188847D01*
X143589284Y-111188500D01*
X143576282Y-111229555D01*
X141703108Y-111229555D01*
X141715966Y-111171042D01*
X141725982Y-111146167D01*
X143361834Y-111146167D01*
X143404167Y-111188500D01*
X143446500Y-111146167D01*
X143404167Y-111103834D01*
X143361834Y-111146167D01*
X141725982Y-111146167D01*
X141742609Y-111104880D01*
X141667576Y-111163745D01*
X141599810Y-111273569D01*
X136146995Y-111273569D01*
X136165167Y-111108634D01*
X136176008Y-111061500D01*
X141837834Y-111061500D01*
X141880167Y-111103834D01*
X141922500Y-111061500D01*
X141908389Y-111047389D01*
X143051389Y-111047389D01*
X143063011Y-111097723D01*
X143107834Y-111103834D01*
X143177524Y-111072855D01*
X143164278Y-111047389D01*
X143063798Y-111037256D01*
X143051389Y-111047389D01*
X141908389Y-111047389D01*
X141880167Y-111019167D01*
X141837834Y-111061500D01*
X136176008Y-111061500D01*
X136193525Y-110985344D01*
X142255983Y-110985344D01*
X142373055Y-110998705D01*
X142430500Y-110999524D01*
X142584536Y-110990697D01*
X142602689Y-110968719D01*
X142578667Y-110960804D01*
X142363933Y-110947637D01*
X142282334Y-110960804D01*
X142255983Y-110985344D01*
X136193525Y-110985344D01*
X136218204Y-110878056D01*
X140934722Y-110878056D01*
X140946345Y-110928390D01*
X140991167Y-110934500D01*
X141060857Y-110903522D01*
X141054951Y-110892167D01*
X141499167Y-110892167D01*
X141541500Y-110934500D01*
X141583834Y-110892167D01*
X141541500Y-110849834D01*
X141499167Y-110892167D01*
X141054951Y-110892167D01*
X141047611Y-110878056D01*
X140947132Y-110867923D01*
X140934722Y-110878056D01*
X136218204Y-110878056D01*
X136218222Y-110877981D01*
X136318909Y-110748801D01*
X136356981Y-110709422D01*
X140509876Y-110709422D01*
X140577952Y-110821880D01*
X140667864Y-110849834D01*
X140710130Y-110808174D01*
X140663602Y-110736210D01*
X140658888Y-110726558D01*
X141950722Y-110726558D01*
X141969192Y-110841595D01*
X142030491Y-110794875D01*
X142045884Y-110771017D01*
X142041622Y-110664279D01*
X142022659Y-110647742D01*
X141959634Y-110672818D01*
X141950722Y-110726558D01*
X140658888Y-110726558D01*
X140602684Y-110611490D01*
X140610196Y-110566171D01*
X140598104Y-110556825D01*
X140557572Y-110587751D01*
X140509876Y-110709422D01*
X136356981Y-110709422D01*
X136470390Y-110592121D01*
X136527919Y-110490000D01*
X136558170Y-110454722D01*
X140765389Y-110454722D01*
X140777011Y-110505057D01*
X140821834Y-110511167D01*
X140867371Y-110490925D01*
X141281888Y-110490925D01*
X141365111Y-110504483D01*
X141474925Y-110488916D01*
X141476236Y-110460014D01*
X141362919Y-110439803D01*
X141313959Y-110453330D01*
X141281888Y-110490925D01*
X140867371Y-110490925D01*
X140891524Y-110480189D01*
X140878278Y-110454722D01*
X140777798Y-110444589D01*
X140765389Y-110454722D01*
X136558170Y-110454722D01*
X136635402Y-110364658D01*
X136712843Y-110341834D01*
X136826507Y-110273826D01*
X136842500Y-110211138D01*
X136915721Y-110027220D01*
X136926027Y-110016011D01*
X139501562Y-110016011D01*
X139513253Y-110130472D01*
X139631137Y-110249347D01*
X139799777Y-110326555D01*
X139885516Y-110335149D01*
X139912658Y-110307668D01*
X139869920Y-110285389D01*
X140342056Y-110285389D01*
X140353678Y-110335723D01*
X140398500Y-110341834D01*
X140468190Y-110310855D01*
X140454945Y-110285389D01*
X140354465Y-110275256D01*
X140342056Y-110285389D01*
X139869920Y-110285389D01*
X139801507Y-110249727D01*
X139784667Y-110243427D01*
X139596623Y-110143365D01*
X139592058Y-110130167D01*
X140652500Y-110130167D01*
X140694834Y-110172500D01*
X140737167Y-110130167D01*
X140694834Y-110087834D01*
X140652500Y-110130167D01*
X139592058Y-110130167D01*
X139562772Y-110045500D01*
X140483167Y-110045500D01*
X140525500Y-110087834D01*
X140567834Y-110045500D01*
X140525500Y-110003167D01*
X140483167Y-110045500D01*
X139562772Y-110045500D01*
X139562582Y-110044951D01*
X139657667Y-109974573D01*
X139697892Y-109946722D01*
X140172722Y-109946722D01*
X140184345Y-109997057D01*
X140229167Y-110003167D01*
X140298857Y-109972189D01*
X140285611Y-109946722D01*
X140185132Y-109936589D01*
X140172722Y-109946722D01*
X139697892Y-109946722D01*
X139714040Y-109935542D01*
X139662664Y-109925184D01*
X139530102Y-109981312D01*
X139501562Y-110016011D01*
X136926027Y-110016011D01*
X137107064Y-109819131D01*
X137162027Y-109777389D01*
X139072056Y-109777389D01*
X139083678Y-109827723D01*
X139128500Y-109833834D01*
X139198190Y-109802855D01*
X139184945Y-109777389D01*
X139084465Y-109767256D01*
X139072056Y-109777389D01*
X137162027Y-109777389D01*
X137374047Y-109616371D01*
X137466297Y-109564757D01*
X138655657Y-109564757D01*
X138656983Y-109655034D01*
X138767678Y-109743570D01*
X138799827Y-109749167D01*
X138843113Y-109695832D01*
X138841833Y-109692722D01*
X139580056Y-109692722D01*
X139591678Y-109743057D01*
X139636500Y-109749167D01*
X139706190Y-109718189D01*
X139692945Y-109692722D01*
X139592465Y-109682589D01*
X139580056Y-109692722D01*
X138841833Y-109692722D01*
X138826317Y-109655034D01*
X138834306Y-109536677D01*
X138884820Y-109486997D01*
X138896333Y-109474925D01*
X139080555Y-109474925D01*
X139163778Y-109488483D01*
X139273592Y-109472916D01*
X139274903Y-109444014D01*
X139161586Y-109423803D01*
X139112625Y-109437330D01*
X139080555Y-109474925D01*
X138896333Y-109474925D01*
X138943972Y-109424974D01*
X138916834Y-109413093D01*
X138756855Y-109460046D01*
X138655657Y-109564757D01*
X137466297Y-109564757D01*
X137674189Y-109448442D01*
X137965011Y-109344842D01*
X138117340Y-109325834D01*
X138293578Y-109300871D01*
X138366500Y-109241167D01*
X138443620Y-109196069D01*
X138645083Y-109165493D01*
X138874500Y-109156500D01*
X139142411Y-109168928D01*
G36*
X151484809Y-116208025D02*
G01*
X151559304Y-116310249D01*
X151607908Y-116534982D01*
X151610204Y-116550134D01*
X151632889Y-116808819D01*
X151623112Y-117012217D01*
X151612462Y-117053695D01*
X151484146Y-117226774D01*
X151243885Y-117426686D01*
X150937858Y-117619678D01*
X150649633Y-117757458D01*
X150438566Y-117851228D01*
X150361637Y-117924008D01*
X150392084Y-118007574D01*
X150415096Y-118035937D01*
X150544864Y-118211842D01*
X150597247Y-118300500D01*
X150593194Y-118326903D01*
X150505305Y-118239941D01*
X150459190Y-118186508D01*
X150256628Y-117945515D01*
X149730231Y-118159410D01*
X149466673Y-118260176D01*
X149277847Y-118320300D01*
X149203866Y-118327045D01*
X149203834Y-118326535D01*
X149152258Y-118328956D01*
X149098000Y-118367042D01*
X148970882Y-118428288D01*
X148708986Y-118523668D01*
X148341352Y-118644462D01*
X147897022Y-118781946D01*
X147405039Y-118927400D01*
X146894443Y-119072102D01*
X146394277Y-119207330D01*
X145933582Y-119324363D01*
X145817167Y-119352318D01*
X145271310Y-119471819D01*
X144668324Y-119587341D01*
X144029416Y-119696418D01*
X143375788Y-119796585D01*
X142728646Y-119885378D01*
X142109194Y-119960331D01*
X141538636Y-120018979D01*
X141038177Y-120058857D01*
X140629021Y-120077500D01*
X140332374Y-120072443D01*
X140169438Y-120041221D01*
X140144500Y-120011782D01*
X140177437Y-119911124D01*
X140301739Y-119852145D01*
X140555647Y-119817171D01*
X140567834Y-119816124D01*
X140791582Y-119784033D01*
X140940977Y-119739401D01*
X140948834Y-119734749D01*
X141088604Y-119674936D01*
X141275335Y-119620636D01*
X141488878Y-119608807D01*
X141630692Y-119714441D01*
X141630957Y-119714795D01*
X141713652Y-119816049D01*
X141720183Y-119773166D01*
X141701584Y-119694826D01*
X141698413Y-119614484D01*
X141751516Y-119544699D01*
X141886941Y-119471853D01*
X142130738Y-119382330D01*
X142508959Y-119262514D01*
X142556621Y-119247900D01*
X142924617Y-119141033D01*
X143233623Y-119062091D01*
X143447726Y-119019562D01*
X143528095Y-119018268D01*
X143618902Y-119002987D01*
X143629769Y-118982008D01*
X143714701Y-118920981D01*
X143926666Y-118812276D01*
X144235210Y-118670431D01*
X144609877Y-118509986D01*
X144674030Y-118483517D01*
X145689893Y-118066572D01*
X145794805Y-118289369D01*
X145899717Y-118512167D01*
X145856757Y-118258167D01*
X145843612Y-118113856D01*
X145886855Y-118015012D01*
X146019944Y-117927304D01*
X146276336Y-117816402D01*
X146294458Y-117809038D01*
X146575119Y-117704524D01*
X146741347Y-117671428D01*
X146829517Y-117704159D01*
X146845179Y-117724371D01*
X146902631Y-117781275D01*
X146916537Y-117698169D01*
X146992035Y-117592357D01*
X147186126Y-117470341D01*
X147452762Y-117355510D01*
X147577079Y-117319778D01*
X148956518Y-117319778D01*
X148972084Y-117429592D01*
X149000986Y-117430903D01*
X149021198Y-117317586D01*
X149007670Y-117268625D01*
X148970076Y-117236555D01*
X148956518Y-117319778D01*
X147577079Y-117319778D01*
X147745898Y-117271255D01*
X147764500Y-117267448D01*
X147904235Y-117215521D01*
X147933834Y-117192167D01*
X148032233Y-117138745D01*
X148237950Y-117056520D01*
X148394314Y-117001361D01*
X148656707Y-116924053D01*
X148805551Y-116914240D01*
X148879851Y-116966694D01*
X148934611Y-117011758D01*
X148948537Y-116924667D01*
X148979800Y-116797579D01*
X149013334Y-116774111D01*
X149115020Y-116750572D01*
X149344861Y-116688255D01*
X149668704Y-116596654D01*
X150050500Y-116485819D01*
X150465100Y-116366456D01*
X150746286Y-116293883D01*
X150922189Y-116264121D01*
X151020941Y-116273196D01*
X151070671Y-116317128D01*
X151081716Y-116340041D01*
X151128537Y-116433094D01*
X151143784Y-116363532D01*
X151145216Y-116332000D01*
X151220181Y-116209324D01*
X151353220Y-116183834D01*
X151484809Y-116208025D01*
G37*
X151484809Y-116208025D02*
X151559304Y-116310249D01*
X151607908Y-116534982D01*
X151610204Y-116550134D01*
X151632889Y-116808819D01*
X151623112Y-117012217D01*
X151612462Y-117053695D01*
X151484146Y-117226774D01*
X151243885Y-117426686D01*
X150937858Y-117619678D01*
X150649633Y-117757458D01*
X150438566Y-117851228D01*
X150361637Y-117924008D01*
X150392084Y-118007574D01*
X150415096Y-118035937D01*
X150544864Y-118211842D01*
X150597247Y-118300500D01*
X150593194Y-118326903D01*
X150505305Y-118239941D01*
X150459190Y-118186508D01*
X150256628Y-117945515D01*
X149730231Y-118159410D01*
X149466673Y-118260176D01*
X149277847Y-118320300D01*
X149203866Y-118327045D01*
X149203834Y-118326535D01*
X149152258Y-118328956D01*
X149098000Y-118367042D01*
X148970882Y-118428288D01*
X148708986Y-118523668D01*
X148341352Y-118644462D01*
X147897022Y-118781946D01*
X147405039Y-118927400D01*
X146894443Y-119072102D01*
X146394277Y-119207330D01*
X145933582Y-119324363D01*
X145817167Y-119352318D01*
X145271310Y-119471819D01*
X144668324Y-119587341D01*
X144029416Y-119696418D01*
X143375788Y-119796585D01*
X142728646Y-119885378D01*
X142109194Y-119960331D01*
X141538636Y-120018979D01*
X141038177Y-120058857D01*
X140629021Y-120077500D01*
X140332374Y-120072443D01*
X140169438Y-120041221D01*
X140144500Y-120011782D01*
X140177437Y-119911124D01*
X140301739Y-119852145D01*
X140555647Y-119817171D01*
X140567834Y-119816124D01*
X140791582Y-119784033D01*
X140940977Y-119739401D01*
X140948834Y-119734749D01*
X141088604Y-119674936D01*
X141275335Y-119620636D01*
X141488878Y-119608807D01*
X141630692Y-119714441D01*
X141630957Y-119714795D01*
X141713652Y-119816049D01*
X141720183Y-119773166D01*
X141701584Y-119694826D01*
X141698413Y-119614484D01*
X141751516Y-119544699D01*
X141886941Y-119471853D01*
X142130738Y-119382330D01*
X142508959Y-119262514D01*
X142556621Y-119247900D01*
X142924617Y-119141033D01*
X143233623Y-119062091D01*
X143447726Y-119019562D01*
X143528095Y-119018268D01*
X143618902Y-119002987D01*
X143629769Y-118982008D01*
X143714701Y-118920981D01*
X143926666Y-118812276D01*
X144235210Y-118670431D01*
X144609877Y-118509986D01*
X144674030Y-118483517D01*
X145689893Y-118066572D01*
X145794805Y-118289369D01*
X145899717Y-118512167D01*
X145856757Y-118258167D01*
X145843612Y-118113856D01*
X145886855Y-118015012D01*
X146019944Y-117927304D01*
X146276336Y-117816402D01*
X146294458Y-117809038D01*
X146575119Y-117704524D01*
X146741347Y-117671428D01*
X146829517Y-117704159D01*
X146845179Y-117724371D01*
X146902631Y-117781275D01*
X146916537Y-117698169D01*
X146992035Y-117592357D01*
X147186126Y-117470341D01*
X147452762Y-117355510D01*
X147577079Y-117319778D01*
X148956518Y-117319778D01*
X148972084Y-117429592D01*
X149000986Y-117430903D01*
X149021198Y-117317586D01*
X149007670Y-117268625D01*
X148970076Y-117236555D01*
X148956518Y-117319778D01*
X147577079Y-117319778D01*
X147745898Y-117271255D01*
X147764500Y-117267448D01*
X147904235Y-117215521D01*
X147933834Y-117192167D01*
X148032233Y-117138745D01*
X148237950Y-117056520D01*
X148394314Y-117001361D01*
X148656707Y-116924053D01*
X148805551Y-116914240D01*
X148879851Y-116966694D01*
X148934611Y-117011758D01*
X148948537Y-116924667D01*
X148979800Y-116797579D01*
X149013334Y-116774111D01*
X149115020Y-116750572D01*
X149344861Y-116688255D01*
X149668704Y-116596654D01*
X150050500Y-116485819D01*
X150465100Y-116366456D01*
X150746286Y-116293883D01*
X150922189Y-116264121D01*
X151020941Y-116273196D01*
X151070671Y-116317128D01*
X151081716Y-116340041D01*
X151128537Y-116433094D01*
X151143784Y-116363532D01*
X151145216Y-116332000D01*
X151220181Y-116209324D01*
X151353220Y-116183834D01*
X151484809Y-116208025D01*
G36*
X139995821Y-119937310D02*
G01*
X140059834Y-119993834D01*
X140025752Y-120064198D01*
X139901001Y-120047656D01*
X139763500Y-119993834D01*
X139663136Y-119941849D01*
X139709909Y-119920483D01*
X139827000Y-119915118D01*
X139995821Y-119937310D01*
G37*
X139995821Y-119937310D02*
X140059834Y-119993834D01*
X140025752Y-120064198D01*
X139901001Y-120047656D01*
X139763500Y-119993834D01*
X139663136Y-119941849D01*
X139709909Y-119920483D01*
X139827000Y-119915118D01*
X139995821Y-119937310D01*
G36*
X140737167Y-120205500D02*
G01*
X140694834Y-120247834D01*
X140652500Y-120205500D01*
X140694834Y-120163167D01*
X140737167Y-120205500D01*
G37*
X140737167Y-120205500D02*
X140694834Y-120247834D01*
X140652500Y-120205500D01*
X140694834Y-120163167D01*
X140737167Y-120205500D01*
G36*
X140892133Y-120572816D02*
G01*
X140906500Y-120671167D01*
X140892843Y-120808989D01*
X140874042Y-120840500D01*
X140829567Y-120770690D01*
X140797301Y-120671167D01*
X140792553Y-120536159D01*
X140829760Y-120501834D01*
X140892133Y-120572816D01*
G37*
X140892133Y-120572816D02*
X140906500Y-120671167D01*
X140892843Y-120808989D01*
X140874042Y-120840500D01*
X140829567Y-120770690D01*
X140797301Y-120671167D01*
X140792553Y-120536159D01*
X140829760Y-120501834D01*
X140892133Y-120572816D01*
G36*
X149231938Y-118971381D02*
G01*
X149584838Y-119452018D01*
X149777720Y-119955220D01*
X149815922Y-120467074D01*
X149704784Y-120973672D01*
X149449646Y-121461101D01*
X149055847Y-121915450D01*
X148528726Y-122322809D01*
X147873624Y-122669267D01*
X147800668Y-122700283D01*
X146832271Y-123027834D01*
X145831382Y-123225280D01*
X144836461Y-123287943D01*
X143885966Y-123211148D01*
X143767760Y-123190694D01*
X143258774Y-123079439D01*
X142855604Y-122946290D01*
X142494736Y-122769465D01*
X142430780Y-122732157D01*
X142135976Y-122528523D01*
X141828495Y-122270221D01*
X141538611Y-121988668D01*
X141296603Y-121715283D01*
X141132745Y-121481484D01*
X141077031Y-121327334D01*
X141042640Y-121201561D01*
X141005278Y-121179167D01*
X140967834Y-121102304D01*
X140942250Y-120902762D01*
X140934722Y-120678343D01*
X140934722Y-120177518D01*
X141534445Y-120122159D01*
X142903894Y-119960632D01*
X144333410Y-119727720D01*
X145759176Y-119435898D01*
X147117379Y-119097643D01*
X147825767Y-118892253D01*
X148860700Y-118574497D01*
X149231938Y-118971381D01*
G37*
X149231938Y-118971381D02*
X149584838Y-119452018D01*
X149777720Y-119955220D01*
X149815922Y-120467074D01*
X149704784Y-120973672D01*
X149449646Y-121461101D01*
X149055847Y-121915450D01*
X148528726Y-122322809D01*
X147873624Y-122669267D01*
X147800668Y-122700283D01*
X146832271Y-123027834D01*
X145831382Y-123225280D01*
X144836461Y-123287943D01*
X143885966Y-123211148D01*
X143767760Y-123190694D01*
X143258774Y-123079439D01*
X142855604Y-122946290D01*
X142494736Y-122769465D01*
X142430780Y-122732157D01*
X142135976Y-122528523D01*
X141828495Y-122270221D01*
X141538611Y-121988668D01*
X141296603Y-121715283D01*
X141132745Y-121481484D01*
X141077031Y-121327334D01*
X141042640Y-121201561D01*
X141005278Y-121179167D01*
X140967834Y-121102304D01*
X140942250Y-120902762D01*
X140934722Y-120678343D01*
X140934722Y-120177518D01*
X141534445Y-120122159D01*
X142903894Y-119960632D01*
X144333410Y-119727720D01*
X145759176Y-119435898D01*
X147117379Y-119097643D01*
X147825767Y-118892253D01*
X148860700Y-118574497D01*
X149231938Y-118971381D01*
G36*
X136872695Y-117820143D02*
G01*
X136921040Y-117877167D01*
X137060974Y-118066873D01*
X137237869Y-118336718D01*
X137367774Y-118550955D01*
X137547266Y-118814411D01*
X137807977Y-119142148D01*
X138107623Y-119482593D01*
X138276962Y-119659865D01*
X138574234Y-119969974D01*
X138853905Y-120278556D01*
X139076152Y-120540886D01*
X139166042Y-120658421D01*
X139390657Y-120938194D01*
X139711741Y-121289812D01*
X140093980Y-121678786D01*
X140502060Y-122070628D01*
X140900666Y-122430847D01*
X141254484Y-122724954D01*
X141375662Y-122816434D01*
X141920845Y-123181347D01*
X142502716Y-123518486D01*
X143070498Y-123800891D01*
X143573419Y-124001598D01*
X143658167Y-124028487D01*
X144078004Y-124115693D01*
X144616973Y-124170253D01*
X145228158Y-124192735D01*
X145864647Y-124183707D01*
X146479525Y-124143736D01*
X147025881Y-124073391D01*
X147425834Y-123982893D01*
X148459815Y-123635399D01*
X149329949Y-123268808D01*
X150035105Y-122883750D01*
X150574154Y-122480855D01*
X150945966Y-122060752D01*
X150985604Y-121998979D01*
X151229945Y-121493213D01*
X151345458Y-120969516D01*
X151331813Y-120404776D01*
X151188680Y-119775885D01*
X150944603Y-119126000D01*
X150799144Y-118777631D01*
X150718925Y-118561953D01*
X150704283Y-118484253D01*
X150755554Y-118549816D01*
X150873075Y-118763931D01*
X150928432Y-118872000D01*
X151127862Y-119325929D01*
X151298239Y-119825061D01*
X151423011Y-120311493D01*
X151485627Y-120727320D01*
X151489834Y-120835962D01*
X151445784Y-121290897D01*
X151327962Y-121758864D01*
X151157861Y-122161822D01*
X151096921Y-122262764D01*
X150990051Y-122432236D01*
X150939452Y-122531444D01*
X150939020Y-122533834D01*
X150867308Y-122688114D01*
X150696824Y-122916542D01*
X150458068Y-123183887D01*
X150181537Y-123454923D01*
X150016586Y-123599326D01*
X149271657Y-124171550D01*
X148561968Y-124608936D01*
X147850987Y-124930020D01*
X147102184Y-125153336D01*
X146846886Y-125207510D01*
X146431679Y-125264632D01*
X145919009Y-125300397D01*
X145357743Y-125314871D01*
X144796745Y-125308117D01*
X144284881Y-125280200D01*
X143871016Y-125231183D01*
X143734501Y-125203427D01*
X142945716Y-124927424D01*
X142148238Y-124484511D01*
X141344387Y-123876753D01*
X140536482Y-123106216D01*
X139726844Y-122174964D01*
X138917793Y-121085061D01*
X138632071Y-120661762D01*
X138126118Y-119890152D01*
X137705794Y-119239720D01*
X137359844Y-118692764D01*
X137077011Y-118231583D01*
X136941984Y-118004167D01*
X136833299Y-117814152D01*
X136810857Y-117756779D01*
X136872695Y-117820143D01*
G37*
X136872695Y-117820143D02*
X136921040Y-117877167D01*
X137060974Y-118066873D01*
X137237869Y-118336718D01*
X137367774Y-118550955D01*
X137547266Y-118814411D01*
X137807977Y-119142148D01*
X138107623Y-119482593D01*
X138276962Y-119659865D01*
X138574234Y-119969974D01*
X138853905Y-120278556D01*
X139076152Y-120540886D01*
X139166042Y-120658421D01*
X139390657Y-120938194D01*
X139711741Y-121289812D01*
X140093980Y-121678786D01*
X140502060Y-122070628D01*
X140900666Y-122430847D01*
X141254484Y-122724954D01*
X141375662Y-122816434D01*
X141920845Y-123181347D01*
X142502716Y-123518486D01*
X143070498Y-123800891D01*
X143573419Y-124001598D01*
X143658167Y-124028487D01*
X144078004Y-124115693D01*
X144616973Y-124170253D01*
X145228158Y-124192735D01*
X145864647Y-124183707D01*
X146479525Y-124143736D01*
X147025881Y-124073391D01*
X147425834Y-123982893D01*
X148459815Y-123635399D01*
X149329949Y-123268808D01*
X150035105Y-122883750D01*
X150574154Y-122480855D01*
X150945966Y-122060752D01*
X150985604Y-121998979D01*
X151229945Y-121493213D01*
X151345458Y-120969516D01*
X151331813Y-120404776D01*
X151188680Y-119775885D01*
X150944603Y-119126000D01*
X150799144Y-118777631D01*
X150718925Y-118561953D01*
X150704283Y-118484253D01*
X150755554Y-118549816D01*
X150873075Y-118763931D01*
X150928432Y-118872000D01*
X151127862Y-119325929D01*
X151298239Y-119825061D01*
X151423011Y-120311493D01*
X151485627Y-120727320D01*
X151489834Y-120835962D01*
X151445784Y-121290897D01*
X151327962Y-121758864D01*
X151157861Y-122161822D01*
X151096921Y-122262764D01*
X150990051Y-122432236D01*
X150939452Y-122531444D01*
X150939020Y-122533834D01*
X150867308Y-122688114D01*
X150696824Y-122916542D01*
X150458068Y-123183887D01*
X150181537Y-123454923D01*
X150016586Y-123599326D01*
X149271657Y-124171550D01*
X148561968Y-124608936D01*
X147850987Y-124930020D01*
X147102184Y-125153336D01*
X146846886Y-125207510D01*
X146431679Y-125264632D01*
X145919009Y-125300397D01*
X145357743Y-125314871D01*
X144796745Y-125308117D01*
X144284881Y-125280200D01*
X143871016Y-125231183D01*
X143734501Y-125203427D01*
X142945716Y-124927424D01*
X142148238Y-124484511D01*
X141344387Y-123876753D01*
X140536482Y-123106216D01*
X139726844Y-122174964D01*
X138917793Y-121085061D01*
X138632071Y-120661762D01*
X138126118Y-119890152D01*
X137705794Y-119239720D01*
X137359844Y-118692764D01*
X137077011Y-118231583D01*
X136941984Y-118004167D01*
X136833299Y-117814152D01*
X136810857Y-117756779D01*
X136872695Y-117820143D01*
D12*
X134398000Y-85125500D02*
X133123000Y-85125500D01*
X144748000Y-84550500D02*
X144073000Y-84550500D01*
X144748000Y-94900500D02*
X144073000Y-94900500D01*
X134398000Y-94900500D02*
X135073000Y-94900500D01*
X134398000Y-84550500D02*
X135073000Y-84550500D01*
X134398000Y-94900500D02*
X134398000Y-94225500D01*
X144748000Y-94900500D02*
X144748000Y-94225500D01*
X144748000Y-84550500D02*
X144748000Y-85225500D01*
X134398000Y-84550500D02*
X134398000Y-85125500D01*
D13*
X137366000Y-30030300D02*
X137366000Y-39230300D01*
X144666000Y-30030300D02*
X137366000Y-30030300D01*
X144666000Y-39230300D02*
X144666000Y-30030300D01*
X137366000Y-39230300D02*
X144666000Y-39230300D01*
D10*
X142716000Y-98616500D02*
X138716000Y-98616500D01*
X142716000Y-101916500D02*
X142716000Y-98616500D01*
X147054500Y-82787748D02*
X147054500Y-83310252D01*
X148474500Y-82787748D02*
X148474500Y-83310252D01*
X132155000Y-98550252D02*
X132155000Y-98027748D01*
X130735000Y-98550252D02*
X130735000Y-98027748D01*
X142767000Y-47653752D02*
X142767000Y-47131248D01*
X141347000Y-47653752D02*
X141347000Y-47131248D01*
X139712000Y-47653752D02*
X139712000Y-47131248D01*
X138292000Y-47653752D02*
X138292000Y-47131248D01*
X132101000Y-45977564D02*
X132101000Y-44773436D01*
X130281000Y-45977564D02*
X130281000Y-44773436D01*
X147308500Y-94861748D02*
X147308500Y-95384252D01*
X148728500Y-94861748D02*
X148728500Y-95384252D01*
X136009748Y-81037500D02*
X136532252Y-81037500D01*
X136009748Y-79617500D02*
X136532252Y-79617500D01*
X150356500Y-94997748D02*
X150356500Y-95520252D01*
X151776500Y-94997748D02*
X151776500Y-95520252D01*
X142755252Y-79617500D02*
X142232748Y-79617500D01*
X142755252Y-81037500D02*
X142232748Y-81037500D01*
X131710500Y-89469752D02*
X131710500Y-88947248D01*
X130290500Y-89469752D02*
X130290500Y-88947248D01*
X137743000Y-100663752D02*
X137743000Y-100141248D01*
X136323000Y-100663752D02*
X136323000Y-100141248D01*
X144070000Y-100014248D02*
X144070000Y-100536752D01*
X145490000Y-100014248D02*
X145490000Y-100536752D01*
D12*
X138811095Y-81727880D02*
X138811095Y-82537404D01*
X138858714Y-82632642D01*
X138906333Y-82680261D01*
X139001571Y-82727880D01*
X139192047Y-82727880D01*
X139287285Y-82680261D01*
X139334904Y-82632642D01*
X139382523Y-82537404D01*
X139382523Y-81727880D01*
X140382523Y-82727880D02*
X139811095Y-82727880D01*
X140096809Y-82727880D02*
X140096809Y-81727880D01*
X140001571Y-81870738D01*
X139906333Y-81965976D01*
X139811095Y-82013595D01*
X135186476Y-37132204D02*
X135186476Y-36332204D01*
X135453142Y-36903633D01*
X135719809Y-36332204D01*
X135719809Y-37132204D01*
X136215047Y-37132204D02*
X136138857Y-37094109D01*
X136100761Y-37056014D01*
X136062666Y-36979823D01*
X136062666Y-36751252D01*
X136100761Y-36675061D01*
X136138857Y-36636966D01*
X136215047Y-36598871D01*
X136329333Y-36598871D01*
X136405523Y-36636966D01*
X136443619Y-36675061D01*
X136481714Y-36751252D01*
X136481714Y-36979823D01*
X136443619Y-37056014D01*
X136405523Y-37094109D01*
X136329333Y-37132204D01*
X136215047Y-37132204D01*
X136938857Y-37132204D02*
X136862666Y-37094109D01*
X136824571Y-37017919D01*
X136824571Y-36332204D01*
X137548380Y-37094109D02*
X137472190Y-37132204D01*
X137319809Y-37132204D01*
X137243619Y-37094109D01*
X137205523Y-37017919D01*
X137205523Y-36713157D01*
X137243619Y-36636966D01*
X137319809Y-36598871D01*
X137472190Y-36598871D01*
X137548380Y-36636966D01*
X137586476Y-36713157D01*
X137586476Y-36789347D01*
X137205523Y-36865538D01*
X137853142Y-37132204D02*
X138272190Y-36598871D01*
X137853142Y-36598871D02*
X138272190Y-37132204D01*
X138576952Y-36827442D02*
X139186476Y-36827442D01*
X139719809Y-36332204D02*
X139796000Y-36332204D01*
X139872190Y-36370300D01*
X139910285Y-36408395D01*
X139948380Y-36484585D01*
X139986476Y-36636966D01*
X139986476Y-36827442D01*
X139948380Y-36979823D01*
X139910285Y-37056014D01*
X139872190Y-37094109D01*
X139796000Y-37132204D01*
X139719809Y-37132204D01*
X139643619Y-37094109D01*
X139605523Y-37056014D01*
X139567428Y-36979823D01*
X139529333Y-36827442D01*
X139529333Y-36636966D01*
X139567428Y-36484585D01*
X139605523Y-36408395D01*
X139643619Y-36370300D01*
X139719809Y-36332204D01*
X140710285Y-36332204D02*
X140329333Y-36332204D01*
X140291238Y-36713157D01*
X140329333Y-36675061D01*
X140405523Y-36636966D01*
X140596000Y-36636966D01*
X140672190Y-36675061D01*
X140710285Y-36713157D01*
X140748380Y-36789347D01*
X140748380Y-36979823D01*
X140710285Y-37056014D01*
X140672190Y-37094109D01*
X140596000Y-37132204D01*
X140405523Y-37132204D01*
X140329333Y-37094109D01*
X140291238Y-37056014D01*
X141434095Y-36598871D02*
X141434095Y-37132204D01*
X141243619Y-36294109D02*
X141053142Y-36865538D01*
X141548380Y-36865538D01*
X141967428Y-36675061D02*
X141891238Y-36636966D01*
X141853142Y-36598871D01*
X141815047Y-36522680D01*
X141815047Y-36484585D01*
X141853142Y-36408395D01*
X141891238Y-36370300D01*
X141967428Y-36332204D01*
X142119809Y-36332204D01*
X142196000Y-36370300D01*
X142234095Y-36408395D01*
X142272190Y-36484585D01*
X142272190Y-36522680D01*
X142234095Y-36598871D01*
X142196000Y-36636966D01*
X142119809Y-36675061D01*
X141967428Y-36675061D01*
X141891238Y-36713157D01*
X141853142Y-36751252D01*
X141815047Y-36827442D01*
X141815047Y-36979823D01*
X141853142Y-37056014D01*
X141891238Y-37094109D01*
X141967428Y-37132204D01*
X142119809Y-37132204D01*
X142196000Y-37094109D01*
X142234095Y-37056014D01*
X142272190Y-36979823D01*
X142272190Y-36827442D01*
X142234095Y-36751252D01*
X142196000Y-36713157D01*
X142119809Y-36675061D01*
X143034095Y-37132204D02*
X142576952Y-37132204D01*
X142805523Y-37132204D02*
X142805523Y-36332204D01*
X142729333Y-36446490D01*
X142653142Y-36522680D01*
X142576952Y-36560776D01*
X143415047Y-37132204D02*
X143567428Y-37132204D01*
X143643619Y-37094109D01*
X143681714Y-37056014D01*
X143757904Y-36941728D01*
X143796000Y-36789347D01*
X143796000Y-36484585D01*
X143757904Y-36408395D01*
X143719809Y-36370300D01*
X143643619Y-36332204D01*
X143491238Y-36332204D01*
X143415047Y-36370300D01*
X143376952Y-36408395D01*
X143338857Y-36484585D01*
X143338857Y-36675061D01*
X143376952Y-36751252D01*
X143415047Y-36789347D01*
X143491238Y-36827442D01*
X143643619Y-36827442D01*
X143719809Y-36789347D01*
X143757904Y-36751252D01*
X143796000Y-36675061D01*
X144291238Y-36332204D02*
X144367428Y-36332204D01*
X144443619Y-36370300D01*
X144481714Y-36408395D01*
X144519809Y-36484585D01*
X144557904Y-36636966D01*
X144557904Y-36827442D01*
X144519809Y-36979823D01*
X144481714Y-37056014D01*
X144443619Y-37094109D01*
X144367428Y-37132204D01*
X144291238Y-37132204D01*
X144215047Y-37094109D01*
X144176952Y-37056014D01*
X144138857Y-36979823D01*
X144100761Y-36827442D01*
X144100761Y-36636966D01*
X144138857Y-36484585D01*
X144176952Y-36408395D01*
X144215047Y-36370300D01*
X144291238Y-36332204D01*
X145281714Y-36332204D02*
X144900761Y-36332204D01*
X144862666Y-36713157D01*
X144900761Y-36675061D01*
X144976952Y-36636966D01*
X145167428Y-36636966D01*
X145243619Y-36675061D01*
X145281714Y-36713157D01*
X145319809Y-36789347D01*
X145319809Y-36979823D01*
X145281714Y-37056014D01*
X145243619Y-37094109D01*
X145167428Y-37132204D01*
X144976952Y-37132204D01*
X144900761Y-37094109D01*
X144862666Y-37056014D01*
X145776952Y-36675061D02*
X145700761Y-36636966D01*
X145662666Y-36598871D01*
X145624571Y-36522680D01*
X145624571Y-36484585D01*
X145662666Y-36408395D01*
X145700761Y-36370300D01*
X145776952Y-36332204D01*
X145929333Y-36332204D01*
X146005523Y-36370300D01*
X146043619Y-36408395D01*
X146081714Y-36484585D01*
X146081714Y-36522680D01*
X146043619Y-36598871D01*
X146005523Y-36636966D01*
X145929333Y-36675061D01*
X145776952Y-36675061D01*
X145700761Y-36713157D01*
X145662666Y-36751252D01*
X145624571Y-36827442D01*
X145624571Y-36979823D01*
X145662666Y-37056014D01*
X145700761Y-37094109D01*
X145776952Y-37132204D01*
X145929333Y-37132204D01*
X146005523Y-37094109D01*
X146043619Y-37056014D01*
X146081714Y-36979823D01*
X146081714Y-36827442D01*
X146043619Y-36751252D01*
X146005523Y-36713157D01*
X145929333Y-36675061D01*
X146462666Y-37132204D02*
X146615047Y-37132204D01*
X146691238Y-37094109D01*
X146729333Y-37056014D01*
X146805523Y-36941728D01*
X146843619Y-36789347D01*
X146843619Y-36484585D01*
X146805523Y-36408395D01*
X146767428Y-36370300D01*
X146691238Y-36332204D01*
X146538857Y-36332204D01*
X146462666Y-36370300D01*
X146424571Y-36408395D01*
X146386476Y-36484585D01*
X146386476Y-36675061D01*
X146424571Y-36751252D01*
X146462666Y-36789347D01*
X146538857Y-36827442D01*
X146691238Y-36827442D01*
X146767428Y-36789347D01*
X146805523Y-36751252D01*
X146843619Y-36675061D01*
X140239809Y-102692690D02*
X140239809Y-103168880D01*
X139906476Y-102168880D02*
X140239809Y-102692690D01*
X140573142Y-102168880D01*
X141430285Y-103168880D02*
X140858857Y-103168880D01*
X141144571Y-103168880D02*
X141144571Y-102168880D01*
X141049333Y-102311738D01*
X140954095Y-102406976D01*
X140858857Y-102454595D01*
X149866880Y-83215666D02*
X149390690Y-83549000D01*
X149866880Y-83787095D02*
X148866880Y-83787095D01*
X148866880Y-83406142D01*
X148914500Y-83310904D01*
X148962119Y-83263285D01*
X149057357Y-83215666D01*
X149200214Y-83215666D01*
X149295452Y-83263285D01*
X149343071Y-83310904D01*
X149390690Y-83406142D01*
X149390690Y-83787095D01*
X149200214Y-82358523D02*
X149866880Y-82358523D01*
X148819261Y-82596619D02*
X149533547Y-82834714D01*
X149533547Y-82215666D01*
X146566880Y-83644238D02*
X146566880Y-84215666D01*
X146566880Y-83929952D02*
X145566880Y-83929952D01*
X145709738Y-84025190D01*
X145804976Y-84120428D01*
X145852595Y-84215666D01*
X145566880Y-83025190D02*
X145566880Y-82929952D01*
X145614500Y-82834714D01*
X145662119Y-82787095D01*
X145757357Y-82739476D01*
X145947833Y-82691857D01*
X146185928Y-82691857D01*
X146376404Y-82739476D01*
X146471642Y-82787095D01*
X146519261Y-82834714D01*
X146566880Y-82929952D01*
X146566880Y-83025190D01*
X146519261Y-83120428D01*
X146471642Y-83168047D01*
X146376404Y-83215666D01*
X146185928Y-83263285D01*
X145947833Y-83263285D01*
X145757357Y-83215666D01*
X145662119Y-83168047D01*
X145614500Y-83120428D01*
X145566880Y-83025190D01*
X146566880Y-82263285D02*
X145566880Y-82263285D01*
X146185928Y-82168047D02*
X146566880Y-81882333D01*
X145900214Y-81882333D02*
X146281166Y-82263285D01*
X130247380Y-98455666D02*
X129771190Y-98789000D01*
X130247380Y-99027095D02*
X129247380Y-99027095D01*
X129247380Y-98646142D01*
X129295000Y-98550904D01*
X129342619Y-98503285D01*
X129437857Y-98455666D01*
X129580714Y-98455666D01*
X129675952Y-98503285D01*
X129723571Y-98550904D01*
X129771190Y-98646142D01*
X129771190Y-99027095D01*
X129247380Y-98122333D02*
X129247380Y-97503285D01*
X129628333Y-97836619D01*
X129628333Y-97693761D01*
X129675952Y-97598523D01*
X129723571Y-97550904D01*
X129818809Y-97503285D01*
X130056904Y-97503285D01*
X130152142Y-97550904D01*
X130199761Y-97598523D01*
X130247380Y-97693761D01*
X130247380Y-97979476D01*
X130199761Y-98074714D01*
X130152142Y-98122333D01*
X133547380Y-98884238D02*
X133547380Y-99455666D01*
X133547380Y-99169952D02*
X132547380Y-99169952D01*
X132690238Y-99265190D01*
X132785476Y-99360428D01*
X132833095Y-99455666D01*
X132547380Y-98265190D02*
X132547380Y-98169952D01*
X132595000Y-98074714D01*
X132642619Y-98027095D01*
X132737857Y-97979476D01*
X132928333Y-97931857D01*
X133166428Y-97931857D01*
X133356904Y-97979476D01*
X133452142Y-98027095D01*
X133499761Y-98074714D01*
X133547380Y-98169952D01*
X133547380Y-98265190D01*
X133499761Y-98360428D01*
X133452142Y-98408047D01*
X133356904Y-98455666D01*
X133166428Y-98503285D01*
X132928333Y-98503285D01*
X132737857Y-98455666D01*
X132642619Y-98408047D01*
X132595000Y-98360428D01*
X132547380Y-98265190D01*
X133547380Y-97503285D02*
X132547380Y-97503285D01*
X133166428Y-97408047D02*
X133547380Y-97122333D01*
X132880714Y-97122333D02*
X133261666Y-97503285D01*
X140859380Y-47559166D02*
X140383190Y-47892500D01*
X140859380Y-48130595D02*
X139859380Y-48130595D01*
X139859380Y-47749642D01*
X139907000Y-47654404D01*
X139954619Y-47606785D01*
X140049857Y-47559166D01*
X140192714Y-47559166D01*
X140287952Y-47606785D01*
X140335571Y-47654404D01*
X140383190Y-47749642D01*
X140383190Y-48130595D01*
X139954619Y-47178214D02*
X139907000Y-47130595D01*
X139859380Y-47035357D01*
X139859380Y-46797261D01*
X139907000Y-46702023D01*
X139954619Y-46654404D01*
X140049857Y-46606785D01*
X140145095Y-46606785D01*
X140287952Y-46654404D01*
X140859380Y-47225833D01*
X140859380Y-46606785D01*
X137804380Y-47559166D02*
X137328190Y-47892500D01*
X137804380Y-48130595D02*
X136804380Y-48130595D01*
X136804380Y-47749642D01*
X136852000Y-47654404D01*
X136899619Y-47606785D01*
X136994857Y-47559166D01*
X137137714Y-47559166D01*
X137232952Y-47606785D01*
X137280571Y-47654404D01*
X137328190Y-47749642D01*
X137328190Y-48130595D01*
X137804380Y-46606785D02*
X137804380Y-47178214D01*
X137804380Y-46892500D02*
X136804380Y-46892500D01*
X136947238Y-46987738D01*
X137042476Y-47082976D01*
X137090095Y-47178214D01*
X129299571Y-45708833D02*
X129299571Y-46042166D01*
X129823380Y-46042166D02*
X128823380Y-46042166D01*
X128823380Y-45565976D01*
X129823380Y-44661214D02*
X129823380Y-45232642D01*
X129823380Y-44946928D02*
X128823380Y-44946928D01*
X128966238Y-45042166D01*
X129061476Y-45137404D01*
X129109095Y-45232642D01*
X150025642Y-95289666D02*
X150073261Y-95337285D01*
X150120880Y-95480142D01*
X150120880Y-95575380D01*
X150073261Y-95718238D01*
X149978023Y-95813476D01*
X149882785Y-95861095D01*
X149692309Y-95908714D01*
X149549452Y-95908714D01*
X149358976Y-95861095D01*
X149263738Y-95813476D01*
X149168500Y-95718238D01*
X149120880Y-95575380D01*
X149120880Y-95480142D01*
X149168500Y-95337285D01*
X149216119Y-95289666D01*
X149120880Y-94956333D02*
X149120880Y-94289666D01*
X150120880Y-94718238D01*
X147423261Y-92971880D02*
X146851833Y-92971880D01*
X147137547Y-92971880D02*
X147137547Y-91971880D01*
X147042309Y-92114738D01*
X146947071Y-92209976D01*
X146851833Y-92257595D01*
X148280404Y-92305214D02*
X148280404Y-92971880D01*
X147851833Y-92305214D02*
X147851833Y-92829023D01*
X147899452Y-92924261D01*
X147994690Y-92971880D01*
X148137547Y-92971880D01*
X148232785Y-92924261D01*
X148280404Y-92876642D01*
X149089928Y-92448071D02*
X148756595Y-92448071D01*
X148756595Y-92971880D02*
X148756595Y-91971880D01*
X149232785Y-91971880D01*
X136104333Y-79034642D02*
X136056714Y-79082261D01*
X135913857Y-79129880D01*
X135818619Y-79129880D01*
X135675761Y-79082261D01*
X135580523Y-78987023D01*
X135532904Y-78891785D01*
X135485285Y-78701309D01*
X135485285Y-78558452D01*
X135532904Y-78367976D01*
X135580523Y-78272738D01*
X135675761Y-78177500D01*
X135818619Y-78129880D01*
X135913857Y-78129880D01*
X136056714Y-78177500D01*
X136104333Y-78225119D01*
X136961476Y-78129880D02*
X136771000Y-78129880D01*
X136675761Y-78177500D01*
X136628142Y-78225119D01*
X136532904Y-78367976D01*
X136485285Y-78558452D01*
X136485285Y-78939404D01*
X136532904Y-79034642D01*
X136580523Y-79082261D01*
X136675761Y-79129880D01*
X136866238Y-79129880D01*
X136961476Y-79082261D01*
X137009095Y-79034642D01*
X137056714Y-78939404D01*
X137056714Y-78701309D01*
X137009095Y-78606071D01*
X136961476Y-78558452D01*
X136866238Y-78510833D01*
X136675761Y-78510833D01*
X136580523Y-78558452D01*
X136532904Y-78606071D01*
X136485285Y-78701309D01*
X134628142Y-81429880D02*
X134723380Y-81429880D01*
X134818619Y-81477500D01*
X134866238Y-81525119D01*
X134913857Y-81620357D01*
X134961476Y-81810833D01*
X134961476Y-82048928D01*
X134913857Y-82239404D01*
X134866238Y-82334642D01*
X134818619Y-82382261D01*
X134723380Y-82429880D01*
X134628142Y-82429880D01*
X134532904Y-82382261D01*
X134485285Y-82334642D01*
X134437666Y-82239404D01*
X134390047Y-82048928D01*
X134390047Y-81810833D01*
X134437666Y-81620357D01*
X134485285Y-81525119D01*
X134532904Y-81477500D01*
X134628142Y-81429880D01*
X135390047Y-82334642D02*
X135437666Y-82382261D01*
X135390047Y-82429880D01*
X135342428Y-82382261D01*
X135390047Y-82334642D01*
X135390047Y-82429880D01*
X136390047Y-82429880D02*
X135818619Y-82429880D01*
X136104333Y-82429880D02*
X136104333Y-81429880D01*
X136009095Y-81572738D01*
X135913857Y-81667976D01*
X135818619Y-81715595D01*
X137247190Y-81763214D02*
X137247190Y-82429880D01*
X136818619Y-81763214D02*
X136818619Y-82287023D01*
X136866238Y-82382261D01*
X136961476Y-82429880D01*
X137104333Y-82429880D01*
X137199571Y-82382261D01*
X137247190Y-82334642D01*
X138056714Y-81906071D02*
X137723380Y-81906071D01*
X137723380Y-82429880D02*
X137723380Y-81429880D01*
X138199571Y-81429880D01*
X150899833Y-92749642D02*
X150852214Y-92797261D01*
X150709357Y-92844880D01*
X150614119Y-92844880D01*
X150471261Y-92797261D01*
X150376023Y-92702023D01*
X150328404Y-92606785D01*
X150280785Y-92416309D01*
X150280785Y-92273452D01*
X150328404Y-92082976D01*
X150376023Y-91987738D01*
X150471261Y-91892500D01*
X150614119Y-91844880D01*
X150709357Y-91844880D01*
X150852214Y-91892500D01*
X150899833Y-91940119D01*
X151804595Y-91844880D02*
X151328404Y-91844880D01*
X151280785Y-92321071D01*
X151328404Y-92273452D01*
X151423642Y-92225833D01*
X151661738Y-92225833D01*
X151756976Y-92273452D01*
X151804595Y-92321071D01*
X151852214Y-92416309D01*
X151852214Y-92654404D01*
X151804595Y-92749642D01*
X151756976Y-92797261D01*
X151661738Y-92844880D01*
X151423642Y-92844880D01*
X151328404Y-92797261D01*
X151280785Y-92749642D01*
X152233380Y-96892857D02*
X152233380Y-96797619D01*
X152281000Y-96702380D01*
X152328619Y-96654761D01*
X152423857Y-96607142D01*
X152614333Y-96559523D01*
X152852428Y-96559523D01*
X153042904Y-96607142D01*
X153138142Y-96654761D01*
X153185761Y-96702380D01*
X153233380Y-96797619D01*
X153233380Y-96892857D01*
X153185761Y-96988095D01*
X153138142Y-97035714D01*
X153042904Y-97083333D01*
X152852428Y-97130952D01*
X152614333Y-97130952D01*
X152423857Y-97083333D01*
X152328619Y-97035714D01*
X152281000Y-96988095D01*
X152233380Y-96892857D01*
X153138142Y-96130952D02*
X153185761Y-96083333D01*
X153233380Y-96130952D01*
X153185761Y-96178571D01*
X153138142Y-96130952D01*
X153233380Y-96130952D01*
X153233380Y-95130952D02*
X153233380Y-95702380D01*
X153233380Y-95416666D02*
X152233380Y-95416666D01*
X152376238Y-95511904D01*
X152471476Y-95607142D01*
X152519095Y-95702380D01*
X152566714Y-94273809D02*
X153233380Y-94273809D01*
X152566714Y-94702380D02*
X153090523Y-94702380D01*
X153185761Y-94654761D01*
X153233380Y-94559523D01*
X153233380Y-94416666D01*
X153185761Y-94321428D01*
X153138142Y-94273809D01*
X152709571Y-93464285D02*
X152709571Y-93797619D01*
X153233380Y-93797619D02*
X152233380Y-93797619D01*
X152233380Y-93321428D01*
X142327333Y-82334642D02*
X142279714Y-82382261D01*
X142136857Y-82429880D01*
X142041619Y-82429880D01*
X141898761Y-82382261D01*
X141803523Y-82287023D01*
X141755904Y-82191785D01*
X141708285Y-82001309D01*
X141708285Y-81858452D01*
X141755904Y-81667976D01*
X141803523Y-81572738D01*
X141898761Y-81477500D01*
X142041619Y-81429880D01*
X142136857Y-81429880D01*
X142279714Y-81477500D01*
X142327333Y-81525119D01*
X143184476Y-81763214D02*
X143184476Y-82429880D01*
X142946380Y-81382261D02*
X142708285Y-82096547D01*
X143327333Y-82096547D01*
X140851142Y-78129880D02*
X140946380Y-78129880D01*
X141041619Y-78177500D01*
X141089238Y-78225119D01*
X141136857Y-78320357D01*
X141184476Y-78510833D01*
X141184476Y-78748928D01*
X141136857Y-78939404D01*
X141089238Y-79034642D01*
X141041619Y-79082261D01*
X140946380Y-79129880D01*
X140851142Y-79129880D01*
X140755904Y-79082261D01*
X140708285Y-79034642D01*
X140660666Y-78939404D01*
X140613047Y-78748928D01*
X140613047Y-78510833D01*
X140660666Y-78320357D01*
X140708285Y-78225119D01*
X140755904Y-78177500D01*
X140851142Y-78129880D01*
X141613047Y-79034642D02*
X141660666Y-79082261D01*
X141613047Y-79129880D01*
X141565428Y-79082261D01*
X141613047Y-79034642D01*
X141613047Y-79129880D01*
X142613047Y-79129880D02*
X142041619Y-79129880D01*
X142327333Y-79129880D02*
X142327333Y-78129880D01*
X142232095Y-78272738D01*
X142136857Y-78367976D01*
X142041619Y-78415595D01*
X143470190Y-78463214D02*
X143470190Y-79129880D01*
X143041619Y-78463214D02*
X143041619Y-78987023D01*
X143089238Y-79082261D01*
X143184476Y-79129880D01*
X143327333Y-79129880D01*
X143422571Y-79082261D01*
X143470190Y-79034642D01*
X144279714Y-78606071D02*
X143946380Y-78606071D01*
X143946380Y-79129880D02*
X143946380Y-78129880D01*
X144422571Y-78129880D01*
X132945142Y-89375166D02*
X132992761Y-89422785D01*
X133040380Y-89565642D01*
X133040380Y-89660880D01*
X132992761Y-89803738D01*
X132897523Y-89898976D01*
X132802285Y-89946595D01*
X132611809Y-89994214D01*
X132468952Y-89994214D01*
X132278476Y-89946595D01*
X132183238Y-89898976D01*
X132088000Y-89803738D01*
X132040380Y-89660880D01*
X132040380Y-89565642D01*
X132088000Y-89422785D01*
X132135619Y-89375166D01*
X132040380Y-89041833D02*
X132040380Y-88422785D01*
X132421333Y-88756119D01*
X132421333Y-88613261D01*
X132468952Y-88518023D01*
X132516571Y-88470404D01*
X132611809Y-88422785D01*
X132849904Y-88422785D01*
X132945142Y-88470404D01*
X132992761Y-88518023D01*
X133040380Y-88613261D01*
X133040380Y-88898976D01*
X132992761Y-88994214D01*
X132945142Y-89041833D01*
X129738380Y-89858238D02*
X129738380Y-90429666D01*
X129738380Y-90143952D02*
X128738380Y-90143952D01*
X128881238Y-90239190D01*
X128976476Y-90334428D01*
X129024095Y-90429666D01*
X129071714Y-89001095D02*
X129738380Y-89001095D01*
X129071714Y-89429666D02*
X129595523Y-89429666D01*
X129690761Y-89382047D01*
X129738380Y-89286809D01*
X129738380Y-89143952D01*
X129690761Y-89048714D01*
X129643142Y-89001095D01*
X129214571Y-88191571D02*
X129214571Y-88524904D01*
X129738380Y-88524904D02*
X128738380Y-88524904D01*
X128738380Y-88048714D01*
X135740142Y-100569166D02*
X135787761Y-100616785D01*
X135835380Y-100759642D01*
X135835380Y-100854880D01*
X135787761Y-100997738D01*
X135692523Y-101092976D01*
X135597285Y-101140595D01*
X135406809Y-101188214D01*
X135263952Y-101188214D01*
X135073476Y-101140595D01*
X134978238Y-101092976D01*
X134883000Y-100997738D01*
X134835380Y-100854880D01*
X134835380Y-100759642D01*
X134883000Y-100616785D01*
X134930619Y-100569166D01*
X134930619Y-100188214D02*
X134883000Y-100140595D01*
X134835380Y-100045357D01*
X134835380Y-99807261D01*
X134883000Y-99712023D01*
X134930619Y-99664404D01*
X135025857Y-99616785D01*
X135121095Y-99616785D01*
X135263952Y-99664404D01*
X135835380Y-100235833D01*
X135835380Y-99616785D01*
X135390142Y-102608119D02*
X135437761Y-102560500D01*
X135533000Y-102512880D01*
X135771095Y-102512880D01*
X135866333Y-102560500D01*
X135913952Y-102608119D01*
X135961571Y-102703357D01*
X135961571Y-102798595D01*
X135913952Y-102941452D01*
X135342523Y-103512880D01*
X135961571Y-103512880D01*
X136342523Y-102608119D02*
X136390142Y-102560500D01*
X136485380Y-102512880D01*
X136723476Y-102512880D01*
X136818714Y-102560500D01*
X136866333Y-102608119D01*
X136913952Y-102703357D01*
X136913952Y-102798595D01*
X136866333Y-102941452D01*
X136294904Y-103512880D01*
X136913952Y-103512880D01*
X137342523Y-102846214D02*
X137342523Y-103846214D01*
X137342523Y-102893833D02*
X137437761Y-102846214D01*
X137628238Y-102846214D01*
X137723476Y-102893833D01*
X137771095Y-102941452D01*
X137818714Y-103036690D01*
X137818714Y-103322404D01*
X137771095Y-103417642D01*
X137723476Y-103465261D01*
X137628238Y-103512880D01*
X137437761Y-103512880D01*
X137342523Y-103465261D01*
X138580619Y-102989071D02*
X138247285Y-102989071D01*
X138247285Y-103512880D02*
X138247285Y-102512880D01*
X138723476Y-102512880D01*
X146787142Y-100442166D02*
X146834761Y-100489785D01*
X146882380Y-100632642D01*
X146882380Y-100727880D01*
X146834761Y-100870738D01*
X146739523Y-100965976D01*
X146644285Y-101013595D01*
X146453809Y-101061214D01*
X146310952Y-101061214D01*
X146120476Y-101013595D01*
X146025238Y-100965976D01*
X145930000Y-100870738D01*
X145882380Y-100727880D01*
X145882380Y-100632642D01*
X145930000Y-100489785D01*
X145977619Y-100442166D01*
X146882380Y-99489785D02*
X146882380Y-100061214D01*
X146882380Y-99775500D02*
X145882380Y-99775500D01*
X146025238Y-99870738D01*
X146120476Y-99965976D01*
X146168095Y-100061214D01*
X142819642Y-102163619D02*
X142867261Y-102116000D01*
X142962500Y-102068380D01*
X143200595Y-102068380D01*
X143295833Y-102116000D01*
X143343452Y-102163619D01*
X143391071Y-102258857D01*
X143391071Y-102354095D01*
X143343452Y-102496952D01*
X142772023Y-103068380D01*
X143391071Y-103068380D01*
X143772023Y-102163619D02*
X143819642Y-102116000D01*
X143914880Y-102068380D01*
X144152976Y-102068380D01*
X144248214Y-102116000D01*
X144295833Y-102163619D01*
X144343452Y-102258857D01*
X144343452Y-102354095D01*
X144295833Y-102496952D01*
X143724404Y-103068380D01*
X144343452Y-103068380D01*
X144772023Y-102401714D02*
X144772023Y-103401714D01*
X144772023Y-102449333D02*
X144867261Y-102401714D01*
X145057738Y-102401714D01*
X145152976Y-102449333D01*
X145200595Y-102496952D01*
X145248214Y-102592190D01*
X145248214Y-102877904D01*
X145200595Y-102973142D01*
X145152976Y-103020761D01*
X145057738Y-103068380D01*
X144867261Y-103068380D01*
X144772023Y-103020761D01*
X146010119Y-102544571D02*
X145676785Y-102544571D01*
X145676785Y-103068380D02*
X145676785Y-102068380D01*
X146152976Y-102068380D01*
M02*
