G04 #@! TF.GenerationSoftware,KiCad,Pcbnew,5.1.5*
G04 #@! TF.CreationDate,2020-02-23T20:52:16-06:00*
G04 #@! TF.ProjectId,m'ergo,6d276572-676f-42e6-9b69-6361645f7063,rev?*
G04 #@! TF.SameCoordinates,Original*
G04 #@! TF.FileFunction,Profile,NP*
%FSLAX46Y46*%
G04 Gerber Fmt 4.6, Leading zero omitted, Abs format (unit mm)*
G04 Created by KiCad (PCBNEW 5.1.5) date 2020-02-23 20:52:16*
%MOMM*%
%LPD*%
G04 APERTURE LIST*
%ADD10C,0.050000*%
G04 APERTURE END LIST*
D10*
X246189500Y-19710400D02*
X246138700Y-19718020D01*
X246204740Y-19817080D02*
X246189500Y-19710400D01*
X151198580Y-32715200D02*
X153327100Y-32283400D01*
X153327100Y-32283400D02*
X170086020Y-28740100D01*
X170086020Y-28740100D02*
X169842180Y-27538680D01*
X169923460Y-27477720D02*
X188401960Y-23525480D01*
X169842180Y-27538680D02*
X169920920Y-27477720D01*
X205953360Y-13817600D02*
X206885540Y-18201640D01*
X205889860Y-13731240D02*
X205953360Y-13817600D01*
X206885540Y-18201640D02*
X225506280Y-14262100D01*
X225567240Y-14348460D02*
X227548440Y-23655020D01*
X227548440Y-23655020D02*
X246138700Y-19718020D01*
X225506280Y-14262100D02*
X225567240Y-14348460D01*
X188401960Y-23525480D02*
X187210700Y-17746980D01*
X111137700Y-28732480D02*
X129717800Y-32710120D01*
X111373920Y-27586940D02*
X111137700Y-28732480D01*
X92760800Y-23528020D02*
X111348520Y-27508200D01*
X111348520Y-27508200D02*
X111373920Y-27586940D01*
X93987620Y-17769840D02*
X92760800Y-23528020D01*
X74287380Y-18318480D02*
X75255120Y-13774420D01*
X55686960Y-14373860D02*
X74287380Y-18318480D01*
X53644800Y-23657560D02*
X55636160Y-14457680D01*
X34970720Y-19687540D02*
X53644800Y-23657560D01*
X34907220Y-19743420D02*
X34970720Y-19687540D01*
X93957140Y-17708880D02*
X93987620Y-17769840D01*
X75255120Y-13774420D02*
X75328780Y-13749020D01*
X55636160Y-14457680D02*
X55646320Y-14409420D01*
X55646320Y-14409420D02*
X55686960Y-14373860D01*
X187210700Y-17746980D02*
X187297060Y-17680940D01*
X23050500Y-75707240D02*
X34907220Y-19743420D01*
X66969640Y-100858320D02*
X23050500Y-75707240D01*
X67000120Y-100942140D02*
X66969640Y-100858320D01*
X85709760Y-104937560D02*
X67000120Y-100942140D01*
X102722680Y-113604040D02*
X85709760Y-104937560D01*
X116918740Y-126342140D02*
X102722680Y-113604040D01*
X164297360Y-126202440D02*
X116918740Y-126342140D01*
X164416740Y-126268480D02*
X164297360Y-126202440D01*
X178607720Y-113527840D02*
X164416740Y-126268480D01*
X195557140Y-104909620D02*
X178607720Y-113527840D01*
X214276940Y-100914200D02*
X195557140Y-104909620D01*
X257909060Y-75745340D02*
X214276940Y-100914200D01*
X258076700Y-75666600D02*
X257909060Y-75745340D01*
X246204740Y-19817080D02*
X258076700Y-75666600D01*
X187297060Y-17680940D02*
X205889860Y-13731240D01*
X129717800Y-32710120D02*
X151198580Y-32715200D01*
X75328780Y-13749020D02*
X93957140Y-17708880D01*
M02*
