G04 #@! TF.GenerationSoftware,KiCad,Pcbnew,5.1.5*
G04 #@! TF.CreationDate,2020-01-27T21:51:43-06:00*
G04 #@! TF.ProjectId,pcbtut,70636274-7574-42e6-9b69-6361645f7063,rev?*
G04 #@! TF.SameCoordinates,Original*
G04 #@! TF.FileFunction,Copper,L1,Top*
G04 #@! TF.FilePolarity,Positive*
%FSLAX46Y46*%
G04 Gerber Fmt 4.6, Leading zero omitted, Abs format (unit mm)*
G04 Created by KiCad (PCBNEW 5.1.5) date 2020-01-27 21:51:43*
%MOMM*%
%LPD*%
G04 APERTURE LIST*
%ADD10C,2.250000*%
%ADD11C,2.250000*%
%ADD12O,2.700000X1.700000*%
%ADD13C,0.800000*%
%ADD14C,0.254000*%
G04 APERTURE END LIST*
D10*
X136788000Y-137994000D02*
X136208000Y-137954000D01*
D11*
X136208000Y-137954000D03*
D10*
X138748000Y-144304000D02*
X137288000Y-142993998D01*
D11*
X137288000Y-142994000D03*
D12*
X188650000Y-116206000D03*
X188650000Y-123506000D03*
X184150000Y-123506000D03*
X184150000Y-116206000D03*
D10*
X136788000Y-118944000D02*
X136208000Y-118904000D01*
D11*
X136208000Y-118904000D03*
D10*
X138748000Y-125254000D02*
X137288000Y-123943998D01*
D11*
X137288000Y-123944000D03*
D10*
X117738000Y-137994000D02*
X117158000Y-137954000D01*
D11*
X117158000Y-137954000D03*
D10*
X119698000Y-144304000D02*
X118238000Y-142993998D01*
D11*
X118238000Y-142994000D03*
D10*
X117738000Y-118944000D02*
X117158000Y-118904000D01*
D11*
X117158000Y-118904000D03*
D10*
X119698000Y-125254000D02*
X118238000Y-123943998D01*
D11*
X118238000Y-123944000D03*
D13*
X172599000Y-137201700D03*
X167200200Y-120585700D03*
X169182700Y-136992800D03*
X167460800Y-123232200D03*
X172903500Y-142020353D03*
X177850000Y-119600000D03*
X172710932Y-141039068D03*
X177850000Y-121800000D03*
D14*
X167200200Y-120585700D02*
X172599000Y-125984500D01*
X172599000Y-125984500D02*
X172599000Y-137201700D01*
X167460800Y-123232200D02*
X169182700Y-124954100D01*
X169182700Y-124954100D02*
X169182700Y-136992800D01*
X118238000Y-123944000D02*
X118388000Y-123944000D01*
X118388000Y-123944000D02*
X119698000Y-125254000D01*
X119698000Y-125254000D02*
X120803200Y-126245700D01*
X118313000Y-142919000D02*
X118238000Y-142994000D01*
X120803200Y-126245700D02*
X119698000Y-127350900D01*
X119698000Y-127350900D02*
X119698000Y-141534000D01*
X119698000Y-141534000D02*
X118313000Y-142919000D01*
X118313000Y-142919000D02*
X119698000Y-144304000D01*
X137363000Y-142919000D02*
X137288000Y-142994000D01*
X139853200Y-126245700D02*
X138914100Y-127184800D01*
X138914100Y-127184800D02*
X138914100Y-141367900D01*
X138914100Y-141367900D02*
X137363000Y-142919000D01*
X137363000Y-142919000D02*
X138748000Y-144304000D01*
X138748000Y-125254000D02*
X139853200Y-126245700D01*
X178577001Y-136346852D02*
X178577001Y-120327001D01*
X178577001Y-120327001D02*
X177850000Y-119600000D01*
X172903500Y-142020353D02*
X178577001Y-136346852D01*
X185827300Y-116206000D02*
X188650000Y-116206000D01*
X184988700Y-116206000D02*
X185827300Y-116206000D01*
X184150000Y-116206000D02*
X184988700Y-116206000D01*
X185827300Y-123506000D02*
X188650000Y-123506000D01*
X184988700Y-123506000D02*
X185827300Y-123506000D01*
X184150000Y-123506000D02*
X184988700Y-123506000D01*
X185827300Y-123506000D02*
X185827300Y-116206000D01*
X172710932Y-141039068D02*
X177850000Y-135900000D01*
X177850000Y-135900000D02*
X177850000Y-121800000D01*
M02*
