G04 #@! TF.GenerationSoftware,KiCad,Pcbnew,5.1.5*
G04 #@! TF.CreationDate,2020-01-27T21:51:43-06:00*
G04 #@! TF.ProjectId,pcbtut,70636274-7574-42e6-9b69-6361645f7063,rev?*
G04 #@! TF.SameCoordinates,Original*
G04 #@! TF.FileFunction,Soldermask,Top*
G04 #@! TF.FilePolarity,Negative*
%FSLAX46Y46*%
G04 Gerber Fmt 4.6, Leading zero omitted, Abs format (unit mm)*
G04 Created by KiCad (PCBNEW 5.1.5) date 2020-01-27 21:51:43*
%MOMM*%
%LPD*%
G04 APERTURE LIST*
%ADD10C,0.100000*%
G04 APERTURE END LIST*
D10*
G36*
X122508104Y-144683585D02*
G01*
X122676626Y-144753389D01*
X122828291Y-144854728D01*
X122957272Y-144983709D01*
X123058611Y-145135374D01*
X123128415Y-145303896D01*
X123164000Y-145482797D01*
X123164000Y-145665203D01*
X123128415Y-145844104D01*
X123058611Y-146012626D01*
X122957272Y-146164291D01*
X122828291Y-146293272D01*
X122676626Y-146394611D01*
X122508104Y-146464415D01*
X122329203Y-146500000D01*
X122146797Y-146500000D01*
X121967896Y-146464415D01*
X121799374Y-146394611D01*
X121647709Y-146293272D01*
X121518728Y-146164291D01*
X121417389Y-146012626D01*
X121347585Y-145844104D01*
X121312000Y-145665203D01*
X121312000Y-145482797D01*
X121347585Y-145303896D01*
X121417389Y-145135374D01*
X121518728Y-144983709D01*
X121647709Y-144854728D01*
X121799374Y-144753389D01*
X121967896Y-144683585D01*
X122146797Y-144648000D01*
X122329203Y-144648000D01*
X122508104Y-144683585D01*
G37*
G36*
X141558104Y-144683585D02*
G01*
X141726626Y-144753389D01*
X141878291Y-144854728D01*
X142007272Y-144983709D01*
X142108611Y-145135374D01*
X142178415Y-145303896D01*
X142214000Y-145482797D01*
X142214000Y-145665203D01*
X142178415Y-145844104D01*
X142108611Y-146012626D01*
X142007272Y-146164291D01*
X141878291Y-146293272D01*
X141726626Y-146394611D01*
X141558104Y-146464415D01*
X141379203Y-146500000D01*
X141196797Y-146500000D01*
X141017896Y-146464415D01*
X140849374Y-146394611D01*
X140697709Y-146293272D01*
X140568728Y-146164291D01*
X140467389Y-146012626D01*
X140397585Y-145844104D01*
X140362000Y-145665203D01*
X140362000Y-145482797D01*
X140397585Y-145303896D01*
X140467389Y-145135374D01*
X140568728Y-144983709D01*
X140697709Y-144854728D01*
X140849374Y-144753389D01*
X141017896Y-144683585D01*
X141196797Y-144648000D01*
X141379203Y-144648000D01*
X141558104Y-144683585D01*
G37*
G36*
X141884474Y-138527684D02*
G01*
X142102474Y-138617983D01*
X142256623Y-138681833D01*
X142591548Y-138905623D01*
X142876377Y-139190452D01*
X143100167Y-139525377D01*
X143100167Y-139525378D01*
X143254316Y-139897526D01*
X143332900Y-140292594D01*
X143332900Y-140695406D01*
X143254316Y-141090474D01*
X143164017Y-141308474D01*
X143100167Y-141462623D01*
X142876377Y-141797548D01*
X142591548Y-142082377D01*
X142256623Y-142306167D01*
X142102474Y-142370017D01*
X141884474Y-142460316D01*
X141489406Y-142538900D01*
X141086594Y-142538900D01*
X140691526Y-142460316D01*
X140473526Y-142370017D01*
X140319377Y-142306167D01*
X139984452Y-142082377D01*
X139699623Y-141797548D01*
X139475833Y-141462623D01*
X139411983Y-141308474D01*
X139321684Y-141090474D01*
X139243100Y-140695406D01*
X139243100Y-140292594D01*
X139321684Y-139897526D01*
X139475833Y-139525378D01*
X139475833Y-139525377D01*
X139699623Y-139190452D01*
X139984452Y-138905623D01*
X140319377Y-138681833D01*
X140473526Y-138617983D01*
X140691526Y-138527684D01*
X141086594Y-138449100D01*
X141489406Y-138449100D01*
X141884474Y-138527684D01*
G37*
G36*
X122834474Y-138527684D02*
G01*
X123052474Y-138617983D01*
X123206623Y-138681833D01*
X123541548Y-138905623D01*
X123826377Y-139190452D01*
X124050167Y-139525377D01*
X124050167Y-139525378D01*
X124204316Y-139897526D01*
X124282900Y-140292594D01*
X124282900Y-140695406D01*
X124204316Y-141090474D01*
X124114017Y-141308474D01*
X124050167Y-141462623D01*
X123826377Y-141797548D01*
X123541548Y-142082377D01*
X123206623Y-142306167D01*
X123052474Y-142370017D01*
X122834474Y-142460316D01*
X122439406Y-142538900D01*
X122036594Y-142538900D01*
X121641526Y-142460316D01*
X121423526Y-142370017D01*
X121269377Y-142306167D01*
X120934452Y-142082377D01*
X120649623Y-141797548D01*
X120425833Y-141462623D01*
X120361983Y-141308474D01*
X120271684Y-141090474D01*
X120193100Y-140695406D01*
X120193100Y-140292594D01*
X120271684Y-139897526D01*
X120425833Y-139525378D01*
X120425833Y-139525377D01*
X120649623Y-139190452D01*
X120934452Y-138905623D01*
X121269377Y-138681833D01*
X121423526Y-138617983D01*
X121641526Y-138527684D01*
X122036594Y-138449100D01*
X122439406Y-138449100D01*
X122834474Y-138527684D01*
G37*
G36*
X141558104Y-134523585D02*
G01*
X141726626Y-134593389D01*
X141878291Y-134694728D01*
X142007272Y-134823709D01*
X142108611Y-134975374D01*
X142178415Y-135143896D01*
X142214000Y-135322797D01*
X142214000Y-135505203D01*
X142178415Y-135684104D01*
X142108611Y-135852626D01*
X142007272Y-136004291D01*
X141878291Y-136133272D01*
X141726626Y-136234611D01*
X141558104Y-136304415D01*
X141379203Y-136340000D01*
X141196797Y-136340000D01*
X141017896Y-136304415D01*
X140849374Y-136234611D01*
X140697709Y-136133272D01*
X140568728Y-136004291D01*
X140467389Y-135852626D01*
X140397585Y-135684104D01*
X140362000Y-135505203D01*
X140362000Y-135322797D01*
X140397585Y-135143896D01*
X140467389Y-134975374D01*
X140568728Y-134823709D01*
X140697709Y-134694728D01*
X140849374Y-134593389D01*
X141017896Y-134523585D01*
X141196797Y-134488000D01*
X141379203Y-134488000D01*
X141558104Y-134523585D01*
G37*
G36*
X122508104Y-134523585D02*
G01*
X122676626Y-134593389D01*
X122828291Y-134694728D01*
X122957272Y-134823709D01*
X123058611Y-134975374D01*
X123128415Y-135143896D01*
X123164000Y-135322797D01*
X123164000Y-135505203D01*
X123128415Y-135684104D01*
X123058611Y-135852626D01*
X122957272Y-136004291D01*
X122828291Y-136133272D01*
X122676626Y-136234611D01*
X122508104Y-136304415D01*
X122329203Y-136340000D01*
X122146797Y-136340000D01*
X121967896Y-136304415D01*
X121799374Y-136234611D01*
X121647709Y-136133272D01*
X121518728Y-136004291D01*
X121417389Y-135852626D01*
X121347585Y-135684104D01*
X121312000Y-135505203D01*
X121312000Y-135322797D01*
X121347585Y-135143896D01*
X121417389Y-134975374D01*
X121518728Y-134823709D01*
X121647709Y-134694728D01*
X121799374Y-134593389D01*
X121967896Y-134523585D01*
X122146797Y-134488000D01*
X122329203Y-134488000D01*
X122508104Y-134523585D01*
G37*
G36*
X141558104Y-125633585D02*
G01*
X141726626Y-125703389D01*
X141878291Y-125804728D01*
X142007272Y-125933709D01*
X142108611Y-126085374D01*
X142178415Y-126253896D01*
X142214000Y-126432797D01*
X142214000Y-126615203D01*
X142178415Y-126794104D01*
X142108611Y-126962626D01*
X142007272Y-127114291D01*
X141878291Y-127243272D01*
X141726626Y-127344611D01*
X141558104Y-127414415D01*
X141379203Y-127450000D01*
X141196797Y-127450000D01*
X141017896Y-127414415D01*
X140849374Y-127344611D01*
X140697709Y-127243272D01*
X140568728Y-127114291D01*
X140467389Y-126962626D01*
X140397585Y-126794104D01*
X140362000Y-126615203D01*
X140362000Y-126432797D01*
X140397585Y-126253896D01*
X140467389Y-126085374D01*
X140568728Y-125933709D01*
X140697709Y-125804728D01*
X140849374Y-125703389D01*
X141017896Y-125633585D01*
X141196797Y-125598000D01*
X141379203Y-125598000D01*
X141558104Y-125633585D01*
G37*
G36*
X122508104Y-125633585D02*
G01*
X122676626Y-125703389D01*
X122828291Y-125804728D01*
X122957272Y-125933709D01*
X123058611Y-126085374D01*
X123128415Y-126253896D01*
X123164000Y-126432797D01*
X123164000Y-126615203D01*
X123128415Y-126794104D01*
X123058611Y-126962626D01*
X122957272Y-127114291D01*
X122828291Y-127243272D01*
X122676626Y-127344611D01*
X122508104Y-127414415D01*
X122329203Y-127450000D01*
X122146797Y-127450000D01*
X121967896Y-127414415D01*
X121799374Y-127344611D01*
X121647709Y-127243272D01*
X121518728Y-127114291D01*
X121417389Y-126962626D01*
X121347585Y-126794104D01*
X121312000Y-126615203D01*
X121312000Y-126432797D01*
X121347585Y-126253896D01*
X121417389Y-126085374D01*
X121518728Y-125933709D01*
X121647709Y-125804728D01*
X121799374Y-125703389D01*
X121967896Y-125633585D01*
X122146797Y-125598000D01*
X122329203Y-125598000D01*
X122508104Y-125633585D01*
G37*
G36*
X184760443Y-122611519D02*
G01*
X184826627Y-122618037D01*
X184996466Y-122669557D01*
X185152991Y-122753222D01*
X185188729Y-122782552D01*
X185290186Y-122865814D01*
X185373448Y-122967271D01*
X185402778Y-123003009D01*
X185486443Y-123159534D01*
X185537963Y-123329373D01*
X185555359Y-123506000D01*
X185537963Y-123682627D01*
X185486443Y-123852466D01*
X185402778Y-124008991D01*
X185373448Y-124044729D01*
X185290186Y-124146186D01*
X185188729Y-124229448D01*
X185152991Y-124258778D01*
X184996466Y-124342443D01*
X184826627Y-124393963D01*
X184760443Y-124400481D01*
X184694260Y-124407000D01*
X183605740Y-124407000D01*
X183539557Y-124400481D01*
X183473373Y-124393963D01*
X183303534Y-124342443D01*
X183147009Y-124258778D01*
X183111271Y-124229448D01*
X183009814Y-124146186D01*
X182926552Y-124044729D01*
X182897222Y-124008991D01*
X182813557Y-123852466D01*
X182762037Y-123682627D01*
X182744641Y-123506000D01*
X182762037Y-123329373D01*
X182813557Y-123159534D01*
X182897222Y-123003009D01*
X182926552Y-122967271D01*
X183009814Y-122865814D01*
X183111271Y-122782552D01*
X183147009Y-122753222D01*
X183303534Y-122669557D01*
X183473373Y-122618037D01*
X183539557Y-122611519D01*
X183605740Y-122605000D01*
X184694260Y-122605000D01*
X184760443Y-122611519D01*
G37*
G36*
X189260443Y-122611519D02*
G01*
X189326627Y-122618037D01*
X189496466Y-122669557D01*
X189652991Y-122753222D01*
X189688729Y-122782552D01*
X189790186Y-122865814D01*
X189873448Y-122967271D01*
X189902778Y-123003009D01*
X189986443Y-123159534D01*
X190037963Y-123329373D01*
X190055359Y-123506000D01*
X190037963Y-123682627D01*
X189986443Y-123852466D01*
X189902778Y-124008991D01*
X189873448Y-124044729D01*
X189790186Y-124146186D01*
X189688729Y-124229448D01*
X189652991Y-124258778D01*
X189496466Y-124342443D01*
X189326627Y-124393963D01*
X189260443Y-124400481D01*
X189194260Y-124407000D01*
X188105740Y-124407000D01*
X188039557Y-124400481D01*
X187973373Y-124393963D01*
X187803534Y-124342443D01*
X187647009Y-124258778D01*
X187611271Y-124229448D01*
X187509814Y-124146186D01*
X187426552Y-124044729D01*
X187397222Y-124008991D01*
X187313557Y-123852466D01*
X187262037Y-123682627D01*
X187244641Y-123506000D01*
X187262037Y-123329373D01*
X187313557Y-123159534D01*
X187397222Y-123003009D01*
X187426552Y-122967271D01*
X187509814Y-122865814D01*
X187611271Y-122782552D01*
X187647009Y-122753222D01*
X187803534Y-122669557D01*
X187973373Y-122618037D01*
X188039557Y-122611519D01*
X188105740Y-122605000D01*
X189194260Y-122605000D01*
X189260443Y-122611519D01*
G37*
G36*
X122834474Y-119477684D02*
G01*
X123052474Y-119567983D01*
X123206623Y-119631833D01*
X123541548Y-119855623D01*
X123826377Y-120140452D01*
X124050167Y-120475377D01*
X124050167Y-120475378D01*
X124204316Y-120847526D01*
X124282900Y-121242594D01*
X124282900Y-121645406D01*
X124204316Y-122040474D01*
X124114017Y-122258474D01*
X124050167Y-122412623D01*
X123826377Y-122747548D01*
X123541548Y-123032377D01*
X123206623Y-123256167D01*
X123052474Y-123320017D01*
X122834474Y-123410316D01*
X122439406Y-123488900D01*
X122036594Y-123488900D01*
X121641526Y-123410316D01*
X121423526Y-123320017D01*
X121269377Y-123256167D01*
X120934452Y-123032377D01*
X120649623Y-122747548D01*
X120425833Y-122412623D01*
X120361983Y-122258474D01*
X120271684Y-122040474D01*
X120193100Y-121645406D01*
X120193100Y-121242594D01*
X120271684Y-120847526D01*
X120425833Y-120475378D01*
X120425833Y-120475377D01*
X120649623Y-120140452D01*
X120934452Y-119855623D01*
X121269377Y-119631833D01*
X121423526Y-119567983D01*
X121641526Y-119477684D01*
X122036594Y-119399100D01*
X122439406Y-119399100D01*
X122834474Y-119477684D01*
G37*
G36*
X141884474Y-119477684D02*
G01*
X142102474Y-119567983D01*
X142256623Y-119631833D01*
X142591548Y-119855623D01*
X142876377Y-120140452D01*
X143100167Y-120475377D01*
X143100167Y-120475378D01*
X143254316Y-120847526D01*
X143332900Y-121242594D01*
X143332900Y-121645406D01*
X143254316Y-122040474D01*
X143164017Y-122258474D01*
X143100167Y-122412623D01*
X142876377Y-122747548D01*
X142591548Y-123032377D01*
X142256623Y-123256167D01*
X142102474Y-123320017D01*
X141884474Y-123410316D01*
X141489406Y-123488900D01*
X141086594Y-123488900D01*
X140691526Y-123410316D01*
X140473526Y-123320017D01*
X140319377Y-123256167D01*
X139984452Y-123032377D01*
X139699623Y-122747548D01*
X139475833Y-122412623D01*
X139411983Y-122258474D01*
X139321684Y-122040474D01*
X139243100Y-121645406D01*
X139243100Y-121242594D01*
X139321684Y-120847526D01*
X139475833Y-120475378D01*
X139475833Y-120475377D01*
X139699623Y-120140452D01*
X139984452Y-119855623D01*
X140319377Y-119631833D01*
X140473526Y-119567983D01*
X140691526Y-119477684D01*
X141086594Y-119399100D01*
X141489406Y-119399100D01*
X141884474Y-119477684D01*
G37*
G36*
X122508104Y-115473585D02*
G01*
X122676626Y-115543389D01*
X122828291Y-115644728D01*
X122957272Y-115773709D01*
X123058611Y-115925374D01*
X123128415Y-116093896D01*
X123164000Y-116272797D01*
X123164000Y-116455203D01*
X123128415Y-116634104D01*
X123058611Y-116802626D01*
X122957272Y-116954291D01*
X122828291Y-117083272D01*
X122676626Y-117184611D01*
X122508104Y-117254415D01*
X122329203Y-117290000D01*
X122146797Y-117290000D01*
X121967896Y-117254415D01*
X121799374Y-117184611D01*
X121647709Y-117083272D01*
X121518728Y-116954291D01*
X121417389Y-116802626D01*
X121347585Y-116634104D01*
X121312000Y-116455203D01*
X121312000Y-116272797D01*
X121347585Y-116093896D01*
X121417389Y-115925374D01*
X121518728Y-115773709D01*
X121647709Y-115644728D01*
X121799374Y-115543389D01*
X121967896Y-115473585D01*
X122146797Y-115438000D01*
X122329203Y-115438000D01*
X122508104Y-115473585D01*
G37*
G36*
X141558104Y-115473585D02*
G01*
X141726626Y-115543389D01*
X141878291Y-115644728D01*
X142007272Y-115773709D01*
X142108611Y-115925374D01*
X142178415Y-116093896D01*
X142214000Y-116272797D01*
X142214000Y-116455203D01*
X142178415Y-116634104D01*
X142108611Y-116802626D01*
X142007272Y-116954291D01*
X141878291Y-117083272D01*
X141726626Y-117184611D01*
X141558104Y-117254415D01*
X141379203Y-117290000D01*
X141196797Y-117290000D01*
X141017896Y-117254415D01*
X140849374Y-117184611D01*
X140697709Y-117083272D01*
X140568728Y-116954291D01*
X140467389Y-116802626D01*
X140397585Y-116634104D01*
X140362000Y-116455203D01*
X140362000Y-116272797D01*
X140397585Y-116093896D01*
X140467389Y-115925374D01*
X140568728Y-115773709D01*
X140697709Y-115644728D01*
X140849374Y-115543389D01*
X141017896Y-115473585D01*
X141196797Y-115438000D01*
X141379203Y-115438000D01*
X141558104Y-115473585D01*
G37*
G36*
X184760442Y-115311518D02*
G01*
X184826627Y-115318037D01*
X184996466Y-115369557D01*
X185152991Y-115453222D01*
X185177803Y-115473585D01*
X185290186Y-115565814D01*
X185354948Y-115644728D01*
X185402778Y-115703009D01*
X185486443Y-115859534D01*
X185537963Y-116029373D01*
X185555359Y-116206000D01*
X185537963Y-116382627D01*
X185486443Y-116552466D01*
X185402778Y-116708991D01*
X185373448Y-116744729D01*
X185290186Y-116846186D01*
X185188729Y-116929448D01*
X185152991Y-116958778D01*
X184996466Y-117042443D01*
X184826627Y-117093963D01*
X184760442Y-117100482D01*
X184694260Y-117107000D01*
X183605740Y-117107000D01*
X183539558Y-117100482D01*
X183473373Y-117093963D01*
X183303534Y-117042443D01*
X183147009Y-116958778D01*
X183111271Y-116929448D01*
X183009814Y-116846186D01*
X182926552Y-116744729D01*
X182897222Y-116708991D01*
X182813557Y-116552466D01*
X182762037Y-116382627D01*
X182744641Y-116206000D01*
X182762037Y-116029373D01*
X182813557Y-115859534D01*
X182897222Y-115703009D01*
X182945052Y-115644728D01*
X183009814Y-115565814D01*
X183122197Y-115473585D01*
X183147009Y-115453222D01*
X183303534Y-115369557D01*
X183473373Y-115318037D01*
X183539558Y-115311518D01*
X183605740Y-115305000D01*
X184694260Y-115305000D01*
X184760442Y-115311518D01*
G37*
G36*
X189260442Y-115311518D02*
G01*
X189326627Y-115318037D01*
X189496466Y-115369557D01*
X189652991Y-115453222D01*
X189677803Y-115473585D01*
X189790186Y-115565814D01*
X189854948Y-115644728D01*
X189902778Y-115703009D01*
X189986443Y-115859534D01*
X190037963Y-116029373D01*
X190055359Y-116206000D01*
X190037963Y-116382627D01*
X189986443Y-116552466D01*
X189902778Y-116708991D01*
X189873448Y-116744729D01*
X189790186Y-116846186D01*
X189688729Y-116929448D01*
X189652991Y-116958778D01*
X189496466Y-117042443D01*
X189326627Y-117093963D01*
X189260442Y-117100482D01*
X189194260Y-117107000D01*
X188105740Y-117107000D01*
X188039558Y-117100482D01*
X187973373Y-117093963D01*
X187803534Y-117042443D01*
X187647009Y-116958778D01*
X187611271Y-116929448D01*
X187509814Y-116846186D01*
X187426552Y-116744729D01*
X187397222Y-116708991D01*
X187313557Y-116552466D01*
X187262037Y-116382627D01*
X187244641Y-116206000D01*
X187262037Y-116029373D01*
X187313557Y-115859534D01*
X187397222Y-115703009D01*
X187445052Y-115644728D01*
X187509814Y-115565814D01*
X187622197Y-115473585D01*
X187647009Y-115453222D01*
X187803534Y-115369557D01*
X187973373Y-115318037D01*
X188039558Y-115311518D01*
X188105740Y-115305000D01*
X189194260Y-115305000D01*
X189260442Y-115311518D01*
G37*
M02*
