G04 #@! TF.GenerationSoftware,KiCad,Pcbnew,5.1.5*
G04 #@! TF.CreationDate,2020-01-27T21:51:43-06:00*
G04 #@! TF.ProjectId,pcbtut,70636274-7574-42e6-9b69-6361645f7063,rev?*
G04 #@! TF.SameCoordinates,Original*
G04 #@! TF.FileFunction,Copper,L2,Bot*
G04 #@! TF.FilePolarity,Positive*
%FSLAX46Y46*%
G04 Gerber Fmt 4.6, Leading zero omitted, Abs format (unit mm)*
G04 Created by KiCad (PCBNEW 5.1.5) date 2020-01-27 21:51:43*
%MOMM*%
%LPD*%
G04 APERTURE LIST*
%ADD10C,2.250000*%
%ADD11C,2.250000*%
%ADD12R,1.400000X1.200000*%
%ADD13O,2.700000X1.700000*%
%ADD14R,2.250000X0.500000*%
%ADD15R,0.550000X1.500000*%
%ADD16R,1.500000X0.550000*%
%ADD17R,1.800000X1.100000*%
%ADD18C,0.100000*%
%ADD19R,1.200000X0.900000*%
%ADD20C,0.800000*%
%ADD21C,0.381000*%
%ADD22C,0.254000*%
G04 APERTURE END LIST*
D10*
X136788000Y-137994000D02*
X136208000Y-137954000D01*
D11*
X136208000Y-137954000D03*
D10*
X138748000Y-144304000D02*
X137288000Y-142993998D01*
D11*
X137288000Y-142994000D03*
D12*
X178626000Y-129745000D03*
X176426000Y-129745000D03*
X176426000Y-131445000D03*
X178626000Y-131445000D03*
D13*
X188650000Y-116206000D03*
X188650000Y-123506000D03*
X184150000Y-123506000D03*
X184150000Y-116206000D03*
D14*
X184150000Y-118256000D03*
X184150000Y-119056000D03*
X184150000Y-119856000D03*
X184150000Y-120656000D03*
X184150000Y-121456000D03*
D15*
X172894000Y-145114000D03*
X173694000Y-145114000D03*
X174494000Y-145114000D03*
X175294000Y-145114000D03*
X176094000Y-145114000D03*
X176894000Y-145114000D03*
X177694000Y-145114000D03*
X178494000Y-145114000D03*
X179294000Y-145114000D03*
X180094000Y-145114000D03*
X180894000Y-145114000D03*
D16*
X182594000Y-143414000D03*
X182594000Y-142614000D03*
X182594000Y-141814000D03*
X182594000Y-141014000D03*
X182594000Y-140214000D03*
X182594000Y-139414000D03*
X182594000Y-138614000D03*
X182594000Y-137814000D03*
X182594000Y-137014000D03*
X182594000Y-136214000D03*
X182594000Y-135414000D03*
D15*
X180894000Y-133714000D03*
X180094000Y-133714000D03*
X179294000Y-133714000D03*
X178494000Y-133714000D03*
X177694000Y-133714000D03*
X176894000Y-133714000D03*
X176094000Y-133714000D03*
X175294000Y-133714000D03*
X174494000Y-133714000D03*
X173694000Y-133714000D03*
X172894000Y-133714000D03*
D16*
X171194000Y-135414000D03*
X171194000Y-136214000D03*
X171194000Y-137014000D03*
X171194000Y-137814000D03*
X171194000Y-138614000D03*
X171194000Y-139414000D03*
X171194000Y-140214000D03*
X171194000Y-141014000D03*
X171194000Y-141814000D03*
X171194000Y-142614000D03*
X171194000Y-143414000D03*
D17*
X161850000Y-142676000D03*
X155650000Y-146376000D03*
X161850000Y-146376000D03*
X155650000Y-142676000D03*
G04 #@! TA.AperFunction,SMDPad,CuDef*
D18*
G36*
X185640505Y-142537204D02*
G01*
X185664773Y-142540804D01*
X185688572Y-142546765D01*
X185711671Y-142555030D01*
X185733850Y-142565520D01*
X185754893Y-142578132D01*
X185774599Y-142592747D01*
X185792777Y-142609223D01*
X185809253Y-142627401D01*
X185823868Y-142647107D01*
X185836480Y-142668150D01*
X185846970Y-142690329D01*
X185855235Y-142713428D01*
X185861196Y-142737227D01*
X185864796Y-142761495D01*
X185866000Y-142785999D01*
X185866000Y-143436001D01*
X185864796Y-143460505D01*
X185861196Y-143484773D01*
X185855235Y-143508572D01*
X185846970Y-143531671D01*
X185836480Y-143553850D01*
X185823868Y-143574893D01*
X185809253Y-143594599D01*
X185792777Y-143612777D01*
X185774599Y-143629253D01*
X185754893Y-143643868D01*
X185733850Y-143656480D01*
X185711671Y-143666970D01*
X185688572Y-143675235D01*
X185664773Y-143681196D01*
X185640505Y-143684796D01*
X185616001Y-143686000D01*
X184715999Y-143686000D01*
X184691495Y-143684796D01*
X184667227Y-143681196D01*
X184643428Y-143675235D01*
X184620329Y-143666970D01*
X184598150Y-143656480D01*
X184577107Y-143643868D01*
X184557401Y-143629253D01*
X184539223Y-143612777D01*
X184522747Y-143594599D01*
X184508132Y-143574893D01*
X184495520Y-143553850D01*
X184485030Y-143531671D01*
X184476765Y-143508572D01*
X184470804Y-143484773D01*
X184467204Y-143460505D01*
X184466000Y-143436001D01*
X184466000Y-142785999D01*
X184467204Y-142761495D01*
X184470804Y-142737227D01*
X184476765Y-142713428D01*
X184485030Y-142690329D01*
X184495520Y-142668150D01*
X184508132Y-142647107D01*
X184522747Y-142627401D01*
X184539223Y-142609223D01*
X184557401Y-142592747D01*
X184577107Y-142578132D01*
X184598150Y-142565520D01*
X184620329Y-142555030D01*
X184643428Y-142546765D01*
X184667227Y-142540804D01*
X184691495Y-142537204D01*
X184715999Y-142536000D01*
X185616001Y-142536000D01*
X185640505Y-142537204D01*
G37*
G04 #@! TD.AperFunction*
G04 #@! TA.AperFunction,SMDPad,CuDef*
G36*
X185640505Y-144587204D02*
G01*
X185664773Y-144590804D01*
X185688572Y-144596765D01*
X185711671Y-144605030D01*
X185733850Y-144615520D01*
X185754893Y-144628132D01*
X185774599Y-144642747D01*
X185792777Y-144659223D01*
X185809253Y-144677401D01*
X185823868Y-144697107D01*
X185836480Y-144718150D01*
X185846970Y-144740329D01*
X185855235Y-144763428D01*
X185861196Y-144787227D01*
X185864796Y-144811495D01*
X185866000Y-144835999D01*
X185866000Y-145486001D01*
X185864796Y-145510505D01*
X185861196Y-145534773D01*
X185855235Y-145558572D01*
X185846970Y-145581671D01*
X185836480Y-145603850D01*
X185823868Y-145624893D01*
X185809253Y-145644599D01*
X185792777Y-145662777D01*
X185774599Y-145679253D01*
X185754893Y-145693868D01*
X185733850Y-145706480D01*
X185711671Y-145716970D01*
X185688572Y-145725235D01*
X185664773Y-145731196D01*
X185640505Y-145734796D01*
X185616001Y-145736000D01*
X184715999Y-145736000D01*
X184691495Y-145734796D01*
X184667227Y-145731196D01*
X184643428Y-145725235D01*
X184620329Y-145716970D01*
X184598150Y-145706480D01*
X184577107Y-145693868D01*
X184557401Y-145679253D01*
X184539223Y-145662777D01*
X184522747Y-145644599D01*
X184508132Y-145624893D01*
X184495520Y-145603850D01*
X184485030Y-145581671D01*
X184476765Y-145558572D01*
X184470804Y-145534773D01*
X184467204Y-145510505D01*
X184466000Y-145486001D01*
X184466000Y-144835999D01*
X184467204Y-144811495D01*
X184470804Y-144787227D01*
X184476765Y-144763428D01*
X184485030Y-144740329D01*
X184495520Y-144718150D01*
X184508132Y-144697107D01*
X184522747Y-144677401D01*
X184539223Y-144659223D01*
X184557401Y-144642747D01*
X184577107Y-144628132D01*
X184598150Y-144615520D01*
X184620329Y-144605030D01*
X184643428Y-144596765D01*
X184667227Y-144590804D01*
X184691495Y-144587204D01*
X184715999Y-144586000D01*
X185616001Y-144586000D01*
X185640505Y-144587204D01*
G37*
G04 #@! TD.AperFunction*
G04 #@! TA.AperFunction,SMDPad,CuDef*
G36*
X163415505Y-133157204D02*
G01*
X163439773Y-133160804D01*
X163463572Y-133166765D01*
X163486671Y-133175030D01*
X163508850Y-133185520D01*
X163529893Y-133198132D01*
X163549599Y-133212747D01*
X163567777Y-133229223D01*
X163584253Y-133247401D01*
X163598868Y-133267107D01*
X163611480Y-133288150D01*
X163621970Y-133310329D01*
X163630235Y-133333428D01*
X163636196Y-133357227D01*
X163639796Y-133381495D01*
X163641000Y-133405999D01*
X163641000Y-134056001D01*
X163639796Y-134080505D01*
X163636196Y-134104773D01*
X163630235Y-134128572D01*
X163621970Y-134151671D01*
X163611480Y-134173850D01*
X163598868Y-134194893D01*
X163584253Y-134214599D01*
X163567777Y-134232777D01*
X163549599Y-134249253D01*
X163529893Y-134263868D01*
X163508850Y-134276480D01*
X163486671Y-134286970D01*
X163463572Y-134295235D01*
X163439773Y-134301196D01*
X163415505Y-134304796D01*
X163391001Y-134306000D01*
X162490999Y-134306000D01*
X162466495Y-134304796D01*
X162442227Y-134301196D01*
X162418428Y-134295235D01*
X162395329Y-134286970D01*
X162373150Y-134276480D01*
X162352107Y-134263868D01*
X162332401Y-134249253D01*
X162314223Y-134232777D01*
X162297747Y-134214599D01*
X162283132Y-134194893D01*
X162270520Y-134173850D01*
X162260030Y-134151671D01*
X162251765Y-134128572D01*
X162245804Y-134104773D01*
X162242204Y-134080505D01*
X162241000Y-134056001D01*
X162241000Y-133405999D01*
X162242204Y-133381495D01*
X162245804Y-133357227D01*
X162251765Y-133333428D01*
X162260030Y-133310329D01*
X162270520Y-133288150D01*
X162283132Y-133267107D01*
X162297747Y-133247401D01*
X162314223Y-133229223D01*
X162332401Y-133212747D01*
X162352107Y-133198132D01*
X162373150Y-133185520D01*
X162395329Y-133175030D01*
X162418428Y-133166765D01*
X162442227Y-133160804D01*
X162466495Y-133157204D01*
X162490999Y-133156000D01*
X163391001Y-133156000D01*
X163415505Y-133157204D01*
G37*
G04 #@! TD.AperFunction*
G04 #@! TA.AperFunction,SMDPad,CuDef*
G36*
X163415505Y-131107204D02*
G01*
X163439773Y-131110804D01*
X163463572Y-131116765D01*
X163486671Y-131125030D01*
X163508850Y-131135520D01*
X163529893Y-131148132D01*
X163549599Y-131162747D01*
X163567777Y-131179223D01*
X163584253Y-131197401D01*
X163598868Y-131217107D01*
X163611480Y-131238150D01*
X163621970Y-131260329D01*
X163630235Y-131283428D01*
X163636196Y-131307227D01*
X163639796Y-131331495D01*
X163641000Y-131355999D01*
X163641000Y-132006001D01*
X163639796Y-132030505D01*
X163636196Y-132054773D01*
X163630235Y-132078572D01*
X163621970Y-132101671D01*
X163611480Y-132123850D01*
X163598868Y-132144893D01*
X163584253Y-132164599D01*
X163567777Y-132182777D01*
X163549599Y-132199253D01*
X163529893Y-132213868D01*
X163508850Y-132226480D01*
X163486671Y-132236970D01*
X163463572Y-132245235D01*
X163439773Y-132251196D01*
X163415505Y-132254796D01*
X163391001Y-132256000D01*
X162490999Y-132256000D01*
X162466495Y-132254796D01*
X162442227Y-132251196D01*
X162418428Y-132245235D01*
X162395329Y-132236970D01*
X162373150Y-132226480D01*
X162352107Y-132213868D01*
X162332401Y-132199253D01*
X162314223Y-132182777D01*
X162297747Y-132164599D01*
X162283132Y-132144893D01*
X162270520Y-132123850D01*
X162260030Y-132101671D01*
X162251765Y-132078572D01*
X162245804Y-132054773D01*
X162242204Y-132030505D01*
X162241000Y-132006001D01*
X162241000Y-131355999D01*
X162242204Y-131331495D01*
X162245804Y-131307227D01*
X162251765Y-131283428D01*
X162260030Y-131260329D01*
X162270520Y-131238150D01*
X162283132Y-131217107D01*
X162297747Y-131197401D01*
X162314223Y-131179223D01*
X162332401Y-131162747D01*
X162352107Y-131148132D01*
X162373150Y-131135520D01*
X162395329Y-131125030D01*
X162418428Y-131116765D01*
X162442227Y-131110804D01*
X162466495Y-131107204D01*
X162490999Y-131106000D01*
X163391001Y-131106000D01*
X163415505Y-131107204D01*
G37*
G04 #@! TD.AperFunction*
G04 #@! TA.AperFunction,SMDPad,CuDef*
G36*
X180249505Y-121101204D02*
G01*
X180273773Y-121104804D01*
X180297572Y-121110765D01*
X180320671Y-121119030D01*
X180342850Y-121129520D01*
X180363893Y-121142132D01*
X180383599Y-121156747D01*
X180401777Y-121173223D01*
X180418253Y-121191401D01*
X180432868Y-121211107D01*
X180445480Y-121232150D01*
X180455970Y-121254329D01*
X180464235Y-121277428D01*
X180470196Y-121301227D01*
X180473796Y-121325495D01*
X180475000Y-121349999D01*
X180475000Y-122250001D01*
X180473796Y-122274505D01*
X180470196Y-122298773D01*
X180464235Y-122322572D01*
X180455970Y-122345671D01*
X180445480Y-122367850D01*
X180432868Y-122388893D01*
X180418253Y-122408599D01*
X180401777Y-122426777D01*
X180383599Y-122443253D01*
X180363893Y-122457868D01*
X180342850Y-122470480D01*
X180320671Y-122480970D01*
X180297572Y-122489235D01*
X180273773Y-122495196D01*
X180249505Y-122498796D01*
X180225001Y-122500000D01*
X179574999Y-122500000D01*
X179550495Y-122498796D01*
X179526227Y-122495196D01*
X179502428Y-122489235D01*
X179479329Y-122480970D01*
X179457150Y-122470480D01*
X179436107Y-122457868D01*
X179416401Y-122443253D01*
X179398223Y-122426777D01*
X179381747Y-122408599D01*
X179367132Y-122388893D01*
X179354520Y-122367850D01*
X179344030Y-122345671D01*
X179335765Y-122322572D01*
X179329804Y-122298773D01*
X179326204Y-122274505D01*
X179325000Y-122250001D01*
X179325000Y-121349999D01*
X179326204Y-121325495D01*
X179329804Y-121301227D01*
X179335765Y-121277428D01*
X179344030Y-121254329D01*
X179354520Y-121232150D01*
X179367132Y-121211107D01*
X179381747Y-121191401D01*
X179398223Y-121173223D01*
X179416401Y-121156747D01*
X179436107Y-121142132D01*
X179457150Y-121129520D01*
X179479329Y-121119030D01*
X179502428Y-121110765D01*
X179526227Y-121104804D01*
X179550495Y-121101204D01*
X179574999Y-121100000D01*
X180225001Y-121100000D01*
X180249505Y-121101204D01*
G37*
G04 #@! TD.AperFunction*
G04 #@! TA.AperFunction,SMDPad,CuDef*
G36*
X178199505Y-121101204D02*
G01*
X178223773Y-121104804D01*
X178247572Y-121110765D01*
X178270671Y-121119030D01*
X178292850Y-121129520D01*
X178313893Y-121142132D01*
X178333599Y-121156747D01*
X178351777Y-121173223D01*
X178368253Y-121191401D01*
X178382868Y-121211107D01*
X178395480Y-121232150D01*
X178405970Y-121254329D01*
X178414235Y-121277428D01*
X178420196Y-121301227D01*
X178423796Y-121325495D01*
X178425000Y-121349999D01*
X178425000Y-122250001D01*
X178423796Y-122274505D01*
X178420196Y-122298773D01*
X178414235Y-122322572D01*
X178405970Y-122345671D01*
X178395480Y-122367850D01*
X178382868Y-122388893D01*
X178368253Y-122408599D01*
X178351777Y-122426777D01*
X178333599Y-122443253D01*
X178313893Y-122457868D01*
X178292850Y-122470480D01*
X178270671Y-122480970D01*
X178247572Y-122489235D01*
X178223773Y-122495196D01*
X178199505Y-122498796D01*
X178175001Y-122500000D01*
X177524999Y-122500000D01*
X177500495Y-122498796D01*
X177476227Y-122495196D01*
X177452428Y-122489235D01*
X177429329Y-122480970D01*
X177407150Y-122470480D01*
X177386107Y-122457868D01*
X177366401Y-122443253D01*
X177348223Y-122426777D01*
X177331747Y-122408599D01*
X177317132Y-122388893D01*
X177304520Y-122367850D01*
X177294030Y-122345671D01*
X177285765Y-122322572D01*
X177279804Y-122298773D01*
X177276204Y-122274505D01*
X177275000Y-122250001D01*
X177275000Y-121349999D01*
X177276204Y-121325495D01*
X177279804Y-121301227D01*
X177285765Y-121277428D01*
X177294030Y-121254329D01*
X177304520Y-121232150D01*
X177317132Y-121211107D01*
X177331747Y-121191401D01*
X177348223Y-121173223D01*
X177366401Y-121156747D01*
X177386107Y-121142132D01*
X177407150Y-121129520D01*
X177429329Y-121119030D01*
X177452428Y-121110765D01*
X177476227Y-121104804D01*
X177500495Y-121101204D01*
X177524999Y-121100000D01*
X178175001Y-121100000D01*
X178199505Y-121101204D01*
G37*
G04 #@! TD.AperFunction*
G04 #@! TA.AperFunction,SMDPad,CuDef*
G36*
X180249505Y-118901204D02*
G01*
X180273773Y-118904804D01*
X180297572Y-118910765D01*
X180320671Y-118919030D01*
X180342850Y-118929520D01*
X180363893Y-118942132D01*
X180383599Y-118956747D01*
X180401777Y-118973223D01*
X180418253Y-118991401D01*
X180432868Y-119011107D01*
X180445480Y-119032150D01*
X180455970Y-119054329D01*
X180464235Y-119077428D01*
X180470196Y-119101227D01*
X180473796Y-119125495D01*
X180475000Y-119149999D01*
X180475000Y-120050001D01*
X180473796Y-120074505D01*
X180470196Y-120098773D01*
X180464235Y-120122572D01*
X180455970Y-120145671D01*
X180445480Y-120167850D01*
X180432868Y-120188893D01*
X180418253Y-120208599D01*
X180401777Y-120226777D01*
X180383599Y-120243253D01*
X180363893Y-120257868D01*
X180342850Y-120270480D01*
X180320671Y-120280970D01*
X180297572Y-120289235D01*
X180273773Y-120295196D01*
X180249505Y-120298796D01*
X180225001Y-120300000D01*
X179574999Y-120300000D01*
X179550495Y-120298796D01*
X179526227Y-120295196D01*
X179502428Y-120289235D01*
X179479329Y-120280970D01*
X179457150Y-120270480D01*
X179436107Y-120257868D01*
X179416401Y-120243253D01*
X179398223Y-120226777D01*
X179381747Y-120208599D01*
X179367132Y-120188893D01*
X179354520Y-120167850D01*
X179344030Y-120145671D01*
X179335765Y-120122572D01*
X179329804Y-120098773D01*
X179326204Y-120074505D01*
X179325000Y-120050001D01*
X179325000Y-119149999D01*
X179326204Y-119125495D01*
X179329804Y-119101227D01*
X179335765Y-119077428D01*
X179344030Y-119054329D01*
X179354520Y-119032150D01*
X179367132Y-119011107D01*
X179381747Y-118991401D01*
X179398223Y-118973223D01*
X179416401Y-118956747D01*
X179436107Y-118942132D01*
X179457150Y-118929520D01*
X179479329Y-118919030D01*
X179502428Y-118910765D01*
X179526227Y-118904804D01*
X179550495Y-118901204D01*
X179574999Y-118900000D01*
X180225001Y-118900000D01*
X180249505Y-118901204D01*
G37*
G04 #@! TD.AperFunction*
G04 #@! TA.AperFunction,SMDPad,CuDef*
G36*
X178199505Y-118901204D02*
G01*
X178223773Y-118904804D01*
X178247572Y-118910765D01*
X178270671Y-118919030D01*
X178292850Y-118929520D01*
X178313893Y-118942132D01*
X178333599Y-118956747D01*
X178351777Y-118973223D01*
X178368253Y-118991401D01*
X178382868Y-119011107D01*
X178395480Y-119032150D01*
X178405970Y-119054329D01*
X178414235Y-119077428D01*
X178420196Y-119101227D01*
X178423796Y-119125495D01*
X178425000Y-119149999D01*
X178425000Y-120050001D01*
X178423796Y-120074505D01*
X178420196Y-120098773D01*
X178414235Y-120122572D01*
X178405970Y-120145671D01*
X178395480Y-120167850D01*
X178382868Y-120188893D01*
X178368253Y-120208599D01*
X178351777Y-120226777D01*
X178333599Y-120243253D01*
X178313893Y-120257868D01*
X178292850Y-120270480D01*
X178270671Y-120280970D01*
X178247572Y-120289235D01*
X178223773Y-120295196D01*
X178199505Y-120298796D01*
X178175001Y-120300000D01*
X177524999Y-120300000D01*
X177500495Y-120298796D01*
X177476227Y-120295196D01*
X177452428Y-120289235D01*
X177429329Y-120280970D01*
X177407150Y-120270480D01*
X177386107Y-120257868D01*
X177366401Y-120243253D01*
X177348223Y-120226777D01*
X177331747Y-120208599D01*
X177317132Y-120188893D01*
X177304520Y-120167850D01*
X177294030Y-120145671D01*
X177285765Y-120122572D01*
X177279804Y-120098773D01*
X177276204Y-120074505D01*
X177275000Y-120050001D01*
X177275000Y-119149999D01*
X177276204Y-119125495D01*
X177279804Y-119101227D01*
X177285765Y-119077428D01*
X177294030Y-119054329D01*
X177304520Y-119032150D01*
X177317132Y-119011107D01*
X177331747Y-118991401D01*
X177348223Y-118973223D01*
X177366401Y-118956747D01*
X177386107Y-118942132D01*
X177407150Y-118929520D01*
X177429329Y-118919030D01*
X177452428Y-118910765D01*
X177476227Y-118904804D01*
X177500495Y-118901204D01*
X177524999Y-118900000D01*
X178175001Y-118900000D01*
X178199505Y-118901204D01*
G37*
G04 #@! TD.AperFunction*
D10*
X136788000Y-118944000D02*
X136208000Y-118904000D01*
D11*
X136208000Y-118904000D03*
D10*
X138748000Y-125254000D02*
X137288000Y-123943998D01*
D11*
X137288000Y-123944000D03*
D10*
X117738000Y-137994000D02*
X117158000Y-137954000D01*
D11*
X117158000Y-137954000D03*
D10*
X119698000Y-144304000D02*
X118238000Y-142993998D01*
D11*
X118238000Y-142994000D03*
D10*
X117738000Y-118944000D02*
X117158000Y-118904000D01*
D11*
X117158000Y-118904000D03*
D10*
X119698000Y-125254000D02*
X118238000Y-123943998D01*
D11*
X118238000Y-123944000D03*
G04 #@! TA.AperFunction,SMDPad,CuDef*
D18*
G36*
X169940504Y-118869204D02*
G01*
X169964773Y-118872804D01*
X169988571Y-118878765D01*
X170011671Y-118887030D01*
X170033849Y-118897520D01*
X170054893Y-118910133D01*
X170074598Y-118924747D01*
X170092777Y-118941223D01*
X170109253Y-118959402D01*
X170123867Y-118979107D01*
X170136480Y-119000151D01*
X170146970Y-119022329D01*
X170155235Y-119045429D01*
X170161196Y-119069227D01*
X170164796Y-119093496D01*
X170166000Y-119118000D01*
X170166000Y-120043000D01*
X170164796Y-120067504D01*
X170161196Y-120091773D01*
X170155235Y-120115571D01*
X170146970Y-120138671D01*
X170136480Y-120160849D01*
X170123867Y-120181893D01*
X170109253Y-120201598D01*
X170092777Y-120219777D01*
X170074598Y-120236253D01*
X170054893Y-120250867D01*
X170033849Y-120263480D01*
X170011671Y-120273970D01*
X169988571Y-120282235D01*
X169964773Y-120288196D01*
X169940504Y-120291796D01*
X169916000Y-120293000D01*
X168666000Y-120293000D01*
X168641496Y-120291796D01*
X168617227Y-120288196D01*
X168593429Y-120282235D01*
X168570329Y-120273970D01*
X168548151Y-120263480D01*
X168527107Y-120250867D01*
X168507402Y-120236253D01*
X168489223Y-120219777D01*
X168472747Y-120201598D01*
X168458133Y-120181893D01*
X168445520Y-120160849D01*
X168435030Y-120138671D01*
X168426765Y-120115571D01*
X168420804Y-120091773D01*
X168417204Y-120067504D01*
X168416000Y-120043000D01*
X168416000Y-119118000D01*
X168417204Y-119093496D01*
X168420804Y-119069227D01*
X168426765Y-119045429D01*
X168435030Y-119022329D01*
X168445520Y-119000151D01*
X168458133Y-118979107D01*
X168472747Y-118959402D01*
X168489223Y-118941223D01*
X168507402Y-118924747D01*
X168527107Y-118910133D01*
X168548151Y-118897520D01*
X168570329Y-118887030D01*
X168593429Y-118878765D01*
X168617227Y-118872804D01*
X168641496Y-118869204D01*
X168666000Y-118868000D01*
X169916000Y-118868000D01*
X169940504Y-118869204D01*
G37*
G04 #@! TD.AperFunction*
G04 #@! TA.AperFunction,SMDPad,CuDef*
G36*
X169940504Y-121844204D02*
G01*
X169964773Y-121847804D01*
X169988571Y-121853765D01*
X170011671Y-121862030D01*
X170033849Y-121872520D01*
X170054893Y-121885133D01*
X170074598Y-121899747D01*
X170092777Y-121916223D01*
X170109253Y-121934402D01*
X170123867Y-121954107D01*
X170136480Y-121975151D01*
X170146970Y-121997329D01*
X170155235Y-122020429D01*
X170161196Y-122044227D01*
X170164796Y-122068496D01*
X170166000Y-122093000D01*
X170166000Y-123018000D01*
X170164796Y-123042504D01*
X170161196Y-123066773D01*
X170155235Y-123090571D01*
X170146970Y-123113671D01*
X170136480Y-123135849D01*
X170123867Y-123156893D01*
X170109253Y-123176598D01*
X170092777Y-123194777D01*
X170074598Y-123211253D01*
X170054893Y-123225867D01*
X170033849Y-123238480D01*
X170011671Y-123248970D01*
X169988571Y-123257235D01*
X169964773Y-123263196D01*
X169940504Y-123266796D01*
X169916000Y-123268000D01*
X168666000Y-123268000D01*
X168641496Y-123266796D01*
X168617227Y-123263196D01*
X168593429Y-123257235D01*
X168570329Y-123248970D01*
X168548151Y-123238480D01*
X168527107Y-123225867D01*
X168507402Y-123211253D01*
X168489223Y-123194777D01*
X168472747Y-123176598D01*
X168458133Y-123156893D01*
X168445520Y-123135849D01*
X168435030Y-123113671D01*
X168426765Y-123090571D01*
X168420804Y-123066773D01*
X168417204Y-123042504D01*
X168416000Y-123018000D01*
X168416000Y-122093000D01*
X168417204Y-122068496D01*
X168420804Y-122044227D01*
X168426765Y-122020429D01*
X168435030Y-121997329D01*
X168445520Y-121975151D01*
X168458133Y-121954107D01*
X168472747Y-121934402D01*
X168489223Y-121916223D01*
X168507402Y-121899747D01*
X168527107Y-121885133D01*
X168548151Y-121872520D01*
X168570329Y-121862030D01*
X168593429Y-121853765D01*
X168617227Y-121847804D01*
X168641496Y-121844204D01*
X168666000Y-121843000D01*
X169916000Y-121843000D01*
X169940504Y-121844204D01*
G37*
G04 #@! TD.AperFunction*
D19*
X161163000Y-118111000D03*
X161163000Y-121411000D03*
X161163000Y-113381000D03*
X161163000Y-116681000D03*
X158750000Y-118110000D03*
X158750000Y-121410000D03*
X158750000Y-113381000D03*
X158750000Y-116681000D03*
G04 #@! TA.AperFunction,SMDPad,CuDef*
D18*
G36*
X174443505Y-146875204D02*
G01*
X174467773Y-146878804D01*
X174491572Y-146884765D01*
X174514671Y-146893030D01*
X174536850Y-146903520D01*
X174557893Y-146916132D01*
X174577599Y-146930747D01*
X174595777Y-146947223D01*
X174612253Y-146965401D01*
X174626868Y-146985107D01*
X174639480Y-147006150D01*
X174649970Y-147028329D01*
X174658235Y-147051428D01*
X174664196Y-147075227D01*
X174667796Y-147099495D01*
X174669000Y-147123999D01*
X174669000Y-148024001D01*
X174667796Y-148048505D01*
X174664196Y-148072773D01*
X174658235Y-148096572D01*
X174649970Y-148119671D01*
X174639480Y-148141850D01*
X174626868Y-148162893D01*
X174612253Y-148182599D01*
X174595777Y-148200777D01*
X174577599Y-148217253D01*
X174557893Y-148231868D01*
X174536850Y-148244480D01*
X174514671Y-148254970D01*
X174491572Y-148263235D01*
X174467773Y-148269196D01*
X174443505Y-148272796D01*
X174419001Y-148274000D01*
X173768999Y-148274000D01*
X173744495Y-148272796D01*
X173720227Y-148269196D01*
X173696428Y-148263235D01*
X173673329Y-148254970D01*
X173651150Y-148244480D01*
X173630107Y-148231868D01*
X173610401Y-148217253D01*
X173592223Y-148200777D01*
X173575747Y-148182599D01*
X173561132Y-148162893D01*
X173548520Y-148141850D01*
X173538030Y-148119671D01*
X173529765Y-148096572D01*
X173523804Y-148072773D01*
X173520204Y-148048505D01*
X173519000Y-148024001D01*
X173519000Y-147123999D01*
X173520204Y-147099495D01*
X173523804Y-147075227D01*
X173529765Y-147051428D01*
X173538030Y-147028329D01*
X173548520Y-147006150D01*
X173561132Y-146985107D01*
X173575747Y-146965401D01*
X173592223Y-146947223D01*
X173610401Y-146930747D01*
X173630107Y-146916132D01*
X173651150Y-146903520D01*
X173673329Y-146893030D01*
X173696428Y-146884765D01*
X173720227Y-146878804D01*
X173744495Y-146875204D01*
X173768999Y-146874000D01*
X174419001Y-146874000D01*
X174443505Y-146875204D01*
G37*
G04 #@! TD.AperFunction*
G04 #@! TA.AperFunction,SMDPad,CuDef*
G36*
X172393505Y-146875204D02*
G01*
X172417773Y-146878804D01*
X172441572Y-146884765D01*
X172464671Y-146893030D01*
X172486850Y-146903520D01*
X172507893Y-146916132D01*
X172527599Y-146930747D01*
X172545777Y-146947223D01*
X172562253Y-146965401D01*
X172576868Y-146985107D01*
X172589480Y-147006150D01*
X172599970Y-147028329D01*
X172608235Y-147051428D01*
X172614196Y-147075227D01*
X172617796Y-147099495D01*
X172619000Y-147123999D01*
X172619000Y-148024001D01*
X172617796Y-148048505D01*
X172614196Y-148072773D01*
X172608235Y-148096572D01*
X172599970Y-148119671D01*
X172589480Y-148141850D01*
X172576868Y-148162893D01*
X172562253Y-148182599D01*
X172545777Y-148200777D01*
X172527599Y-148217253D01*
X172507893Y-148231868D01*
X172486850Y-148244480D01*
X172464671Y-148254970D01*
X172441572Y-148263235D01*
X172417773Y-148269196D01*
X172393505Y-148272796D01*
X172369001Y-148274000D01*
X171718999Y-148274000D01*
X171694495Y-148272796D01*
X171670227Y-148269196D01*
X171646428Y-148263235D01*
X171623329Y-148254970D01*
X171601150Y-148244480D01*
X171580107Y-148231868D01*
X171560401Y-148217253D01*
X171542223Y-148200777D01*
X171525747Y-148182599D01*
X171511132Y-148162893D01*
X171498520Y-148141850D01*
X171488030Y-148119671D01*
X171479765Y-148096572D01*
X171473804Y-148072773D01*
X171470204Y-148048505D01*
X171469000Y-148024001D01*
X171469000Y-147123999D01*
X171470204Y-147099495D01*
X171473804Y-147075227D01*
X171479765Y-147051428D01*
X171488030Y-147028329D01*
X171498520Y-147006150D01*
X171511132Y-146985107D01*
X171525747Y-146965401D01*
X171542223Y-146947223D01*
X171560401Y-146930747D01*
X171580107Y-146916132D01*
X171601150Y-146903520D01*
X171623329Y-146893030D01*
X171646428Y-146884765D01*
X171670227Y-146878804D01*
X171694495Y-146875204D01*
X171718999Y-146874000D01*
X172369001Y-146874000D01*
X172393505Y-146875204D01*
G37*
G04 #@! TD.AperFunction*
G04 #@! TA.AperFunction,SMDPad,CuDef*
G36*
X186148505Y-134155204D02*
G01*
X186172773Y-134158804D01*
X186196572Y-134164765D01*
X186219671Y-134173030D01*
X186241850Y-134183520D01*
X186262893Y-134196132D01*
X186282599Y-134210747D01*
X186300777Y-134227223D01*
X186317253Y-134245401D01*
X186331868Y-134265107D01*
X186344480Y-134286150D01*
X186354970Y-134308329D01*
X186363235Y-134331428D01*
X186369196Y-134355227D01*
X186372796Y-134379495D01*
X186374000Y-134403999D01*
X186374000Y-135054001D01*
X186372796Y-135078505D01*
X186369196Y-135102773D01*
X186363235Y-135126572D01*
X186354970Y-135149671D01*
X186344480Y-135171850D01*
X186331868Y-135192893D01*
X186317253Y-135212599D01*
X186300777Y-135230777D01*
X186282599Y-135247253D01*
X186262893Y-135261868D01*
X186241850Y-135274480D01*
X186219671Y-135284970D01*
X186196572Y-135293235D01*
X186172773Y-135299196D01*
X186148505Y-135302796D01*
X186124001Y-135304000D01*
X185223999Y-135304000D01*
X185199495Y-135302796D01*
X185175227Y-135299196D01*
X185151428Y-135293235D01*
X185128329Y-135284970D01*
X185106150Y-135274480D01*
X185085107Y-135261868D01*
X185065401Y-135247253D01*
X185047223Y-135230777D01*
X185030747Y-135212599D01*
X185016132Y-135192893D01*
X185003520Y-135171850D01*
X184993030Y-135149671D01*
X184984765Y-135126572D01*
X184978804Y-135102773D01*
X184975204Y-135078505D01*
X184974000Y-135054001D01*
X184974000Y-134403999D01*
X184975204Y-134379495D01*
X184978804Y-134355227D01*
X184984765Y-134331428D01*
X184993030Y-134308329D01*
X185003520Y-134286150D01*
X185016132Y-134265107D01*
X185030747Y-134245401D01*
X185047223Y-134227223D01*
X185065401Y-134210747D01*
X185085107Y-134196132D01*
X185106150Y-134183520D01*
X185128329Y-134173030D01*
X185151428Y-134164765D01*
X185175227Y-134158804D01*
X185199495Y-134155204D01*
X185223999Y-134154000D01*
X186124001Y-134154000D01*
X186148505Y-134155204D01*
G37*
G04 #@! TD.AperFunction*
G04 #@! TA.AperFunction,SMDPad,CuDef*
G36*
X186148505Y-136205204D02*
G01*
X186172773Y-136208804D01*
X186196572Y-136214765D01*
X186219671Y-136223030D01*
X186241850Y-136233520D01*
X186262893Y-136246132D01*
X186282599Y-136260747D01*
X186300777Y-136277223D01*
X186317253Y-136295401D01*
X186331868Y-136315107D01*
X186344480Y-136336150D01*
X186354970Y-136358329D01*
X186363235Y-136381428D01*
X186369196Y-136405227D01*
X186372796Y-136429495D01*
X186374000Y-136453999D01*
X186374000Y-137104001D01*
X186372796Y-137128505D01*
X186369196Y-137152773D01*
X186363235Y-137176572D01*
X186354970Y-137199671D01*
X186344480Y-137221850D01*
X186331868Y-137242893D01*
X186317253Y-137262599D01*
X186300777Y-137280777D01*
X186282599Y-137297253D01*
X186262893Y-137311868D01*
X186241850Y-137324480D01*
X186219671Y-137334970D01*
X186196572Y-137343235D01*
X186172773Y-137349196D01*
X186148505Y-137352796D01*
X186124001Y-137354000D01*
X185223999Y-137354000D01*
X185199495Y-137352796D01*
X185175227Y-137349196D01*
X185151428Y-137343235D01*
X185128329Y-137334970D01*
X185106150Y-137324480D01*
X185085107Y-137311868D01*
X185065401Y-137297253D01*
X185047223Y-137280777D01*
X185030747Y-137262599D01*
X185016132Y-137242893D01*
X185003520Y-137221850D01*
X184993030Y-137199671D01*
X184984765Y-137176572D01*
X184978804Y-137152773D01*
X184975204Y-137128505D01*
X184974000Y-137104001D01*
X184974000Y-136453999D01*
X184975204Y-136429495D01*
X184978804Y-136405227D01*
X184984765Y-136381428D01*
X184993030Y-136358329D01*
X185003520Y-136336150D01*
X185016132Y-136315107D01*
X185030747Y-136295401D01*
X185047223Y-136277223D01*
X185065401Y-136260747D01*
X185085107Y-136246132D01*
X185106150Y-136233520D01*
X185128329Y-136223030D01*
X185151428Y-136214765D01*
X185175227Y-136208804D01*
X185199495Y-136205204D01*
X185223999Y-136204000D01*
X186124001Y-136204000D01*
X186148505Y-136205204D01*
G37*
G04 #@! TD.AperFunction*
G04 #@! TA.AperFunction,SMDPad,CuDef*
G36*
X180036505Y-146748204D02*
G01*
X180060773Y-146751804D01*
X180084572Y-146757765D01*
X180107671Y-146766030D01*
X180129850Y-146776520D01*
X180150893Y-146789132D01*
X180170599Y-146803747D01*
X180188777Y-146820223D01*
X180205253Y-146838401D01*
X180219868Y-146858107D01*
X180232480Y-146879150D01*
X180242970Y-146901329D01*
X180251235Y-146924428D01*
X180257196Y-146948227D01*
X180260796Y-146972495D01*
X180262000Y-146996999D01*
X180262000Y-147897001D01*
X180260796Y-147921505D01*
X180257196Y-147945773D01*
X180251235Y-147969572D01*
X180242970Y-147992671D01*
X180232480Y-148014850D01*
X180219868Y-148035893D01*
X180205253Y-148055599D01*
X180188777Y-148073777D01*
X180170599Y-148090253D01*
X180150893Y-148104868D01*
X180129850Y-148117480D01*
X180107671Y-148127970D01*
X180084572Y-148136235D01*
X180060773Y-148142196D01*
X180036505Y-148145796D01*
X180012001Y-148147000D01*
X179361999Y-148147000D01*
X179337495Y-148145796D01*
X179313227Y-148142196D01*
X179289428Y-148136235D01*
X179266329Y-148127970D01*
X179244150Y-148117480D01*
X179223107Y-148104868D01*
X179203401Y-148090253D01*
X179185223Y-148073777D01*
X179168747Y-148055599D01*
X179154132Y-148035893D01*
X179141520Y-148014850D01*
X179131030Y-147992671D01*
X179122765Y-147969572D01*
X179116804Y-147945773D01*
X179113204Y-147921505D01*
X179112000Y-147897001D01*
X179112000Y-146996999D01*
X179113204Y-146972495D01*
X179116804Y-146948227D01*
X179122765Y-146924428D01*
X179131030Y-146901329D01*
X179141520Y-146879150D01*
X179154132Y-146858107D01*
X179168747Y-146838401D01*
X179185223Y-146820223D01*
X179203401Y-146803747D01*
X179223107Y-146789132D01*
X179244150Y-146776520D01*
X179266329Y-146766030D01*
X179289428Y-146757765D01*
X179313227Y-146751804D01*
X179337495Y-146748204D01*
X179361999Y-146747000D01*
X180012001Y-146747000D01*
X180036505Y-146748204D01*
G37*
G04 #@! TD.AperFunction*
G04 #@! TA.AperFunction,SMDPad,CuDef*
G36*
X182086505Y-146748204D02*
G01*
X182110773Y-146751804D01*
X182134572Y-146757765D01*
X182157671Y-146766030D01*
X182179850Y-146776520D01*
X182200893Y-146789132D01*
X182220599Y-146803747D01*
X182238777Y-146820223D01*
X182255253Y-146838401D01*
X182269868Y-146858107D01*
X182282480Y-146879150D01*
X182292970Y-146901329D01*
X182301235Y-146924428D01*
X182307196Y-146948227D01*
X182310796Y-146972495D01*
X182312000Y-146996999D01*
X182312000Y-147897001D01*
X182310796Y-147921505D01*
X182307196Y-147945773D01*
X182301235Y-147969572D01*
X182292970Y-147992671D01*
X182282480Y-148014850D01*
X182269868Y-148035893D01*
X182255253Y-148055599D01*
X182238777Y-148073777D01*
X182220599Y-148090253D01*
X182200893Y-148104868D01*
X182179850Y-148117480D01*
X182157671Y-148127970D01*
X182134572Y-148136235D01*
X182110773Y-148142196D01*
X182086505Y-148145796D01*
X182062001Y-148147000D01*
X181411999Y-148147000D01*
X181387495Y-148145796D01*
X181363227Y-148142196D01*
X181339428Y-148136235D01*
X181316329Y-148127970D01*
X181294150Y-148117480D01*
X181273107Y-148104868D01*
X181253401Y-148090253D01*
X181235223Y-148073777D01*
X181218747Y-148055599D01*
X181204132Y-148035893D01*
X181191520Y-148014850D01*
X181181030Y-147992671D01*
X181172765Y-147969572D01*
X181166804Y-147945773D01*
X181163204Y-147921505D01*
X181162000Y-147897001D01*
X181162000Y-146996999D01*
X181163204Y-146972495D01*
X181166804Y-146948227D01*
X181172765Y-146924428D01*
X181181030Y-146901329D01*
X181191520Y-146879150D01*
X181204132Y-146858107D01*
X181218747Y-146838401D01*
X181235223Y-146820223D01*
X181253401Y-146803747D01*
X181273107Y-146789132D01*
X181294150Y-146776520D01*
X181316329Y-146766030D01*
X181339428Y-146757765D01*
X181363227Y-146751804D01*
X181387495Y-146748204D01*
X181411999Y-146747000D01*
X182062001Y-146747000D01*
X182086505Y-146748204D01*
G37*
G04 #@! TD.AperFunction*
G04 #@! TA.AperFunction,SMDPad,CuDef*
G36*
X167828505Y-133030204D02*
G01*
X167852773Y-133033804D01*
X167876572Y-133039765D01*
X167899671Y-133048030D01*
X167921850Y-133058520D01*
X167942893Y-133071132D01*
X167962599Y-133085747D01*
X167980777Y-133102223D01*
X167997253Y-133120401D01*
X168011868Y-133140107D01*
X168024480Y-133161150D01*
X168034970Y-133183329D01*
X168043235Y-133206428D01*
X168049196Y-133230227D01*
X168052796Y-133254495D01*
X168054000Y-133278999D01*
X168054000Y-133929001D01*
X168052796Y-133953505D01*
X168049196Y-133977773D01*
X168043235Y-134001572D01*
X168034970Y-134024671D01*
X168024480Y-134046850D01*
X168011868Y-134067893D01*
X167997253Y-134087599D01*
X167980777Y-134105777D01*
X167962599Y-134122253D01*
X167942893Y-134136868D01*
X167921850Y-134149480D01*
X167899671Y-134159970D01*
X167876572Y-134168235D01*
X167852773Y-134174196D01*
X167828505Y-134177796D01*
X167804001Y-134179000D01*
X166903999Y-134179000D01*
X166879495Y-134177796D01*
X166855227Y-134174196D01*
X166831428Y-134168235D01*
X166808329Y-134159970D01*
X166786150Y-134149480D01*
X166765107Y-134136868D01*
X166745401Y-134122253D01*
X166727223Y-134105777D01*
X166710747Y-134087599D01*
X166696132Y-134067893D01*
X166683520Y-134046850D01*
X166673030Y-134024671D01*
X166664765Y-134001572D01*
X166658804Y-133977773D01*
X166655204Y-133953505D01*
X166654000Y-133929001D01*
X166654000Y-133278999D01*
X166655204Y-133254495D01*
X166658804Y-133230227D01*
X166664765Y-133206428D01*
X166673030Y-133183329D01*
X166683520Y-133161150D01*
X166696132Y-133140107D01*
X166710747Y-133120401D01*
X166727223Y-133102223D01*
X166745401Y-133085747D01*
X166765107Y-133071132D01*
X166786150Y-133058520D01*
X166808329Y-133048030D01*
X166831428Y-133039765D01*
X166855227Y-133033804D01*
X166879495Y-133030204D01*
X166903999Y-133029000D01*
X167804001Y-133029000D01*
X167828505Y-133030204D01*
G37*
G04 #@! TD.AperFunction*
G04 #@! TA.AperFunction,SMDPad,CuDef*
G36*
X167828505Y-130980204D02*
G01*
X167852773Y-130983804D01*
X167876572Y-130989765D01*
X167899671Y-130998030D01*
X167921850Y-131008520D01*
X167942893Y-131021132D01*
X167962599Y-131035747D01*
X167980777Y-131052223D01*
X167997253Y-131070401D01*
X168011868Y-131090107D01*
X168024480Y-131111150D01*
X168034970Y-131133329D01*
X168043235Y-131156428D01*
X168049196Y-131180227D01*
X168052796Y-131204495D01*
X168054000Y-131228999D01*
X168054000Y-131879001D01*
X168052796Y-131903505D01*
X168049196Y-131927773D01*
X168043235Y-131951572D01*
X168034970Y-131974671D01*
X168024480Y-131996850D01*
X168011868Y-132017893D01*
X167997253Y-132037599D01*
X167980777Y-132055777D01*
X167962599Y-132072253D01*
X167942893Y-132086868D01*
X167921850Y-132099480D01*
X167899671Y-132109970D01*
X167876572Y-132118235D01*
X167852773Y-132124196D01*
X167828505Y-132127796D01*
X167804001Y-132129000D01*
X166903999Y-132129000D01*
X166879495Y-132127796D01*
X166855227Y-132124196D01*
X166831428Y-132118235D01*
X166808329Y-132109970D01*
X166786150Y-132099480D01*
X166765107Y-132086868D01*
X166745401Y-132072253D01*
X166727223Y-132055777D01*
X166710747Y-132037599D01*
X166696132Y-132017893D01*
X166683520Y-131996850D01*
X166673030Y-131974671D01*
X166664765Y-131951572D01*
X166658804Y-131927773D01*
X166655204Y-131903505D01*
X166654000Y-131879001D01*
X166654000Y-131228999D01*
X166655204Y-131204495D01*
X166658804Y-131180227D01*
X166664765Y-131156428D01*
X166673030Y-131133329D01*
X166683520Y-131111150D01*
X166696132Y-131090107D01*
X166710747Y-131070401D01*
X166727223Y-131052223D01*
X166745401Y-131035747D01*
X166765107Y-131021132D01*
X166786150Y-131008520D01*
X166808329Y-130998030D01*
X166831428Y-130989765D01*
X166855227Y-130983804D01*
X166879495Y-130980204D01*
X166903999Y-130979000D01*
X167804001Y-130979000D01*
X167828505Y-130980204D01*
G37*
G04 #@! TD.AperFunction*
G04 #@! TA.AperFunction,SMDPad,CuDef*
G36*
X168622505Y-140278204D02*
G01*
X168646773Y-140281804D01*
X168670572Y-140287765D01*
X168693671Y-140296030D01*
X168715850Y-140306520D01*
X168736893Y-140319132D01*
X168756599Y-140333747D01*
X168774777Y-140350223D01*
X168791253Y-140368401D01*
X168805868Y-140388107D01*
X168818480Y-140409150D01*
X168828970Y-140431329D01*
X168837235Y-140454428D01*
X168843196Y-140478227D01*
X168846796Y-140502495D01*
X168848000Y-140526999D01*
X168848000Y-141177001D01*
X168846796Y-141201505D01*
X168843196Y-141225773D01*
X168837235Y-141249572D01*
X168828970Y-141272671D01*
X168818480Y-141294850D01*
X168805868Y-141315893D01*
X168791253Y-141335599D01*
X168774777Y-141353777D01*
X168756599Y-141370253D01*
X168736893Y-141384868D01*
X168715850Y-141397480D01*
X168693671Y-141407970D01*
X168670572Y-141416235D01*
X168646773Y-141422196D01*
X168622505Y-141425796D01*
X168598001Y-141427000D01*
X167697999Y-141427000D01*
X167673495Y-141425796D01*
X167649227Y-141422196D01*
X167625428Y-141416235D01*
X167602329Y-141407970D01*
X167580150Y-141397480D01*
X167559107Y-141384868D01*
X167539401Y-141370253D01*
X167521223Y-141353777D01*
X167504747Y-141335599D01*
X167490132Y-141315893D01*
X167477520Y-141294850D01*
X167467030Y-141272671D01*
X167458765Y-141249572D01*
X167452804Y-141225773D01*
X167449204Y-141201505D01*
X167448000Y-141177001D01*
X167448000Y-140526999D01*
X167449204Y-140502495D01*
X167452804Y-140478227D01*
X167458765Y-140454428D01*
X167467030Y-140431329D01*
X167477520Y-140409150D01*
X167490132Y-140388107D01*
X167504747Y-140368401D01*
X167521223Y-140350223D01*
X167539401Y-140333747D01*
X167559107Y-140319132D01*
X167580150Y-140306520D01*
X167602329Y-140296030D01*
X167625428Y-140287765D01*
X167649227Y-140281804D01*
X167673495Y-140278204D01*
X167697999Y-140277000D01*
X168598001Y-140277000D01*
X168622505Y-140278204D01*
G37*
G04 #@! TD.AperFunction*
G04 #@! TA.AperFunction,SMDPad,CuDef*
G36*
X168622505Y-138228204D02*
G01*
X168646773Y-138231804D01*
X168670572Y-138237765D01*
X168693671Y-138246030D01*
X168715850Y-138256520D01*
X168736893Y-138269132D01*
X168756599Y-138283747D01*
X168774777Y-138300223D01*
X168791253Y-138318401D01*
X168805868Y-138338107D01*
X168818480Y-138359150D01*
X168828970Y-138381329D01*
X168837235Y-138404428D01*
X168843196Y-138428227D01*
X168846796Y-138452495D01*
X168848000Y-138476999D01*
X168848000Y-139127001D01*
X168846796Y-139151505D01*
X168843196Y-139175773D01*
X168837235Y-139199572D01*
X168828970Y-139222671D01*
X168818480Y-139244850D01*
X168805868Y-139265893D01*
X168791253Y-139285599D01*
X168774777Y-139303777D01*
X168756599Y-139320253D01*
X168736893Y-139334868D01*
X168715850Y-139347480D01*
X168693671Y-139357970D01*
X168670572Y-139366235D01*
X168646773Y-139372196D01*
X168622505Y-139375796D01*
X168598001Y-139377000D01*
X167697999Y-139377000D01*
X167673495Y-139375796D01*
X167649227Y-139372196D01*
X167625428Y-139366235D01*
X167602329Y-139357970D01*
X167580150Y-139347480D01*
X167559107Y-139334868D01*
X167539401Y-139320253D01*
X167521223Y-139303777D01*
X167504747Y-139285599D01*
X167490132Y-139265893D01*
X167477520Y-139244850D01*
X167467030Y-139222671D01*
X167458765Y-139199572D01*
X167452804Y-139175773D01*
X167449204Y-139151505D01*
X167448000Y-139127001D01*
X167448000Y-138476999D01*
X167449204Y-138452495D01*
X167452804Y-138428227D01*
X167458765Y-138404428D01*
X167467030Y-138381329D01*
X167477520Y-138359150D01*
X167490132Y-138338107D01*
X167504747Y-138318401D01*
X167521223Y-138300223D01*
X167539401Y-138283747D01*
X167559107Y-138269132D01*
X167580150Y-138256520D01*
X167602329Y-138246030D01*
X167625428Y-138237765D01*
X167649227Y-138231804D01*
X167673495Y-138228204D01*
X167697999Y-138227000D01*
X168598001Y-138227000D01*
X168622505Y-138228204D01*
G37*
G04 #@! TD.AperFunction*
G04 #@! TA.AperFunction,SMDPad,CuDef*
G36*
X174369505Y-131030204D02*
G01*
X174393773Y-131033804D01*
X174417572Y-131039765D01*
X174440671Y-131048030D01*
X174462850Y-131058520D01*
X174483893Y-131071132D01*
X174503599Y-131085747D01*
X174521777Y-131102223D01*
X174538253Y-131120401D01*
X174552868Y-131140107D01*
X174565480Y-131161150D01*
X174575970Y-131183329D01*
X174584235Y-131206428D01*
X174590196Y-131230227D01*
X174593796Y-131254495D01*
X174595000Y-131278999D01*
X174595000Y-131929001D01*
X174593796Y-131953505D01*
X174590196Y-131977773D01*
X174584235Y-132001572D01*
X174575970Y-132024671D01*
X174565480Y-132046850D01*
X174552868Y-132067893D01*
X174538253Y-132087599D01*
X174521777Y-132105777D01*
X174503599Y-132122253D01*
X174483893Y-132136868D01*
X174462850Y-132149480D01*
X174440671Y-132159970D01*
X174417572Y-132168235D01*
X174393773Y-132174196D01*
X174369505Y-132177796D01*
X174345001Y-132179000D01*
X173444999Y-132179000D01*
X173420495Y-132177796D01*
X173396227Y-132174196D01*
X173372428Y-132168235D01*
X173349329Y-132159970D01*
X173327150Y-132149480D01*
X173306107Y-132136868D01*
X173286401Y-132122253D01*
X173268223Y-132105777D01*
X173251747Y-132087599D01*
X173237132Y-132067893D01*
X173224520Y-132046850D01*
X173214030Y-132024671D01*
X173205765Y-132001572D01*
X173199804Y-131977773D01*
X173196204Y-131953505D01*
X173195000Y-131929001D01*
X173195000Y-131278999D01*
X173196204Y-131254495D01*
X173199804Y-131230227D01*
X173205765Y-131206428D01*
X173214030Y-131183329D01*
X173224520Y-131161150D01*
X173237132Y-131140107D01*
X173251747Y-131120401D01*
X173268223Y-131102223D01*
X173286401Y-131085747D01*
X173306107Y-131071132D01*
X173327150Y-131058520D01*
X173349329Y-131048030D01*
X173372428Y-131039765D01*
X173396227Y-131033804D01*
X173420495Y-131030204D01*
X173444999Y-131029000D01*
X174345001Y-131029000D01*
X174369505Y-131030204D01*
G37*
G04 #@! TD.AperFunction*
G04 #@! TA.AperFunction,SMDPad,CuDef*
G36*
X174369505Y-128980204D02*
G01*
X174393773Y-128983804D01*
X174417572Y-128989765D01*
X174440671Y-128998030D01*
X174462850Y-129008520D01*
X174483893Y-129021132D01*
X174503599Y-129035747D01*
X174521777Y-129052223D01*
X174538253Y-129070401D01*
X174552868Y-129090107D01*
X174565480Y-129111150D01*
X174575970Y-129133329D01*
X174584235Y-129156428D01*
X174590196Y-129180227D01*
X174593796Y-129204495D01*
X174595000Y-129228999D01*
X174595000Y-129879001D01*
X174593796Y-129903505D01*
X174590196Y-129927773D01*
X174584235Y-129951572D01*
X174575970Y-129974671D01*
X174565480Y-129996850D01*
X174552868Y-130017893D01*
X174538253Y-130037599D01*
X174521777Y-130055777D01*
X174503599Y-130072253D01*
X174483893Y-130086868D01*
X174462850Y-130099480D01*
X174440671Y-130109970D01*
X174417572Y-130118235D01*
X174393773Y-130124196D01*
X174369505Y-130127796D01*
X174345001Y-130129000D01*
X173444999Y-130129000D01*
X173420495Y-130127796D01*
X173396227Y-130124196D01*
X173372428Y-130118235D01*
X173349329Y-130109970D01*
X173327150Y-130099480D01*
X173306107Y-130086868D01*
X173286401Y-130072253D01*
X173268223Y-130055777D01*
X173251747Y-130037599D01*
X173237132Y-130017893D01*
X173224520Y-129996850D01*
X173214030Y-129974671D01*
X173205765Y-129951572D01*
X173199804Y-129927773D01*
X173196204Y-129903505D01*
X173195000Y-129879001D01*
X173195000Y-129228999D01*
X173196204Y-129204495D01*
X173199804Y-129180227D01*
X173205765Y-129156428D01*
X173214030Y-129133329D01*
X173224520Y-129111150D01*
X173237132Y-129090107D01*
X173251747Y-129070401D01*
X173268223Y-129052223D01*
X173286401Y-129035747D01*
X173306107Y-129021132D01*
X173327150Y-129008520D01*
X173349329Y-128998030D01*
X173372428Y-128989765D01*
X173396227Y-128983804D01*
X173420495Y-128980204D01*
X173444999Y-128979000D01*
X174345001Y-128979000D01*
X174369505Y-128980204D01*
G37*
G04 #@! TD.AperFunction*
G04 #@! TA.AperFunction,SMDPad,CuDef*
G36*
X181608505Y-128980204D02*
G01*
X181632773Y-128983804D01*
X181656572Y-128989765D01*
X181679671Y-128998030D01*
X181701850Y-129008520D01*
X181722893Y-129021132D01*
X181742599Y-129035747D01*
X181760777Y-129052223D01*
X181777253Y-129070401D01*
X181791868Y-129090107D01*
X181804480Y-129111150D01*
X181814970Y-129133329D01*
X181823235Y-129156428D01*
X181829196Y-129180227D01*
X181832796Y-129204495D01*
X181834000Y-129228999D01*
X181834000Y-129879001D01*
X181832796Y-129903505D01*
X181829196Y-129927773D01*
X181823235Y-129951572D01*
X181814970Y-129974671D01*
X181804480Y-129996850D01*
X181791868Y-130017893D01*
X181777253Y-130037599D01*
X181760777Y-130055777D01*
X181742599Y-130072253D01*
X181722893Y-130086868D01*
X181701850Y-130099480D01*
X181679671Y-130109970D01*
X181656572Y-130118235D01*
X181632773Y-130124196D01*
X181608505Y-130127796D01*
X181584001Y-130129000D01*
X180683999Y-130129000D01*
X180659495Y-130127796D01*
X180635227Y-130124196D01*
X180611428Y-130118235D01*
X180588329Y-130109970D01*
X180566150Y-130099480D01*
X180545107Y-130086868D01*
X180525401Y-130072253D01*
X180507223Y-130055777D01*
X180490747Y-130037599D01*
X180476132Y-130017893D01*
X180463520Y-129996850D01*
X180453030Y-129974671D01*
X180444765Y-129951572D01*
X180438804Y-129927773D01*
X180435204Y-129903505D01*
X180434000Y-129879001D01*
X180434000Y-129228999D01*
X180435204Y-129204495D01*
X180438804Y-129180227D01*
X180444765Y-129156428D01*
X180453030Y-129133329D01*
X180463520Y-129111150D01*
X180476132Y-129090107D01*
X180490747Y-129070401D01*
X180507223Y-129052223D01*
X180525401Y-129035747D01*
X180545107Y-129021132D01*
X180566150Y-129008520D01*
X180588329Y-128998030D01*
X180611428Y-128989765D01*
X180635227Y-128983804D01*
X180659495Y-128980204D01*
X180683999Y-128979000D01*
X181584001Y-128979000D01*
X181608505Y-128980204D01*
G37*
G04 #@! TD.AperFunction*
G04 #@! TA.AperFunction,SMDPad,CuDef*
G36*
X181608505Y-131030204D02*
G01*
X181632773Y-131033804D01*
X181656572Y-131039765D01*
X181679671Y-131048030D01*
X181701850Y-131058520D01*
X181722893Y-131071132D01*
X181742599Y-131085747D01*
X181760777Y-131102223D01*
X181777253Y-131120401D01*
X181791868Y-131140107D01*
X181804480Y-131161150D01*
X181814970Y-131183329D01*
X181823235Y-131206428D01*
X181829196Y-131230227D01*
X181832796Y-131254495D01*
X181834000Y-131278999D01*
X181834000Y-131929001D01*
X181832796Y-131953505D01*
X181829196Y-131977773D01*
X181823235Y-132001572D01*
X181814970Y-132024671D01*
X181804480Y-132046850D01*
X181791868Y-132067893D01*
X181777253Y-132087599D01*
X181760777Y-132105777D01*
X181742599Y-132122253D01*
X181722893Y-132136868D01*
X181701850Y-132149480D01*
X181679671Y-132159970D01*
X181656572Y-132168235D01*
X181632773Y-132174196D01*
X181608505Y-132177796D01*
X181584001Y-132179000D01*
X180683999Y-132179000D01*
X180659495Y-132177796D01*
X180635227Y-132174196D01*
X180611428Y-132168235D01*
X180588329Y-132159970D01*
X180566150Y-132149480D01*
X180545107Y-132136868D01*
X180525401Y-132122253D01*
X180507223Y-132105777D01*
X180490747Y-132087599D01*
X180476132Y-132067893D01*
X180463520Y-132046850D01*
X180453030Y-132024671D01*
X180444765Y-132001572D01*
X180438804Y-131977773D01*
X180435204Y-131953505D01*
X180434000Y-131929001D01*
X180434000Y-131278999D01*
X180435204Y-131254495D01*
X180438804Y-131230227D01*
X180444765Y-131206428D01*
X180453030Y-131183329D01*
X180463520Y-131161150D01*
X180476132Y-131140107D01*
X180490747Y-131120401D01*
X180507223Y-131102223D01*
X180525401Y-131085747D01*
X180545107Y-131071132D01*
X180566150Y-131058520D01*
X180588329Y-131048030D01*
X180611428Y-131039765D01*
X180635227Y-131033804D01*
X180659495Y-131030204D01*
X180683999Y-131029000D01*
X181584001Y-131029000D01*
X181608505Y-131030204D01*
G37*
G04 #@! TD.AperFunction*
D20*
X172599000Y-137201700D03*
X167200200Y-120585700D03*
X169182700Y-136992800D03*
X167460800Y-123232200D03*
X172903500Y-142020353D03*
X177850000Y-119600000D03*
X172710932Y-141039068D03*
X177850000Y-121800000D03*
D21*
X180094000Y-145114000D02*
X180094000Y-143973200D01*
X180094000Y-143973200D02*
X181453200Y-143973200D01*
X181453200Y-143973200D02*
X182641000Y-145161000D01*
X182641000Y-145161000D02*
X185166000Y-145161000D01*
X179687000Y-147447000D02*
X180094000Y-147040000D01*
X180094000Y-147040000D02*
X180094000Y-145114000D01*
X181134000Y-129745000D02*
X183734800Y-132345800D01*
X183734800Y-132345800D02*
X183734800Y-134729000D01*
X181134000Y-129554000D02*
X181134000Y-129745000D01*
X181134000Y-129745000D02*
X179716800Y-129745000D01*
X178626000Y-129745000D02*
X179716800Y-129745000D01*
X173003800Y-140214000D02*
X172334800Y-140214000D01*
X173694000Y-145114000D02*
X173694000Y-141956000D01*
X173694000Y-140904200D02*
X173003800Y-140214000D01*
X175853200Y-135414000D02*
X175853200Y-137364600D01*
X175853200Y-137364600D02*
X173003800Y-140214000D01*
X183734800Y-134729000D02*
X183734800Y-135414000D01*
X183734800Y-134729000D02*
X185674000Y-134729000D01*
X182594000Y-135414000D02*
X183734800Y-135414000D01*
X175853200Y-135414000D02*
X175294000Y-134854800D01*
X182594000Y-135414000D02*
X175853200Y-135414000D01*
X175294000Y-133714000D02*
X175294000Y-134854800D01*
X174094000Y-147447000D02*
X179687000Y-147447000D01*
X171194000Y-140214000D02*
X172334800Y-140214000D01*
X168148000Y-140852000D02*
X168786000Y-140214000D01*
X168786000Y-140214000D02*
X171194000Y-140214000D01*
X167354000Y-133604000D02*
X169152600Y-131805400D01*
X169152600Y-131805400D02*
X173895000Y-131805400D01*
X174773400Y-132006800D02*
X174096400Y-132006800D01*
X174096400Y-132006800D02*
X173895000Y-131805400D01*
X173895000Y-131604000D02*
X173895000Y-131805400D01*
X174773400Y-132006800D02*
X175335200Y-131445000D01*
X175294000Y-132573200D02*
X174773400Y-132052600D01*
X174773400Y-132052600D02*
X174773400Y-132006800D01*
X176426000Y-131445000D02*
X175335200Y-131445000D01*
X175294000Y-133714000D02*
X175294000Y-132573200D01*
X181134000Y-129554000D02*
X181134000Y-122956200D01*
X181134000Y-122956200D02*
X182634200Y-121456000D01*
X184150000Y-121456000D02*
X182634200Y-121456000D01*
X168148000Y-140852000D02*
X164964800Y-140852000D01*
X164964800Y-140852000D02*
X163140800Y-142676000D01*
X161850000Y-142676000D02*
X163140800Y-142676000D01*
X174094000Y-147447000D02*
X174094000Y-147574000D01*
X173694000Y-145114000D02*
X173694000Y-147047000D01*
X173694000Y-147047000D02*
X174094000Y-147447000D01*
X173694000Y-141956000D02*
X173694000Y-140904200D01*
D22*
X176894000Y-133714000D02*
X176894000Y-134791300D01*
X176894000Y-134791300D02*
X181304600Y-134791300D01*
X181304600Y-134791300D02*
X181506500Y-134589400D01*
X181506500Y-134589400D02*
X181506500Y-131976500D01*
X181506500Y-131976500D02*
X181134000Y-131604000D01*
X178626000Y-131445000D02*
X179653300Y-131445000D01*
X181134000Y-131604000D02*
X179812300Y-131604000D01*
X179812300Y-131604000D02*
X179653300Y-131445000D01*
X176426000Y-129745000D02*
X177453300Y-129745000D01*
X176094000Y-133714000D02*
X176094000Y-132636700D01*
X176094000Y-132636700D02*
X177005100Y-132636700D01*
X177005100Y-132636700D02*
X177453300Y-132188500D01*
X177453300Y-132188500D02*
X177453300Y-129745000D01*
X176426000Y-129745000D02*
X175398700Y-129745000D01*
X173895000Y-129554000D02*
X175207700Y-129554000D01*
X175207700Y-129554000D02*
X175398700Y-129745000D01*
X168148000Y-138802000D02*
X168760000Y-139414000D01*
X168760000Y-139414000D02*
X171194000Y-139414000D01*
D21*
X170053200Y-142614000D02*
X168984800Y-143682400D01*
X168984800Y-143682400D02*
X160823500Y-143682400D01*
X160823500Y-143682400D02*
X160559100Y-143418000D01*
X160559100Y-143418000D02*
X160559100Y-141962500D01*
X160559100Y-141962500D02*
X164686500Y-137835100D01*
X164686500Y-137835100D02*
X168983700Y-137835100D01*
X168983700Y-137835100D02*
X169762600Y-138614000D01*
X169762600Y-138614000D02*
X171194000Y-138614000D01*
X171194000Y-138614000D02*
X172334800Y-138614000D01*
X169291000Y-122555500D02*
X168006600Y-121271100D01*
X168006600Y-121271100D02*
X168006600Y-118852800D01*
X168006600Y-118852800D02*
X171907800Y-114951600D01*
X171907800Y-114951600D02*
X185159400Y-114951600D01*
X185159400Y-114951600D02*
X186781600Y-116573800D01*
X186781600Y-116573800D02*
X186781600Y-135671400D01*
X186781600Y-135671400D02*
X185674000Y-136779000D01*
X169291000Y-122555500D02*
X167354000Y-124492500D01*
X167354000Y-124492500D02*
X167354000Y-131554000D01*
X167354000Y-131554000D02*
X163068000Y-131554000D01*
X163068000Y-131554000D02*
X162941000Y-131681000D01*
X185674000Y-136779000D02*
X185109000Y-136214000D01*
X185109000Y-136214000D02*
X182594000Y-136214000D01*
X181737000Y-147447000D02*
X184573700Y-147447000D01*
X184573700Y-147447000D02*
X186312000Y-145708700D01*
X186312000Y-145708700D02*
X186312000Y-137417000D01*
X186312000Y-137417000D02*
X185674000Y-136779000D01*
X174494000Y-134854800D02*
X174494000Y-136454800D01*
X174494000Y-136454800D02*
X172334800Y-138614000D01*
X174494000Y-133714000D02*
X174494000Y-134854800D01*
X172334800Y-142614000D02*
X172334800Y-143414000D01*
X172334800Y-143414000D02*
X172894000Y-143973200D01*
X172203500Y-147414500D02*
X173457900Y-148669000D01*
X173457900Y-148669000D02*
X180515000Y-148669000D01*
X180515000Y-148669000D02*
X181737000Y-147447000D01*
X172894000Y-145114000D02*
X172894000Y-143973200D01*
X171194000Y-142614000D02*
X172334800Y-142614000D01*
X170769000Y-142614000D02*
X171194000Y-142614000D01*
X170769000Y-142614000D02*
X170053200Y-142614000D01*
X172203500Y-147414500D02*
X172894000Y-146724000D01*
X172894000Y-146724000D02*
X172894000Y-145114000D01*
X172044000Y-147574000D02*
X172203500Y-147414500D01*
X181737000Y-147447000D02*
X180894000Y-146604000D01*
X180894000Y-146604000D02*
X180894000Y-145114000D01*
D22*
X172599000Y-137201700D02*
X172599000Y-137486300D01*
X172599000Y-137486300D02*
X172271300Y-137814000D01*
X161163000Y-113381000D02*
X161163000Y-114548500D01*
X161163000Y-114548500D02*
X167200200Y-120585700D01*
X158750000Y-113381000D02*
X161163000Y-113381000D01*
X171194000Y-137814000D02*
X172271300Y-137814000D01*
X117738000Y-118944000D02*
X119228400Y-119046800D01*
X158750000Y-116681000D02*
X150033400Y-116681000D01*
X150033400Y-116681000D02*
X142945600Y-123768800D01*
X142945600Y-123768800D02*
X139923500Y-123768800D01*
X139923500Y-123768800D02*
X137967300Y-121812600D01*
X137967300Y-121812600D02*
X125986100Y-121812600D01*
X125986100Y-121812600D02*
X123220200Y-119046700D01*
X123220200Y-119046700D02*
X119228400Y-119046700D01*
X119228400Y-119046700D02*
X119228400Y-119046800D01*
X117158000Y-118904000D02*
X117698000Y-118904000D01*
X117698000Y-118904000D02*
X117738000Y-118944000D01*
X161163000Y-118111000D02*
X162339600Y-118111000D01*
X162339600Y-118111000D02*
X167460800Y-123232200D01*
X161163000Y-118111000D02*
X160235700Y-118111000D01*
X158750000Y-118110000D02*
X160234700Y-118110000D01*
X160234700Y-118110000D02*
X160235700Y-118111000D01*
X171194000Y-137014000D02*
X170116700Y-137014000D01*
X169182700Y-136992800D02*
X170095500Y-136992800D01*
X170095500Y-136992800D02*
X170116700Y-137014000D01*
X117158000Y-137954000D02*
X117698000Y-137954000D01*
X117698000Y-137954000D02*
X117738000Y-137994000D01*
X117738000Y-137994000D02*
X119228400Y-138096800D01*
X158750000Y-121410000D02*
X149932600Y-121410000D01*
X149932600Y-121410000D02*
X133348600Y-137994000D01*
X133348600Y-137994000D02*
X119331100Y-137994000D01*
X119331100Y-137994000D02*
X119228400Y-138096700D01*
X119228400Y-138096700D02*
X119228400Y-138096800D01*
X136788000Y-118944000D02*
X138278400Y-119046800D01*
X161163000Y-116681000D02*
X161163000Y-115903700D01*
X161163000Y-115903700D02*
X143545400Y-115903700D01*
X143545400Y-115903700D02*
X140505100Y-118944000D01*
X140505100Y-118944000D02*
X138381100Y-118944000D01*
X138381100Y-118944000D02*
X138278400Y-119046700D01*
X138278400Y-119046700D02*
X138278400Y-119046800D01*
X136208000Y-118904000D02*
X136248000Y-118944000D01*
X136248000Y-118944000D02*
X136788000Y-118944000D01*
X161163000Y-121411000D02*
X161163000Y-122188300D01*
X136788000Y-137954000D02*
X136208000Y-137954000D01*
X161163000Y-122188300D02*
X152553700Y-122188300D01*
X152553700Y-122188300D02*
X136788000Y-137954000D01*
X136788000Y-137954000D02*
X136788000Y-137994000D01*
D21*
X169291000Y-119580500D02*
X176488250Y-119580500D01*
X182644000Y-118256000D02*
X184150000Y-118256000D01*
X177513180Y-118256000D02*
X182644000Y-118256000D01*
X176488250Y-119280930D02*
X177513180Y-118256000D01*
X176488250Y-119580500D02*
X176488250Y-119280930D01*
D22*
X119698000Y-144304000D02*
X120803200Y-145295700D01*
X120803200Y-145295700D02*
X121732900Y-144366000D01*
X121732900Y-144366000D02*
X135475000Y-144366000D01*
X135475000Y-144366000D02*
X138867500Y-147758500D01*
X138867500Y-147758500D02*
X156829200Y-147758500D01*
X156829200Y-147758500D02*
X158539000Y-146048700D01*
X158539000Y-146048700D02*
X158539000Y-143233500D01*
X158539000Y-143233500D02*
X165558500Y-136214000D01*
X165558500Y-136214000D02*
X171194000Y-136214000D01*
X171194000Y-135414000D02*
X165715800Y-135414000D01*
X165715800Y-135414000D02*
X158084600Y-143045200D01*
X158084600Y-143045200D02*
X158084600Y-143053700D01*
X158084600Y-143053700D02*
X157630400Y-143507900D01*
X157630400Y-143507900D02*
X157630400Y-146314600D01*
X157630400Y-146314600D02*
X156682600Y-147262400D01*
X156682600Y-147262400D02*
X153553900Y-147262400D01*
X153553900Y-147262400D02*
X153067900Y-146776400D01*
X153067900Y-146776400D02*
X140768700Y-146776400D01*
X140768700Y-146776400D02*
X139853200Y-145860900D01*
X139853200Y-145860900D02*
X139853200Y-145295700D01*
X138748000Y-144304000D02*
X139853200Y-145295700D01*
X137288000Y-123944000D02*
X138598000Y-125254000D01*
X138598000Y-125254000D02*
X138748000Y-125254000D01*
X184150000Y-119056000D02*
X185602300Y-119056000D01*
X184143500Y-119062500D02*
X184150000Y-119056000D01*
X182771000Y-119056000D02*
X184150000Y-119056000D01*
X181019000Y-119056000D02*
X182771000Y-119056000D01*
X180475000Y-119600000D02*
X181019000Y-119056000D01*
X179900000Y-119600000D02*
X180475000Y-119600000D01*
X172564000Y-141814000D02*
X172669486Y-141814000D01*
X171194000Y-141814000D02*
X172669486Y-141814000D01*
X172669486Y-141814000D02*
X172903500Y-142048014D01*
X171194000Y-141814000D02*
X172697147Y-141814000D01*
X172697147Y-141814000D02*
X172903500Y-142020353D01*
X182419000Y-119856000D02*
X182771000Y-119856000D01*
X182771000Y-119856000D02*
X184150000Y-119856000D01*
X180475000Y-121800000D02*
X182419000Y-119856000D01*
X179900000Y-121800000D02*
X180475000Y-121800000D01*
X155650000Y-146376000D02*
X156877300Y-146376000D01*
X164001300Y-134791300D02*
X173694000Y-134791300D01*
X162941000Y-133731000D02*
X164001300Y-134791300D01*
X156877300Y-146376000D02*
X156877300Y-141915300D01*
X156877300Y-141915300D02*
X164001300Y-134791300D01*
X173694000Y-133714000D02*
X173694000Y-134791300D01*
X185166000Y-143111000D02*
X184863000Y-143414000D01*
X184863000Y-143414000D02*
X182594000Y-143414000D01*
X171194000Y-141014000D02*
X172685864Y-141014000D01*
X172685864Y-141014000D02*
X172710932Y-141039068D01*
G36*
X182666626Y-115548930D02*
G01*
X182557333Y-115753403D01*
X182490031Y-115975268D01*
X182467306Y-116206000D01*
X182490031Y-116436732D01*
X182557333Y-116658597D01*
X182666626Y-116863070D01*
X182813709Y-117042291D01*
X182992930Y-117189374D01*
X183197403Y-117298667D01*
X183419268Y-117365969D01*
X183592188Y-117383000D01*
X184707812Y-117383000D01*
X184880732Y-117365969D01*
X185102597Y-117298667D01*
X185307070Y-117189374D01*
X185486291Y-117042291D01*
X185633374Y-116863070D01*
X185742667Y-116658597D01*
X185809969Y-116436732D01*
X185819178Y-116343233D01*
X186264100Y-116788156D01*
X186264101Y-135457043D01*
X185845727Y-135875418D01*
X185502273Y-135875418D01*
X185492903Y-135866048D01*
X185476698Y-135846302D01*
X185397898Y-135781633D01*
X185307997Y-135733580D01*
X185210448Y-135703989D01*
X185134413Y-135696500D01*
X185109000Y-135693997D01*
X185083587Y-135696500D01*
X183563966Y-135696500D01*
X183526550Y-135665794D01*
X183469743Y-135635430D01*
X183408103Y-135616732D01*
X183344000Y-135610418D01*
X181844000Y-135610418D01*
X181779897Y-135616732D01*
X181718257Y-135635430D01*
X181661450Y-135665794D01*
X181611657Y-135706657D01*
X181570794Y-135756450D01*
X181540430Y-135813257D01*
X181521732Y-135874897D01*
X181515418Y-135939000D01*
X181515418Y-136489000D01*
X181521732Y-136553103D01*
X181540205Y-136614000D01*
X181521732Y-136674897D01*
X181515418Y-136739000D01*
X181515418Y-137289000D01*
X181521732Y-137353103D01*
X181540205Y-137414000D01*
X181521732Y-137474897D01*
X181515418Y-137539000D01*
X181515418Y-138089000D01*
X181521732Y-138153103D01*
X181540205Y-138214000D01*
X181521732Y-138274897D01*
X181515418Y-138339000D01*
X181515418Y-138889000D01*
X181521732Y-138953103D01*
X181540205Y-139014000D01*
X181521732Y-139074897D01*
X181515418Y-139139000D01*
X181515418Y-139689000D01*
X181521732Y-139753103D01*
X181540205Y-139814000D01*
X181521732Y-139874897D01*
X181515418Y-139939000D01*
X181515418Y-140489000D01*
X181521732Y-140553103D01*
X181540205Y-140614000D01*
X181521732Y-140674897D01*
X181515418Y-140739000D01*
X181515418Y-141289000D01*
X181521732Y-141353103D01*
X181540205Y-141414000D01*
X181521732Y-141474897D01*
X181515418Y-141539000D01*
X181515418Y-142089000D01*
X181521732Y-142153103D01*
X181540205Y-142214000D01*
X181521732Y-142274897D01*
X181515418Y-142339000D01*
X181515418Y-142889000D01*
X181521732Y-142953103D01*
X181540205Y-143014000D01*
X181521732Y-143074897D01*
X181515418Y-143139000D01*
X181515418Y-143689000D01*
X181521732Y-143753103D01*
X181540430Y-143814743D01*
X181570794Y-143871550D01*
X181611657Y-143921343D01*
X181661450Y-143962206D01*
X181718257Y-143992570D01*
X181779897Y-144011268D01*
X181844000Y-144017582D01*
X183344000Y-144017582D01*
X183408103Y-144011268D01*
X183469743Y-143992570D01*
X183526550Y-143962206D01*
X183576343Y-143921343D01*
X183617206Y-143871550D01*
X183619104Y-143868000D01*
X184334760Y-143868000D01*
X184394557Y-143917074D01*
X184494586Y-143970540D01*
X184603123Y-144003465D01*
X184715999Y-144014582D01*
X185616001Y-144014582D01*
X185728877Y-144003465D01*
X185794500Y-143983558D01*
X185794500Y-145494344D01*
X184359345Y-146929500D01*
X182633934Y-146929500D01*
X182629465Y-146884123D01*
X182596540Y-146775586D01*
X182543074Y-146675557D01*
X182471120Y-146587880D01*
X182383443Y-146515926D01*
X182283414Y-146462460D01*
X182174877Y-146429535D01*
X182062001Y-146418418D01*
X181440273Y-146418418D01*
X181411500Y-146389645D01*
X181411500Y-146083966D01*
X181442206Y-146046550D01*
X181472570Y-145989743D01*
X181491268Y-145928103D01*
X181497582Y-145864000D01*
X181497582Y-144364000D01*
X181491268Y-144299897D01*
X181472570Y-144238257D01*
X181442206Y-144181450D01*
X181401343Y-144131657D01*
X181351550Y-144090794D01*
X181294743Y-144060430D01*
X181233103Y-144041732D01*
X181169000Y-144035418D01*
X180619000Y-144035418D01*
X180554897Y-144041732D01*
X180493257Y-144060430D01*
X180436450Y-144090794D01*
X180386657Y-144131657D01*
X180345794Y-144181450D01*
X180315430Y-144238257D01*
X180296732Y-144299897D01*
X180290418Y-144364000D01*
X180290418Y-145864000D01*
X180296732Y-145928103D01*
X180315430Y-145989743D01*
X180345794Y-146046550D01*
X180376500Y-146083967D01*
X180376500Y-146578587D01*
X180373997Y-146604000D01*
X180376500Y-146629412D01*
X180383989Y-146705447D01*
X180413580Y-146802996D01*
X180461633Y-146892898D01*
X180526302Y-146971698D01*
X180546048Y-146987903D01*
X180833418Y-147275273D01*
X180833418Y-147618726D01*
X180300645Y-148151500D01*
X173672267Y-148151500D01*
X172947582Y-147426757D01*
X172947582Y-147402274D01*
X173241957Y-147107899D01*
X173261698Y-147091698D01*
X173326367Y-147012898D01*
X173374420Y-146922997D01*
X173404011Y-146825448D01*
X173411500Y-146749413D01*
X173411500Y-146749412D01*
X173414003Y-146724001D01*
X173411500Y-146698588D01*
X173411500Y-146083966D01*
X173442206Y-146046550D01*
X173472570Y-145989743D01*
X173491268Y-145928103D01*
X173497582Y-145864000D01*
X173497582Y-144364000D01*
X173890418Y-144364000D01*
X173890418Y-145864000D01*
X173896732Y-145928103D01*
X173915430Y-145989743D01*
X173945794Y-146046550D01*
X173986657Y-146096343D01*
X174036450Y-146137206D01*
X174093257Y-146167570D01*
X174154897Y-146186268D01*
X174219000Y-146192582D01*
X174769000Y-146192582D01*
X174833103Y-146186268D01*
X174894000Y-146167795D01*
X174954897Y-146186268D01*
X175019000Y-146192582D01*
X175569000Y-146192582D01*
X175633103Y-146186268D01*
X175694000Y-146167795D01*
X175754897Y-146186268D01*
X175819000Y-146192582D01*
X176369000Y-146192582D01*
X176433103Y-146186268D01*
X176494000Y-146167795D01*
X176554897Y-146186268D01*
X176619000Y-146192582D01*
X177169000Y-146192582D01*
X177233103Y-146186268D01*
X177294000Y-146167795D01*
X177354897Y-146186268D01*
X177419000Y-146192582D01*
X177969000Y-146192582D01*
X178033103Y-146186268D01*
X178094000Y-146167795D01*
X178154897Y-146186268D01*
X178219000Y-146192582D01*
X178769000Y-146192582D01*
X178833103Y-146186268D01*
X178894000Y-146167795D01*
X178954897Y-146186268D01*
X179019000Y-146192582D01*
X179569000Y-146192582D01*
X179633103Y-146186268D01*
X179694743Y-146167570D01*
X179751550Y-146137206D01*
X179801343Y-146096343D01*
X179842206Y-146046550D01*
X179872570Y-145989743D01*
X179891268Y-145928103D01*
X179897582Y-145864000D01*
X179897582Y-144364000D01*
X179891268Y-144299897D01*
X179872570Y-144238257D01*
X179842206Y-144181450D01*
X179801343Y-144131657D01*
X179751550Y-144090794D01*
X179694743Y-144060430D01*
X179633103Y-144041732D01*
X179569000Y-144035418D01*
X179019000Y-144035418D01*
X178954897Y-144041732D01*
X178894000Y-144060205D01*
X178833103Y-144041732D01*
X178769000Y-144035418D01*
X178219000Y-144035418D01*
X178154897Y-144041732D01*
X178094000Y-144060205D01*
X178033103Y-144041732D01*
X177969000Y-144035418D01*
X177419000Y-144035418D01*
X177354897Y-144041732D01*
X177294000Y-144060205D01*
X177233103Y-144041732D01*
X177169000Y-144035418D01*
X176619000Y-144035418D01*
X176554897Y-144041732D01*
X176494000Y-144060205D01*
X176433103Y-144041732D01*
X176369000Y-144035418D01*
X175819000Y-144035418D01*
X175754897Y-144041732D01*
X175694000Y-144060205D01*
X175633103Y-144041732D01*
X175569000Y-144035418D01*
X175019000Y-144035418D01*
X174954897Y-144041732D01*
X174894000Y-144060205D01*
X174833103Y-144041732D01*
X174769000Y-144035418D01*
X174219000Y-144035418D01*
X174154897Y-144041732D01*
X174093257Y-144060430D01*
X174036450Y-144090794D01*
X173986657Y-144131657D01*
X173945794Y-144181450D01*
X173915430Y-144238257D01*
X173896732Y-144299897D01*
X173890418Y-144364000D01*
X173497582Y-144364000D01*
X173491268Y-144299897D01*
X173472570Y-144238257D01*
X173442206Y-144181450D01*
X173411500Y-144144034D01*
X173411500Y-143998612D01*
X173414003Y-143973199D01*
X173404011Y-143871751D01*
X173374420Y-143774203D01*
X173367875Y-143761958D01*
X173326367Y-143684302D01*
X173261698Y-143605502D01*
X173241957Y-143589301D01*
X172852300Y-143199645D01*
X172852300Y-142747353D01*
X172975103Y-142747353D01*
X173115558Y-142719415D01*
X173247864Y-142664612D01*
X173366936Y-142585051D01*
X173468198Y-142483789D01*
X173547759Y-142364717D01*
X173602562Y-142232411D01*
X173630500Y-142091956D01*
X173630500Y-141948750D01*
X173602562Y-141808295D01*
X173547759Y-141675989D01*
X173468198Y-141556917D01*
X173366936Y-141455655D01*
X173325454Y-141427937D01*
X173355191Y-141383432D01*
X173409994Y-141251126D01*
X173437932Y-141110671D01*
X173437932Y-140967465D01*
X173409994Y-140827010D01*
X173355191Y-140694704D01*
X173275630Y-140575632D01*
X173174368Y-140474370D01*
X173055296Y-140394809D01*
X172922990Y-140340006D01*
X172782535Y-140312068D01*
X172639329Y-140312068D01*
X172498874Y-140340006D01*
X172366568Y-140394809D01*
X172247496Y-140474370D01*
X172193862Y-140528004D01*
X172176343Y-140506657D01*
X172126550Y-140465794D01*
X172069743Y-140435430D01*
X172008103Y-140416732D01*
X171944000Y-140410418D01*
X170444000Y-140410418D01*
X170379897Y-140416732D01*
X170318257Y-140435430D01*
X170261450Y-140465794D01*
X170211657Y-140506657D01*
X170170794Y-140556450D01*
X170140430Y-140613257D01*
X170121732Y-140674897D01*
X170115418Y-140739000D01*
X170115418Y-141289000D01*
X170121732Y-141353103D01*
X170140205Y-141414000D01*
X170121732Y-141474897D01*
X170115418Y-141539000D01*
X170115418Y-142089000D01*
X170116157Y-142096500D01*
X170078613Y-142096500D01*
X170053200Y-142093997D01*
X170027787Y-142096500D01*
X169951752Y-142103989D01*
X169854203Y-142133580D01*
X169764302Y-142181633D01*
X169685502Y-142246302D01*
X169669297Y-142266048D01*
X168770445Y-143164900D01*
X165227000Y-143164900D01*
X165227000Y-138352600D01*
X167134031Y-138352600D01*
X167130535Y-138364123D01*
X167119418Y-138476999D01*
X167119418Y-139127001D01*
X167130535Y-139239877D01*
X167163460Y-139348414D01*
X167216926Y-139448443D01*
X167288880Y-139536120D01*
X167376557Y-139608074D01*
X167476586Y-139661540D01*
X167585123Y-139694465D01*
X167697999Y-139705582D01*
X168409529Y-139705582D01*
X168423210Y-139719263D01*
X168437421Y-139736579D01*
X168506551Y-139793313D01*
X168585421Y-139835470D01*
X168671000Y-139861430D01*
X168679421Y-139862259D01*
X168737705Y-139868000D01*
X168737712Y-139868000D01*
X168760000Y-139870195D01*
X168782288Y-139868000D01*
X170168896Y-139868000D01*
X170170794Y-139871550D01*
X170211657Y-139921343D01*
X170261450Y-139962206D01*
X170318257Y-139992570D01*
X170379897Y-140011268D01*
X170444000Y-140017582D01*
X171944000Y-140017582D01*
X172008103Y-140011268D01*
X172069743Y-139992570D01*
X172126550Y-139962206D01*
X172176343Y-139921343D01*
X172217206Y-139871550D01*
X172247570Y-139814743D01*
X172266268Y-139753103D01*
X172272582Y-139689000D01*
X172272582Y-139139000D01*
X172271843Y-139131500D01*
X172309387Y-139131500D01*
X172334800Y-139134003D01*
X172360213Y-139131500D01*
X172436248Y-139124011D01*
X172533797Y-139094420D01*
X172623698Y-139046367D01*
X172702498Y-138981698D01*
X172718703Y-138961952D01*
X174841957Y-136838699D01*
X174861698Y-136822498D01*
X174926367Y-136743698D01*
X174974420Y-136653797D01*
X175004011Y-136556248D01*
X175011500Y-136480213D01*
X175014003Y-136454800D01*
X175011500Y-136429387D01*
X175011500Y-134683966D01*
X175042206Y-134646550D01*
X175072570Y-134589743D01*
X175091268Y-134528103D01*
X175097582Y-134464000D01*
X175097582Y-132964000D01*
X175091268Y-132899897D01*
X175072570Y-132838257D01*
X175042206Y-132781450D01*
X175001343Y-132731657D01*
X174951550Y-132690794D01*
X174894743Y-132660430D01*
X174833103Y-132641732D01*
X174769000Y-132635418D01*
X174219000Y-132635418D01*
X174154897Y-132641732D01*
X174094000Y-132660205D01*
X174033103Y-132641732D01*
X173969000Y-132635418D01*
X173419000Y-132635418D01*
X173354897Y-132641732D01*
X173294000Y-132660205D01*
X173233103Y-132641732D01*
X173169000Y-132635418D01*
X172619000Y-132635418D01*
X172554897Y-132641732D01*
X172493257Y-132660430D01*
X172436450Y-132690794D01*
X172386657Y-132731657D01*
X172345794Y-132781450D01*
X172315430Y-132838257D01*
X172296732Y-132899897D01*
X172290418Y-132964000D01*
X172290418Y-134337300D01*
X165227000Y-134337300D01*
X165227000Y-132071500D01*
X166360689Y-132071500D01*
X166369460Y-132100414D01*
X166422926Y-132200443D01*
X166494880Y-132288120D01*
X166582557Y-132360074D01*
X166682586Y-132413540D01*
X166791123Y-132446465D01*
X166903999Y-132457582D01*
X167804001Y-132457582D01*
X167916877Y-132446465D01*
X168025414Y-132413540D01*
X168125443Y-132360074D01*
X168213120Y-132288120D01*
X168285074Y-132200443D01*
X168338540Y-132100414D01*
X168371465Y-131991877D01*
X168382582Y-131879001D01*
X168382582Y-131228999D01*
X168371465Y-131116123D01*
X168338540Y-131007586D01*
X168285074Y-130907557D01*
X168213120Y-130819880D01*
X168125443Y-130747926D01*
X168025414Y-130694460D01*
X167916877Y-130661535D01*
X167871500Y-130657066D01*
X167871500Y-129228999D01*
X172866418Y-129228999D01*
X172866418Y-129879001D01*
X172877535Y-129991877D01*
X172910460Y-130100414D01*
X172963926Y-130200443D01*
X173035880Y-130288120D01*
X173123557Y-130360074D01*
X173223586Y-130413540D01*
X173332123Y-130446465D01*
X173444999Y-130457582D01*
X174345001Y-130457582D01*
X174457877Y-130446465D01*
X174566414Y-130413540D01*
X174666443Y-130360074D01*
X174754120Y-130288120D01*
X174826074Y-130200443D01*
X174879540Y-130100414D01*
X174907574Y-130008000D01*
X175019648Y-130008000D01*
X175061905Y-130050257D01*
X175076121Y-130067579D01*
X175145251Y-130124313D01*
X175224121Y-130166470D01*
X175309700Y-130192430D01*
X175318121Y-130193259D01*
X175376405Y-130199000D01*
X175376412Y-130199000D01*
X175397418Y-130201069D01*
X175397418Y-130345000D01*
X175403732Y-130409103D01*
X175422430Y-130470743D01*
X175452794Y-130527550D01*
X175493657Y-130577343D01*
X175543450Y-130618206D01*
X175600257Y-130648570D01*
X175661897Y-130667268D01*
X175726000Y-130673582D01*
X176999301Y-130673582D01*
X176999300Y-132000447D01*
X176817048Y-132182700D01*
X176116295Y-132182700D01*
X176094000Y-132180504D01*
X176071705Y-132182700D01*
X176005001Y-132189270D01*
X175919421Y-132215230D01*
X175840551Y-132257387D01*
X175771421Y-132314121D01*
X175714687Y-132383251D01*
X175672530Y-132462121D01*
X175646570Y-132547701D01*
X175637804Y-132636700D01*
X175640001Y-132659005D01*
X175640001Y-132688896D01*
X175636450Y-132690794D01*
X175586657Y-132731657D01*
X175545794Y-132781450D01*
X175515430Y-132838257D01*
X175496732Y-132899897D01*
X175490418Y-132964000D01*
X175490418Y-134464000D01*
X175496732Y-134528103D01*
X175515430Y-134589743D01*
X175545794Y-134646550D01*
X175586657Y-134696343D01*
X175636450Y-134737206D01*
X175693257Y-134767570D01*
X175754897Y-134786268D01*
X175819000Y-134792582D01*
X176369000Y-134792582D01*
X176433103Y-134786268D01*
X176438460Y-134784643D01*
X176437804Y-134791300D01*
X176446570Y-134880299D01*
X176472530Y-134965879D01*
X176514687Y-135044749D01*
X176571421Y-135113879D01*
X176640551Y-135170613D01*
X176719421Y-135212770D01*
X176805001Y-135238730D01*
X176871705Y-135245300D01*
X176894000Y-135247496D01*
X176916295Y-135245300D01*
X181282312Y-135245300D01*
X181304600Y-135247495D01*
X181326888Y-135245300D01*
X181326895Y-135245300D01*
X181393599Y-135238730D01*
X181479179Y-135212770D01*
X181558049Y-135170613D01*
X181627179Y-135113879D01*
X181641395Y-135096557D01*
X181811759Y-134926193D01*
X181829079Y-134911979D01*
X181885813Y-134842849D01*
X181927970Y-134763979D01*
X181953930Y-134678399D01*
X181960500Y-134611695D01*
X181960500Y-134611688D01*
X181962695Y-134589400D01*
X181960500Y-134567112D01*
X181960500Y-132364890D01*
X181993120Y-132338120D01*
X182065074Y-132250443D01*
X182118540Y-132150414D01*
X182151465Y-132041877D01*
X182162582Y-131929001D01*
X182162582Y-131278999D01*
X182151465Y-131166123D01*
X182118540Y-131057586D01*
X182065074Y-130957557D01*
X181993120Y-130869880D01*
X181905443Y-130797926D01*
X181805414Y-130744460D01*
X181696877Y-130711535D01*
X181584001Y-130700418D01*
X180683999Y-130700418D01*
X180571123Y-130711535D01*
X180462586Y-130744460D01*
X180362557Y-130797926D01*
X180274880Y-130869880D01*
X180202926Y-130957557D01*
X180149460Y-131057586D01*
X180121426Y-131150000D01*
X180000352Y-131150000D01*
X179990095Y-131139743D01*
X179975879Y-131122421D01*
X179906749Y-131065687D01*
X179827879Y-131023530D01*
X179742299Y-130997570D01*
X179675595Y-130991000D01*
X179675588Y-130991000D01*
X179654582Y-130988931D01*
X179654582Y-130845000D01*
X179648268Y-130780897D01*
X179629570Y-130719257D01*
X179599206Y-130662450D01*
X179558343Y-130612657D01*
X179508550Y-130571794D01*
X179451743Y-130541430D01*
X179390103Y-130522732D01*
X179326000Y-130516418D01*
X177926000Y-130516418D01*
X177907300Y-130518260D01*
X177907300Y-129767295D01*
X177909496Y-129745000D01*
X177900730Y-129656001D01*
X177874770Y-129570421D01*
X177832613Y-129491551D01*
X177775879Y-129422421D01*
X177706749Y-129365687D01*
X177627879Y-129323530D01*
X177542299Y-129297570D01*
X177475595Y-129291000D01*
X177454582Y-129288930D01*
X177454582Y-129145000D01*
X177448268Y-129080897D01*
X177429570Y-129019257D01*
X177399206Y-128962450D01*
X177358343Y-128912657D01*
X177308550Y-128871794D01*
X177251743Y-128841430D01*
X177190103Y-128822732D01*
X177126000Y-128816418D01*
X175726000Y-128816418D01*
X175661897Y-128822732D01*
X175600257Y-128841430D01*
X175543450Y-128871794D01*
X175493657Y-128912657D01*
X175452794Y-128962450D01*
X175422430Y-129019257D01*
X175403732Y-129080897D01*
X175397828Y-129140841D01*
X175382279Y-129132530D01*
X175296699Y-129106570D01*
X175229995Y-129100000D01*
X175229988Y-129100000D01*
X175207700Y-129097805D01*
X175185412Y-129100000D01*
X174907574Y-129100000D01*
X174879540Y-129007586D01*
X174826074Y-128907557D01*
X174754120Y-128819880D01*
X174666443Y-128747926D01*
X174566414Y-128694460D01*
X174457877Y-128661535D01*
X174345001Y-128650418D01*
X173444999Y-128650418D01*
X173332123Y-128661535D01*
X173223586Y-128694460D01*
X173123557Y-128747926D01*
X173035880Y-128819880D01*
X172963926Y-128907557D01*
X172910460Y-129007586D01*
X172877535Y-129116123D01*
X172866418Y-129228999D01*
X167871500Y-129228999D01*
X167871500Y-124706855D01*
X168981773Y-123596582D01*
X169916000Y-123596582D01*
X170028876Y-123585465D01*
X170137414Y-123552540D01*
X170224483Y-123506000D01*
X182467306Y-123506000D01*
X182490031Y-123736732D01*
X182557333Y-123958597D01*
X182666626Y-124163070D01*
X182813709Y-124342291D01*
X182992930Y-124489374D01*
X183197403Y-124598667D01*
X183419268Y-124665969D01*
X183592188Y-124683000D01*
X184707812Y-124683000D01*
X184880732Y-124665969D01*
X185102597Y-124598667D01*
X185307070Y-124489374D01*
X185486291Y-124342291D01*
X185633374Y-124163070D01*
X185742667Y-123958597D01*
X185809969Y-123736732D01*
X185832694Y-123506000D01*
X185809969Y-123275268D01*
X185742667Y-123053403D01*
X185633374Y-122848930D01*
X185486291Y-122669709D01*
X185307070Y-122522626D01*
X185102597Y-122413333D01*
X184880732Y-122346031D01*
X184707812Y-122329000D01*
X183592188Y-122329000D01*
X183419268Y-122346031D01*
X183197403Y-122413333D01*
X182992930Y-122522626D01*
X182813709Y-122669709D01*
X182666626Y-122848930D01*
X182557333Y-123053403D01*
X182490031Y-123275268D01*
X182467306Y-123506000D01*
X170224483Y-123506000D01*
X170237443Y-123499073D01*
X170325119Y-123427119D01*
X170397073Y-123339443D01*
X170450540Y-123239414D01*
X170483465Y-123130876D01*
X170494582Y-123018000D01*
X170494582Y-122093000D01*
X170483465Y-121980124D01*
X170450540Y-121871586D01*
X170397073Y-121771557D01*
X170325119Y-121683881D01*
X170237443Y-121611927D01*
X170137414Y-121558460D01*
X170028876Y-121525535D01*
X169916000Y-121514418D01*
X168981773Y-121514418D01*
X168817354Y-121349999D01*
X176946418Y-121349999D01*
X176946418Y-122250001D01*
X176957535Y-122362877D01*
X176990460Y-122471414D01*
X177043926Y-122571443D01*
X177115880Y-122659120D01*
X177203557Y-122731074D01*
X177303586Y-122784540D01*
X177412123Y-122817465D01*
X177524999Y-122828582D01*
X178175001Y-122828582D01*
X178287877Y-122817465D01*
X178396414Y-122784540D01*
X178496443Y-122731074D01*
X178584120Y-122659120D01*
X178656074Y-122571443D01*
X178709540Y-122471414D01*
X178742465Y-122362877D01*
X178753582Y-122250001D01*
X178753582Y-121349999D01*
X178742465Y-121237123D01*
X178709540Y-121128586D01*
X178656074Y-121028557D01*
X178584120Y-120940880D01*
X178496443Y-120868926D01*
X178396414Y-120815460D01*
X178287877Y-120782535D01*
X178175001Y-120771418D01*
X177524999Y-120771418D01*
X177412123Y-120782535D01*
X177303586Y-120815460D01*
X177203557Y-120868926D01*
X177115880Y-120940880D01*
X177043926Y-121028557D01*
X176990460Y-121128586D01*
X176957535Y-121237123D01*
X176946418Y-121349999D01*
X168817354Y-121349999D01*
X168524100Y-121056745D01*
X168524100Y-120601661D01*
X168553124Y-120610465D01*
X168666000Y-120621582D01*
X169916000Y-120621582D01*
X170028876Y-120610465D01*
X170137414Y-120577540D01*
X170237443Y-120524073D01*
X170325119Y-120452119D01*
X170397073Y-120364443D01*
X170450540Y-120264414D01*
X170483465Y-120155876D01*
X170489165Y-120098000D01*
X176462837Y-120098000D01*
X176488250Y-120100503D01*
X176513663Y-120098000D01*
X176589698Y-120090511D01*
X176687247Y-120060920D01*
X176777148Y-120012867D01*
X176855948Y-119948198D01*
X176920617Y-119869398D01*
X176946418Y-119821128D01*
X176946418Y-120050001D01*
X176957535Y-120162877D01*
X176990460Y-120271414D01*
X177043926Y-120371443D01*
X177115880Y-120459120D01*
X177203557Y-120531074D01*
X177303586Y-120584540D01*
X177412123Y-120617465D01*
X177524999Y-120628582D01*
X178175001Y-120628582D01*
X178287877Y-120617465D01*
X178396414Y-120584540D01*
X178496443Y-120531074D01*
X178584120Y-120459120D01*
X178656074Y-120371443D01*
X178709540Y-120271414D01*
X178742465Y-120162877D01*
X178753582Y-120050001D01*
X178753582Y-119149999D01*
X178742465Y-119037123D01*
X178709540Y-118928586D01*
X178656074Y-118828557D01*
X178610890Y-118773500D01*
X179139110Y-118773500D01*
X179093926Y-118828557D01*
X179040460Y-118928586D01*
X179007535Y-119037123D01*
X178996418Y-119149999D01*
X178996418Y-120050001D01*
X179007535Y-120162877D01*
X179040460Y-120271414D01*
X179093926Y-120371443D01*
X179165880Y-120459120D01*
X179253557Y-120531074D01*
X179353586Y-120584540D01*
X179462123Y-120617465D01*
X179574999Y-120628582D01*
X180225001Y-120628582D01*
X180337877Y-120617465D01*
X180446414Y-120584540D01*
X180546443Y-120531074D01*
X180634120Y-120459120D01*
X180706074Y-120371443D01*
X180759540Y-120271414D01*
X180792465Y-120162877D01*
X180803582Y-120050001D01*
X180803582Y-119915264D01*
X180811794Y-119905258D01*
X181207053Y-119510000D01*
X182124959Y-119510000D01*
X182114365Y-119518695D01*
X182096421Y-119533421D01*
X182082210Y-119550737D01*
X180660240Y-120972708D01*
X180634120Y-120940880D01*
X180546443Y-120868926D01*
X180446414Y-120815460D01*
X180337877Y-120782535D01*
X180225001Y-120771418D01*
X179574999Y-120771418D01*
X179462123Y-120782535D01*
X179353586Y-120815460D01*
X179253557Y-120868926D01*
X179165880Y-120940880D01*
X179093926Y-121028557D01*
X179040460Y-121128586D01*
X179007535Y-121237123D01*
X178996418Y-121349999D01*
X178996418Y-122250001D01*
X179007535Y-122362877D01*
X179040460Y-122471414D01*
X179093926Y-122571443D01*
X179165880Y-122659120D01*
X179253557Y-122731074D01*
X179353586Y-122784540D01*
X179462123Y-122817465D01*
X179574999Y-122828582D01*
X180225001Y-122828582D01*
X180337877Y-122817465D01*
X180446414Y-122784540D01*
X180546443Y-122731074D01*
X180634120Y-122659120D01*
X180706074Y-122571443D01*
X180759540Y-122471414D01*
X180792465Y-122362877D01*
X180803582Y-122250001D01*
X180803582Y-122115264D01*
X180811794Y-122105258D01*
X182607053Y-120310000D01*
X182712408Y-120310000D01*
X182702732Y-120341897D01*
X182696418Y-120406000D01*
X182696418Y-120906000D01*
X182702732Y-120970103D01*
X182721430Y-121031743D01*
X182751794Y-121088550D01*
X182792657Y-121138343D01*
X182842450Y-121179206D01*
X182899257Y-121209570D01*
X182960897Y-121228268D01*
X183025000Y-121234582D01*
X185275000Y-121234582D01*
X185339103Y-121228268D01*
X185400743Y-121209570D01*
X185457550Y-121179206D01*
X185507343Y-121138343D01*
X185548206Y-121088550D01*
X185578570Y-121031743D01*
X185597268Y-120970103D01*
X185603582Y-120906000D01*
X185603582Y-120406000D01*
X185597268Y-120341897D01*
X185578570Y-120280257D01*
X185565604Y-120256000D01*
X185578570Y-120231743D01*
X185597268Y-120170103D01*
X185603582Y-120106000D01*
X185603582Y-119606000D01*
X185597268Y-119541897D01*
X185587592Y-119510000D01*
X185624595Y-119510000D01*
X185691299Y-119503430D01*
X185776879Y-119477470D01*
X185855749Y-119435313D01*
X185924879Y-119378579D01*
X185981613Y-119309449D01*
X186023770Y-119230579D01*
X186049730Y-119144999D01*
X186058496Y-119056000D01*
X186049730Y-118967001D01*
X186023770Y-118881421D01*
X185981613Y-118802551D01*
X185924879Y-118733421D01*
X185855749Y-118676687D01*
X185776879Y-118634530D01*
X185691299Y-118608570D01*
X185624595Y-118602000D01*
X185587592Y-118602000D01*
X185597268Y-118570103D01*
X185603582Y-118506000D01*
X185603582Y-118006000D01*
X185597268Y-117941897D01*
X185578570Y-117880257D01*
X185548206Y-117823450D01*
X185507343Y-117773657D01*
X185457550Y-117732794D01*
X185400743Y-117702430D01*
X185339103Y-117683732D01*
X185275000Y-117677418D01*
X183025000Y-117677418D01*
X182960897Y-117683732D01*
X182899257Y-117702430D01*
X182842450Y-117732794D01*
X182835497Y-117738500D01*
X177538593Y-117738500D01*
X177513180Y-117735997D01*
X177487767Y-117738500D01*
X177411732Y-117745989D01*
X177314183Y-117775580D01*
X177224282Y-117823633D01*
X177145482Y-117888302D01*
X177129277Y-117908048D01*
X176140293Y-118897032D01*
X176120553Y-118913232D01*
X176055884Y-118992032D01*
X176032756Y-119035302D01*
X176017951Y-119063000D01*
X170489165Y-119063000D01*
X170483465Y-119005124D01*
X170450540Y-118896586D01*
X170397073Y-118796557D01*
X170325119Y-118708881D01*
X170237443Y-118636927D01*
X170137414Y-118583460D01*
X170028876Y-118550535D01*
X169916000Y-118539418D01*
X169051837Y-118539418D01*
X172122156Y-115469100D01*
X182732141Y-115469100D01*
X182666626Y-115548930D01*
G37*
X182666626Y-115548930D02*
X182557333Y-115753403D01*
X182490031Y-115975268D01*
X182467306Y-116206000D01*
X182490031Y-116436732D01*
X182557333Y-116658597D01*
X182666626Y-116863070D01*
X182813709Y-117042291D01*
X182992930Y-117189374D01*
X183197403Y-117298667D01*
X183419268Y-117365969D01*
X183592188Y-117383000D01*
X184707812Y-117383000D01*
X184880732Y-117365969D01*
X185102597Y-117298667D01*
X185307070Y-117189374D01*
X185486291Y-117042291D01*
X185633374Y-116863070D01*
X185742667Y-116658597D01*
X185809969Y-116436732D01*
X185819178Y-116343233D01*
X186264100Y-116788156D01*
X186264101Y-135457043D01*
X185845727Y-135875418D01*
X185502273Y-135875418D01*
X185492903Y-135866048D01*
X185476698Y-135846302D01*
X185397898Y-135781633D01*
X185307997Y-135733580D01*
X185210448Y-135703989D01*
X185134413Y-135696500D01*
X185109000Y-135693997D01*
X185083587Y-135696500D01*
X183563966Y-135696500D01*
X183526550Y-135665794D01*
X183469743Y-135635430D01*
X183408103Y-135616732D01*
X183344000Y-135610418D01*
X181844000Y-135610418D01*
X181779897Y-135616732D01*
X181718257Y-135635430D01*
X181661450Y-135665794D01*
X181611657Y-135706657D01*
X181570794Y-135756450D01*
X181540430Y-135813257D01*
X181521732Y-135874897D01*
X181515418Y-135939000D01*
X181515418Y-136489000D01*
X181521732Y-136553103D01*
X181540205Y-136614000D01*
X181521732Y-136674897D01*
X181515418Y-136739000D01*
X181515418Y-137289000D01*
X181521732Y-137353103D01*
X181540205Y-137414000D01*
X181521732Y-137474897D01*
X181515418Y-137539000D01*
X181515418Y-138089000D01*
X181521732Y-138153103D01*
X181540205Y-138214000D01*
X181521732Y-138274897D01*
X181515418Y-138339000D01*
X181515418Y-138889000D01*
X181521732Y-138953103D01*
X181540205Y-139014000D01*
X181521732Y-139074897D01*
X181515418Y-139139000D01*
X181515418Y-139689000D01*
X181521732Y-139753103D01*
X181540205Y-139814000D01*
X181521732Y-139874897D01*
X181515418Y-139939000D01*
X181515418Y-140489000D01*
X181521732Y-140553103D01*
X181540205Y-140614000D01*
X181521732Y-140674897D01*
X181515418Y-140739000D01*
X181515418Y-141289000D01*
X181521732Y-141353103D01*
X181540205Y-141414000D01*
X181521732Y-141474897D01*
X181515418Y-141539000D01*
X181515418Y-142089000D01*
X181521732Y-142153103D01*
X181540205Y-142214000D01*
X181521732Y-142274897D01*
X181515418Y-142339000D01*
X181515418Y-142889000D01*
X181521732Y-142953103D01*
X181540205Y-143014000D01*
X181521732Y-143074897D01*
X181515418Y-143139000D01*
X181515418Y-143689000D01*
X181521732Y-143753103D01*
X181540430Y-143814743D01*
X181570794Y-143871550D01*
X181611657Y-143921343D01*
X181661450Y-143962206D01*
X181718257Y-143992570D01*
X181779897Y-144011268D01*
X181844000Y-144017582D01*
X183344000Y-144017582D01*
X183408103Y-144011268D01*
X183469743Y-143992570D01*
X183526550Y-143962206D01*
X183576343Y-143921343D01*
X183617206Y-143871550D01*
X183619104Y-143868000D01*
X184334760Y-143868000D01*
X184394557Y-143917074D01*
X184494586Y-143970540D01*
X184603123Y-144003465D01*
X184715999Y-144014582D01*
X185616001Y-144014582D01*
X185728877Y-144003465D01*
X185794500Y-143983558D01*
X185794500Y-145494344D01*
X184359345Y-146929500D01*
X182633934Y-146929500D01*
X182629465Y-146884123D01*
X182596540Y-146775586D01*
X182543074Y-146675557D01*
X182471120Y-146587880D01*
X182383443Y-146515926D01*
X182283414Y-146462460D01*
X182174877Y-146429535D01*
X182062001Y-146418418D01*
X181440273Y-146418418D01*
X181411500Y-146389645D01*
X181411500Y-146083966D01*
X181442206Y-146046550D01*
X181472570Y-145989743D01*
X181491268Y-145928103D01*
X181497582Y-145864000D01*
X181497582Y-144364000D01*
X181491268Y-144299897D01*
X181472570Y-144238257D01*
X181442206Y-144181450D01*
X181401343Y-144131657D01*
X181351550Y-144090794D01*
X181294743Y-144060430D01*
X181233103Y-144041732D01*
X181169000Y-144035418D01*
X180619000Y-144035418D01*
X180554897Y-144041732D01*
X180493257Y-144060430D01*
X180436450Y-144090794D01*
X180386657Y-144131657D01*
X180345794Y-144181450D01*
X180315430Y-144238257D01*
X180296732Y-144299897D01*
X180290418Y-144364000D01*
X180290418Y-145864000D01*
X180296732Y-145928103D01*
X180315430Y-145989743D01*
X180345794Y-146046550D01*
X180376500Y-146083967D01*
X180376500Y-146578587D01*
X180373997Y-146604000D01*
X180376500Y-146629412D01*
X180383989Y-146705447D01*
X180413580Y-146802996D01*
X180461633Y-146892898D01*
X180526302Y-146971698D01*
X180546048Y-146987903D01*
X180833418Y-147275273D01*
X180833418Y-147618726D01*
X180300645Y-148151500D01*
X173672267Y-148151500D01*
X172947582Y-147426757D01*
X172947582Y-147402274D01*
X173241957Y-147107899D01*
X173261698Y-147091698D01*
X173326367Y-147012898D01*
X173374420Y-146922997D01*
X173404011Y-146825448D01*
X173411500Y-146749413D01*
X173411500Y-146749412D01*
X173414003Y-146724001D01*
X173411500Y-146698588D01*
X173411500Y-146083966D01*
X173442206Y-146046550D01*
X173472570Y-145989743D01*
X173491268Y-145928103D01*
X173497582Y-145864000D01*
X173497582Y-144364000D01*
X173890418Y-144364000D01*
X173890418Y-145864000D01*
X173896732Y-145928103D01*
X173915430Y-145989743D01*
X173945794Y-146046550D01*
X173986657Y-146096343D01*
X174036450Y-146137206D01*
X174093257Y-146167570D01*
X174154897Y-146186268D01*
X174219000Y-146192582D01*
X174769000Y-146192582D01*
X174833103Y-146186268D01*
X174894000Y-146167795D01*
X174954897Y-146186268D01*
X175019000Y-146192582D01*
X175569000Y-146192582D01*
X175633103Y-146186268D01*
X175694000Y-146167795D01*
X175754897Y-146186268D01*
X175819000Y-146192582D01*
X176369000Y-146192582D01*
X176433103Y-146186268D01*
X176494000Y-146167795D01*
X176554897Y-146186268D01*
X176619000Y-146192582D01*
X177169000Y-146192582D01*
X177233103Y-146186268D01*
X177294000Y-146167795D01*
X177354897Y-146186268D01*
X177419000Y-146192582D01*
X177969000Y-146192582D01*
X178033103Y-146186268D01*
X178094000Y-146167795D01*
X178154897Y-146186268D01*
X178219000Y-146192582D01*
X178769000Y-146192582D01*
X178833103Y-146186268D01*
X178894000Y-146167795D01*
X178954897Y-146186268D01*
X179019000Y-146192582D01*
X179569000Y-146192582D01*
X179633103Y-146186268D01*
X179694743Y-146167570D01*
X179751550Y-146137206D01*
X179801343Y-146096343D01*
X179842206Y-146046550D01*
X179872570Y-145989743D01*
X179891268Y-145928103D01*
X179897582Y-145864000D01*
X179897582Y-144364000D01*
X179891268Y-144299897D01*
X179872570Y-144238257D01*
X179842206Y-144181450D01*
X179801343Y-144131657D01*
X179751550Y-144090794D01*
X179694743Y-144060430D01*
X179633103Y-144041732D01*
X179569000Y-144035418D01*
X179019000Y-144035418D01*
X178954897Y-144041732D01*
X178894000Y-144060205D01*
X178833103Y-144041732D01*
X178769000Y-144035418D01*
X178219000Y-144035418D01*
X178154897Y-144041732D01*
X178094000Y-144060205D01*
X178033103Y-144041732D01*
X177969000Y-144035418D01*
X177419000Y-144035418D01*
X177354897Y-144041732D01*
X177294000Y-144060205D01*
X177233103Y-144041732D01*
X177169000Y-144035418D01*
X176619000Y-144035418D01*
X176554897Y-144041732D01*
X176494000Y-144060205D01*
X176433103Y-144041732D01*
X176369000Y-144035418D01*
X175819000Y-144035418D01*
X175754897Y-144041732D01*
X175694000Y-144060205D01*
X175633103Y-144041732D01*
X175569000Y-144035418D01*
X175019000Y-144035418D01*
X174954897Y-144041732D01*
X174894000Y-144060205D01*
X174833103Y-144041732D01*
X174769000Y-144035418D01*
X174219000Y-144035418D01*
X174154897Y-144041732D01*
X174093257Y-144060430D01*
X174036450Y-144090794D01*
X173986657Y-144131657D01*
X173945794Y-144181450D01*
X173915430Y-144238257D01*
X173896732Y-144299897D01*
X173890418Y-144364000D01*
X173497582Y-144364000D01*
X173491268Y-144299897D01*
X173472570Y-144238257D01*
X173442206Y-144181450D01*
X173411500Y-144144034D01*
X173411500Y-143998612D01*
X173414003Y-143973199D01*
X173404011Y-143871751D01*
X173374420Y-143774203D01*
X173367875Y-143761958D01*
X173326367Y-143684302D01*
X173261698Y-143605502D01*
X173241957Y-143589301D01*
X172852300Y-143199645D01*
X172852300Y-142747353D01*
X172975103Y-142747353D01*
X173115558Y-142719415D01*
X173247864Y-142664612D01*
X173366936Y-142585051D01*
X173468198Y-142483789D01*
X173547759Y-142364717D01*
X173602562Y-142232411D01*
X173630500Y-142091956D01*
X173630500Y-141948750D01*
X173602562Y-141808295D01*
X173547759Y-141675989D01*
X173468198Y-141556917D01*
X173366936Y-141455655D01*
X173325454Y-141427937D01*
X173355191Y-141383432D01*
X173409994Y-141251126D01*
X173437932Y-141110671D01*
X173437932Y-140967465D01*
X173409994Y-140827010D01*
X173355191Y-140694704D01*
X173275630Y-140575632D01*
X173174368Y-140474370D01*
X173055296Y-140394809D01*
X172922990Y-140340006D01*
X172782535Y-140312068D01*
X172639329Y-140312068D01*
X172498874Y-140340006D01*
X172366568Y-140394809D01*
X172247496Y-140474370D01*
X172193862Y-140528004D01*
X172176343Y-140506657D01*
X172126550Y-140465794D01*
X172069743Y-140435430D01*
X172008103Y-140416732D01*
X171944000Y-140410418D01*
X170444000Y-140410418D01*
X170379897Y-140416732D01*
X170318257Y-140435430D01*
X170261450Y-140465794D01*
X170211657Y-140506657D01*
X170170794Y-140556450D01*
X170140430Y-140613257D01*
X170121732Y-140674897D01*
X170115418Y-140739000D01*
X170115418Y-141289000D01*
X170121732Y-141353103D01*
X170140205Y-141414000D01*
X170121732Y-141474897D01*
X170115418Y-141539000D01*
X170115418Y-142089000D01*
X170116157Y-142096500D01*
X170078613Y-142096500D01*
X170053200Y-142093997D01*
X170027787Y-142096500D01*
X169951752Y-142103989D01*
X169854203Y-142133580D01*
X169764302Y-142181633D01*
X169685502Y-142246302D01*
X169669297Y-142266048D01*
X168770445Y-143164900D01*
X165227000Y-143164900D01*
X165227000Y-138352600D01*
X167134031Y-138352600D01*
X167130535Y-138364123D01*
X167119418Y-138476999D01*
X167119418Y-139127001D01*
X167130535Y-139239877D01*
X167163460Y-139348414D01*
X167216926Y-139448443D01*
X167288880Y-139536120D01*
X167376557Y-139608074D01*
X167476586Y-139661540D01*
X167585123Y-139694465D01*
X167697999Y-139705582D01*
X168409529Y-139705582D01*
X168423210Y-139719263D01*
X168437421Y-139736579D01*
X168506551Y-139793313D01*
X168585421Y-139835470D01*
X168671000Y-139861430D01*
X168679421Y-139862259D01*
X168737705Y-139868000D01*
X168737712Y-139868000D01*
X168760000Y-139870195D01*
X168782288Y-139868000D01*
X170168896Y-139868000D01*
X170170794Y-139871550D01*
X170211657Y-139921343D01*
X170261450Y-139962206D01*
X170318257Y-139992570D01*
X170379897Y-140011268D01*
X170444000Y-140017582D01*
X171944000Y-140017582D01*
X172008103Y-140011268D01*
X172069743Y-139992570D01*
X172126550Y-139962206D01*
X172176343Y-139921343D01*
X172217206Y-139871550D01*
X172247570Y-139814743D01*
X172266268Y-139753103D01*
X172272582Y-139689000D01*
X172272582Y-139139000D01*
X172271843Y-139131500D01*
X172309387Y-139131500D01*
X172334800Y-139134003D01*
X172360213Y-139131500D01*
X172436248Y-139124011D01*
X172533797Y-139094420D01*
X172623698Y-139046367D01*
X172702498Y-138981698D01*
X172718703Y-138961952D01*
X174841957Y-136838699D01*
X174861698Y-136822498D01*
X174926367Y-136743698D01*
X174974420Y-136653797D01*
X175004011Y-136556248D01*
X175011500Y-136480213D01*
X175014003Y-136454800D01*
X175011500Y-136429387D01*
X175011500Y-134683966D01*
X175042206Y-134646550D01*
X175072570Y-134589743D01*
X175091268Y-134528103D01*
X175097582Y-134464000D01*
X175097582Y-132964000D01*
X175091268Y-132899897D01*
X175072570Y-132838257D01*
X175042206Y-132781450D01*
X175001343Y-132731657D01*
X174951550Y-132690794D01*
X174894743Y-132660430D01*
X174833103Y-132641732D01*
X174769000Y-132635418D01*
X174219000Y-132635418D01*
X174154897Y-132641732D01*
X174094000Y-132660205D01*
X174033103Y-132641732D01*
X173969000Y-132635418D01*
X173419000Y-132635418D01*
X173354897Y-132641732D01*
X173294000Y-132660205D01*
X173233103Y-132641732D01*
X173169000Y-132635418D01*
X172619000Y-132635418D01*
X172554897Y-132641732D01*
X172493257Y-132660430D01*
X172436450Y-132690794D01*
X172386657Y-132731657D01*
X172345794Y-132781450D01*
X172315430Y-132838257D01*
X172296732Y-132899897D01*
X172290418Y-132964000D01*
X172290418Y-134337300D01*
X165227000Y-134337300D01*
X165227000Y-132071500D01*
X166360689Y-132071500D01*
X166369460Y-132100414D01*
X166422926Y-132200443D01*
X166494880Y-132288120D01*
X166582557Y-132360074D01*
X166682586Y-132413540D01*
X166791123Y-132446465D01*
X166903999Y-132457582D01*
X167804001Y-132457582D01*
X167916877Y-132446465D01*
X168025414Y-132413540D01*
X168125443Y-132360074D01*
X168213120Y-132288120D01*
X168285074Y-132200443D01*
X168338540Y-132100414D01*
X168371465Y-131991877D01*
X168382582Y-131879001D01*
X168382582Y-131228999D01*
X168371465Y-131116123D01*
X168338540Y-131007586D01*
X168285074Y-130907557D01*
X168213120Y-130819880D01*
X168125443Y-130747926D01*
X168025414Y-130694460D01*
X167916877Y-130661535D01*
X167871500Y-130657066D01*
X167871500Y-129228999D01*
X172866418Y-129228999D01*
X172866418Y-129879001D01*
X172877535Y-129991877D01*
X172910460Y-130100414D01*
X172963926Y-130200443D01*
X173035880Y-130288120D01*
X173123557Y-130360074D01*
X173223586Y-130413540D01*
X173332123Y-130446465D01*
X173444999Y-130457582D01*
X174345001Y-130457582D01*
X174457877Y-130446465D01*
X174566414Y-130413540D01*
X174666443Y-130360074D01*
X174754120Y-130288120D01*
X174826074Y-130200443D01*
X174879540Y-130100414D01*
X174907574Y-130008000D01*
X175019648Y-130008000D01*
X175061905Y-130050257D01*
X175076121Y-130067579D01*
X175145251Y-130124313D01*
X175224121Y-130166470D01*
X175309700Y-130192430D01*
X175318121Y-130193259D01*
X175376405Y-130199000D01*
X175376412Y-130199000D01*
X175397418Y-130201069D01*
X175397418Y-130345000D01*
X175403732Y-130409103D01*
X175422430Y-130470743D01*
X175452794Y-130527550D01*
X175493657Y-130577343D01*
X175543450Y-130618206D01*
X175600257Y-130648570D01*
X175661897Y-130667268D01*
X175726000Y-130673582D01*
X176999301Y-130673582D01*
X176999300Y-132000447D01*
X176817048Y-132182700D01*
X176116295Y-132182700D01*
X176094000Y-132180504D01*
X176071705Y-132182700D01*
X176005001Y-132189270D01*
X175919421Y-132215230D01*
X175840551Y-132257387D01*
X175771421Y-132314121D01*
X175714687Y-132383251D01*
X175672530Y-132462121D01*
X175646570Y-132547701D01*
X175637804Y-132636700D01*
X175640001Y-132659005D01*
X175640001Y-132688896D01*
X175636450Y-132690794D01*
X175586657Y-132731657D01*
X175545794Y-132781450D01*
X175515430Y-132838257D01*
X175496732Y-132899897D01*
X175490418Y-132964000D01*
X175490418Y-134464000D01*
X175496732Y-134528103D01*
X175515430Y-134589743D01*
X175545794Y-134646550D01*
X175586657Y-134696343D01*
X175636450Y-134737206D01*
X175693257Y-134767570D01*
X175754897Y-134786268D01*
X175819000Y-134792582D01*
X176369000Y-134792582D01*
X176433103Y-134786268D01*
X176438460Y-134784643D01*
X176437804Y-134791300D01*
X176446570Y-134880299D01*
X176472530Y-134965879D01*
X176514687Y-135044749D01*
X176571421Y-135113879D01*
X176640551Y-135170613D01*
X176719421Y-135212770D01*
X176805001Y-135238730D01*
X176871705Y-135245300D01*
X176894000Y-135247496D01*
X176916295Y-135245300D01*
X181282312Y-135245300D01*
X181304600Y-135247495D01*
X181326888Y-135245300D01*
X181326895Y-135245300D01*
X181393599Y-135238730D01*
X181479179Y-135212770D01*
X181558049Y-135170613D01*
X181627179Y-135113879D01*
X181641395Y-135096557D01*
X181811759Y-134926193D01*
X181829079Y-134911979D01*
X181885813Y-134842849D01*
X181927970Y-134763979D01*
X181953930Y-134678399D01*
X181960500Y-134611695D01*
X181960500Y-134611688D01*
X181962695Y-134589400D01*
X181960500Y-134567112D01*
X181960500Y-132364890D01*
X181993120Y-132338120D01*
X182065074Y-132250443D01*
X182118540Y-132150414D01*
X182151465Y-132041877D01*
X182162582Y-131929001D01*
X182162582Y-131278999D01*
X182151465Y-131166123D01*
X182118540Y-131057586D01*
X182065074Y-130957557D01*
X181993120Y-130869880D01*
X181905443Y-130797926D01*
X181805414Y-130744460D01*
X181696877Y-130711535D01*
X181584001Y-130700418D01*
X180683999Y-130700418D01*
X180571123Y-130711535D01*
X180462586Y-130744460D01*
X180362557Y-130797926D01*
X180274880Y-130869880D01*
X180202926Y-130957557D01*
X180149460Y-131057586D01*
X180121426Y-131150000D01*
X180000352Y-131150000D01*
X179990095Y-131139743D01*
X179975879Y-131122421D01*
X179906749Y-131065687D01*
X179827879Y-131023530D01*
X179742299Y-130997570D01*
X179675595Y-130991000D01*
X179675588Y-130991000D01*
X179654582Y-130988931D01*
X179654582Y-130845000D01*
X179648268Y-130780897D01*
X179629570Y-130719257D01*
X179599206Y-130662450D01*
X179558343Y-130612657D01*
X179508550Y-130571794D01*
X179451743Y-130541430D01*
X179390103Y-130522732D01*
X179326000Y-130516418D01*
X177926000Y-130516418D01*
X177907300Y-130518260D01*
X177907300Y-129767295D01*
X177909496Y-129745000D01*
X177900730Y-129656001D01*
X177874770Y-129570421D01*
X177832613Y-129491551D01*
X177775879Y-129422421D01*
X177706749Y-129365687D01*
X177627879Y-129323530D01*
X177542299Y-129297570D01*
X177475595Y-129291000D01*
X177454582Y-129288930D01*
X177454582Y-129145000D01*
X177448268Y-129080897D01*
X177429570Y-129019257D01*
X177399206Y-128962450D01*
X177358343Y-128912657D01*
X177308550Y-128871794D01*
X177251743Y-128841430D01*
X177190103Y-128822732D01*
X177126000Y-128816418D01*
X175726000Y-128816418D01*
X175661897Y-128822732D01*
X175600257Y-128841430D01*
X175543450Y-128871794D01*
X175493657Y-128912657D01*
X175452794Y-128962450D01*
X175422430Y-129019257D01*
X175403732Y-129080897D01*
X175397828Y-129140841D01*
X175382279Y-129132530D01*
X175296699Y-129106570D01*
X175229995Y-129100000D01*
X175229988Y-129100000D01*
X175207700Y-129097805D01*
X175185412Y-129100000D01*
X174907574Y-129100000D01*
X174879540Y-129007586D01*
X174826074Y-128907557D01*
X174754120Y-128819880D01*
X174666443Y-128747926D01*
X174566414Y-128694460D01*
X174457877Y-128661535D01*
X174345001Y-128650418D01*
X173444999Y-128650418D01*
X173332123Y-128661535D01*
X173223586Y-128694460D01*
X173123557Y-128747926D01*
X173035880Y-128819880D01*
X172963926Y-128907557D01*
X172910460Y-129007586D01*
X172877535Y-129116123D01*
X172866418Y-129228999D01*
X167871500Y-129228999D01*
X167871500Y-124706855D01*
X168981773Y-123596582D01*
X169916000Y-123596582D01*
X170028876Y-123585465D01*
X170137414Y-123552540D01*
X170224483Y-123506000D01*
X182467306Y-123506000D01*
X182490031Y-123736732D01*
X182557333Y-123958597D01*
X182666626Y-124163070D01*
X182813709Y-124342291D01*
X182992930Y-124489374D01*
X183197403Y-124598667D01*
X183419268Y-124665969D01*
X183592188Y-124683000D01*
X184707812Y-124683000D01*
X184880732Y-124665969D01*
X185102597Y-124598667D01*
X185307070Y-124489374D01*
X185486291Y-124342291D01*
X185633374Y-124163070D01*
X185742667Y-123958597D01*
X185809969Y-123736732D01*
X185832694Y-123506000D01*
X185809969Y-123275268D01*
X185742667Y-123053403D01*
X185633374Y-122848930D01*
X185486291Y-122669709D01*
X185307070Y-122522626D01*
X185102597Y-122413333D01*
X184880732Y-122346031D01*
X184707812Y-122329000D01*
X183592188Y-122329000D01*
X183419268Y-122346031D01*
X183197403Y-122413333D01*
X182992930Y-122522626D01*
X182813709Y-122669709D01*
X182666626Y-122848930D01*
X182557333Y-123053403D01*
X182490031Y-123275268D01*
X182467306Y-123506000D01*
X170224483Y-123506000D01*
X170237443Y-123499073D01*
X170325119Y-123427119D01*
X170397073Y-123339443D01*
X170450540Y-123239414D01*
X170483465Y-123130876D01*
X170494582Y-123018000D01*
X170494582Y-122093000D01*
X170483465Y-121980124D01*
X170450540Y-121871586D01*
X170397073Y-121771557D01*
X170325119Y-121683881D01*
X170237443Y-121611927D01*
X170137414Y-121558460D01*
X170028876Y-121525535D01*
X169916000Y-121514418D01*
X168981773Y-121514418D01*
X168817354Y-121349999D01*
X176946418Y-121349999D01*
X176946418Y-122250001D01*
X176957535Y-122362877D01*
X176990460Y-122471414D01*
X177043926Y-122571443D01*
X177115880Y-122659120D01*
X177203557Y-122731074D01*
X177303586Y-122784540D01*
X177412123Y-122817465D01*
X177524999Y-122828582D01*
X178175001Y-122828582D01*
X178287877Y-122817465D01*
X178396414Y-122784540D01*
X178496443Y-122731074D01*
X178584120Y-122659120D01*
X178656074Y-122571443D01*
X178709540Y-122471414D01*
X178742465Y-122362877D01*
X178753582Y-122250001D01*
X178753582Y-121349999D01*
X178742465Y-121237123D01*
X178709540Y-121128586D01*
X178656074Y-121028557D01*
X178584120Y-120940880D01*
X178496443Y-120868926D01*
X178396414Y-120815460D01*
X178287877Y-120782535D01*
X178175001Y-120771418D01*
X177524999Y-120771418D01*
X177412123Y-120782535D01*
X177303586Y-120815460D01*
X177203557Y-120868926D01*
X177115880Y-120940880D01*
X177043926Y-121028557D01*
X176990460Y-121128586D01*
X176957535Y-121237123D01*
X176946418Y-121349999D01*
X168817354Y-121349999D01*
X168524100Y-121056745D01*
X168524100Y-120601661D01*
X168553124Y-120610465D01*
X168666000Y-120621582D01*
X169916000Y-120621582D01*
X170028876Y-120610465D01*
X170137414Y-120577540D01*
X170237443Y-120524073D01*
X170325119Y-120452119D01*
X170397073Y-120364443D01*
X170450540Y-120264414D01*
X170483465Y-120155876D01*
X170489165Y-120098000D01*
X176462837Y-120098000D01*
X176488250Y-120100503D01*
X176513663Y-120098000D01*
X176589698Y-120090511D01*
X176687247Y-120060920D01*
X176777148Y-120012867D01*
X176855948Y-119948198D01*
X176920617Y-119869398D01*
X176946418Y-119821128D01*
X176946418Y-120050001D01*
X176957535Y-120162877D01*
X176990460Y-120271414D01*
X177043926Y-120371443D01*
X177115880Y-120459120D01*
X177203557Y-120531074D01*
X177303586Y-120584540D01*
X177412123Y-120617465D01*
X177524999Y-120628582D01*
X178175001Y-120628582D01*
X178287877Y-120617465D01*
X178396414Y-120584540D01*
X178496443Y-120531074D01*
X178584120Y-120459120D01*
X178656074Y-120371443D01*
X178709540Y-120271414D01*
X178742465Y-120162877D01*
X178753582Y-120050001D01*
X178753582Y-119149999D01*
X178742465Y-119037123D01*
X178709540Y-118928586D01*
X178656074Y-118828557D01*
X178610890Y-118773500D01*
X179139110Y-118773500D01*
X179093926Y-118828557D01*
X179040460Y-118928586D01*
X179007535Y-119037123D01*
X178996418Y-119149999D01*
X178996418Y-120050001D01*
X179007535Y-120162877D01*
X179040460Y-120271414D01*
X179093926Y-120371443D01*
X179165880Y-120459120D01*
X179253557Y-120531074D01*
X179353586Y-120584540D01*
X179462123Y-120617465D01*
X179574999Y-120628582D01*
X180225001Y-120628582D01*
X180337877Y-120617465D01*
X180446414Y-120584540D01*
X180546443Y-120531074D01*
X180634120Y-120459120D01*
X180706074Y-120371443D01*
X180759540Y-120271414D01*
X180792465Y-120162877D01*
X180803582Y-120050001D01*
X180803582Y-119915264D01*
X180811794Y-119905258D01*
X181207053Y-119510000D01*
X182124959Y-119510000D01*
X182114365Y-119518695D01*
X182096421Y-119533421D01*
X182082210Y-119550737D01*
X180660240Y-120972708D01*
X180634120Y-120940880D01*
X180546443Y-120868926D01*
X180446414Y-120815460D01*
X180337877Y-120782535D01*
X180225001Y-120771418D01*
X179574999Y-120771418D01*
X179462123Y-120782535D01*
X179353586Y-120815460D01*
X179253557Y-120868926D01*
X179165880Y-120940880D01*
X179093926Y-121028557D01*
X179040460Y-121128586D01*
X179007535Y-121237123D01*
X178996418Y-121349999D01*
X178996418Y-122250001D01*
X179007535Y-122362877D01*
X179040460Y-122471414D01*
X179093926Y-122571443D01*
X179165880Y-122659120D01*
X179253557Y-122731074D01*
X179353586Y-122784540D01*
X179462123Y-122817465D01*
X179574999Y-122828582D01*
X180225001Y-122828582D01*
X180337877Y-122817465D01*
X180446414Y-122784540D01*
X180546443Y-122731074D01*
X180634120Y-122659120D01*
X180706074Y-122571443D01*
X180759540Y-122471414D01*
X180792465Y-122362877D01*
X180803582Y-122250001D01*
X180803582Y-122115264D01*
X180811794Y-122105258D01*
X182607053Y-120310000D01*
X182712408Y-120310000D01*
X182702732Y-120341897D01*
X182696418Y-120406000D01*
X182696418Y-120906000D01*
X182702732Y-120970103D01*
X182721430Y-121031743D01*
X182751794Y-121088550D01*
X182792657Y-121138343D01*
X182842450Y-121179206D01*
X182899257Y-121209570D01*
X182960897Y-121228268D01*
X183025000Y-121234582D01*
X185275000Y-121234582D01*
X185339103Y-121228268D01*
X185400743Y-121209570D01*
X185457550Y-121179206D01*
X185507343Y-121138343D01*
X185548206Y-121088550D01*
X185578570Y-121031743D01*
X185597268Y-120970103D01*
X185603582Y-120906000D01*
X185603582Y-120406000D01*
X185597268Y-120341897D01*
X185578570Y-120280257D01*
X185565604Y-120256000D01*
X185578570Y-120231743D01*
X185597268Y-120170103D01*
X185603582Y-120106000D01*
X185603582Y-119606000D01*
X185597268Y-119541897D01*
X185587592Y-119510000D01*
X185624595Y-119510000D01*
X185691299Y-119503430D01*
X185776879Y-119477470D01*
X185855749Y-119435313D01*
X185924879Y-119378579D01*
X185981613Y-119309449D01*
X186023770Y-119230579D01*
X186049730Y-119144999D01*
X186058496Y-119056000D01*
X186049730Y-118967001D01*
X186023770Y-118881421D01*
X185981613Y-118802551D01*
X185924879Y-118733421D01*
X185855749Y-118676687D01*
X185776879Y-118634530D01*
X185691299Y-118608570D01*
X185624595Y-118602000D01*
X185587592Y-118602000D01*
X185597268Y-118570103D01*
X185603582Y-118506000D01*
X185603582Y-118006000D01*
X185597268Y-117941897D01*
X185578570Y-117880257D01*
X185548206Y-117823450D01*
X185507343Y-117773657D01*
X185457550Y-117732794D01*
X185400743Y-117702430D01*
X185339103Y-117683732D01*
X185275000Y-117677418D01*
X183025000Y-117677418D01*
X182960897Y-117683732D01*
X182899257Y-117702430D01*
X182842450Y-117732794D01*
X182835497Y-117738500D01*
X177538593Y-117738500D01*
X177513180Y-117735997D01*
X177487767Y-117738500D01*
X177411732Y-117745989D01*
X177314183Y-117775580D01*
X177224282Y-117823633D01*
X177145482Y-117888302D01*
X177129277Y-117908048D01*
X176140293Y-118897032D01*
X176120553Y-118913232D01*
X176055884Y-118992032D01*
X176032756Y-119035302D01*
X176017951Y-119063000D01*
X170489165Y-119063000D01*
X170483465Y-119005124D01*
X170450540Y-118896586D01*
X170397073Y-118796557D01*
X170325119Y-118708881D01*
X170237443Y-118636927D01*
X170137414Y-118583460D01*
X170028876Y-118550535D01*
X169916000Y-118539418D01*
X169051837Y-118539418D01*
X172122156Y-115469100D01*
X182732141Y-115469100D01*
X182666626Y-115548930D01*
G36*
X184023000Y-133214251D02*
G01*
X182268500Y-133097284D01*
X182268500Y-132488070D01*
X182322405Y-132422387D01*
X182404472Y-132268851D01*
X182455008Y-132102255D01*
X182472072Y-131929001D01*
X182472072Y-131278999D01*
X182455008Y-131105745D01*
X182404472Y-130939149D01*
X182322405Y-130785613D01*
X182211962Y-130651038D01*
X182205406Y-130645658D01*
X182285185Y-130580185D01*
X182364537Y-130483494D01*
X182423502Y-130373180D01*
X182459812Y-130253482D01*
X182472072Y-130129000D01*
X182469000Y-129839750D01*
X182310250Y-129681000D01*
X181261000Y-129681000D01*
X181261000Y-129701000D01*
X181007000Y-129701000D01*
X181007000Y-129681000D01*
X180987000Y-129681000D01*
X180987000Y-129427000D01*
X181007000Y-129427000D01*
X181007000Y-128502750D01*
X181261000Y-128502750D01*
X181261000Y-129427000D01*
X182310250Y-129427000D01*
X182469000Y-129268250D01*
X182472072Y-128979000D01*
X182459812Y-128854518D01*
X182423502Y-128734820D01*
X182364537Y-128624506D01*
X182285185Y-128527815D01*
X182188494Y-128448463D01*
X182078180Y-128389498D01*
X181958482Y-128353188D01*
X181834000Y-128340928D01*
X181419750Y-128344000D01*
X181261000Y-128502750D01*
X181007000Y-128502750D01*
X180848250Y-128344000D01*
X180434000Y-128340928D01*
X180309518Y-128353188D01*
X180189820Y-128389498D01*
X180079506Y-128448463D01*
X179982815Y-128527815D01*
X179903463Y-128624506D01*
X179844498Y-128734820D01*
X179835414Y-128764767D01*
X179777185Y-128693815D01*
X179680494Y-128614463D01*
X179570180Y-128555498D01*
X179450482Y-128519188D01*
X179326000Y-128506928D01*
X178911750Y-128510000D01*
X178753000Y-128668750D01*
X178753000Y-129618000D01*
X178773000Y-129618000D01*
X178773000Y-129872000D01*
X178753000Y-129872000D01*
X178753000Y-129892000D01*
X178499000Y-129892000D01*
X178499000Y-129872000D01*
X178479000Y-129872000D01*
X178479000Y-129618000D01*
X178499000Y-129618000D01*
X178499000Y-128668750D01*
X178340250Y-128510000D01*
X177926000Y-128506928D01*
X177801518Y-128519188D01*
X177681820Y-128555498D01*
X177571506Y-128614463D01*
X177526000Y-128651809D01*
X177480494Y-128614463D01*
X177370180Y-128555498D01*
X177250482Y-128519188D01*
X177126000Y-128506928D01*
X175726000Y-128506928D01*
X175601518Y-128519188D01*
X175481820Y-128555498D01*
X175371506Y-128614463D01*
X175274815Y-128693815D01*
X175196344Y-128789433D01*
X175170277Y-128792000D01*
X175113545Y-128792000D01*
X175083405Y-128735613D01*
X174972962Y-128601038D01*
X174838387Y-128490595D01*
X174684851Y-128408528D01*
X174518255Y-128357992D01*
X174345001Y-128340928D01*
X173444999Y-128340928D01*
X173271745Y-128357992D01*
X173105149Y-128408528D01*
X172951613Y-128490595D01*
X172817038Y-128601038D01*
X172706595Y-128735613D01*
X172624528Y-128889149D01*
X172573992Y-129055745D01*
X172556928Y-129228999D01*
X172556928Y-129879001D01*
X172573992Y-130052255D01*
X172624528Y-130218851D01*
X172706595Y-130372387D01*
X172817038Y-130506962D01*
X172823594Y-130512342D01*
X172743815Y-130577815D01*
X172664463Y-130674506D01*
X172605498Y-130784820D01*
X172569188Y-130904518D01*
X172556928Y-131029000D01*
X172560000Y-131318250D01*
X172718750Y-131477000D01*
X173768000Y-131477000D01*
X173768000Y-131457000D01*
X174022000Y-131457000D01*
X174022000Y-131477000D01*
X174042000Y-131477000D01*
X174042000Y-131731000D01*
X174022000Y-131731000D01*
X174022000Y-131751000D01*
X173768000Y-131751000D01*
X173768000Y-131731000D01*
X172718750Y-131731000D01*
X172560000Y-131889750D01*
X172556928Y-132179000D01*
X172569188Y-132303482D01*
X172577244Y-132330040D01*
X172494518Y-132338188D01*
X172374820Y-132374498D01*
X172370750Y-132376673D01*
X172370750Y-127920750D01*
X184023000Y-127920750D01*
X184023000Y-133214251D01*
G37*
X184023000Y-133214251D02*
X182268500Y-133097284D01*
X182268500Y-132488070D01*
X182322405Y-132422387D01*
X182404472Y-132268851D01*
X182455008Y-132102255D01*
X182472072Y-131929001D01*
X182472072Y-131278999D01*
X182455008Y-131105745D01*
X182404472Y-130939149D01*
X182322405Y-130785613D01*
X182211962Y-130651038D01*
X182205406Y-130645658D01*
X182285185Y-130580185D01*
X182364537Y-130483494D01*
X182423502Y-130373180D01*
X182459812Y-130253482D01*
X182472072Y-130129000D01*
X182469000Y-129839750D01*
X182310250Y-129681000D01*
X181261000Y-129681000D01*
X181261000Y-129701000D01*
X181007000Y-129701000D01*
X181007000Y-129681000D01*
X180987000Y-129681000D01*
X180987000Y-129427000D01*
X181007000Y-129427000D01*
X181007000Y-128502750D01*
X181261000Y-128502750D01*
X181261000Y-129427000D01*
X182310250Y-129427000D01*
X182469000Y-129268250D01*
X182472072Y-128979000D01*
X182459812Y-128854518D01*
X182423502Y-128734820D01*
X182364537Y-128624506D01*
X182285185Y-128527815D01*
X182188494Y-128448463D01*
X182078180Y-128389498D01*
X181958482Y-128353188D01*
X181834000Y-128340928D01*
X181419750Y-128344000D01*
X181261000Y-128502750D01*
X181007000Y-128502750D01*
X180848250Y-128344000D01*
X180434000Y-128340928D01*
X180309518Y-128353188D01*
X180189820Y-128389498D01*
X180079506Y-128448463D01*
X179982815Y-128527815D01*
X179903463Y-128624506D01*
X179844498Y-128734820D01*
X179835414Y-128764767D01*
X179777185Y-128693815D01*
X179680494Y-128614463D01*
X179570180Y-128555498D01*
X179450482Y-128519188D01*
X179326000Y-128506928D01*
X178911750Y-128510000D01*
X178753000Y-128668750D01*
X178753000Y-129618000D01*
X178773000Y-129618000D01*
X178773000Y-129872000D01*
X178753000Y-129872000D01*
X178753000Y-129892000D01*
X178499000Y-129892000D01*
X178499000Y-129872000D01*
X178479000Y-129872000D01*
X178479000Y-129618000D01*
X178499000Y-129618000D01*
X178499000Y-128668750D01*
X178340250Y-128510000D01*
X177926000Y-128506928D01*
X177801518Y-128519188D01*
X177681820Y-128555498D01*
X177571506Y-128614463D01*
X177526000Y-128651809D01*
X177480494Y-128614463D01*
X177370180Y-128555498D01*
X177250482Y-128519188D01*
X177126000Y-128506928D01*
X175726000Y-128506928D01*
X175601518Y-128519188D01*
X175481820Y-128555498D01*
X175371506Y-128614463D01*
X175274815Y-128693815D01*
X175196344Y-128789433D01*
X175170277Y-128792000D01*
X175113545Y-128792000D01*
X175083405Y-128735613D01*
X174972962Y-128601038D01*
X174838387Y-128490595D01*
X174684851Y-128408528D01*
X174518255Y-128357992D01*
X174345001Y-128340928D01*
X173444999Y-128340928D01*
X173271745Y-128357992D01*
X173105149Y-128408528D01*
X172951613Y-128490595D01*
X172817038Y-128601038D01*
X172706595Y-128735613D01*
X172624528Y-128889149D01*
X172573992Y-129055745D01*
X172556928Y-129228999D01*
X172556928Y-129879001D01*
X172573992Y-130052255D01*
X172624528Y-130218851D01*
X172706595Y-130372387D01*
X172817038Y-130506962D01*
X172823594Y-130512342D01*
X172743815Y-130577815D01*
X172664463Y-130674506D01*
X172605498Y-130784820D01*
X172569188Y-130904518D01*
X172556928Y-131029000D01*
X172560000Y-131318250D01*
X172718750Y-131477000D01*
X173768000Y-131477000D01*
X173768000Y-131457000D01*
X174022000Y-131457000D01*
X174022000Y-131477000D01*
X174042000Y-131477000D01*
X174042000Y-131731000D01*
X174022000Y-131731000D01*
X174022000Y-131751000D01*
X173768000Y-131751000D01*
X173768000Y-131731000D01*
X172718750Y-131731000D01*
X172560000Y-131889750D01*
X172556928Y-132179000D01*
X172569188Y-132303482D01*
X172577244Y-132330040D01*
X172494518Y-132338188D01*
X172374820Y-132374498D01*
X172370750Y-132376673D01*
X172370750Y-127920750D01*
X184023000Y-127920750D01*
X184023000Y-133214251D01*
G36*
X175166998Y-132469166D02*
G01*
X175162079Y-132465129D01*
X175166998Y-132455927D01*
X175166998Y-132469166D01*
G37*
X175166998Y-132469166D02*
X175162079Y-132465129D01*
X175166998Y-132455927D01*
X175166998Y-132469166D01*
G36*
X175090806Y-131750556D02*
G01*
X175071252Y-131731002D01*
X175090998Y-131731002D01*
X175090806Y-131750556D01*
G37*
X175090806Y-131750556D02*
X175071252Y-131731002D01*
X175090998Y-131731002D01*
X175090806Y-131750556D01*
G36*
X176553000Y-131318000D02*
G01*
X176573000Y-131318000D01*
X176573000Y-131572000D01*
X176553000Y-131572000D01*
X176553000Y-131592000D01*
X176299000Y-131592000D01*
X176299000Y-131572000D01*
X176279000Y-131572000D01*
X176279000Y-131318000D01*
X176299000Y-131318000D01*
X176299000Y-131298000D01*
X176553000Y-131298000D01*
X176553000Y-131318000D01*
G37*
X176553000Y-131318000D02*
X176573000Y-131318000D01*
X176573000Y-131572000D01*
X176553000Y-131572000D01*
X176553000Y-131592000D01*
X176299000Y-131592000D01*
X176299000Y-131572000D01*
X176279000Y-131572000D01*
X176279000Y-131318000D01*
X176299000Y-131318000D01*
X176299000Y-131298000D01*
X176553000Y-131298000D01*
X176553000Y-131318000D01*
G36*
X175230000Y-131591750D02*
G01*
X175230000Y-131572002D01*
X175249748Y-131572002D01*
X175230000Y-131591750D01*
G37*
X175230000Y-131591750D02*
X175230000Y-131572002D01*
X175249748Y-131572002D01*
X175230000Y-131591750D01*
G36*
X175091000Y-131476998D02*
G01*
X175071252Y-131476998D01*
X175091000Y-131457250D01*
X175091000Y-131476998D01*
G37*
X175091000Y-131476998D02*
X175071252Y-131476998D01*
X175091000Y-131457250D01*
X175091000Y-131476998D01*
G36*
X175249748Y-131317998D02*
G01*
X175230003Y-131317998D01*
X175230210Y-131298460D01*
X175249748Y-131317998D01*
G37*
X175249748Y-131317998D02*
X175230003Y-131317998D01*
X175230210Y-131298460D01*
X175249748Y-131317998D01*
G36*
X179982815Y-130580185D02*
G01*
X180062594Y-130645658D01*
X180056038Y-130651038D01*
X179973205Y-130751971D01*
X179953893Y-130741649D01*
X179951812Y-130720518D01*
X179915502Y-130600820D01*
X179912391Y-130595000D01*
X179915502Y-130589180D01*
X179935660Y-130522727D01*
X179982815Y-130580185D01*
G37*
X179982815Y-130580185D02*
X180062594Y-130645658D01*
X180056038Y-130651038D01*
X179973205Y-130751971D01*
X179953893Y-130741649D01*
X179951812Y-130720518D01*
X179915502Y-130600820D01*
X179912391Y-130595000D01*
X179915502Y-130589180D01*
X179935660Y-130522727D01*
X179982815Y-130580185D01*
G36*
X175098107Y-130448351D02*
G01*
X175100188Y-130469482D01*
X175136498Y-130589180D01*
X175139609Y-130595000D01*
X175136498Y-130600820D01*
X175117220Y-130664372D01*
X175046185Y-130577815D01*
X174966406Y-130512342D01*
X174972962Y-130506962D01*
X175044554Y-130419727D01*
X175098107Y-130448351D01*
G37*
X175098107Y-130448351D02*
X175100188Y-130469482D01*
X175136498Y-130589180D01*
X175139609Y-130595000D01*
X175136498Y-130600820D01*
X175117220Y-130664372D01*
X175046185Y-130577815D01*
X174966406Y-130512342D01*
X174972962Y-130506962D01*
X175044554Y-130419727D01*
X175098107Y-130448351D01*
M02*
