G04 #@! TF.GenerationSoftware,KiCad,Pcbnew,5.1.5*
G04 #@! TF.CreationDate,2020-01-27T21:51:43-06:00*
G04 #@! TF.ProjectId,pcbtut,70636274-7574-42e6-9b69-6361645f7063,rev?*
G04 #@! TF.SameCoordinates,Original*
G04 #@! TF.FileFunction,Soldermask,Bot*
G04 #@! TF.FilePolarity,Negative*
%FSLAX46Y46*%
G04 Gerber Fmt 4.6, Leading zero omitted, Abs format (unit mm)*
G04 Created by KiCad (PCBNEW 5.1.5) date 2020-01-27 21:51:43*
%MOMM*%
%LPD*%
G04 APERTURE LIST*
%ADD10C,0.100000*%
G04 APERTURE END LIST*
D10*
G36*
X174557674Y-146827465D02*
G01*
X174595367Y-146838899D01*
X174630103Y-146857466D01*
X174660548Y-146882452D01*
X174685534Y-146912897D01*
X174704101Y-146947633D01*
X174715535Y-146985326D01*
X174720000Y-147030661D01*
X174720000Y-148117339D01*
X174715535Y-148162674D01*
X174704101Y-148200367D01*
X174685534Y-148235103D01*
X174660548Y-148265548D01*
X174630103Y-148290534D01*
X174595367Y-148309101D01*
X174557674Y-148320535D01*
X174512339Y-148325000D01*
X173675661Y-148325000D01*
X173630326Y-148320535D01*
X173592633Y-148309101D01*
X173557897Y-148290534D01*
X173527452Y-148265548D01*
X173502466Y-148235103D01*
X173483899Y-148200367D01*
X173472465Y-148162674D01*
X173468000Y-148117339D01*
X173468000Y-147030661D01*
X173472465Y-146985326D01*
X173483899Y-146947633D01*
X173502466Y-146912897D01*
X173527452Y-146882452D01*
X173557897Y-146857466D01*
X173592633Y-146838899D01*
X173630326Y-146827465D01*
X173675661Y-146823000D01*
X174512339Y-146823000D01*
X174557674Y-146827465D01*
G37*
G36*
X172507674Y-146827465D02*
G01*
X172545367Y-146838899D01*
X172580103Y-146857466D01*
X172610548Y-146882452D01*
X172635534Y-146912897D01*
X172654101Y-146947633D01*
X172665535Y-146985326D01*
X172670000Y-147030661D01*
X172670000Y-148117339D01*
X172665535Y-148162674D01*
X172654101Y-148200367D01*
X172635534Y-148235103D01*
X172610548Y-148265548D01*
X172580103Y-148290534D01*
X172545367Y-148309101D01*
X172507674Y-148320535D01*
X172462339Y-148325000D01*
X171625661Y-148325000D01*
X171580326Y-148320535D01*
X171542633Y-148309101D01*
X171507897Y-148290534D01*
X171477452Y-148265548D01*
X171452466Y-148235103D01*
X171433899Y-148200367D01*
X171422465Y-148162674D01*
X171418000Y-148117339D01*
X171418000Y-147030661D01*
X171422465Y-146985326D01*
X171433899Y-146947633D01*
X171452466Y-146912897D01*
X171477452Y-146882452D01*
X171507897Y-146857466D01*
X171542633Y-146838899D01*
X171580326Y-146827465D01*
X171625661Y-146823000D01*
X172462339Y-146823000D01*
X172507674Y-146827465D01*
G37*
G36*
X180150674Y-146700465D02*
G01*
X180188367Y-146711899D01*
X180223103Y-146730466D01*
X180253548Y-146755452D01*
X180278534Y-146785897D01*
X180297101Y-146820633D01*
X180308535Y-146858326D01*
X180313000Y-146903661D01*
X180313000Y-147990339D01*
X180308535Y-148035674D01*
X180297101Y-148073367D01*
X180278534Y-148108103D01*
X180253548Y-148138548D01*
X180223103Y-148163534D01*
X180188367Y-148182101D01*
X180150674Y-148193535D01*
X180105339Y-148198000D01*
X179268661Y-148198000D01*
X179223326Y-148193535D01*
X179185633Y-148182101D01*
X179150897Y-148163534D01*
X179120452Y-148138548D01*
X179095466Y-148108103D01*
X179076899Y-148073367D01*
X179065465Y-148035674D01*
X179061000Y-147990339D01*
X179061000Y-146903661D01*
X179065465Y-146858326D01*
X179076899Y-146820633D01*
X179095466Y-146785897D01*
X179120452Y-146755452D01*
X179150897Y-146730466D01*
X179185633Y-146711899D01*
X179223326Y-146700465D01*
X179268661Y-146696000D01*
X180105339Y-146696000D01*
X180150674Y-146700465D01*
G37*
G36*
X182200674Y-146700465D02*
G01*
X182238367Y-146711899D01*
X182273103Y-146730466D01*
X182303548Y-146755452D01*
X182328534Y-146785897D01*
X182347101Y-146820633D01*
X182358535Y-146858326D01*
X182363000Y-146903661D01*
X182363000Y-147990339D01*
X182358535Y-148035674D01*
X182347101Y-148073367D01*
X182328534Y-148108103D01*
X182303548Y-148138548D01*
X182273103Y-148163534D01*
X182238367Y-148182101D01*
X182200674Y-148193535D01*
X182155339Y-148198000D01*
X181318661Y-148198000D01*
X181273326Y-148193535D01*
X181235633Y-148182101D01*
X181200897Y-148163534D01*
X181170452Y-148138548D01*
X181145466Y-148108103D01*
X181126899Y-148073367D01*
X181115465Y-148035674D01*
X181111000Y-147990339D01*
X181111000Y-146903661D01*
X181115465Y-146858326D01*
X181126899Y-146820633D01*
X181145466Y-146785897D01*
X181170452Y-146755452D01*
X181200897Y-146730466D01*
X181235633Y-146711899D01*
X181273326Y-146700465D01*
X181318661Y-146696000D01*
X182155339Y-146696000D01*
X182200674Y-146700465D01*
G37*
G36*
X162801000Y-146977000D02*
G01*
X160899000Y-146977000D01*
X160899000Y-145775000D01*
X162801000Y-145775000D01*
X162801000Y-146977000D01*
G37*
G36*
X156601000Y-146977000D02*
G01*
X154699000Y-146977000D01*
X154699000Y-145775000D01*
X156601000Y-145775000D01*
X156601000Y-146977000D01*
G37*
G36*
X141558104Y-144683585D02*
G01*
X141726626Y-144753389D01*
X141878291Y-144854728D01*
X142007272Y-144983709D01*
X142108611Y-145135374D01*
X142178415Y-145303896D01*
X142214000Y-145482797D01*
X142214000Y-145665203D01*
X142178415Y-145844104D01*
X142108611Y-146012626D01*
X142007272Y-146164291D01*
X141878291Y-146293272D01*
X141726626Y-146394611D01*
X141558104Y-146464415D01*
X141379203Y-146500000D01*
X141196797Y-146500000D01*
X141017896Y-146464415D01*
X140849374Y-146394611D01*
X140697709Y-146293272D01*
X140568728Y-146164291D01*
X140467389Y-146012626D01*
X140397585Y-145844104D01*
X140362000Y-145665203D01*
X140362000Y-145482797D01*
X140397585Y-145303896D01*
X140467389Y-145135374D01*
X140568728Y-144983709D01*
X140697709Y-144854728D01*
X140849374Y-144753389D01*
X141017896Y-144683585D01*
X141196797Y-144648000D01*
X141379203Y-144648000D01*
X141558104Y-144683585D01*
G37*
G36*
X122508104Y-144683585D02*
G01*
X122676626Y-144753389D01*
X122828291Y-144854728D01*
X122957272Y-144983709D01*
X123058611Y-145135374D01*
X123128415Y-145303896D01*
X123164000Y-145482797D01*
X123164000Y-145665203D01*
X123128415Y-145844104D01*
X123058611Y-146012626D01*
X122957272Y-146164291D01*
X122828291Y-146293272D01*
X122676626Y-146394611D01*
X122508104Y-146464415D01*
X122329203Y-146500000D01*
X122146797Y-146500000D01*
X121967896Y-146464415D01*
X121799374Y-146394611D01*
X121647709Y-146293272D01*
X121518728Y-146164291D01*
X121417389Y-146012626D01*
X121347585Y-145844104D01*
X121312000Y-145665203D01*
X121312000Y-145482797D01*
X121347585Y-145303896D01*
X121417389Y-145135374D01*
X121518728Y-144983709D01*
X121647709Y-144854728D01*
X121799374Y-144753389D01*
X121967896Y-144683585D01*
X122146797Y-144648000D01*
X122329203Y-144648000D01*
X122508104Y-144683585D01*
G37*
G36*
X181220000Y-145915000D02*
G01*
X172568000Y-145915000D01*
X172568000Y-144313000D01*
X181220000Y-144313000D01*
X181220000Y-145915000D01*
G37*
G36*
X185754674Y-144539465D02*
G01*
X185792367Y-144550899D01*
X185827103Y-144569466D01*
X185857548Y-144594452D01*
X185882534Y-144624897D01*
X185901101Y-144659633D01*
X185912535Y-144697326D01*
X185917000Y-144742661D01*
X185917000Y-145579339D01*
X185912535Y-145624674D01*
X185901101Y-145662367D01*
X185882534Y-145697103D01*
X185857548Y-145727548D01*
X185827103Y-145752534D01*
X185792367Y-145771101D01*
X185754674Y-145782535D01*
X185709339Y-145787000D01*
X184622661Y-145787000D01*
X184577326Y-145782535D01*
X184539633Y-145771101D01*
X184504897Y-145752534D01*
X184474452Y-145727548D01*
X184449466Y-145697103D01*
X184430899Y-145662367D01*
X184419465Y-145624674D01*
X184415000Y-145579339D01*
X184415000Y-144742661D01*
X184419465Y-144697326D01*
X184430899Y-144659633D01*
X184449466Y-144624897D01*
X184474452Y-144594452D01*
X184504897Y-144569466D01*
X184539633Y-144550899D01*
X184577326Y-144539465D01*
X184622661Y-144535000D01*
X185709339Y-144535000D01*
X185754674Y-144539465D01*
G37*
G36*
X137311249Y-141817881D02*
G01*
X137316689Y-141818000D01*
X137403826Y-141818000D01*
X137420087Y-141821234D01*
X137438941Y-141823512D01*
X137455530Y-141824244D01*
X137540222Y-141845008D01*
X137545558Y-141846192D01*
X137560554Y-141849175D01*
X137631027Y-141863193D01*
X137646345Y-141869538D01*
X137664404Y-141875454D01*
X137680519Y-141879405D01*
X137759523Y-141916288D01*
X137764503Y-141918480D01*
X137845045Y-141951842D01*
X137845047Y-141951843D01*
X137858827Y-141961051D01*
X137875395Y-141970382D01*
X137890422Y-141977397D01*
X137890424Y-141977398D01*
X137890423Y-141977398D01*
X137960700Y-142028975D01*
X137965198Y-142032126D01*
X138037656Y-142080541D01*
X138094662Y-142137547D01*
X138099556Y-142142183D01*
X138616439Y-142605962D01*
X139576376Y-143467276D01*
X139668185Y-143567558D01*
X139693603Y-143595321D01*
X139813689Y-143793416D01*
X139892823Y-144011133D01*
X139927961Y-144240104D01*
X139917754Y-144471530D01*
X139862593Y-144696519D01*
X139835723Y-144754075D01*
X139764602Y-144906421D01*
X139764600Y-144906423D01*
X139764600Y-144906424D01*
X139627539Y-145093177D01*
X139456679Y-145249603D01*
X139258583Y-145369689D01*
X139040866Y-145448823D01*
X138811896Y-145483961D01*
X138580469Y-145473754D01*
X138355480Y-145418593D01*
X138245027Y-145367028D01*
X138145579Y-145320602D01*
X138145576Y-145320600D01*
X138005622Y-145217886D01*
X136571623Y-143931214D01*
X136557591Y-143920320D01*
X136538346Y-143907461D01*
X136481303Y-143850418D01*
X136476394Y-143845768D01*
X136459624Y-143830721D01*
X136440021Y-143809309D01*
X136436213Y-143805328D01*
X136374541Y-143743656D01*
X136365316Y-143729850D01*
X136353582Y-143714892D01*
X136342396Y-143702674D01*
X136297252Y-143628204D01*
X136294293Y-143623557D01*
X136275424Y-143595318D01*
X136245842Y-143551045D01*
X136239489Y-143535708D01*
X136230899Y-143518747D01*
X136222311Y-143504581D01*
X136192554Y-143422711D01*
X136190564Y-143417591D01*
X136157193Y-143337026D01*
X136153956Y-143320752D01*
X136148843Y-143302453D01*
X136143177Y-143286864D01*
X136129956Y-143200715D01*
X136129009Y-143195338D01*
X136112000Y-143109827D01*
X136112000Y-143093233D01*
X136110555Y-143074290D01*
X136108039Y-143057893D01*
X136111880Y-142970794D01*
X136112000Y-142965354D01*
X136112000Y-142878172D01*
X136115236Y-142861903D01*
X136117515Y-142843044D01*
X136118246Y-142826468D01*
X136139010Y-142741777D01*
X136140186Y-142736474D01*
X136157193Y-142650973D01*
X136163545Y-142635638D01*
X136169455Y-142617599D01*
X136173407Y-142601479D01*
X136210277Y-142522503D01*
X136212477Y-142517506D01*
X136245842Y-142436955D01*
X136255060Y-142423159D01*
X136264387Y-142406598D01*
X136271400Y-142391575D01*
X136322961Y-142321320D01*
X136326122Y-142316808D01*
X136374541Y-142244344D01*
X136386268Y-142232617D01*
X136398652Y-142218187D01*
X136408462Y-142204820D01*
X136472733Y-142145979D01*
X136476714Y-142142171D01*
X136538344Y-142080541D01*
X136552135Y-142071326D01*
X136567093Y-142059592D01*
X136579324Y-142048394D01*
X136631261Y-142016910D01*
X136653859Y-142003211D01*
X136658456Y-142000285D01*
X136730955Y-141951842D01*
X136746278Y-141945495D01*
X136763233Y-141936908D01*
X136777417Y-141928309D01*
X136859342Y-141898532D01*
X136864435Y-141896553D01*
X136944973Y-141863193D01*
X136961237Y-141859958D01*
X136979532Y-141854846D01*
X136995134Y-141849175D01*
X137081342Y-141835945D01*
X137086713Y-141834999D01*
X137172173Y-141818000D01*
X137188752Y-141818000D01*
X137207694Y-141816555D01*
X137224105Y-141814037D01*
X137311249Y-141817881D01*
G37*
G36*
X118261249Y-141817881D02*
G01*
X118266689Y-141818000D01*
X118353826Y-141818000D01*
X118370087Y-141821234D01*
X118388941Y-141823512D01*
X118405530Y-141824244D01*
X118490222Y-141845008D01*
X118495558Y-141846192D01*
X118510554Y-141849175D01*
X118581027Y-141863193D01*
X118596345Y-141869538D01*
X118614404Y-141875454D01*
X118630519Y-141879405D01*
X118709523Y-141916288D01*
X118714503Y-141918480D01*
X118795045Y-141951842D01*
X118795047Y-141951843D01*
X118808827Y-141961051D01*
X118825395Y-141970382D01*
X118840422Y-141977397D01*
X118840424Y-141977398D01*
X118840423Y-141977398D01*
X118910700Y-142028975D01*
X118915198Y-142032126D01*
X118987656Y-142080541D01*
X119044662Y-142137547D01*
X119049556Y-142142183D01*
X119566439Y-142605962D01*
X120526376Y-143467276D01*
X120618185Y-143567558D01*
X120643603Y-143595321D01*
X120763689Y-143793416D01*
X120842823Y-144011133D01*
X120877961Y-144240104D01*
X120867754Y-144471530D01*
X120812593Y-144696519D01*
X120785723Y-144754075D01*
X120714602Y-144906421D01*
X120714600Y-144906423D01*
X120714600Y-144906424D01*
X120577539Y-145093177D01*
X120406679Y-145249603D01*
X120208583Y-145369689D01*
X119990866Y-145448823D01*
X119761896Y-145483961D01*
X119530469Y-145473754D01*
X119305480Y-145418593D01*
X119195027Y-145367028D01*
X119095579Y-145320602D01*
X119095576Y-145320600D01*
X118955622Y-145217886D01*
X117521623Y-143931214D01*
X117507591Y-143920320D01*
X117488346Y-143907461D01*
X117431303Y-143850418D01*
X117426394Y-143845768D01*
X117409624Y-143830721D01*
X117390021Y-143809309D01*
X117386213Y-143805328D01*
X117324541Y-143743656D01*
X117315316Y-143729850D01*
X117303582Y-143714892D01*
X117292396Y-143702674D01*
X117247252Y-143628204D01*
X117244293Y-143623557D01*
X117225424Y-143595318D01*
X117195842Y-143551045D01*
X117189489Y-143535708D01*
X117180899Y-143518747D01*
X117172311Y-143504581D01*
X117142554Y-143422711D01*
X117140564Y-143417591D01*
X117107193Y-143337026D01*
X117103956Y-143320752D01*
X117098843Y-143302453D01*
X117093177Y-143286864D01*
X117079956Y-143200715D01*
X117079009Y-143195338D01*
X117062000Y-143109827D01*
X117062000Y-143093233D01*
X117060555Y-143074290D01*
X117058039Y-143057893D01*
X117061880Y-142970794D01*
X117062000Y-142965354D01*
X117062000Y-142878172D01*
X117065236Y-142861903D01*
X117067515Y-142843044D01*
X117068246Y-142826468D01*
X117089010Y-142741777D01*
X117090186Y-142736474D01*
X117107193Y-142650973D01*
X117113545Y-142635638D01*
X117119455Y-142617599D01*
X117123407Y-142601479D01*
X117160277Y-142522503D01*
X117162477Y-142517506D01*
X117195842Y-142436955D01*
X117205060Y-142423159D01*
X117214387Y-142406598D01*
X117221400Y-142391575D01*
X117272961Y-142321320D01*
X117276122Y-142316808D01*
X117324541Y-142244344D01*
X117336268Y-142232617D01*
X117348652Y-142218187D01*
X117358462Y-142204820D01*
X117422733Y-142145979D01*
X117426714Y-142142171D01*
X117488344Y-142080541D01*
X117502135Y-142071326D01*
X117517093Y-142059592D01*
X117529324Y-142048394D01*
X117581261Y-142016910D01*
X117603859Y-142003211D01*
X117608456Y-142000285D01*
X117680955Y-141951842D01*
X117696278Y-141945495D01*
X117713233Y-141936908D01*
X117727417Y-141928309D01*
X117809342Y-141898532D01*
X117814435Y-141896553D01*
X117894973Y-141863193D01*
X117911237Y-141859958D01*
X117929532Y-141854846D01*
X117945134Y-141849175D01*
X118031342Y-141835945D01*
X118036713Y-141834999D01*
X118122173Y-141818000D01*
X118138752Y-141818000D01*
X118157694Y-141816555D01*
X118174105Y-141814037D01*
X118261249Y-141817881D01*
G37*
G36*
X171995000Y-143740000D02*
G01*
X170393000Y-143740000D01*
X170393000Y-135088000D01*
X171995000Y-135088000D01*
X171995000Y-143740000D01*
G37*
G36*
X183395000Y-143740000D02*
G01*
X181793000Y-143740000D01*
X181793000Y-135088000D01*
X183395000Y-135088000D01*
X183395000Y-143740000D01*
G37*
G36*
X185754674Y-142489465D02*
G01*
X185792367Y-142500899D01*
X185827103Y-142519466D01*
X185857548Y-142544452D01*
X185882534Y-142574897D01*
X185901101Y-142609633D01*
X185912535Y-142647326D01*
X185917000Y-142692661D01*
X185917000Y-143529339D01*
X185912535Y-143574674D01*
X185901101Y-143612367D01*
X185882534Y-143647103D01*
X185857548Y-143677548D01*
X185827103Y-143702534D01*
X185792367Y-143721101D01*
X185754674Y-143732535D01*
X185709339Y-143737000D01*
X184622661Y-143737000D01*
X184577326Y-143732535D01*
X184539633Y-143721101D01*
X184504897Y-143702534D01*
X184474452Y-143677548D01*
X184449466Y-143647103D01*
X184430899Y-143612367D01*
X184419465Y-143574674D01*
X184415000Y-143529339D01*
X184415000Y-142692661D01*
X184419465Y-142647326D01*
X184430899Y-142609633D01*
X184449466Y-142574897D01*
X184474452Y-142544452D01*
X184504897Y-142519466D01*
X184539633Y-142500899D01*
X184577326Y-142489465D01*
X184622661Y-142485000D01*
X185709339Y-142485000D01*
X185754674Y-142489465D01*
G37*
G36*
X156601000Y-143277000D02*
G01*
X154699000Y-143277000D01*
X154699000Y-142075000D01*
X156601000Y-142075000D01*
X156601000Y-143277000D01*
G37*
G36*
X162801000Y-143277000D02*
G01*
X160899000Y-143277000D01*
X160899000Y-142075000D01*
X162801000Y-142075000D01*
X162801000Y-143277000D01*
G37*
G36*
X141884474Y-138527684D02*
G01*
X142102474Y-138617983D01*
X142256623Y-138681833D01*
X142591548Y-138905623D01*
X142876377Y-139190452D01*
X143100167Y-139525377D01*
X143100167Y-139525378D01*
X143254316Y-139897526D01*
X143332900Y-140292594D01*
X143332900Y-140695406D01*
X143254316Y-141090474D01*
X143206535Y-141205827D01*
X143100167Y-141462623D01*
X142876377Y-141797548D01*
X142591548Y-142082377D01*
X142256623Y-142306167D01*
X142102474Y-142370017D01*
X141884474Y-142460316D01*
X141489406Y-142538900D01*
X141086594Y-142538900D01*
X140691526Y-142460316D01*
X140473526Y-142370017D01*
X140319377Y-142306167D01*
X139984452Y-142082377D01*
X139699623Y-141797548D01*
X139475833Y-141462623D01*
X139369465Y-141205827D01*
X139321684Y-141090474D01*
X139243100Y-140695406D01*
X139243100Y-140292594D01*
X139321684Y-139897526D01*
X139475833Y-139525378D01*
X139475833Y-139525377D01*
X139699623Y-139190452D01*
X139984452Y-138905623D01*
X140319377Y-138681833D01*
X140473526Y-138617983D01*
X140691526Y-138527684D01*
X141086594Y-138449100D01*
X141489406Y-138449100D01*
X141884474Y-138527684D01*
G37*
G36*
X122834474Y-138527684D02*
G01*
X123052474Y-138617983D01*
X123206623Y-138681833D01*
X123541548Y-138905623D01*
X123826377Y-139190452D01*
X124050167Y-139525377D01*
X124050167Y-139525378D01*
X124204316Y-139897526D01*
X124282900Y-140292594D01*
X124282900Y-140695406D01*
X124204316Y-141090474D01*
X124156535Y-141205827D01*
X124050167Y-141462623D01*
X123826377Y-141797548D01*
X123541548Y-142082377D01*
X123206623Y-142306167D01*
X123052474Y-142370017D01*
X122834474Y-142460316D01*
X122439406Y-142538900D01*
X122036594Y-142538900D01*
X121641526Y-142460316D01*
X121423526Y-142370017D01*
X121269377Y-142306167D01*
X120934452Y-142082377D01*
X120649623Y-141797548D01*
X120425833Y-141462623D01*
X120319465Y-141205827D01*
X120271684Y-141090474D01*
X120193100Y-140695406D01*
X120193100Y-140292594D01*
X120271684Y-139897526D01*
X120425833Y-139525378D01*
X120425833Y-139525377D01*
X120649623Y-139190452D01*
X120934452Y-138905623D01*
X121269377Y-138681833D01*
X121423526Y-138617983D01*
X121641526Y-138527684D01*
X122036594Y-138449100D01*
X122439406Y-138449100D01*
X122834474Y-138527684D01*
G37*
G36*
X168736674Y-140230465D02*
G01*
X168774367Y-140241899D01*
X168809103Y-140260466D01*
X168839548Y-140285452D01*
X168864534Y-140315897D01*
X168883101Y-140350633D01*
X168894535Y-140388326D01*
X168899000Y-140433661D01*
X168899000Y-141270339D01*
X168894535Y-141315674D01*
X168883101Y-141353367D01*
X168864534Y-141388103D01*
X168839548Y-141418548D01*
X168809103Y-141443534D01*
X168774367Y-141462101D01*
X168736674Y-141473535D01*
X168691339Y-141478000D01*
X167604661Y-141478000D01*
X167559326Y-141473535D01*
X167521633Y-141462101D01*
X167486897Y-141443534D01*
X167456452Y-141418548D01*
X167431466Y-141388103D01*
X167412899Y-141353367D01*
X167401465Y-141315674D01*
X167397000Y-141270339D01*
X167397000Y-140433661D01*
X167401465Y-140388326D01*
X167412899Y-140350633D01*
X167431466Y-140315897D01*
X167456452Y-140285452D01*
X167486897Y-140260466D01*
X167521633Y-140241899D01*
X167559326Y-140230465D01*
X167604661Y-140226000D01*
X168691339Y-140226000D01*
X168736674Y-140230465D01*
G37*
G36*
X168736674Y-138180465D02*
G01*
X168774367Y-138191899D01*
X168809103Y-138210466D01*
X168839548Y-138235452D01*
X168864534Y-138265897D01*
X168883101Y-138300633D01*
X168894535Y-138338326D01*
X168899000Y-138383661D01*
X168899000Y-139220339D01*
X168894535Y-139265674D01*
X168883101Y-139303367D01*
X168864534Y-139338103D01*
X168839548Y-139368548D01*
X168809103Y-139393534D01*
X168774367Y-139412101D01*
X168736674Y-139423535D01*
X168691339Y-139428000D01*
X167604661Y-139428000D01*
X167559326Y-139423535D01*
X167521633Y-139412101D01*
X167486897Y-139393534D01*
X167456452Y-139368548D01*
X167431466Y-139338103D01*
X167412899Y-139303367D01*
X167401465Y-139265674D01*
X167397000Y-139220339D01*
X167397000Y-138383661D01*
X167401465Y-138338326D01*
X167412899Y-138300633D01*
X167431466Y-138265897D01*
X167456452Y-138235452D01*
X167486897Y-138210466D01*
X167521633Y-138191899D01*
X167559326Y-138180465D01*
X167604661Y-138176000D01*
X168691339Y-138176000D01*
X168736674Y-138180465D01*
G37*
G36*
X117194226Y-136777705D02*
G01*
X117202796Y-136778000D01*
X117273827Y-136778000D01*
X117305981Y-136784396D01*
X117321752Y-136786500D01*
X117876545Y-136824762D01*
X118047730Y-136853624D01*
X118264255Y-136935962D01*
X118460557Y-137058959D01*
X118572912Y-137164912D01*
X118629090Y-137217888D01*
X118673540Y-137280367D01*
X118763380Y-137406645D01*
X118858265Y-137617973D01*
X118910099Y-137843751D01*
X118916890Y-138075302D01*
X118878376Y-138303730D01*
X118796039Y-138520255D01*
X118673041Y-138716557D01*
X118514111Y-138885090D01*
X118325355Y-139019380D01*
X118114027Y-139114265D01*
X117888249Y-139166098D01*
X117714723Y-139171188D01*
X117121794Y-139130296D01*
X117113196Y-139130000D01*
X117042173Y-139130000D01*
X116947247Y-139111118D01*
X116943643Y-139110456D01*
X116848270Y-139094376D01*
X116841797Y-139091915D01*
X116821772Y-139086159D01*
X116814973Y-139084807D01*
X116755522Y-139060181D01*
X116725540Y-139047763D01*
X116722136Y-139046411D01*
X116631745Y-139012038D01*
X116625881Y-139008364D01*
X116607365Y-138998813D01*
X116600955Y-138996158D01*
X116520415Y-138942343D01*
X116517449Y-138940423D01*
X116435443Y-138889041D01*
X116430404Y-138884289D01*
X116414107Y-138871311D01*
X116408348Y-138867463D01*
X116339882Y-138798997D01*
X116337285Y-138796476D01*
X116266910Y-138730111D01*
X116262902Y-138724478D01*
X116249441Y-138708556D01*
X116244541Y-138703656D01*
X116190750Y-138623152D01*
X116188716Y-138620202D01*
X116132620Y-138541355D01*
X116129781Y-138535033D01*
X116119693Y-138516808D01*
X116115842Y-138511045D01*
X116078766Y-138421535D01*
X116077401Y-138418372D01*
X116037735Y-138330027D01*
X116036185Y-138323275D01*
X116029848Y-138303438D01*
X116027193Y-138297027D01*
X116008301Y-138202050D01*
X116007562Y-138198599D01*
X115985902Y-138104249D01*
X115985699Y-138097341D01*
X115983353Y-138076630D01*
X115982000Y-138069826D01*
X115982000Y-137973027D01*
X115981946Y-137969362D01*
X115979111Y-137872697D01*
X115980260Y-137865882D01*
X115982000Y-137845100D01*
X115982000Y-137838173D01*
X116000882Y-137743246D01*
X116001544Y-137739642D01*
X116006073Y-137712781D01*
X116017624Y-137644270D01*
X116020085Y-137637797D01*
X116025842Y-137617767D01*
X116027193Y-137610973D01*
X116064237Y-137521540D01*
X116065589Y-137518136D01*
X116077049Y-137488000D01*
X116099962Y-137427745D01*
X116103636Y-137421881D01*
X116113187Y-137403365D01*
X116115842Y-137396955D01*
X116169657Y-137316415D01*
X116171577Y-137313449D01*
X116222959Y-137231443D01*
X116227711Y-137226404D01*
X116240689Y-137210107D01*
X116244537Y-137204348D01*
X116313003Y-137135882D01*
X116315524Y-137133285D01*
X116381889Y-137062910D01*
X116387522Y-137058902D01*
X116403444Y-137045441D01*
X116408344Y-137040541D01*
X116488848Y-136986750D01*
X116491798Y-136984716D01*
X116570645Y-136928620D01*
X116576967Y-136925781D01*
X116595192Y-136915693D01*
X116600955Y-136911842D01*
X116690465Y-136874766D01*
X116693628Y-136873401D01*
X116781973Y-136833735D01*
X116788725Y-136832185D01*
X116808562Y-136825848D01*
X116814973Y-136823193D01*
X116909950Y-136804301D01*
X116913401Y-136803562D01*
X117007751Y-136781902D01*
X117014660Y-136781699D01*
X117035370Y-136779353D01*
X117042174Y-136778000D01*
X117138985Y-136778000D01*
X117142585Y-136777947D01*
X117181277Y-136776812D01*
X117194226Y-136777705D01*
G37*
G36*
X136244226Y-136777705D02*
G01*
X136252796Y-136778000D01*
X136323827Y-136778000D01*
X136355981Y-136784396D01*
X136371752Y-136786500D01*
X136926545Y-136824762D01*
X137097730Y-136853624D01*
X137314255Y-136935962D01*
X137510557Y-137058959D01*
X137622912Y-137164912D01*
X137679090Y-137217888D01*
X137723540Y-137280367D01*
X137813380Y-137406645D01*
X137908265Y-137617973D01*
X137960099Y-137843751D01*
X137966890Y-138075302D01*
X137928376Y-138303730D01*
X137846039Y-138520255D01*
X137723041Y-138716557D01*
X137564111Y-138885090D01*
X137375355Y-139019380D01*
X137164027Y-139114265D01*
X136938249Y-139166098D01*
X136764723Y-139171188D01*
X136171794Y-139130296D01*
X136163196Y-139130000D01*
X136092173Y-139130000D01*
X135997247Y-139111118D01*
X135993643Y-139110456D01*
X135898270Y-139094376D01*
X135891797Y-139091915D01*
X135871772Y-139086159D01*
X135864973Y-139084807D01*
X135805522Y-139060181D01*
X135775540Y-139047763D01*
X135772136Y-139046411D01*
X135681745Y-139012038D01*
X135675881Y-139008364D01*
X135657365Y-138998813D01*
X135650955Y-138996158D01*
X135570415Y-138942343D01*
X135567449Y-138940423D01*
X135485443Y-138889041D01*
X135480404Y-138884289D01*
X135464107Y-138871311D01*
X135458348Y-138867463D01*
X135389882Y-138798997D01*
X135387285Y-138796476D01*
X135316910Y-138730111D01*
X135312902Y-138724478D01*
X135299441Y-138708556D01*
X135294541Y-138703656D01*
X135240750Y-138623152D01*
X135238716Y-138620202D01*
X135182620Y-138541355D01*
X135179781Y-138535033D01*
X135169693Y-138516808D01*
X135165842Y-138511045D01*
X135128766Y-138421535D01*
X135127401Y-138418372D01*
X135087735Y-138330027D01*
X135086185Y-138323275D01*
X135079848Y-138303438D01*
X135077193Y-138297027D01*
X135058301Y-138202050D01*
X135057562Y-138198599D01*
X135035902Y-138104249D01*
X135035699Y-138097341D01*
X135033353Y-138076630D01*
X135032000Y-138069826D01*
X135032000Y-137973027D01*
X135031946Y-137969362D01*
X135029111Y-137872697D01*
X135030260Y-137865882D01*
X135032000Y-137845100D01*
X135032000Y-137838173D01*
X135050882Y-137743246D01*
X135051544Y-137739642D01*
X135056073Y-137712781D01*
X135067624Y-137644270D01*
X135070085Y-137637797D01*
X135075842Y-137617767D01*
X135077193Y-137610973D01*
X135114237Y-137521540D01*
X135115589Y-137518136D01*
X135127049Y-137488000D01*
X135149962Y-137427745D01*
X135153636Y-137421881D01*
X135163187Y-137403365D01*
X135165842Y-137396955D01*
X135219657Y-137316415D01*
X135221577Y-137313449D01*
X135272959Y-137231443D01*
X135277711Y-137226404D01*
X135290689Y-137210107D01*
X135294537Y-137204348D01*
X135363003Y-137135882D01*
X135365524Y-137133285D01*
X135431889Y-137062910D01*
X135437522Y-137058902D01*
X135453444Y-137045441D01*
X135458344Y-137040541D01*
X135538848Y-136986750D01*
X135541798Y-136984716D01*
X135620645Y-136928620D01*
X135626967Y-136925781D01*
X135645192Y-136915693D01*
X135650955Y-136911842D01*
X135740465Y-136874766D01*
X135743628Y-136873401D01*
X135831973Y-136833735D01*
X135838725Y-136832185D01*
X135858562Y-136825848D01*
X135864973Y-136823193D01*
X135959950Y-136804301D01*
X135963401Y-136803562D01*
X136057751Y-136781902D01*
X136064660Y-136781699D01*
X136085370Y-136779353D01*
X136092174Y-136778000D01*
X136188985Y-136778000D01*
X136192585Y-136777947D01*
X136231277Y-136776812D01*
X136244226Y-136777705D01*
G37*
G36*
X186262674Y-136157465D02*
G01*
X186300367Y-136168899D01*
X186335103Y-136187466D01*
X186365548Y-136212452D01*
X186390534Y-136242897D01*
X186409101Y-136277633D01*
X186420535Y-136315326D01*
X186425000Y-136360661D01*
X186425000Y-137197339D01*
X186420535Y-137242674D01*
X186409101Y-137280367D01*
X186390534Y-137315103D01*
X186365548Y-137345548D01*
X186335103Y-137370534D01*
X186300367Y-137389101D01*
X186262674Y-137400535D01*
X186217339Y-137405000D01*
X185130661Y-137405000D01*
X185085326Y-137400535D01*
X185047633Y-137389101D01*
X185012897Y-137370534D01*
X184982452Y-137345548D01*
X184957466Y-137315103D01*
X184938899Y-137280367D01*
X184927465Y-137242674D01*
X184923000Y-137197339D01*
X184923000Y-136360661D01*
X184927465Y-136315326D01*
X184938899Y-136277633D01*
X184957466Y-136242897D01*
X184982452Y-136212452D01*
X185012897Y-136187466D01*
X185047633Y-136168899D01*
X185085326Y-136157465D01*
X185130661Y-136153000D01*
X186217339Y-136153000D01*
X186262674Y-136157465D01*
G37*
G36*
X141558104Y-134523585D02*
G01*
X141726626Y-134593389D01*
X141878291Y-134694728D01*
X142007272Y-134823709D01*
X142108611Y-134975374D01*
X142178415Y-135143896D01*
X142214000Y-135322797D01*
X142214000Y-135505203D01*
X142178415Y-135684104D01*
X142108611Y-135852626D01*
X142007272Y-136004291D01*
X141878291Y-136133272D01*
X141726626Y-136234611D01*
X141558104Y-136304415D01*
X141379203Y-136340000D01*
X141196797Y-136340000D01*
X141017896Y-136304415D01*
X140849374Y-136234611D01*
X140697709Y-136133272D01*
X140568728Y-136004291D01*
X140467389Y-135852626D01*
X140397585Y-135684104D01*
X140362000Y-135505203D01*
X140362000Y-135322797D01*
X140397585Y-135143896D01*
X140467389Y-134975374D01*
X140568728Y-134823709D01*
X140697709Y-134694728D01*
X140849374Y-134593389D01*
X141017896Y-134523585D01*
X141196797Y-134488000D01*
X141379203Y-134488000D01*
X141558104Y-134523585D01*
G37*
G36*
X122508104Y-134523585D02*
G01*
X122676626Y-134593389D01*
X122828291Y-134694728D01*
X122957272Y-134823709D01*
X123058611Y-134975374D01*
X123128415Y-135143896D01*
X123164000Y-135322797D01*
X123164000Y-135505203D01*
X123128415Y-135684104D01*
X123058611Y-135852626D01*
X122957272Y-136004291D01*
X122828291Y-136133272D01*
X122676626Y-136234611D01*
X122508104Y-136304415D01*
X122329203Y-136340000D01*
X122146797Y-136340000D01*
X121967896Y-136304415D01*
X121799374Y-136234611D01*
X121647709Y-136133272D01*
X121518728Y-136004291D01*
X121417389Y-135852626D01*
X121347585Y-135684104D01*
X121312000Y-135505203D01*
X121312000Y-135322797D01*
X121347585Y-135143896D01*
X121417389Y-134975374D01*
X121518728Y-134823709D01*
X121647709Y-134694728D01*
X121799374Y-134593389D01*
X121967896Y-134523585D01*
X122146797Y-134488000D01*
X122329203Y-134488000D01*
X122508104Y-134523585D01*
G37*
G36*
X186262674Y-134107465D02*
G01*
X186300367Y-134118899D01*
X186335103Y-134137466D01*
X186365548Y-134162452D01*
X186390534Y-134192897D01*
X186409101Y-134227633D01*
X186420535Y-134265326D01*
X186425000Y-134310661D01*
X186425000Y-135147339D01*
X186420535Y-135192674D01*
X186409101Y-135230367D01*
X186390534Y-135265103D01*
X186365548Y-135295548D01*
X186335103Y-135320534D01*
X186300367Y-135339101D01*
X186262674Y-135350535D01*
X186217339Y-135355000D01*
X185130661Y-135355000D01*
X185085326Y-135350535D01*
X185047633Y-135339101D01*
X185012897Y-135320534D01*
X184982452Y-135295548D01*
X184957466Y-135265103D01*
X184938899Y-135230367D01*
X184927465Y-135192674D01*
X184923000Y-135147339D01*
X184923000Y-134310661D01*
X184927465Y-134265326D01*
X184938899Y-134227633D01*
X184957466Y-134192897D01*
X184982452Y-134162452D01*
X185012897Y-134137466D01*
X185047633Y-134118899D01*
X185085326Y-134107465D01*
X185130661Y-134103000D01*
X186217339Y-134103000D01*
X186262674Y-134107465D01*
G37*
G36*
X181220000Y-134515000D02*
G01*
X172568000Y-134515000D01*
X172568000Y-132913000D01*
X181220000Y-132913000D01*
X181220000Y-134515000D01*
G37*
G36*
X163529674Y-133109465D02*
G01*
X163567367Y-133120899D01*
X163602103Y-133139466D01*
X163632548Y-133164452D01*
X163657534Y-133194897D01*
X163676101Y-133229633D01*
X163687535Y-133267326D01*
X163692000Y-133312661D01*
X163692000Y-134149339D01*
X163687535Y-134194674D01*
X163676101Y-134232367D01*
X163657534Y-134267103D01*
X163632548Y-134297548D01*
X163602103Y-134322534D01*
X163567367Y-134341101D01*
X163529674Y-134352535D01*
X163484339Y-134357000D01*
X162397661Y-134357000D01*
X162352326Y-134352535D01*
X162314633Y-134341101D01*
X162279897Y-134322534D01*
X162249452Y-134297548D01*
X162224466Y-134267103D01*
X162205899Y-134232367D01*
X162194465Y-134194674D01*
X162190000Y-134149339D01*
X162190000Y-133312661D01*
X162194465Y-133267326D01*
X162205899Y-133229633D01*
X162224466Y-133194897D01*
X162249452Y-133164452D01*
X162279897Y-133139466D01*
X162314633Y-133120899D01*
X162352326Y-133109465D01*
X162397661Y-133105000D01*
X163484339Y-133105000D01*
X163529674Y-133109465D01*
G37*
G36*
X167942674Y-132982465D02*
G01*
X167980367Y-132993899D01*
X168015103Y-133012466D01*
X168045548Y-133037452D01*
X168070534Y-133067897D01*
X168089101Y-133102633D01*
X168100535Y-133140326D01*
X168105000Y-133185661D01*
X168105000Y-134022339D01*
X168100535Y-134067674D01*
X168089101Y-134105367D01*
X168070534Y-134140103D01*
X168045548Y-134170548D01*
X168015103Y-134195534D01*
X167980367Y-134214101D01*
X167942674Y-134225535D01*
X167897339Y-134230000D01*
X166810661Y-134230000D01*
X166765326Y-134225535D01*
X166727633Y-134214101D01*
X166692897Y-134195534D01*
X166662452Y-134170548D01*
X166637466Y-134140103D01*
X166618899Y-134105367D01*
X166607465Y-134067674D01*
X166603000Y-134022339D01*
X166603000Y-133185661D01*
X166607465Y-133140326D01*
X166618899Y-133102633D01*
X166637466Y-133067897D01*
X166662452Y-133037452D01*
X166692897Y-133012466D01*
X166727633Y-132993899D01*
X166765326Y-132982465D01*
X166810661Y-132978000D01*
X167897339Y-132978000D01*
X167942674Y-132982465D01*
G37*
G36*
X163529674Y-131059465D02*
G01*
X163567367Y-131070899D01*
X163602103Y-131089466D01*
X163632548Y-131114452D01*
X163657534Y-131144897D01*
X163676101Y-131179633D01*
X163687535Y-131217326D01*
X163692000Y-131262661D01*
X163692000Y-132099339D01*
X163687535Y-132144674D01*
X163676101Y-132182367D01*
X163657534Y-132217103D01*
X163632548Y-132247548D01*
X163602103Y-132272534D01*
X163567367Y-132291101D01*
X163529674Y-132302535D01*
X163484339Y-132307000D01*
X162397661Y-132307000D01*
X162352326Y-132302535D01*
X162314633Y-132291101D01*
X162279897Y-132272534D01*
X162249452Y-132247548D01*
X162224466Y-132217103D01*
X162205899Y-132182367D01*
X162194465Y-132144674D01*
X162190000Y-132099339D01*
X162190000Y-131262661D01*
X162194465Y-131217326D01*
X162205899Y-131179633D01*
X162224466Y-131144897D01*
X162249452Y-131114452D01*
X162279897Y-131089466D01*
X162314633Y-131070899D01*
X162352326Y-131059465D01*
X162397661Y-131055000D01*
X163484339Y-131055000D01*
X163529674Y-131059465D01*
G37*
G36*
X181722674Y-130982465D02*
G01*
X181760367Y-130993899D01*
X181795103Y-131012466D01*
X181825548Y-131037452D01*
X181850534Y-131067897D01*
X181869101Y-131102633D01*
X181880535Y-131140326D01*
X181885000Y-131185661D01*
X181885000Y-132022339D01*
X181880535Y-132067674D01*
X181869101Y-132105367D01*
X181850534Y-132140103D01*
X181825548Y-132170548D01*
X181795103Y-132195534D01*
X181760367Y-132214101D01*
X181722674Y-132225535D01*
X181677339Y-132230000D01*
X180590661Y-132230000D01*
X180545326Y-132225535D01*
X180507633Y-132214101D01*
X180472897Y-132195534D01*
X180442452Y-132170548D01*
X180417466Y-132140103D01*
X180398899Y-132105367D01*
X180387465Y-132067674D01*
X180383000Y-132022339D01*
X180383000Y-131185661D01*
X180387465Y-131140326D01*
X180398899Y-131102633D01*
X180417466Y-131067897D01*
X180442452Y-131037452D01*
X180472897Y-131012466D01*
X180507633Y-130993899D01*
X180545326Y-130982465D01*
X180590661Y-130978000D01*
X181677339Y-130978000D01*
X181722674Y-130982465D01*
G37*
G36*
X174483674Y-130982465D02*
G01*
X174521367Y-130993899D01*
X174556103Y-131012466D01*
X174586548Y-131037452D01*
X174611534Y-131067897D01*
X174630101Y-131102633D01*
X174641535Y-131140326D01*
X174646000Y-131185661D01*
X174646000Y-132022339D01*
X174641535Y-132067674D01*
X174630101Y-132105367D01*
X174611534Y-132140103D01*
X174586548Y-132170548D01*
X174556103Y-132195534D01*
X174521367Y-132214101D01*
X174483674Y-132225535D01*
X174438339Y-132230000D01*
X173351661Y-132230000D01*
X173306326Y-132225535D01*
X173268633Y-132214101D01*
X173233897Y-132195534D01*
X173203452Y-132170548D01*
X173178466Y-132140103D01*
X173159899Y-132105367D01*
X173148465Y-132067674D01*
X173144000Y-132022339D01*
X173144000Y-131185661D01*
X173148465Y-131140326D01*
X173159899Y-131102633D01*
X173178466Y-131067897D01*
X173203452Y-131037452D01*
X173233897Y-131012466D01*
X173268633Y-130993899D01*
X173306326Y-130982465D01*
X173351661Y-130978000D01*
X174438339Y-130978000D01*
X174483674Y-130982465D01*
G37*
G36*
X167942674Y-130932465D02*
G01*
X167980367Y-130943899D01*
X168015103Y-130962466D01*
X168045548Y-130987452D01*
X168070534Y-131017897D01*
X168089101Y-131052633D01*
X168100535Y-131090326D01*
X168105000Y-131135661D01*
X168105000Y-131972339D01*
X168100535Y-132017674D01*
X168089101Y-132055367D01*
X168070534Y-132090103D01*
X168045548Y-132120548D01*
X168015103Y-132145534D01*
X167980367Y-132164101D01*
X167942674Y-132175535D01*
X167897339Y-132180000D01*
X166810661Y-132180000D01*
X166765326Y-132175535D01*
X166727633Y-132164101D01*
X166692897Y-132145534D01*
X166662452Y-132120548D01*
X166637466Y-132090103D01*
X166618899Y-132055367D01*
X166607465Y-132017674D01*
X166603000Y-131972339D01*
X166603000Y-131135661D01*
X166607465Y-131090326D01*
X166618899Y-131052633D01*
X166637466Y-131017897D01*
X166662452Y-130987452D01*
X166692897Y-130962466D01*
X166727633Y-130943899D01*
X166765326Y-130932465D01*
X166810661Y-130928000D01*
X167897339Y-130928000D01*
X167942674Y-130932465D01*
G37*
G36*
X179377000Y-132096000D02*
G01*
X177875000Y-132096000D01*
X177875000Y-130794000D01*
X179377000Y-130794000D01*
X179377000Y-132096000D01*
G37*
G36*
X177177000Y-132096000D02*
G01*
X175675000Y-132096000D01*
X175675000Y-130794000D01*
X177177000Y-130794000D01*
X177177000Y-132096000D01*
G37*
G36*
X177177000Y-130396000D02*
G01*
X175675000Y-130396000D01*
X175675000Y-129094000D01*
X177177000Y-129094000D01*
X177177000Y-130396000D01*
G37*
G36*
X179377000Y-130396000D02*
G01*
X177875000Y-130396000D01*
X177875000Y-129094000D01*
X179377000Y-129094000D01*
X179377000Y-130396000D01*
G37*
G36*
X181722674Y-128932465D02*
G01*
X181760367Y-128943899D01*
X181795103Y-128962466D01*
X181825548Y-128987452D01*
X181850534Y-129017897D01*
X181869101Y-129052633D01*
X181880535Y-129090326D01*
X181885000Y-129135661D01*
X181885000Y-129972339D01*
X181880535Y-130017674D01*
X181869101Y-130055367D01*
X181850534Y-130090103D01*
X181825548Y-130120548D01*
X181795103Y-130145534D01*
X181760367Y-130164101D01*
X181722674Y-130175535D01*
X181677339Y-130180000D01*
X180590661Y-130180000D01*
X180545326Y-130175535D01*
X180507633Y-130164101D01*
X180472897Y-130145534D01*
X180442452Y-130120548D01*
X180417466Y-130090103D01*
X180398899Y-130055367D01*
X180387465Y-130017674D01*
X180383000Y-129972339D01*
X180383000Y-129135661D01*
X180387465Y-129090326D01*
X180398899Y-129052633D01*
X180417466Y-129017897D01*
X180442452Y-128987452D01*
X180472897Y-128962466D01*
X180507633Y-128943899D01*
X180545326Y-128932465D01*
X180590661Y-128928000D01*
X181677339Y-128928000D01*
X181722674Y-128932465D01*
G37*
G36*
X174483674Y-128932465D02*
G01*
X174521367Y-128943899D01*
X174556103Y-128962466D01*
X174586548Y-128987452D01*
X174611534Y-129017897D01*
X174630101Y-129052633D01*
X174641535Y-129090326D01*
X174646000Y-129135661D01*
X174646000Y-129972339D01*
X174641535Y-130017674D01*
X174630101Y-130055367D01*
X174611534Y-130090103D01*
X174586548Y-130120548D01*
X174556103Y-130145534D01*
X174521367Y-130164101D01*
X174483674Y-130175535D01*
X174438339Y-130180000D01*
X173351661Y-130180000D01*
X173306326Y-130175535D01*
X173268633Y-130164101D01*
X173233897Y-130145534D01*
X173203452Y-130120548D01*
X173178466Y-130090103D01*
X173159899Y-130055367D01*
X173148465Y-130017674D01*
X173144000Y-129972339D01*
X173144000Y-129135661D01*
X173148465Y-129090326D01*
X173159899Y-129052633D01*
X173178466Y-129017897D01*
X173203452Y-128987452D01*
X173233897Y-128962466D01*
X173268633Y-128943899D01*
X173306326Y-128932465D01*
X173351661Y-128928000D01*
X174438339Y-128928000D01*
X174483674Y-128932465D01*
G37*
G36*
X122508104Y-125633585D02*
G01*
X122676626Y-125703389D01*
X122828291Y-125804728D01*
X122957272Y-125933709D01*
X123058611Y-126085374D01*
X123128415Y-126253896D01*
X123164000Y-126432797D01*
X123164000Y-126615203D01*
X123128415Y-126794104D01*
X123058611Y-126962626D01*
X122957272Y-127114291D01*
X122828291Y-127243272D01*
X122676626Y-127344611D01*
X122508104Y-127414415D01*
X122329203Y-127450000D01*
X122146797Y-127450000D01*
X121967896Y-127414415D01*
X121799374Y-127344611D01*
X121647709Y-127243272D01*
X121518728Y-127114291D01*
X121417389Y-126962626D01*
X121347585Y-126794104D01*
X121312000Y-126615203D01*
X121312000Y-126432797D01*
X121347585Y-126253896D01*
X121417389Y-126085374D01*
X121518728Y-125933709D01*
X121647709Y-125804728D01*
X121799374Y-125703389D01*
X121967896Y-125633585D01*
X122146797Y-125598000D01*
X122329203Y-125598000D01*
X122508104Y-125633585D01*
G37*
G36*
X141558104Y-125633585D02*
G01*
X141726626Y-125703389D01*
X141878291Y-125804728D01*
X142007272Y-125933709D01*
X142108611Y-126085374D01*
X142178415Y-126253896D01*
X142214000Y-126432797D01*
X142214000Y-126615203D01*
X142178415Y-126794104D01*
X142108611Y-126962626D01*
X142007272Y-127114291D01*
X141878291Y-127243272D01*
X141726626Y-127344611D01*
X141558104Y-127414415D01*
X141379203Y-127450000D01*
X141196797Y-127450000D01*
X141017896Y-127414415D01*
X140849374Y-127344611D01*
X140697709Y-127243272D01*
X140568728Y-127114291D01*
X140467389Y-126962626D01*
X140397585Y-126794104D01*
X140362000Y-126615203D01*
X140362000Y-126432797D01*
X140397585Y-126253896D01*
X140467389Y-126085374D01*
X140568728Y-125933709D01*
X140697709Y-125804728D01*
X140849374Y-125703389D01*
X141017896Y-125633585D01*
X141196797Y-125598000D01*
X141379203Y-125598000D01*
X141558104Y-125633585D01*
G37*
G36*
X137311249Y-122767881D02*
G01*
X137316689Y-122768000D01*
X137403826Y-122768000D01*
X137420087Y-122771234D01*
X137438941Y-122773512D01*
X137455530Y-122774244D01*
X137540222Y-122795008D01*
X137545558Y-122796192D01*
X137560554Y-122799175D01*
X137631027Y-122813193D01*
X137646345Y-122819538D01*
X137664404Y-122825454D01*
X137680519Y-122829405D01*
X137759523Y-122866288D01*
X137764503Y-122868480D01*
X137845045Y-122901842D01*
X137845047Y-122901843D01*
X137858827Y-122911051D01*
X137875395Y-122920382D01*
X137890422Y-122927397D01*
X137890424Y-122927398D01*
X137890423Y-122927398D01*
X137960700Y-122978975D01*
X137965198Y-122982126D01*
X138037656Y-123030541D01*
X138094662Y-123087547D01*
X138099556Y-123092183D01*
X138629384Y-123567577D01*
X139576376Y-124417276D01*
X139668185Y-124517558D01*
X139693603Y-124545321D01*
X139813689Y-124743416D01*
X139892823Y-124961133D01*
X139927961Y-125190104D01*
X139917754Y-125421530D01*
X139862593Y-125646519D01*
X139811028Y-125756973D01*
X139764602Y-125856421D01*
X139764600Y-125856423D01*
X139764600Y-125856424D01*
X139627539Y-126043177D01*
X139456679Y-126199603D01*
X139258583Y-126319689D01*
X139040866Y-126398823D01*
X138811896Y-126433961D01*
X138580469Y-126423754D01*
X138355480Y-126368593D01*
X138245027Y-126317028D01*
X138145579Y-126270602D01*
X138145576Y-126270600D01*
X138005622Y-126167886D01*
X136571623Y-124881214D01*
X136557591Y-124870320D01*
X136538346Y-124857461D01*
X136481303Y-124800418D01*
X136476394Y-124795768D01*
X136459624Y-124780721D01*
X136440021Y-124759309D01*
X136436213Y-124755328D01*
X136374541Y-124693656D01*
X136365316Y-124679850D01*
X136353582Y-124664892D01*
X136342396Y-124652674D01*
X136297252Y-124578204D01*
X136294293Y-124573557D01*
X136245841Y-124501043D01*
X136239489Y-124485708D01*
X136230899Y-124468747D01*
X136222311Y-124454581D01*
X136192554Y-124372711D01*
X136190564Y-124367591D01*
X136157193Y-124287026D01*
X136153956Y-124270752D01*
X136148843Y-124252453D01*
X136143177Y-124236864D01*
X136129956Y-124150715D01*
X136129009Y-124145338D01*
X136112000Y-124059827D01*
X136112000Y-124043233D01*
X136110555Y-124024290D01*
X136108039Y-124007893D01*
X136111880Y-123920794D01*
X136112000Y-123915354D01*
X136112000Y-123828172D01*
X136115236Y-123811903D01*
X136117515Y-123793044D01*
X136118246Y-123776468D01*
X136139010Y-123691777D01*
X136140186Y-123686474D01*
X136140951Y-123682627D01*
X136157193Y-123600973D01*
X136163545Y-123585638D01*
X136169455Y-123567599D01*
X136173407Y-123551479D01*
X136210277Y-123472503D01*
X136212477Y-123467506D01*
X136245842Y-123386955D01*
X136255060Y-123373159D01*
X136264387Y-123356598D01*
X136271400Y-123341575D01*
X136322961Y-123271320D01*
X136326122Y-123266808D01*
X136374541Y-123194344D01*
X136386268Y-123182617D01*
X136398652Y-123168187D01*
X136408462Y-123154820D01*
X136472733Y-123095979D01*
X136476714Y-123092171D01*
X136538344Y-123030541D01*
X136552135Y-123021326D01*
X136567093Y-123009592D01*
X136579324Y-122998394D01*
X136631261Y-122966910D01*
X136653859Y-122953211D01*
X136658456Y-122950285D01*
X136730955Y-122901842D01*
X136746278Y-122895495D01*
X136763233Y-122886908D01*
X136777417Y-122878309D01*
X136859342Y-122848532D01*
X136864435Y-122846553D01*
X136944973Y-122813193D01*
X136961237Y-122809958D01*
X136979532Y-122804846D01*
X136995134Y-122799175D01*
X137081342Y-122785945D01*
X137086713Y-122784999D01*
X137172173Y-122768000D01*
X137188752Y-122768000D01*
X137207694Y-122766555D01*
X137224105Y-122764037D01*
X137311249Y-122767881D01*
G37*
G36*
X118261249Y-122767881D02*
G01*
X118266689Y-122768000D01*
X118353826Y-122768000D01*
X118370087Y-122771234D01*
X118388941Y-122773512D01*
X118405530Y-122774244D01*
X118490222Y-122795008D01*
X118495558Y-122796192D01*
X118510554Y-122799175D01*
X118581027Y-122813193D01*
X118596345Y-122819538D01*
X118614404Y-122825454D01*
X118630519Y-122829405D01*
X118709523Y-122866288D01*
X118714503Y-122868480D01*
X118795045Y-122901842D01*
X118795047Y-122901843D01*
X118808827Y-122911051D01*
X118825395Y-122920382D01*
X118840422Y-122927397D01*
X118840424Y-122927398D01*
X118840423Y-122927398D01*
X118910700Y-122978975D01*
X118915198Y-122982126D01*
X118987656Y-123030541D01*
X119044662Y-123087547D01*
X119049556Y-123092183D01*
X119579384Y-123567577D01*
X120526376Y-124417276D01*
X120618185Y-124517558D01*
X120643603Y-124545321D01*
X120763689Y-124743416D01*
X120842823Y-124961133D01*
X120877961Y-125190104D01*
X120867754Y-125421530D01*
X120812593Y-125646519D01*
X120761028Y-125756973D01*
X120714602Y-125856421D01*
X120714600Y-125856423D01*
X120714600Y-125856424D01*
X120577539Y-126043177D01*
X120406679Y-126199603D01*
X120208583Y-126319689D01*
X119990866Y-126398823D01*
X119761896Y-126433961D01*
X119530469Y-126423754D01*
X119305480Y-126368593D01*
X119195027Y-126317028D01*
X119095579Y-126270602D01*
X119095576Y-126270600D01*
X118955622Y-126167886D01*
X117521623Y-124881214D01*
X117507591Y-124870320D01*
X117488346Y-124857461D01*
X117431303Y-124800418D01*
X117426394Y-124795768D01*
X117409624Y-124780721D01*
X117390021Y-124759309D01*
X117386213Y-124755328D01*
X117324541Y-124693656D01*
X117315316Y-124679850D01*
X117303582Y-124664892D01*
X117292396Y-124652674D01*
X117247252Y-124578204D01*
X117244293Y-124573557D01*
X117195841Y-124501043D01*
X117189489Y-124485708D01*
X117180899Y-124468747D01*
X117172311Y-124454581D01*
X117142554Y-124372711D01*
X117140564Y-124367591D01*
X117107193Y-124287026D01*
X117103956Y-124270752D01*
X117098843Y-124252453D01*
X117093177Y-124236864D01*
X117079956Y-124150715D01*
X117079009Y-124145338D01*
X117062000Y-124059827D01*
X117062000Y-124043233D01*
X117060555Y-124024290D01*
X117058039Y-124007893D01*
X117061880Y-123920794D01*
X117062000Y-123915354D01*
X117062000Y-123828172D01*
X117065236Y-123811903D01*
X117067515Y-123793044D01*
X117068246Y-123776468D01*
X117089010Y-123691777D01*
X117090186Y-123686474D01*
X117090951Y-123682627D01*
X117107193Y-123600973D01*
X117113545Y-123585638D01*
X117119455Y-123567599D01*
X117123407Y-123551479D01*
X117160277Y-123472503D01*
X117162477Y-123467506D01*
X117195842Y-123386955D01*
X117205060Y-123373159D01*
X117214387Y-123356598D01*
X117221400Y-123341575D01*
X117272961Y-123271320D01*
X117276122Y-123266808D01*
X117324541Y-123194344D01*
X117336268Y-123182617D01*
X117348652Y-123168187D01*
X117358462Y-123154820D01*
X117422733Y-123095979D01*
X117426714Y-123092171D01*
X117488344Y-123030541D01*
X117502135Y-123021326D01*
X117517093Y-123009592D01*
X117529324Y-122998394D01*
X117581261Y-122966910D01*
X117603859Y-122953211D01*
X117608456Y-122950285D01*
X117680955Y-122901842D01*
X117696278Y-122895495D01*
X117713233Y-122886908D01*
X117727417Y-122878309D01*
X117809342Y-122848532D01*
X117814435Y-122846553D01*
X117894973Y-122813193D01*
X117911237Y-122809958D01*
X117929532Y-122804846D01*
X117945134Y-122799175D01*
X118031342Y-122785945D01*
X118036713Y-122784999D01*
X118122173Y-122768000D01*
X118138752Y-122768000D01*
X118157694Y-122766555D01*
X118174105Y-122764037D01*
X118261249Y-122767881D01*
G37*
G36*
X184760443Y-122611519D02*
G01*
X184826627Y-122618037D01*
X184996466Y-122669557D01*
X185152991Y-122753222D01*
X185188729Y-122782552D01*
X185290186Y-122865814D01*
X185373448Y-122967271D01*
X185402778Y-123003009D01*
X185486443Y-123159534D01*
X185537963Y-123329373D01*
X185555359Y-123506000D01*
X185537963Y-123682627D01*
X185486443Y-123852466D01*
X185402778Y-124008991D01*
X185390236Y-124024273D01*
X185290186Y-124146186D01*
X185188729Y-124229448D01*
X185152991Y-124258778D01*
X184996466Y-124342443D01*
X184826627Y-124393963D01*
X184760443Y-124400481D01*
X184694260Y-124407000D01*
X183605740Y-124407000D01*
X183539557Y-124400481D01*
X183473373Y-124393963D01*
X183303534Y-124342443D01*
X183147009Y-124258778D01*
X183111271Y-124229448D01*
X183009814Y-124146186D01*
X182909764Y-124024273D01*
X182897222Y-124008991D01*
X182813557Y-123852466D01*
X182762037Y-123682627D01*
X182744641Y-123506000D01*
X182762037Y-123329373D01*
X182813557Y-123159534D01*
X182897222Y-123003009D01*
X182926552Y-122967271D01*
X183009814Y-122865814D01*
X183111271Y-122782552D01*
X183147009Y-122753222D01*
X183303534Y-122669557D01*
X183473373Y-122618037D01*
X183539557Y-122611519D01*
X183605740Y-122605000D01*
X184694260Y-122605000D01*
X184760443Y-122611519D01*
G37*
G36*
X189260443Y-122611519D02*
G01*
X189326627Y-122618037D01*
X189496466Y-122669557D01*
X189652991Y-122753222D01*
X189688729Y-122782552D01*
X189790186Y-122865814D01*
X189873448Y-122967271D01*
X189902778Y-123003009D01*
X189986443Y-123159534D01*
X190037963Y-123329373D01*
X190055359Y-123506000D01*
X190037963Y-123682627D01*
X189986443Y-123852466D01*
X189902778Y-124008991D01*
X189890236Y-124024273D01*
X189790186Y-124146186D01*
X189688729Y-124229448D01*
X189652991Y-124258778D01*
X189496466Y-124342443D01*
X189326627Y-124393963D01*
X189260443Y-124400481D01*
X189194260Y-124407000D01*
X188105740Y-124407000D01*
X188039557Y-124400481D01*
X187973373Y-124393963D01*
X187803534Y-124342443D01*
X187647009Y-124258778D01*
X187611271Y-124229448D01*
X187509814Y-124146186D01*
X187409764Y-124024273D01*
X187397222Y-124008991D01*
X187313557Y-123852466D01*
X187262037Y-123682627D01*
X187244641Y-123506000D01*
X187262037Y-123329373D01*
X187313557Y-123159534D01*
X187397222Y-123003009D01*
X187426552Y-122967271D01*
X187509814Y-122865814D01*
X187611271Y-122782552D01*
X187647009Y-122753222D01*
X187803534Y-122669557D01*
X187973373Y-122618037D01*
X188039557Y-122611519D01*
X188105740Y-122605000D01*
X189194260Y-122605000D01*
X189260443Y-122611519D01*
G37*
G36*
X122834474Y-119477684D02*
G01*
X123021131Y-119555000D01*
X123206623Y-119631833D01*
X123541548Y-119855623D01*
X123826377Y-120140452D01*
X124050167Y-120475377D01*
X124050167Y-120475378D01*
X124204316Y-120847526D01*
X124282900Y-121242594D01*
X124282900Y-121645406D01*
X124204316Y-122040474D01*
X124114017Y-122258474D01*
X124050167Y-122412623D01*
X123826377Y-122747548D01*
X123541548Y-123032377D01*
X123206623Y-123256167D01*
X123067358Y-123313852D01*
X122834474Y-123410316D01*
X122439406Y-123488900D01*
X122036594Y-123488900D01*
X121641526Y-123410316D01*
X121408642Y-123313852D01*
X121269377Y-123256167D01*
X120934452Y-123032377D01*
X120649623Y-122747548D01*
X120425833Y-122412623D01*
X120361983Y-122258474D01*
X120271684Y-122040474D01*
X120193100Y-121645406D01*
X120193100Y-121242594D01*
X120271684Y-120847526D01*
X120425833Y-120475378D01*
X120425833Y-120475377D01*
X120649623Y-120140452D01*
X120934452Y-119855623D01*
X121269377Y-119631833D01*
X121454869Y-119555000D01*
X121641526Y-119477684D01*
X122036594Y-119399100D01*
X122439406Y-119399100D01*
X122834474Y-119477684D01*
G37*
G36*
X141884474Y-119477684D02*
G01*
X142071131Y-119555000D01*
X142256623Y-119631833D01*
X142591548Y-119855623D01*
X142876377Y-120140452D01*
X143100167Y-120475377D01*
X143100167Y-120475378D01*
X143254316Y-120847526D01*
X143332900Y-121242594D01*
X143332900Y-121645406D01*
X143254316Y-122040474D01*
X143164017Y-122258474D01*
X143100167Y-122412623D01*
X142876377Y-122747548D01*
X142591548Y-123032377D01*
X142256623Y-123256167D01*
X142117358Y-123313852D01*
X141884474Y-123410316D01*
X141489406Y-123488900D01*
X141086594Y-123488900D01*
X140691526Y-123410316D01*
X140458642Y-123313852D01*
X140319377Y-123256167D01*
X139984452Y-123032377D01*
X139699623Y-122747548D01*
X139475833Y-122412623D01*
X139411983Y-122258474D01*
X139321684Y-122040474D01*
X139243100Y-121645406D01*
X139243100Y-121242594D01*
X139321684Y-120847526D01*
X139475833Y-120475378D01*
X139475833Y-120475377D01*
X139699623Y-120140452D01*
X139984452Y-119855623D01*
X140319377Y-119631833D01*
X140504869Y-119555000D01*
X140691526Y-119477684D01*
X141086594Y-119399100D01*
X141489406Y-119399100D01*
X141884474Y-119477684D01*
G37*
G36*
X170066562Y-121796181D02*
G01*
X170101481Y-121806774D01*
X170133663Y-121823976D01*
X170161873Y-121847127D01*
X170185024Y-121875337D01*
X170202226Y-121907519D01*
X170212819Y-121942438D01*
X170217000Y-121984895D01*
X170217000Y-123126105D01*
X170212819Y-123168562D01*
X170202226Y-123203481D01*
X170185024Y-123235663D01*
X170161873Y-123263873D01*
X170133663Y-123287024D01*
X170101481Y-123304226D01*
X170066562Y-123314819D01*
X170024105Y-123319000D01*
X168557895Y-123319000D01*
X168515438Y-123314819D01*
X168480519Y-123304226D01*
X168448337Y-123287024D01*
X168420127Y-123263873D01*
X168396976Y-123235663D01*
X168379774Y-123203481D01*
X168369181Y-123168562D01*
X168365000Y-123126105D01*
X168365000Y-121984895D01*
X168369181Y-121942438D01*
X168379774Y-121907519D01*
X168396976Y-121875337D01*
X168420127Y-121847127D01*
X168448337Y-121823976D01*
X168480519Y-121806774D01*
X168515438Y-121796181D01*
X168557895Y-121792000D01*
X170024105Y-121792000D01*
X170066562Y-121796181D01*
G37*
G36*
X178313674Y-121053465D02*
G01*
X178351367Y-121064899D01*
X178386103Y-121083466D01*
X178416548Y-121108452D01*
X178441534Y-121138897D01*
X178460101Y-121173633D01*
X178471535Y-121211326D01*
X178476000Y-121256661D01*
X178476000Y-122343339D01*
X178471535Y-122388674D01*
X178460101Y-122426367D01*
X178441534Y-122461103D01*
X178416548Y-122491548D01*
X178386103Y-122516534D01*
X178351367Y-122535101D01*
X178313674Y-122546535D01*
X178268339Y-122551000D01*
X177431661Y-122551000D01*
X177386326Y-122546535D01*
X177348633Y-122535101D01*
X177313897Y-122516534D01*
X177283452Y-122491548D01*
X177258466Y-122461103D01*
X177239899Y-122426367D01*
X177228465Y-122388674D01*
X177224000Y-122343339D01*
X177224000Y-121256661D01*
X177228465Y-121211326D01*
X177239899Y-121173633D01*
X177258466Y-121138897D01*
X177283452Y-121108452D01*
X177313897Y-121083466D01*
X177348633Y-121064899D01*
X177386326Y-121053465D01*
X177431661Y-121049000D01*
X178268339Y-121049000D01*
X178313674Y-121053465D01*
G37*
G36*
X180363674Y-121053465D02*
G01*
X180401367Y-121064899D01*
X180436103Y-121083466D01*
X180466548Y-121108452D01*
X180491534Y-121138897D01*
X180510101Y-121173633D01*
X180521535Y-121211326D01*
X180526000Y-121256661D01*
X180526000Y-122343339D01*
X180521535Y-122388674D01*
X180510101Y-122426367D01*
X180491534Y-122461103D01*
X180466548Y-122491548D01*
X180436103Y-122516534D01*
X180401367Y-122535101D01*
X180363674Y-122546535D01*
X180318339Y-122551000D01*
X179481661Y-122551000D01*
X179436326Y-122546535D01*
X179398633Y-122535101D01*
X179363897Y-122516534D01*
X179333452Y-122491548D01*
X179308466Y-122461103D01*
X179289899Y-122426367D01*
X179278465Y-122388674D01*
X179274000Y-122343339D01*
X179274000Y-121256661D01*
X179278465Y-121211326D01*
X179289899Y-121173633D01*
X179308466Y-121138897D01*
X179333452Y-121108452D01*
X179363897Y-121083466D01*
X179398633Y-121064899D01*
X179436326Y-121053465D01*
X179481661Y-121049000D01*
X180318339Y-121049000D01*
X180363674Y-121053465D01*
G37*
G36*
X161814000Y-121912000D02*
G01*
X160512000Y-121912000D01*
X160512000Y-120910000D01*
X161814000Y-120910000D01*
X161814000Y-121912000D01*
G37*
G36*
X159401000Y-121911000D02*
G01*
X158099000Y-121911000D01*
X158099000Y-120909000D01*
X159401000Y-120909000D01*
X159401000Y-121911000D01*
G37*
G36*
X185326000Y-121757000D02*
G01*
X182974000Y-121757000D01*
X182974000Y-117955000D01*
X185326000Y-117955000D01*
X185326000Y-121757000D01*
G37*
G36*
X178313674Y-118853465D02*
G01*
X178351367Y-118864899D01*
X178386103Y-118883466D01*
X178416548Y-118908452D01*
X178441534Y-118938897D01*
X178460101Y-118973633D01*
X178471535Y-119011326D01*
X178476000Y-119056661D01*
X178476000Y-120143339D01*
X178471535Y-120188674D01*
X178460101Y-120226367D01*
X178441534Y-120261103D01*
X178416548Y-120291548D01*
X178386103Y-120316534D01*
X178351367Y-120335101D01*
X178313674Y-120346535D01*
X178268339Y-120351000D01*
X177431661Y-120351000D01*
X177386326Y-120346535D01*
X177348633Y-120335101D01*
X177313897Y-120316534D01*
X177283452Y-120291548D01*
X177258466Y-120261103D01*
X177239899Y-120226367D01*
X177228465Y-120188674D01*
X177224000Y-120143339D01*
X177224000Y-119056661D01*
X177228465Y-119011326D01*
X177239899Y-118973633D01*
X177258466Y-118938897D01*
X177283452Y-118908452D01*
X177313897Y-118883466D01*
X177348633Y-118864899D01*
X177386326Y-118853465D01*
X177431661Y-118849000D01*
X178268339Y-118849000D01*
X178313674Y-118853465D01*
G37*
G36*
X180363674Y-118853465D02*
G01*
X180401367Y-118864899D01*
X180436103Y-118883466D01*
X180466548Y-118908452D01*
X180491534Y-118938897D01*
X180510101Y-118973633D01*
X180521535Y-119011326D01*
X180526000Y-119056661D01*
X180526000Y-120143339D01*
X180521535Y-120188674D01*
X180510101Y-120226367D01*
X180491534Y-120261103D01*
X180466548Y-120291548D01*
X180436103Y-120316534D01*
X180401367Y-120335101D01*
X180363674Y-120346535D01*
X180318339Y-120351000D01*
X179481661Y-120351000D01*
X179436326Y-120346535D01*
X179398633Y-120335101D01*
X179363897Y-120316534D01*
X179333452Y-120291548D01*
X179308466Y-120261103D01*
X179289899Y-120226367D01*
X179278465Y-120188674D01*
X179274000Y-120143339D01*
X179274000Y-119056661D01*
X179278465Y-119011326D01*
X179289899Y-118973633D01*
X179308466Y-118938897D01*
X179333452Y-118908452D01*
X179363897Y-118883466D01*
X179398633Y-118864899D01*
X179436326Y-118853465D01*
X179481661Y-118849000D01*
X180318339Y-118849000D01*
X180363674Y-118853465D01*
G37*
G36*
X170066562Y-118821181D02*
G01*
X170101481Y-118831774D01*
X170133663Y-118848976D01*
X170161873Y-118872127D01*
X170185024Y-118900337D01*
X170202226Y-118932519D01*
X170212819Y-118967438D01*
X170217000Y-119009895D01*
X170217000Y-120151105D01*
X170212819Y-120193562D01*
X170202226Y-120228481D01*
X170185024Y-120260663D01*
X170161873Y-120288873D01*
X170133663Y-120312024D01*
X170101481Y-120329226D01*
X170066562Y-120339819D01*
X170024105Y-120344000D01*
X168557895Y-120344000D01*
X168515438Y-120339819D01*
X168480519Y-120329226D01*
X168448337Y-120312024D01*
X168420127Y-120288873D01*
X168396976Y-120260663D01*
X168379774Y-120228481D01*
X168369181Y-120193562D01*
X168365000Y-120151105D01*
X168365000Y-119009895D01*
X168369181Y-118967438D01*
X168379774Y-118932519D01*
X168396976Y-118900337D01*
X168420127Y-118872127D01*
X168448337Y-118848976D01*
X168480519Y-118831774D01*
X168515438Y-118821181D01*
X168557895Y-118817000D01*
X170024105Y-118817000D01*
X170066562Y-118821181D01*
G37*
G36*
X136244226Y-117727705D02*
G01*
X136252796Y-117728000D01*
X136323827Y-117728000D01*
X136355981Y-117734396D01*
X136371752Y-117736500D01*
X136926545Y-117774762D01*
X137097730Y-117803624D01*
X137314255Y-117885962D01*
X137510557Y-118008959D01*
X137622912Y-118114912D01*
X137679090Y-118167888D01*
X137746235Y-118262267D01*
X137813380Y-118356645D01*
X137908265Y-118567973D01*
X137960099Y-118793751D01*
X137966890Y-119025302D01*
X137928376Y-119253730D01*
X137846039Y-119470255D01*
X137723041Y-119666557D01*
X137564111Y-119835090D01*
X137375355Y-119969380D01*
X137164027Y-120064265D01*
X136938249Y-120116098D01*
X136764723Y-120121188D01*
X136171794Y-120080296D01*
X136163196Y-120080000D01*
X136092173Y-120080000D01*
X135997247Y-120061118D01*
X135993643Y-120060456D01*
X135898270Y-120044376D01*
X135891797Y-120041915D01*
X135871772Y-120036159D01*
X135864973Y-120034807D01*
X135805522Y-120010181D01*
X135775540Y-119997763D01*
X135772136Y-119996411D01*
X135681745Y-119962038D01*
X135675881Y-119958364D01*
X135657365Y-119948813D01*
X135650955Y-119946158D01*
X135570415Y-119892343D01*
X135567449Y-119890423D01*
X135485443Y-119839041D01*
X135480404Y-119834289D01*
X135464107Y-119821311D01*
X135458348Y-119817463D01*
X135389882Y-119748997D01*
X135387285Y-119746476D01*
X135316910Y-119680111D01*
X135312902Y-119674478D01*
X135299441Y-119658556D01*
X135294541Y-119653656D01*
X135240750Y-119573152D01*
X135238716Y-119570202D01*
X135182620Y-119491355D01*
X135179781Y-119485033D01*
X135169693Y-119466808D01*
X135165842Y-119461045D01*
X135128766Y-119371535D01*
X135127401Y-119368372D01*
X135087735Y-119280027D01*
X135086185Y-119273275D01*
X135079848Y-119253438D01*
X135077193Y-119247027D01*
X135058301Y-119152050D01*
X135057562Y-119148599D01*
X135035902Y-119054249D01*
X135035699Y-119047341D01*
X135033353Y-119026630D01*
X135032000Y-119019826D01*
X135032000Y-118923027D01*
X135031946Y-118919362D01*
X135029111Y-118822697D01*
X135030260Y-118815882D01*
X135032000Y-118795100D01*
X135032000Y-118788173D01*
X135050882Y-118693246D01*
X135051544Y-118689642D01*
X135064635Y-118612000D01*
X135067624Y-118594270D01*
X135070085Y-118587797D01*
X135075842Y-118567767D01*
X135077193Y-118560973D01*
X135114237Y-118471540D01*
X135115589Y-118468136D01*
X135149962Y-118377745D01*
X135153636Y-118371881D01*
X135163187Y-118353365D01*
X135165842Y-118346955D01*
X135219657Y-118266415D01*
X135221577Y-118263449D01*
X135272959Y-118181443D01*
X135277711Y-118176404D01*
X135290689Y-118160107D01*
X135294537Y-118154348D01*
X135363003Y-118085882D01*
X135365524Y-118083285D01*
X135431889Y-118012910D01*
X135437522Y-118008902D01*
X135453444Y-117995441D01*
X135458344Y-117990541D01*
X135538848Y-117936750D01*
X135541798Y-117934716D01*
X135620645Y-117878620D01*
X135626967Y-117875781D01*
X135645192Y-117865693D01*
X135650955Y-117861842D01*
X135740465Y-117824766D01*
X135743628Y-117823401D01*
X135831973Y-117783735D01*
X135838725Y-117782185D01*
X135858562Y-117775848D01*
X135864973Y-117773193D01*
X135959950Y-117754301D01*
X135963401Y-117753562D01*
X136057751Y-117731902D01*
X136064660Y-117731699D01*
X136085370Y-117729353D01*
X136092174Y-117728000D01*
X136188985Y-117728000D01*
X136192585Y-117727947D01*
X136231277Y-117726812D01*
X136244226Y-117727705D01*
G37*
G36*
X117194226Y-117727705D02*
G01*
X117202796Y-117728000D01*
X117273827Y-117728000D01*
X117305981Y-117734396D01*
X117321752Y-117736500D01*
X117876545Y-117774762D01*
X118047730Y-117803624D01*
X118264255Y-117885962D01*
X118460557Y-118008959D01*
X118572912Y-118114912D01*
X118629090Y-118167888D01*
X118696235Y-118262267D01*
X118763380Y-118356645D01*
X118858265Y-118567973D01*
X118910099Y-118793751D01*
X118916890Y-119025302D01*
X118878376Y-119253730D01*
X118796039Y-119470255D01*
X118673041Y-119666557D01*
X118514111Y-119835090D01*
X118325355Y-119969380D01*
X118114027Y-120064265D01*
X117888249Y-120116098D01*
X117714723Y-120121188D01*
X117121794Y-120080296D01*
X117113196Y-120080000D01*
X117042173Y-120080000D01*
X116947247Y-120061118D01*
X116943643Y-120060456D01*
X116848270Y-120044376D01*
X116841797Y-120041915D01*
X116821772Y-120036159D01*
X116814973Y-120034807D01*
X116755522Y-120010181D01*
X116725540Y-119997763D01*
X116722136Y-119996411D01*
X116631745Y-119962038D01*
X116625881Y-119958364D01*
X116607365Y-119948813D01*
X116600955Y-119946158D01*
X116520415Y-119892343D01*
X116517449Y-119890423D01*
X116435443Y-119839041D01*
X116430404Y-119834289D01*
X116414107Y-119821311D01*
X116408348Y-119817463D01*
X116339882Y-119748997D01*
X116337285Y-119746476D01*
X116266910Y-119680111D01*
X116262902Y-119674478D01*
X116249441Y-119658556D01*
X116244541Y-119653656D01*
X116190750Y-119573152D01*
X116188716Y-119570202D01*
X116132620Y-119491355D01*
X116129781Y-119485033D01*
X116119693Y-119466808D01*
X116115842Y-119461045D01*
X116078766Y-119371535D01*
X116077401Y-119368372D01*
X116037735Y-119280027D01*
X116036185Y-119273275D01*
X116029848Y-119253438D01*
X116027193Y-119247027D01*
X116008301Y-119152050D01*
X116007562Y-119148599D01*
X115985902Y-119054249D01*
X115985699Y-119047341D01*
X115983353Y-119026630D01*
X115982000Y-119019826D01*
X115982000Y-118923027D01*
X115981946Y-118919362D01*
X115979111Y-118822697D01*
X115980260Y-118815882D01*
X115982000Y-118795100D01*
X115982000Y-118788173D01*
X116000882Y-118693246D01*
X116001544Y-118689642D01*
X116014635Y-118612000D01*
X116017624Y-118594270D01*
X116020085Y-118587797D01*
X116025842Y-118567767D01*
X116027193Y-118560973D01*
X116064237Y-118471540D01*
X116065589Y-118468136D01*
X116099962Y-118377745D01*
X116103636Y-118371881D01*
X116113187Y-118353365D01*
X116115842Y-118346955D01*
X116169657Y-118266415D01*
X116171577Y-118263449D01*
X116222959Y-118181443D01*
X116227711Y-118176404D01*
X116240689Y-118160107D01*
X116244537Y-118154348D01*
X116313003Y-118085882D01*
X116315524Y-118083285D01*
X116381889Y-118012910D01*
X116387522Y-118008902D01*
X116403444Y-117995441D01*
X116408344Y-117990541D01*
X116488848Y-117936750D01*
X116491798Y-117934716D01*
X116570645Y-117878620D01*
X116576967Y-117875781D01*
X116595192Y-117865693D01*
X116600955Y-117861842D01*
X116690465Y-117824766D01*
X116693628Y-117823401D01*
X116781973Y-117783735D01*
X116788725Y-117782185D01*
X116808562Y-117775848D01*
X116814973Y-117773193D01*
X116909950Y-117754301D01*
X116913401Y-117753562D01*
X117007751Y-117731902D01*
X117014660Y-117731699D01*
X117035370Y-117729353D01*
X117042174Y-117728000D01*
X117138985Y-117728000D01*
X117142585Y-117727947D01*
X117181277Y-117726812D01*
X117194226Y-117727705D01*
G37*
G36*
X161814000Y-118612000D02*
G01*
X160512000Y-118612000D01*
X160512000Y-117610000D01*
X161814000Y-117610000D01*
X161814000Y-118612000D01*
G37*
G36*
X159401000Y-118611000D02*
G01*
X158099000Y-118611000D01*
X158099000Y-117609000D01*
X159401000Y-117609000D01*
X159401000Y-118611000D01*
G37*
G36*
X141558104Y-115473585D02*
G01*
X141726626Y-115543389D01*
X141878291Y-115644728D01*
X142007272Y-115773709D01*
X142108611Y-115925374D01*
X142178415Y-116093896D01*
X142214000Y-116272797D01*
X142214000Y-116455203D01*
X142178415Y-116634104D01*
X142108611Y-116802626D01*
X142007272Y-116954291D01*
X141878291Y-117083272D01*
X141726626Y-117184611D01*
X141558104Y-117254415D01*
X141379203Y-117290000D01*
X141196797Y-117290000D01*
X141017896Y-117254415D01*
X140849374Y-117184611D01*
X140697709Y-117083272D01*
X140568728Y-116954291D01*
X140467389Y-116802626D01*
X140397585Y-116634104D01*
X140362000Y-116455203D01*
X140362000Y-116272797D01*
X140397585Y-116093896D01*
X140467389Y-115925374D01*
X140568728Y-115773709D01*
X140697709Y-115644728D01*
X140849374Y-115543389D01*
X141017896Y-115473585D01*
X141196797Y-115438000D01*
X141379203Y-115438000D01*
X141558104Y-115473585D01*
G37*
G36*
X122508104Y-115473585D02*
G01*
X122676626Y-115543389D01*
X122828291Y-115644728D01*
X122957272Y-115773709D01*
X123058611Y-115925374D01*
X123128415Y-116093896D01*
X123164000Y-116272797D01*
X123164000Y-116455203D01*
X123128415Y-116634104D01*
X123058611Y-116802626D01*
X122957272Y-116954291D01*
X122828291Y-117083272D01*
X122676626Y-117184611D01*
X122508104Y-117254415D01*
X122329203Y-117290000D01*
X122146797Y-117290000D01*
X121967896Y-117254415D01*
X121799374Y-117184611D01*
X121647709Y-117083272D01*
X121518728Y-116954291D01*
X121417389Y-116802626D01*
X121347585Y-116634104D01*
X121312000Y-116455203D01*
X121312000Y-116272797D01*
X121347585Y-116093896D01*
X121417389Y-115925374D01*
X121518728Y-115773709D01*
X121647709Y-115644728D01*
X121799374Y-115543389D01*
X121967896Y-115473585D01*
X122146797Y-115438000D01*
X122329203Y-115438000D01*
X122508104Y-115473585D01*
G37*
G36*
X159401000Y-117182000D02*
G01*
X158099000Y-117182000D01*
X158099000Y-116180000D01*
X159401000Y-116180000D01*
X159401000Y-117182000D01*
G37*
G36*
X161814000Y-117182000D02*
G01*
X160512000Y-117182000D01*
X160512000Y-116180000D01*
X161814000Y-116180000D01*
X161814000Y-117182000D01*
G37*
G36*
X189260442Y-115311518D02*
G01*
X189326627Y-115318037D01*
X189496466Y-115369557D01*
X189652991Y-115453222D01*
X189677803Y-115473585D01*
X189790186Y-115565814D01*
X189854948Y-115644728D01*
X189902778Y-115703009D01*
X189986443Y-115859534D01*
X190037963Y-116029373D01*
X190055359Y-116206000D01*
X190037963Y-116382627D01*
X189986443Y-116552466D01*
X189902778Y-116708991D01*
X189873448Y-116744729D01*
X189790186Y-116846186D01*
X189688729Y-116929448D01*
X189652991Y-116958778D01*
X189496466Y-117042443D01*
X189326627Y-117093963D01*
X189260442Y-117100482D01*
X189194260Y-117107000D01*
X188105740Y-117107000D01*
X188039558Y-117100482D01*
X187973373Y-117093963D01*
X187803534Y-117042443D01*
X187647009Y-116958778D01*
X187611271Y-116929448D01*
X187509814Y-116846186D01*
X187426552Y-116744729D01*
X187397222Y-116708991D01*
X187313557Y-116552466D01*
X187262037Y-116382627D01*
X187244641Y-116206000D01*
X187262037Y-116029373D01*
X187313557Y-115859534D01*
X187397222Y-115703009D01*
X187445052Y-115644728D01*
X187509814Y-115565814D01*
X187622197Y-115473585D01*
X187647009Y-115453222D01*
X187803534Y-115369557D01*
X187973373Y-115318037D01*
X188039558Y-115311518D01*
X188105740Y-115305000D01*
X189194260Y-115305000D01*
X189260442Y-115311518D01*
G37*
G36*
X184760442Y-115311518D02*
G01*
X184826627Y-115318037D01*
X184996466Y-115369557D01*
X185152991Y-115453222D01*
X185177803Y-115473585D01*
X185290186Y-115565814D01*
X185354948Y-115644728D01*
X185402778Y-115703009D01*
X185486443Y-115859534D01*
X185537963Y-116029373D01*
X185555359Y-116206000D01*
X185537963Y-116382627D01*
X185486443Y-116552466D01*
X185402778Y-116708991D01*
X185373448Y-116744729D01*
X185290186Y-116846186D01*
X185188729Y-116929448D01*
X185152991Y-116958778D01*
X184996466Y-117042443D01*
X184826627Y-117093963D01*
X184760442Y-117100482D01*
X184694260Y-117107000D01*
X183605740Y-117107000D01*
X183539558Y-117100482D01*
X183473373Y-117093963D01*
X183303534Y-117042443D01*
X183147009Y-116958778D01*
X183111271Y-116929448D01*
X183009814Y-116846186D01*
X182926552Y-116744729D01*
X182897222Y-116708991D01*
X182813557Y-116552466D01*
X182762037Y-116382627D01*
X182744641Y-116206000D01*
X182762037Y-116029373D01*
X182813557Y-115859534D01*
X182897222Y-115703009D01*
X182945052Y-115644728D01*
X183009814Y-115565814D01*
X183122197Y-115473585D01*
X183147009Y-115453222D01*
X183303534Y-115369557D01*
X183473373Y-115318037D01*
X183539558Y-115311518D01*
X183605740Y-115305000D01*
X184694260Y-115305000D01*
X184760442Y-115311518D01*
G37*
G36*
X161814000Y-113882000D02*
G01*
X160512000Y-113882000D01*
X160512000Y-112880000D01*
X161814000Y-112880000D01*
X161814000Y-113882000D01*
G37*
G36*
X159401000Y-113882000D02*
G01*
X158099000Y-113882000D01*
X158099000Y-112880000D01*
X159401000Y-112880000D01*
X159401000Y-113882000D01*
G37*
M02*
